<svg width="2943" height="522" viewBox="0 0 2943 522" fill="none" xmlns="http://www.w3.org/2000/svg">
<path d="M226.497 235.717C226.734 213.567 214.714 201.425 202.636 189.758C184.636 172.226 184.399 172.582 204.826 158.9C213.826 152.859 221.464 145.219 227.977 136.513C229.635 134.262 230.464 131.36 227.918 129.228C225.194 126.859 222.944 128.991 221.109 130.946C218.148 134.085 215.365 137.342 212.405 140.54C173.149 183.124 110.21 157.538 93.987 118.33C88.7767 105.774 84.3952 93.5143 86.3491 79.4776C90.6121 48.0283 119.092 28.5428 151.597 37.2491C163.025 40.3289 168.294 39.6181 174.038 28.3651C185.643 5.74052 208.32 -3.73573 230.937 2.1277C254.147 8.16881 270.607 28.2466 270.667 53.0626C270.963 177.083 271.2 301.044 270.548 425.065C270.311 468.182 254.443 491.695 223.299 500.993C191.682 510.47 160.183 499.572 143.959 473.512C134.841 458.883 136.025 454.619 151.361 446.149C210.392 413.456 216.846 337.35 163.558 302.229C150.591 293.7 136.085 290.087 120.749 289.673C116.546 289.554 110.506 289.258 110.566 294.707C110.625 301.044 117.019 298.557 120.868 298.794C170.426 301.814 203.938 350.262 187.182 396.458C176.169 426.842 150.709 441.174 120.927 447.038C95.7041 451.954 72.1389 445.972 55.2644 425.124C37.9753 403.743 34.482 379.283 45.2581 353.815C48.8698 345.227 47.0343 341.911 39.1595 337.765C-11.4049 311.113 -13.418 247.681 35.5478 218.246C45.2581 212.382 45.3765 209.184 38.8635 200.359C16.1864 169.561 32.3505 127.214 69.0009 118.804C78.0598 116.731 84.1584 118.449 88.8359 127.392C99.5527 148.003 116.664 161.862 138.986 167.784C174.57 177.201 203.168 195.088 219.747 229.202C220.576 230.861 222.53 231.986 226.497 235.717Z" fill="#57BCD4"/>
<path d="M553.804 211.79C553.745 224.287 553.982 236.961 546.936 247.859C541.488 256.269 543.975 262.429 551.258 266.871C583.231 286.415 586.25 326.453 560.317 360.093C543.265 382.303 522.009 399.597 497.378 412.331C471.385 425.776 453.445 445.32 441.603 472.387C419.044 523.973 397.729 531.969 344.855 511.417C326.205 504.192 308.324 495.248 293.936 480.916C282.686 469.722 283.811 463.74 298.376 457.343C333.428 441.944 367.592 425.183 399.269 403.388C454.037 365.661 481.451 314.548 481.687 247.681C481.865 199.589 473.398 153.511 457.234 108.558C451.609 92.9813 454.984 87.7102 471.74 84.4527C493.766 80.1292 516.384 91.7968 530.712 115.487C548.771 145.101 551.021 178.564 553.804 211.79Z" fill="#EC1455"/>
<path d="M290.797 412.272C289.554 392.846 289.554 373.419 290.975 353.934C294.231 351.802 294.231 349.67 290.975 347.537C290.975 330.243 290.975 312.949 290.916 295.655C294.942 292.812 294.942 289.673 291.685 286.179C300.507 281.263 310.514 283.513 319.869 281.737C378.782 270.839 407.498 234.888 410.044 168.199C410.34 159.73 410.103 151.26 410.103 142.969C412.531 142.969 414.07 142.554 414.366 143.028C446.99 190.113 462.385 241.403 449.3 298.498C437.103 351.979 367.058 412.627 313.06 417.839C306.665 418.432 300.152 419.024 294.113 415.589C292.988 414.463 291.922 413.338 290.797 412.272Z" fill="#EC1455"/>
<path d="M423.426 122.772C413.597 111.578 405.486 102.28 397.315 93.0995C372.921 65.7368 343.553 50.3379 305.896 56.0828C293.048 58.0373 287.956 55.2537 288.903 40.447C290.916 9.88611 297.015 3.78576 328.455 6.80632C389.322 12.7882 432.248 63.4862 423.426 122.772Z" fill="#EC1455"/>
<path d="M394.709 165.179C393.644 199.115 384.525 227.248 354.803 244.779C349.947 247.622 344.323 252.775 338.757 248.096C332.836 243.121 335.974 236.073 338.461 230.209C340.77 224.82 343.849 219.785 346.869 214.692C359.125 193.963 367.296 171.812 366.822 147.529C366.171 114.836 337.454 93.3367 302.995 97.8971C298.791 98.4301 290.087 108.38 288.607 94.9358C287.541 85.1634 291.034 79.5961 302.58 78.3523C349.592 73.4957 384.821 99.2001 392.874 145.811C394.117 152.741 394.236 159.789 394.709 165.179Z" fill="#EC1455"/>
<path d="M290.798 243.89C290.739 226.655 290.739 209.421 290.679 192.186C292.692 189.876 294.646 187.507 296.659 185.197C312.172 184.131 324.961 166.659 324.014 147.766C323.718 142.376 323.777 135.98 316.79 135.21C311.225 134.617 308.383 139.592 307.021 144.39C303.705 156.235 300.863 168.14 297.844 180.044C297.311 175.78 295.534 172.7 290.679 172.641C290.679 170.509 290.679 168.376 290.62 166.244C293.936 164.408 294.528 162.276 291.212 159.789C290.916 150.372 294.173 141.725 297.784 133.433C302.166 123.246 306.488 109.979 320.994 113.533C334.612 116.849 344.559 126.918 346.395 141.784C347.698 152.385 347.165 163.283 343.79 173.766C334.672 202.195 320.343 228.018 304.001 252.774C301.692 256.328 299.324 260.178 294.173 260.118C293.344 254.61 296.363 248.392 290.798 243.89Z" fill="#EC1455"/>
<path d="M296.659 185.197C294.646 187.507 292.692 189.876 290.679 192.186C290.679 185.671 290.62 179.156 290.62 172.7C295.475 172.759 297.252 175.78 297.784 180.104C297.429 181.821 297.015 183.539 296.659 185.197Z" fill="#EC1455"/>
<path d="M290.797 243.891C296.363 248.333 293.403 254.611 294.113 260.059C286.061 256.151 291.508 249.399 290.797 243.891Z" fill="#EC1455"/>
<path d="M291.686 286.238C294.942 289.673 294.942 292.871 290.916 295.714C290.146 292.456 289.554 289.258 291.686 286.238Z" fill="#EC1455"/>
<path d="M291.212 159.848C294.469 162.336 293.936 164.468 290.62 166.304C290.798 164.172 290.975 162.04 291.212 159.848Z" fill="#EC1455"/>
<path d="M290.976 347.537C294.232 349.67 294.232 351.802 290.976 353.934C290.976 351.802 290.976 349.67 290.976 347.537Z" fill="#EC1455"/>
<path d="M290.797 412.272C291.922 413.397 293.047 414.463 294.113 415.588C291.804 415.648 290.501 414.759 290.797 412.272Z" fill="#EC1455"/>
<path d="M1688.39 420.34V456.199H1366.7V427.624L1626.74 99.8582H1370.62V64H1681.67V92.5745L1422.18 420.34H1688.39Z" fill="#EC1455"/>
<path d="M1874.3 459C1845.9 459 1820.31 452.65 1797.52 439.95C1774.73 426.877 1756.79 408.948 1743.72 386.163C1730.64 363.378 1724.1 337.605 1724.1 308.844C1724.1 280.083 1730.64 254.31 1743.72 231.525C1756.79 208.74 1774.73 190.998 1797.52 178.298C1820.31 165.598 1845.9 159.248 1874.3 159.248C1902.69 159.248 1928.29 165.598 1951.08 178.298C1973.87 190.998 1991.62 208.74 2004.32 231.525C2017.4 254.31 2023.94 280.083 2023.94 308.844C2023.94 337.605 2017.4 363.378 2004.32 386.163C1991.62 408.948 1973.87 426.877 1951.08 439.95C1928.29 452.65 1902.69 459 1874.3 459ZM1874.3 423.702C1895.22 423.702 1913.9 419.033 1930.34 409.695C1947.16 399.983 1960.23 386.35 1969.57 368.794C1978.91 351.239 1983.58 331.255 1983.58 308.844C1983.58 286.433 1978.91 266.449 1969.57 248.894C1960.23 231.338 1947.16 217.891 1930.34 208.553C1913.9 198.842 1895.22 193.986 1874.3 193.986C1853.38 193.986 1834.51 198.842 1817.7 208.553C1801.26 217.891 1788.18 231.338 1778.46 248.894C1769.12 266.449 1764.45 286.433 1764.45 308.844C1764.45 331.255 1769.12 351.239 1778.46 368.794C1788.18 386.35 1801.26 399.983 1817.7 409.695C1834.51 419.033 1853.38 423.702 1874.3 423.702Z" fill="#EC1455"/>
<path d="M2225.67 459C2197.27 459 2171.68 452.65 2148.89 439.95C2126.1 426.877 2108.16 408.948 2095.08 386.163C2082.01 363.378 2075.47 337.605 2075.47 308.844C2075.47 280.083 2082.01 254.31 2095.08 231.525C2108.16 208.74 2126.1 190.998 2148.89 178.298C2171.68 165.598 2197.27 159.248 2225.67 159.248C2254.06 159.248 2279.66 165.598 2302.45 178.298C2325.24 190.998 2342.99 208.74 2355.69 231.525C2368.77 254.31 2375.3 280.083 2375.3 308.844C2375.3 337.605 2368.77 363.378 2355.69 386.163C2342.99 408.948 2325.24 426.877 2302.45 439.95C2279.66 452.65 2254.06 459 2225.67 459ZM2225.67 423.702C2246.59 423.702 2265.27 419.033 2281.71 409.695C2298.52 399.983 2311.6 386.35 2320.94 368.794C2330.28 351.239 2334.95 331.255 2334.95 308.844C2334.95 286.433 2330.28 266.449 2320.94 248.894C2311.6 231.338 2298.52 217.891 2281.71 208.553C2265.27 198.842 2246.59 193.986 2225.67 193.986C2204.74 193.986 2185.88 198.842 2169.06 208.553C2152.62 217.891 2139.55 231.338 2129.83 248.894C2120.49 266.449 2115.82 286.433 2115.82 308.844C2115.82 331.255 2120.49 351.239 2129.83 368.794C2139.55 386.35 2152.62 399.983 2169.06 409.695C2185.88 419.033 2204.74 423.702 2225.67 423.702Z" fill="#EC1455"/>
<path d="M2824.19 159.248C2861.18 159.248 2890.13 169.894 2911.06 191.184C2932.35 212.475 2943 243.851 2943 285.312V456.199H2903.21V289.234C2903.21 258.605 2895.74 235.26 2880.79 219.199C2866.22 203.137 2845.48 195.106 2818.58 195.106C2787.95 195.106 2763.85 204.631 2746.29 223.681C2728.73 242.357 2719.95 268.317 2719.95 301.56V456.199H2680.15V289.234C2680.15 258.605 2672.68 235.26 2657.74 219.199C2643.17 203.137 2622.24 195.106 2594.97 195.106C2564.7 195.106 2540.61 204.631 2522.67 223.681C2505.11 242.357 2496.33 268.317 2496.33 301.56V456.199H2456.54V161.489H2494.65V215.277C2505.11 197.348 2519.68 183.527 2538.36 173.816C2557.05 164.104 2578.53 159.248 2602.81 159.248C2627.47 159.248 2648.77 164.478 2666.7 174.936C2685.01 185.395 2698.65 200.896 2707.62 221.44C2718.45 202.017 2733.96 186.889 2754.13 176.057C2774.68 164.851 2798.03 159.248 2824.19 159.248Z" fill="#EC1455"/>
<path d="M916.597 456.199L827.025 330.135C816.948 331.255 806.498 331.816 795.674 331.816H690.427V456.199H649V64H795.674C845.685 64 884.873 75.9527 913.238 99.8582C941.602 123.764 955.784 156.634 955.784 198.468C955.784 229.097 947.947 255.057 932.272 276.348C916.97 297.265 894.95 312.392 866.212 321.731L961.942 456.199H916.597ZM794.555 296.518C833.369 296.518 863.04 287.927 883.567 270.745C904.094 253.563 914.357 229.47 914.357 198.468C914.357 166.719 904.094 142.44 883.567 125.631C863.04 108.449 833.369 99.8582 794.555 99.8582H690.427V296.518H794.555Z" fill="#57BCD4"/>
<path d="M1165.53 459C1137.16 459 1111.6 452.65 1088.83 439.95C1066.06 426.877 1048.15 408.948 1035.09 386.163C1022.02 363.378 1015.49 337.605 1015.49 308.844C1015.49 280.083 1022.02 254.31 1035.09 231.525C1048.15 208.74 1066.06 190.998 1088.83 178.298C1111.6 165.598 1137.16 159.248 1165.53 159.248C1193.89 159.248 1219.46 165.598 1242.22 178.298C1264.99 190.998 1282.72 208.74 1295.41 231.525C1308.47 254.31 1315 280.083 1315 308.844C1315 337.605 1308.47 363.378 1295.41 386.163C1282.72 408.948 1264.99 426.877 1242.22 439.95C1219.46 452.65 1193.89 459 1165.53 459ZM1165.53 423.702C1186.43 423.702 1205.09 419.033 1221.51 409.695C1238.3 399.983 1251.37 386.35 1260.7 368.794C1270.03 351.239 1274.69 331.255 1274.69 308.844C1274.69 286.433 1270.03 266.449 1260.7 248.894C1251.37 231.338 1238.3 217.891 1221.51 208.553C1205.09 198.842 1186.43 193.986 1165.53 193.986C1144.63 193.986 1125.78 198.842 1108.98 208.553C1092.56 217.891 1079.5 231.338 1069.8 248.894C1060.47 266.449 1055.8 286.433 1055.8 308.844C1055.8 331.255 1060.47 351.239 1069.8 368.794C1079.5 386.35 1092.56 399.983 1108.98 409.695C1125.78 419.033 1144.63 423.702 1165.53 423.702Z" fill="#57BCD4"/>
</svg>
