<svg width="167" height="167" viewBox="0 0 167 167" fill="none" xmlns="http://www.w3.org/2000/svg">
<circle cx="69" cy="93" r="69" fill="#D52F52"/>
<path d="M154.024 72.294C155.547 92.4362 126.148 130.608 77.6044 112.382" stroke="#4DD62B" stroke-width="4" stroke-linecap="round"/>
<path d="M81.4517 110.37L79.0754 116.663L70.1369 108.879L81.4517 110.37Z" fill="#4DD62B"/>
<circle cx="82" cy="130" r="37" fill="#FFC197"/>
<path d="M88 128.5C90.5 129.167 96.2 129.6 99 126C98.1667 128.667 94.8 132.9 88 128.5Z" fill="#BC7646"/>
<path d="M110 122C111.167 122 113.7 121.4 114.5 119C114.5 120.5 113.6 123.2 110 122Z" fill="#BC7646"/>
<path d="M113 134C113.4 132.8 110.833 128.167 109.5 126L110.5 135.5C111.167 135.5 112.6 135.2 113 134Z" fill="#BC7646"/>
<path d="M101.5 145.5C103.333 146 107.6 146.5 110 144.5C108.667 146.167 105.1 148.7 101.5 145.5Z" fill="#BC7646"/>
<path d="M87.5 109.5C79.5 111.5 70.5 110.333 67 109.5C67 117.9 49.6667 126.333 41 129.5C40.1667 125.667 38.5 116.6 38.5 111C38.5 105.4 50.5 100.667 56.5 99C58.5 95.8333 65.5 88.6 77.5 85C92.5 80.5 109.5 95 113.5 95C116.7 95 114.833 91.3334 113.5 89.5C114.667 89.8334 117.5 91.4 119.5 95C122 99.5 116 109.5 109.5 111C103 112.5 97.5 107 87.5 109.5Z" fill="#FFD277"/>
<circle cx="45" cy="134" r="7" fill="#FFC197"/>
<path d="M60.8633 57.4994C61.0185 60.9792 63.6576 69.6789 64.4338 70.3555C65.21 71.0322 105.417 74.6087 114.577 68.2289C114.577 68.2289 118.458 57.0161 114.577 54.8895C110.696 52.7629 60.8633 57.4994 60.8633 57.4994Z" fill="#74BEC9"/>
<path d="M128.703 48.2197C128.703 49.3796 129.79 56.5327 128.703 59.1426C127.617 61.7525 130.566 61.6558 130.566 61.6558V48.2197H128.703Z" fill="#410F0B"/>
<path d="M44.5631 53.2463C46.5812 52.6663 80.5789 43 85.8571 43C91.1353 43 136 43 136 46.0932C136 49.1864 107.746 61.5593 97.5002 62.7192C86.9438 63.9758 22.5189 59.336 44.5631 53.2463Z" fill="#94CACE"/>
<path d="M129.48 67.7456C129.48 67.7456 125.133 65.0391 125.754 63.5891C126.375 62.0425 128.393 59.5293 129.48 59.5293C130.567 59.5293 132.274 60.4959 132.274 62.5259C132.274 64.5558 129.48 67.7456 129.48 67.7456Z" fill="url(#paint0_linear)"/>
<path d="M53.4996 95C35.4996 85.8333 9.69958 59.5 50.4996 27.5" stroke="#4DD62B" stroke-width="4" stroke-linecap="round"/>
<path d="M63.9999 21.7354C77.9124 7.09059 125.942 3.27735 145 51.5" stroke="#4DD62B" stroke-width="4" stroke-linecap="round"/>
<path d="M47.0952 38L39 30.8L56 22L47.0952 38Z" fill="#4DD62B"/>
<path d="M138.278 48.504L148.341 44.5489L148.704 63.5977L138.278 48.504Z" fill="#4DD62B"/>
<defs>
<linearGradient id="paint0_linear" x1="125.652" y1="63.6268" x2="132.321" y2="63.6268" gradientUnits="userSpaceOnUse">
<stop stop-color="#ED588D"/>
<stop offset="1" stop-color="#F58279"/>
</linearGradient>
</defs>
</svg>
