<svg width="166" height="169" viewBox="0 0 166 169" fill="none" xmlns="http://www.w3.org/2000/svg">
<circle cx="69" cy="94" r="69" fill="#74BEC9"/>
<path d="M50.2 130.4C72.4018 130.4 90.4 112.402 90.4 90.2C90.4 67.9982 72.4018 50 50.2 50C27.9981 50 10 67.9982 10 90.2C10 112.402 27.9981 130.4 50.2 130.4Z" fill="url(#paint0_linear)"/>
<path d="M50.2003 122.005C67.7656 122.005 82.0051 107.765 82.0051 90.1999C82.0051 72.6346 67.7656 58.3951 50.2003 58.3951C32.635 58.3951 18.3955 72.6346 18.3955 90.1999C18.3955 107.765 32.635 122.005 50.2003 122.005Z" fill="#E5B35A"/>
<path d="M44.8722 86.6482C45.3566 84.8723 44.6301 83.6614 43.9036 82.4506C42.7735 80.6747 42.7735 80.6747 44.7108 80.0289C45.518 79.706 46.3253 79.3024 47.0518 78.6566C47.2132 78.4952 47.3747 78.253 47.2132 78.0916C47.0518 77.8494 46.8096 78.0108 46.6482 78.0916C46.3253 78.253 46.0831 78.4952 45.7602 78.6566C41.724 81.3205 37.2036 78.0108 36.7192 74.459C36.5578 73.3289 36.4771 72.2795 36.8807 71.1494C37.8494 68.7277 40.5132 67.6783 42.9349 69.0506C43.8228 69.5349 44.2265 69.6157 44.953 68.8084C46.3253 67.194 48.3433 66.9518 50.0385 67.8398C51.8144 68.8084 52.7024 70.7458 52.218 72.7638C49.7156 82.7735 47.2939 92.7024 44.7108 102.631C43.8229 106.102 42.0469 107.636 39.3831 107.798C36.6385 107.959 34.3783 106.425 33.571 104.004C33.1674 102.631 33.3289 102.308 34.7012 101.986C40.1096 100.533 42.1277 94.559 38.5759 90.6843C37.6879 89.7157 36.6385 89.1506 35.3469 88.8277C35.0241 88.747 34.5397 88.5855 34.459 88.9891C34.2975 89.4735 34.8626 89.3928 35.1855 89.5542C39.1409 90.765 40.8361 95.3663 38.5759 98.7566C37.0421 101.017 34.7819 101.582 32.1988 101.501C30.1 101.42 28.3241 100.452 27.3554 98.4337C26.3867 96.3349 26.6289 94.3169 28.0012 92.5409C28.4855 91.8952 28.4048 91.653 27.8397 91.1687C24.2879 88.0205 25.418 82.8542 29.9385 81.4819C30.8265 81.2397 30.9072 80.9169 30.5843 80.1096C29.3735 77.2036 31.553 74.1361 34.6204 74.1361C35.4277 74.1361 35.8313 74.3783 36.0734 75.1855C36.5578 77.0422 37.6072 78.4952 39.3024 79.4638C41.9662 80.9169 43.9036 82.9349 44.5494 86.0024C44.5494 86.1638 44.6301 86.3253 44.8722 86.6482ZM71.753 83.0964C71.1072 80.9169 69.4927 79.5446 67.6361 79.3831C66.2638 79.3024 65.8602 79.6253 66.0216 80.9976C66.4253 84.953 66.1831 88.8277 65.2144 92.7024C63.8421 98.1108 60.6132 101.663 55.4469 103.6C52.4602 104.73 49.3927 105.376 46.2445 105.941C44.953 106.183 44.7108 106.587 45.4373 107.717C46.3253 109.17 47.5361 110.219 48.9084 111.188C52.7831 113.933 54.6397 113.69 57.465 109.977C58.9987 108.04 60.7747 106.829 63.1156 106.264C65.3759 105.699 67.3939 104.73 69.2506 103.358C71.9951 101.178 72.5602 97.8687 70.3807 95.6891C69.8963 95.2048 69.8156 94.6397 70.3807 94.0747C71.1879 93.3482 71.4301 92.2988 71.6722 91.3301C72.1566 88.5855 72.6409 85.841 71.753 83.0964ZM46.7289 102.47C47.1325 102.873 47.6975 102.954 48.1819 103.035C52.6216 103.681 59.4831 100.21 61.5012 96.1735C63.6807 91.8144 63.5192 87.3747 61.824 83.0157C61.824 82.9349 61.6626 82.9349 61.5012 82.9349C61.3397 83.5807 61.1783 84.3072 61.0168 84.953C59.4831 90.2807 56.4156 92.541 51.4915 92.2988C50.6843 92.2181 49.9578 91.8952 49.1506 92.0566C49.312 92.3795 49.312 92.6217 48.9084 92.7831C48.5855 94.1554 48.1819 95.5277 47.859 96.9807C48.1012 97.2229 48.0204 97.3843 47.6975 97.465C47.2132 98.9988 46.8096 100.533 46.4867 102.147C46.5674 102.308 46.6482 102.389 46.7289 102.47ZM57.7072 70.3422C55.2048 69.4542 54.6397 69.8578 53.8325 72.2795C53.4289 73.4904 53.8325 73.8132 54.8819 73.894C58.0301 74.2169 60.0481 75.9928 61.5012 78.7373C61.9855 79.6253 62.4698 80.5132 63.0349 81.6434C64.8915 76.9614 62.4698 72.0373 57.7072 70.3422ZM60.0482 82.7735C60.371 78.8988 58.0301 76.0735 54.1554 75.5084C53.1867 75.347 52.7831 75.7506 52.7024 76.5578C52.5409 77.6879 53.4289 77.0422 53.8325 77.1229C56.6578 77.4458 58.5951 79.7867 57.9494 82.3699C57.465 84.3072 56.4156 85.9217 54.9626 87.3747C54.6397 87.6976 54.2361 88.1012 53.9939 88.4241C53.671 88.8277 53.2674 89.312 53.6711 89.8771C53.9939 90.3614 54.559 90.0385 55.0433 89.9578C57.7879 89.1506 59.0795 87.0518 59.8867 84.3879C59.8867 83.9036 60.0482 83.3385 60.0482 82.7735ZM49.8771 89.9578C50.2807 90.0385 50.5229 89.7964 50.8458 89.5542C52.6217 87.859 54.3168 86.0831 55.6084 83.9843C56.0927 83.1771 56.3349 82.3699 56.4964 81.4819C56.6578 80.2711 56.012 79.2217 55.0433 78.7373C53.9132 78.1723 53.3482 79.141 52.7831 79.8675C52.2988 80.4325 51.8951 81.0783 51.7337 81.8855C51.9759 82.1277 51.8951 82.2891 51.5723 82.3699C51.5723 82.5313 51.4915 82.6928 51.4108 82.8542C51.8144 82.9349 51.8951 83.2578 51.8144 83.5807C52.2987 82.6928 52.7831 81.8048 53.2674 80.9169C53.5096 80.594 53.8325 80.1904 54.2361 80.3518C54.8012 80.594 54.6397 81.0783 54.559 81.4819C54.2361 83.0156 52.8638 84.1458 51.5723 83.9036C51.3301 84.065 51.1686 84.2265 50.9265 84.3072C50.6036 85.6795 50.2 87.0518 49.8771 88.5048C50.2807 89.0699 49.8771 89.5542 49.8771 89.9578ZM51.7337 83.6614C51.8144 83.3385 51.7337 83.0157 51.3301 82.9349C51.1686 83.4193 51.0879 83.9843 50.9265 84.4687C51.1686 84.3072 51.3301 84.1458 51.5723 84.065C51.5723 83.9036 51.653 83.7422 51.7337 83.6614ZM49.8771 89.9578C49.9578 89.4735 50.2807 89.0699 49.9578 88.5855C49.8771 89.0699 49.2313 89.5542 49.8771 89.9578ZM51.4108 82.3699C51.7337 82.2891 51.8144 82.1277 51.5723 81.8855C51.5723 82.047 51.4915 82.2084 51.4108 82.3699Z" fill="#664407"/>
<path d="M45.1154 86.7289C45.5998 84.953 44.8732 83.7422 44.1467 82.5313C43.0166 80.7554 43.0166 80.7554 44.954 80.1096C45.7612 79.7867 46.5684 79.3831 47.2949 78.7373C47.4564 78.5759 47.6178 78.3337 47.4564 78.1723C47.2949 77.9301 47.0527 78.0916 46.8913 78.1723C46.5684 78.3337 46.3263 78.5759 46.0034 78.7373C41.9672 81.4012 37.4467 78.0916 36.9624 74.5398C36.801 73.4096 36.7202 72.3602 37.1239 71.2301C38.0925 68.8084 40.7564 67.759 43.1781 69.1313C44.066 69.6157 44.4696 69.6964 45.1961 68.8891C46.5684 67.2747 48.5865 67.0325 50.2817 67.9205C52.0576 68.8891 52.9455 70.8265 52.4612 72.8446C49.9588 82.8542 47.5371 92.7831 44.954 102.712C44.066 106.183 42.2901 107.717 39.6262 107.878C36.8817 108.04 34.6214 106.506 33.8142 104.084C33.4106 102.712 33.572 102.389 34.9443 102.066C40.3528 100.613 42.3708 94.6397 38.819 90.765C37.9311 89.7964 36.8817 89.2313 35.5901 88.9084C35.2672 88.8277 34.7829 88.6663 34.7022 89.0699C34.5407 89.5542 35.1058 89.4735 35.4287 89.6349C39.3841 90.8458 41.0793 95.447 38.819 98.8373C37.2853 101.098 35.025 101.663 32.4419 101.582C30.3431 101.501 28.5672 100.533 27.5985 98.5144C26.6299 96.4156 26.872 94.3976 28.2443 92.6217C28.7287 91.9759 28.6479 91.7337 28.0829 91.2494C24.5311 88.1012 25.6612 82.9349 30.1817 81.5626C31.0696 81.3205 31.1503 80.9976 30.8275 80.1904C29.6166 77.2843 31.7961 74.2169 34.8636 74.2169C35.6708 74.2169 36.0745 74.459 36.3166 75.2663C36.801 77.1229 37.8504 78.5759 39.5455 79.5446C42.2094 80.9976 44.1467 83.0156 44.7925 86.0831C44.7118 86.2446 44.8732 86.3253 45.1154 86.7289ZM71.9961 83.1771C71.3503 80.9976 69.7359 79.6253 67.8793 79.4638C66.507 79.3831 66.1033 79.706 66.2648 81.0783C66.6684 85.0337 66.4262 88.9084 65.4576 92.7831C64.0853 98.1915 60.8564 101.743 55.6901 103.681C52.7034 104.811 49.6359 105.457 46.4877 106.022C45.1961 106.264 44.954 106.667 45.6805 107.798C46.5684 109.251 47.7793 110.3 49.1516 111.269C53.0263 114.013 54.8829 113.771 57.7082 110.058C59.2419 108.12 61.0178 106.91 63.3588 106.345C65.619 105.779 67.6371 104.811 69.4937 103.439C72.2383 101.259 72.8034 97.9494 70.6239 95.7699C70.1395 95.2855 70.0588 94.7205 70.6239 94.1554C71.4311 93.4289 71.6732 92.3795 71.9154 91.4108C72.319 88.6663 72.8034 85.9217 71.9961 83.1771ZM46.8913 102.551C47.2949 102.954 47.86 103.035 48.3443 103.116C52.7841 103.761 59.6455 100.29 61.6636 96.2542C63.8431 91.8952 63.6817 87.4554 61.9865 83.0964C61.9865 83.0156 61.8251 83.0157 61.6636 83.0157C61.5022 83.6614 61.3407 84.3879 61.1793 85.0337C59.6455 90.3614 56.5781 92.6217 51.654 92.3795C50.8467 92.2988 50.1202 91.9759 49.313 92.1373C49.4744 92.4602 49.4744 92.7024 49.0708 92.8638C48.7479 94.2361 48.3443 95.6084 48.0214 97.0614C48.2636 97.3036 48.1829 97.465 47.86 97.5458C47.3757 99.0795 46.972 100.613 46.6491 102.228C46.8106 102.308 46.8913 102.47 46.8913 102.551ZM57.8696 70.3422C55.3672 69.4542 54.8022 69.8578 53.9949 72.2795C53.5913 73.4904 53.9949 73.8132 55.0443 73.894C58.1925 74.2169 60.2106 75.9928 61.6636 78.7373C62.1479 79.6253 62.6323 80.5132 63.1973 81.6434C65.054 77.0422 62.6323 72.0373 57.8696 70.3422ZM60.2913 82.8542C60.6142 78.9795 58.2732 76.1542 54.3985 75.5891C53.4299 75.4277 53.0262 75.8313 52.9455 76.6385C52.7841 77.7687 53.672 77.1229 54.0757 77.2036C56.901 77.5265 58.8383 79.8675 58.1925 82.4506C57.7082 84.3879 56.6588 86.0024 55.2058 87.4554C54.8829 87.7783 54.4793 88.1819 54.2371 88.5048C53.9142 88.9084 53.5106 89.3928 53.9142 89.9578C54.2371 90.4422 54.8022 90.1193 55.2865 90.0385C58.0311 89.2313 59.3226 87.1325 60.1299 84.4687C60.1299 83.9843 60.2106 83.4193 60.2913 82.8542ZM50.0395 90.0385C50.4431 90.1193 50.6853 89.8771 51.0082 89.6349C52.7841 87.9397 54.4793 86.1638 55.7708 84.065C56.2552 83.2578 56.4973 82.4506 56.6588 81.5626C56.8202 80.3518 56.1744 79.3024 55.2058 78.8181C54.0757 78.253 53.5106 79.2217 52.9455 79.9482C52.4612 80.5132 52.0576 81.159 51.8961 81.9663C52.1383 82.2084 52.0576 82.3699 51.7347 82.4506C51.7347 82.612 51.654 82.7735 51.5732 82.9349C51.9769 83.0156 52.0576 83.3385 51.9769 83.6614C52.4612 82.7735 52.9455 81.8855 53.4299 80.9976C53.672 80.6747 53.9949 80.2711 54.3985 80.4325C54.9636 80.6747 54.8022 81.159 54.7214 81.5626C54.3985 83.0964 53.0262 84.2265 51.7347 83.9843C51.4925 84.1458 51.3311 84.3072 51.0889 84.3879C50.766 85.7602 50.3624 87.1325 50.0395 88.5855C50.4431 89.1506 50.1202 89.5542 50.0395 90.0385ZM51.9769 83.6614C52.0576 83.3385 51.9769 83.0156 51.5732 82.9349C51.4118 83.4193 51.3311 83.9843 51.1696 84.4687C51.4118 84.3072 51.5732 84.1458 51.8154 84.065C51.8154 83.9843 51.8961 83.8229 51.9769 83.6614ZM50.0395 90.0385C50.1202 89.5542 50.4431 89.1506 50.1202 88.6663C50.0395 89.1506 49.4745 89.5542 50.0395 90.0385ZM51.654 82.4506C51.9769 82.3699 52.0576 82.2084 51.8154 81.9663C51.7347 82.1277 51.7347 82.2891 51.654 82.4506Z" fill="#FFD277"/>
<path d="M85.6638 44.1897C94.0798 36.6165 94.763 23.6546 87.1898 15.2386C79.6165 6.82251 66.6546 6.13931 58.2386 13.7126C49.8225 21.2858 49.1393 34.2477 56.7126 42.6638C64.2859 51.0798 77.2477 51.763 85.6638 44.1897Z" fill="url(#paint1_linear)"/>
<path d="M82.8 41.0072C89.4584 35.0156 89.999 24.7606 84.0073 18.1021C78.0156 11.4436 67.7606 10.9031 61.1021 16.8948C54.4437 22.8865 53.9031 33.1415 59.8948 39.7999C65.8865 46.4584 76.1415 46.9989 82.8 41.0072Z" fill="#E5B35A"/>
<path d="M68.72 29.4221C68.2978 28.5837 67.6094 28.3725 66.921 28.1614C65.8868 27.8737 65.8868 27.8737 66.4009 26.968C66.5968 26.5703 66.7651 26.1419 66.8202 25.6493C66.8263 25.533 66.8049 25.3862 66.6887 25.38C66.5449 25.3433 66.5081 25.4871 66.4745 25.5728C66.4071 25.7441 66.398 25.9185 66.3306 26.0899C65.7093 28.4764 62.8668 28.7638 61.4716 27.5826C61.0249 27.2093 60.6364 26.8391 60.4039 26.273C59.945 25.0246 60.5968 23.7181 61.9829 23.4123C62.4847 23.293 62.6653 23.1859 62.6653 22.6321C62.6348 21.552 63.3172 20.7718 64.2627 20.5302C65.2663 20.2916 66.2637 20.7231 66.7685 21.6533C69.2343 26.3012 71.7032 30.891 74.1108 35.5359C74.9583 37.1546 74.8082 38.3417 73.8535 39.3116C72.8682 40.309 71.4882 40.4986 70.3562 39.856C69.7351 39.4735 69.6862 39.296 70.0962 38.7055C71.6507 36.3098 70.3781 33.3571 67.71 33.0999C67.043 33.0355 66.4525 33.1793 65.8527 33.4975C65.7028 33.577 65.4641 33.681 65.5712 33.8616C65.6752 34.1002 65.8619 33.8769 66.0394 33.8279C67.9518 32.9377 70.1639 34.1036 70.4636 36.1598C70.6532 37.5398 69.9891 38.525 68.9824 39.3755C68.1593 40.0608 67.1557 40.2994 66.1001 39.8648C65.017 39.3997 64.4204 38.5521 64.3348 37.4108C64.2981 37.0008 64.1849 36.9365 63.8055 36.9456C61.3852 36.9638 60.0514 34.62 61.2968 32.5578C61.5508 32.1631 61.4713 32.0132 61.0735 31.8173C59.6233 31.1288 59.4031 29.2225 60.5659 28.1762C60.8719 27.9008 61.1075 27.8549 61.4747 28.0783C62.2916 28.6169 63.185 28.8097 64.158 28.5987C65.6634 28.2408 67.0862 28.345 68.3774 29.2875C68.4324 29.3487 68.5181 29.3823 68.72 29.4221ZM77.6981 18.9065C76.7099 18.3006 75.6298 18.3311 74.8709 18.9032C74.3232 19.3407 74.2803 19.6008 74.8096 20.0659C76.3119 21.4276 77.5418 22.979 78.4963 24.7782C79.821 27.2965 79.8085 29.7442 78.511 32.2409C77.7643 33.6881 76.8218 34.9792 75.8212 36.2673C75.4142 36.7997 75.4601 37.0353 76.121 37.2159C76.9532 37.4638 77.7701 37.4485 78.6208 37.3476C81.0257 37.0663 81.6469 36.3412 81.4513 33.9699C81.3718 32.7123 81.632 31.6475 82.3266 30.6348C82.9907 29.6496 83.4252 28.5941 83.6609 27.4406C83.9579 25.6782 83.0431 24.2308 81.4735 24.1481C81.1246 24.1297 80.9013 23.9431 80.9227 23.5361C80.9809 22.9854 80.7148 22.505 80.4761 22.0552C79.7235 20.8496 78.9709 19.644 77.6981 18.9065ZM74.8208 34.7863C75.1114 34.8016 75.3532 34.6395 75.5643 34.5049C77.4675 33.2352 78.8845 29.5789 78.2727 27.3606C77.612 24.9648 76.0364 23.3369 73.9069 22.2627C73.8793 22.2321 73.8181 22.2872 73.7569 22.3423C73.916 22.6421 74.1026 22.9726 74.2617 23.2725C75.4976 25.8152 75.1059 27.7183 73.1567 29.3062C72.8231 29.5509 72.4376 29.6764 72.1867 30.0129C72.358 30.0802 72.4406 30.172 72.3427 30.3709C72.6884 31.0013 73.0035 31.6591 73.3767 32.3201C73.5511 32.3292 73.5756 32.418 73.4807 32.5587C73.8203 33.3053 74.1905 34.0244 74.6188 34.7465C74.7045 34.7802 74.7626 34.7833 74.8208 34.7863ZM68.0232 18.8629C66.7718 19.3799 66.6952 19.7256 67.2153 20.919C67.4753 21.5156 67.7385 21.5004 68.1638 21.173C69.4673 20.2215 70.8381 20.2063 72.3251 20.7511C72.8116 20.9225 73.298 21.0938 73.8977 21.3295C73.0045 18.9214 70.4068 17.8809 68.0232 18.8629ZM73.1511 22.7767C71.9518 21.1978 70.1006 20.9253 68.4391 22.0328C68.0168 22.302 68.0015 22.5927 68.2463 22.9262C68.5706 23.4097 68.6869 22.862 68.8674 22.7549C70.0485 21.9136 71.5815 22.1401 72.2178 23.3396C72.695 24.2392 72.8479 25.2092 72.7928 26.2556C72.7805 26.4881 72.7652 26.7788 72.7836 26.9838C72.7988 27.247 72.8111 27.5682 73.1568 27.6447C73.4444 27.7182 73.5485 27.4031 73.7045 27.2072C74.4696 25.9651 74.2432 24.7289 73.6406 23.4438C73.4754 23.2602 73.3438 22.9909 73.1511 22.7767ZM71.7462 28.9695C71.9267 28.8624 71.9359 28.688 71.9757 28.4861C72.0706 27.2377 72.1074 25.9863 71.8811 24.7501C71.7894 24.2789 71.6058 23.8903 71.3641 23.4987C71.0123 22.9846 70.4095 22.8071 69.8771 22.9539C69.256 23.1252 69.3722 23.6851 69.4058 24.1533C69.415 24.5327 69.4823 24.9152 69.6964 25.2762C69.8708 25.2854 69.8953 25.3742 69.8004 25.5149C69.8555 25.5761 69.88 25.6648 69.9044 25.7536C70.085 25.6465 70.2257 25.7414 70.3053 25.8913C70.186 25.3895 70.0667 24.8877 69.9474 24.3859C69.929 24.1809 69.9138 23.9177 70.1218 23.8413C70.4186 23.7403 70.5226 23.979 70.6297 24.1595C71.0305 24.851 70.8958 25.7475 70.3236 26.0963C70.2869 26.2401 70.2807 26.3564 70.2165 26.4696C70.5622 27.0999 70.8773 27.7578 71.2505 28.4187C71.5963 28.4952 71.6085 28.8165 71.7462 28.9695ZM70.3022 25.9494C70.2226 25.7995 70.0819 25.7046 69.9014 25.8117C70.0054 26.0504 70.1675 26.2921 70.2715 26.5308C70.3083 26.387 70.3144 26.2707 70.3787 26.1575C70.3236 26.0963 70.2991 26.0076 70.3022 25.9494ZM71.7462 28.9695C71.6115 28.7584 71.5963 28.4952 71.3087 28.4218C71.4433 28.6329 71.3637 29.0368 71.7462 28.9695ZM69.7392 25.57C69.8341 25.4292 69.8096 25.3405 69.6352 25.3313C69.6903 25.3925 69.7148 25.4812 69.7392 25.57Z" fill="#664407"/>
<path d="M68.8401 29.3697C68.418 28.5313 67.7295 28.3202 67.0411 28.109C66.0069 27.8213 66.0069 27.8213 66.521 26.9157C66.7169 26.5179 66.8852 26.0896 66.9403 25.5969C66.9465 25.4807 66.9251 25.3338 66.8088 25.3277C66.665 25.2909 66.6283 25.4348 66.5946 25.5204C66.5273 25.6918 66.5181 25.8662 66.4507 26.0375C65.8294 28.4241 62.9869 28.7115 61.5918 27.5303C61.1451 27.157 60.7565 26.7867 60.524 26.2206C60.0651 24.9722 60.717 23.6658 62.1031 23.3599C62.6049 23.2406 62.7854 23.1335 62.7854 22.5797C62.7549 21.4996 63.4373 20.7194 64.3828 20.4778C65.3864 20.2392 66.3838 20.6707 66.8886 21.6009C69.3544 26.2488 71.8233 30.8387 74.2309 35.4835C75.0784 37.1022 74.9283 38.2894 73.9736 39.2592C72.9883 40.2566 71.6084 40.4462 70.4763 39.8036C69.8552 39.4211 69.8063 39.2436 70.2163 38.6531C71.7709 36.2575 70.4982 33.3047 67.8301 33.0475C67.1631 32.9832 66.5726 33.1269 65.9728 33.4451C65.8229 33.5247 65.5843 33.6287 65.6913 33.8092C65.7953 34.0479 65.982 33.8245 66.1595 33.7756C68.0719 32.8853 70.284 34.0513 70.5837 36.1074C70.7733 37.4874 70.1092 38.4726 69.1025 39.3231C68.2794 40.0084 67.2758 40.247 66.2202 39.8125C65.1371 39.3473 64.5405 38.4997 64.4549 37.3584C64.4182 36.9484 64.305 36.8841 63.9256 36.8933C61.5054 36.9115 60.1715 34.5676 61.417 32.5054C61.671 32.1107 61.5914 31.9608 61.1937 31.7649C59.7434 31.0764 59.5232 29.1701 60.686 28.1238C60.992 27.8485 61.2276 27.8026 61.5948 28.026C62.4117 28.5645 63.3051 28.7574 64.2781 28.5463C65.7836 28.1885 67.2063 28.2926 68.4975 29.2351C68.5219 29.3238 68.6107 29.2994 68.8401 29.3697ZM77.8182 18.8541C76.83 18.2482 75.7499 18.2787 74.991 18.8508C74.4433 19.2883 74.4005 19.5484 74.9298 20.0135C76.432 21.3752 77.6619 22.9266 78.6164 24.7258C79.9411 27.2441 79.9286 29.6919 78.6311 32.1885C77.8844 33.6357 76.9419 34.9269 75.9413 36.215C75.5343 36.7473 75.5802 36.9829 76.2411 37.1635C77.0733 37.4114 77.8903 37.3962 78.7409 37.2953C81.1459 37.0139 81.767 36.2888 81.5714 33.9175C81.4919 32.6599 81.7521 31.5952 82.4467 30.5825C83.1108 29.5973 83.5453 28.5417 83.781 27.3882C84.078 25.6258 83.1632 24.1785 81.5936 24.0957C81.2448 24.0773 81.0214 23.8907 81.0429 23.4837C81.101 22.933 80.8349 22.4526 80.5963 22.0028C79.813 20.8247 79.0604 19.6191 77.8182 18.8541ZM74.9103 34.7615C75.2009 34.7768 75.4427 34.6147 75.6538 34.48C77.5571 33.2104 78.974 29.5541 78.3622 27.3358C77.7015 24.9399 76.1259 23.312 73.9964 22.2379C73.9688 22.2073 73.9076 22.2624 73.8464 22.3174C74.0055 22.6173 74.1921 22.9478 74.3512 23.2476C75.5872 25.7904 75.1954 27.6935 73.2462 29.2814C72.9127 29.5261 72.5271 29.6515 72.2762 29.9881C72.4475 30.0554 72.5301 30.1472 72.4322 30.3461C72.7779 30.9764 73.093 31.6343 73.4663 32.2952C73.6407 32.3044 73.6651 32.3932 73.5703 32.5339C73.9098 33.2805 74.28 33.9996 74.7083 34.7217C74.7971 34.6972 74.8827 34.7309 74.9103 34.7615ZM68.0852 18.8075C66.8337 19.3245 66.7572 19.6702 67.2773 20.8635C67.5373 21.4602 67.8004 21.4449 68.2258 21.1176C69.5293 20.1661 70.9001 20.1509 72.3871 20.6956C72.8736 20.867 73.36 21.0384 73.9597 21.2741C73.094 18.8966 70.4688 17.8255 68.0852 18.8075ZM73.2712 22.7243C72.0719 21.1454 70.2207 20.8729 68.5592 21.9804C68.137 22.2497 68.1216 22.5403 68.3664 22.8739C68.6907 23.3573 68.807 22.8097 68.9875 22.7026C70.1687 21.8612 71.7016 22.0878 72.3379 23.2872C72.8152 24.1869 72.9681 25.1568 72.9129 26.2032C72.9007 26.4358 72.8853 26.7264 72.9037 26.9314C72.919 27.1946 72.9312 27.5159 73.2769 27.5924C73.5645 27.6658 73.6686 27.3507 73.8246 27.1549C74.5897 25.9127 74.3634 24.6765 73.7607 23.3914C73.5955 23.2078 73.4333 22.9661 73.2712 22.7243ZM71.8357 28.9447C72.0162 28.8376 72.0254 28.6632 72.0652 28.4613C72.1601 27.2129 72.1969 25.9615 71.9706 24.7253C71.8789 24.2541 71.6953 23.8655 71.4536 23.4738C71.1018 22.9598 70.499 22.7822 69.9666 22.9291C69.3455 23.1004 69.4617 23.6603 69.4953 24.1285C69.5045 24.5079 69.5718 24.8903 69.7859 25.2514C69.9603 25.2606 69.9848 25.3493 69.8899 25.4901C69.945 25.5513 69.9695 25.64 69.994 25.7287C70.1745 25.6217 70.3152 25.7165 70.3948 25.8665C70.2755 25.3647 70.1562 24.8629 70.0369 24.361C70.0186 24.156 70.0033 23.8929 70.2113 23.8164C70.5081 23.7155 70.6122 23.9541 70.7192 24.1347C71.12 24.8262 70.9853 25.7227 70.4131 26.0715C70.3764 26.2153 70.3703 26.3315 70.306 26.4447C70.6517 27.0751 70.9668 27.7329 71.34 28.3939C71.6858 28.4704 71.7011 28.7335 71.8357 28.9447ZM70.3948 25.8665C70.3152 25.7165 70.1745 25.6217 69.994 25.7287C70.098 25.9674 70.2601 26.2091 70.3641 26.4478C70.4009 26.304 70.407 26.1877 70.4712 26.0745C70.4437 26.0439 70.4192 25.9552 70.3948 25.8665ZM71.8357 28.9447C71.7011 28.7335 71.6858 28.4704 71.3982 28.397C71.5328 28.6081 71.4563 28.9538 71.8357 28.9447ZM69.8593 25.5176C69.9542 25.3769 69.9297 25.2881 69.7553 25.2789C69.7798 25.3677 69.8349 25.4289 69.8593 25.5176Z" fill="#FFD277"/>
<circle cx="108.451" cy="118.614" r="42" transform="rotate(12.4182 108.451 118.614)" fill="#3D6A9E"/>
<path fill-rule="evenodd" clip-rule="evenodd" d="M117.385 82.6946C127.633 84.9512 137.769 78.4729 140.026 68.225C142.283 57.9771 135.804 47.8402 125.556 45.5837C115.309 43.3271 105.172 49.8053 102.915 60.0532C100.659 70.3011 107.137 80.438 117.385 82.6946ZM118.675 76.835C125.687 78.3789 132.622 73.9465 134.166 66.9347C135.71 59.923 131.278 52.9872 124.266 51.4433C117.254 49.8993 110.319 54.3318 108.775 61.3435C107.231 68.3552 111.663 75.291 118.675 76.835Z" fill="#3D6A9E"/>
<circle cx="108.451" cy="118.614" r="35" transform="rotate(12.4182 108.451 118.614)" fill="#EBF4FF"/>
<circle cx="108.451" cy="118.614" r="4" transform="rotate(12.4182 108.451 118.614)" fill="#053A78"/>
<path d="M116.31 87.5776L107.309 116.826L110.727 117.579L116.31 87.5776Z" fill="#053A78"/>
<rect x="117.466" y="68.377" width="6" height="12" rx="3" transform="rotate(12.4182 117.466 68.377)" fill="#3D6A9E"/>
<rect x="138.551" y="78.1397" width="6" height="12" rx="3" transform="rotate(35.4313 138.551 78.1397)" fill="#3D6A9E"/>
<rect x="128.58" y="66.7286" width="6" height="15" rx="3" transform="rotate(102.418 128.58 66.7286)" fill="#3D6A9E"/>
<defs>
<linearGradient id="paint0_linear" x1="26.6141" y1="57.6723" x2="73.8719" y2="122.741" gradientUnits="userSpaceOnUse">
<stop stop-color="#FFFFE3"/>
<stop offset="0.1817" stop-color="#FDCF74"/>
<stop offset="1" stop-color="#F6C266"/>
</linearGradient>
<linearGradient id="paint1_linear" x1="51.915" y1="24.6662" x2="92.0244" y2="33.2116" gradientUnits="userSpaceOnUse">
<stop stop-color="#FFFFE3"/>
<stop offset="0.1817" stop-color="#FDCF74"/>
<stop offset="1" stop-color="#F6C266"/>
</linearGradient>
</defs>
</svg>
