<svg width="14" height="14" viewBox="0 0 14 14" fill="none" xmlns="http://www.w3.org/2000/svg">
<path d="M7 14C10.866 14 14 10.866 14 7C14 3.13401 10.866 0 7 0C3.134 0 0 3.13401 0 7C0 10.866 3.134 14 7 14Z" fill="url(#paint0_linear)"/>
<path d="M7 12.999C10.3137 12.999 13 10.3127 13 6.99902C13 3.68532 10.3137 0.999023 7 0.999023C3.68629 0.999023 1 3.68532 1 6.99902C1 10.3127 3.68629 12.999 7 12.999Z" fill="#E5B35A"/>
<path d="M6.11865 6.22668C6.22293 5.83811 6.06651 5.57319 5.9101 5.30826C5.66679 4.9197 5.66679 4.9197 6.08389 4.7784C6.25769 4.70776 6.43148 4.61945 6.5879 4.47815C6.62265 4.44283 6.65742 4.38984 6.62266 4.35452C6.5879 4.30153 6.53576 4.33686 6.501 4.35452C6.43148 4.38984 6.37935 4.44283 6.30983 4.47815C5.44086 5.06099 4.46761 4.33686 4.36333 3.55974C4.32857 3.31247 4.31119 3.08286 4.39809 2.8356C4.60664 2.30574 5.18017 2.07614 5.70155 2.37639C5.89272 2.48236 5.97962 2.50002 6.13603 2.3234C6.43149 1.97017 6.86597 1.91718 7.23094 2.11146C7.61328 2.3234 7.80446 2.74729 7.70018 3.18883C7.16142 5.37891 6.64004 7.55131 6.08389 9.72372C5.89272 10.4832 5.51037 10.8188 4.93685 10.8541C4.34595 10.8894 3.85933 10.5538 3.68553 10.024C3.59864 9.72372 3.63339 9.65308 3.92884 9.58243C5.09327 9.26452 5.52775 7.95754 4.76306 7.10977C4.57188 6.89783 4.34595 6.77419 4.06788 6.70354C3.99836 6.68588 3.89409 6.65056 3.87671 6.73887C3.84195 6.84484 3.9636 6.82718 4.03312 6.8625C4.88471 7.12743 5.24968 8.13416 4.76306 8.87595C4.43285 9.37049 3.94622 9.49412 3.39008 9.47646C2.93822 9.4588 2.55587 9.24685 2.34732 8.80531C2.13876 8.3461 2.1909 7.90455 2.48635 7.51599C2.59063 7.3747 2.57325 7.32171 2.45159 7.21574C1.6869 6.52693 1.93021 5.39657 2.90346 5.09632C3.09463 5.04333 3.11201 4.97268 3.04249 4.79607C2.7818 4.16024 3.25105 3.48909 3.91146 3.48909C4.08526 3.48909 4.17216 3.54207 4.2243 3.71869C4.32857 4.12491 4.55451 4.44283 4.91947 4.65477C5.493 4.97268 5.9101 5.41423 6.04914 6.08538C6.03176 6.1207 6.06652 6.13837 6.11865 6.22668ZM11.906 5.44955C11.767 4.97268 11.4194 4.67243 11.0197 4.63711C10.7242 4.61945 10.6373 4.69009 10.6721 4.99034C10.759 5.85578 10.7068 6.70355 10.4983 7.55131C10.2028 8.73466 9.50764 9.51178 8.39536 9.93567C7.75232 10.1829 7.0919 10.3242 6.4141 10.4479C6.13603 10.5008 6.08389 10.5892 6.24031 10.8364C6.43148 11.1543 6.69218 11.3839 6.98763 11.5959C7.82184 12.1964 8.22157 12.1434 8.82985 11.331C9.16006 10.9071 9.5424 10.6421 10.0464 10.5185C10.533 10.3949 10.9675 10.1829 11.3672 9.88268C11.9581 9.40581 12.0798 8.68167 11.6106 8.2048C11.5063 8.09883 11.4889 7.9752 11.6106 7.85157C11.7843 7.69261 11.8365 7.46301 11.8886 7.25106C11.9755 6.65056 12.0798 6.05006 11.906 5.44955ZM6.501 9.6884C6.5879 9.77671 6.70955 9.79437 6.81383 9.81203C7.7697 9.95333 9.24695 9.19387 9.68144 8.31078C10.1507 7.35703 10.1159 6.38563 9.75095 5.43189C9.75095 5.41423 9.7162 5.41423 9.68144 5.41423C9.64668 5.55553 9.61192 5.71448 9.57716 5.85578C9.24695 7.02146 8.58653 7.51599 7.52639 7.46301C7.35259 7.44534 7.19618 7.3747 7.02238 7.41002C7.05714 7.48067 7.05714 7.53365 6.97025 7.56898C6.90073 7.86923 6.81383 8.16948 6.74431 8.48739C6.79645 8.54038 6.77907 8.5757 6.70955 8.59337C6.60528 8.92894 6.51838 9.26451 6.44886 9.61775C6.48362 9.63541 6.501 9.67074 6.501 9.6884ZM8.8646 2.64132C8.32584 2.44704 8.20419 2.53535 8.03039 3.0652C7.94349 3.33013 8.03039 3.40078 8.25632 3.41844C8.93412 3.48909 9.36861 3.87765 9.68144 4.47815C9.78571 4.67243 9.88999 4.86671 10.0116 5.11398C10.4114 4.10725 9.88999 3.01222 8.8646 2.64132ZM9.38599 5.37891C9.4555 4.53114 8.9515 3.91297 8.11729 3.78934C7.90874 3.75401 7.82184 3.84232 7.80446 4.01894C7.7697 4.26621 7.96088 4.12491 8.04777 4.14257C8.65605 4.21322 9.07315 4.72542 8.93412 5.2906C8.82984 5.71448 8.60391 6.06772 8.29108 6.38563C8.22157 6.45628 8.13467 6.54459 8.08253 6.61524C8.01301 6.70354 7.92611 6.80952 8.01301 6.93315C8.08253 7.03912 8.20419 6.96847 8.30846 6.95081C8.89936 6.77419 9.17744 6.31498 9.35123 5.73214C9.35123 5.62617 9.36861 5.50254 9.38599 5.37891ZM7.1788 6.95081C7.2657 6.96847 7.31783 6.91549 7.38735 6.8625C7.7697 6.4916 8.13467 6.10304 8.41274 5.64383C8.51701 5.46721 8.56915 5.2906 8.60391 5.09632C8.63867 4.83139 8.49964 4.60178 8.29108 4.49581C8.04777 4.37218 7.92611 4.58412 7.80446 4.74308C7.70018 4.86671 7.61328 5.00801 7.57853 5.18463C7.63066 5.23761 7.61328 5.27293 7.54376 5.2906C7.54376 5.32592 7.52639 5.36124 7.50901 5.39657C7.59591 5.41423 7.61329 5.48488 7.59591 5.55552C7.70018 5.36124 7.80446 5.16696 7.90873 4.97268C7.96087 4.90204 8.03039 4.81373 8.11729 4.84905C8.23894 4.90203 8.20418 5.00801 8.18681 5.09632C8.11729 5.43189 7.82184 5.67916 7.54376 5.62617C7.49163 5.6615 7.45687 5.69682 7.40473 5.71448C7.33521 6.01473 7.24832 6.31498 7.1788 6.6329C7.2657 6.75653 7.19618 6.84484 7.1788 6.95081ZM7.59591 5.55552C7.61329 5.48488 7.59591 5.41423 7.50901 5.39657C7.47425 5.50254 7.45687 5.62617 7.42211 5.73214C7.47425 5.69682 7.50901 5.66149 7.56114 5.64383C7.56114 5.62617 7.57853 5.59085 7.59591 5.55552ZM7.1788 6.95081C7.19618 6.84484 7.26569 6.75653 7.19618 6.65056C7.1788 6.75653 7.05714 6.84484 7.1788 6.95081ZM7.52639 5.2906C7.59591 5.27293 7.61328 5.23761 7.56114 5.18463C7.54377 5.21995 7.54377 5.25527 7.52639 5.2906Z" fill="#FFD277"/>
<defs>
<linearGradient id="paint0_linear" x1="2.89301" y1="1.33597" x2="11.122" y2="12.6663" gradientUnits="userSpaceOnUse">
<stop stop-color="#FFFFE3"/>
<stop offset="0.1817" stop-color="#FDCF74"/>
<stop offset="1" stop-color="#F6C266"/>
</linearGradient>
</defs>
</svg>
