<?xml version="1.0"?>
<svg width="173" height="142" xmlns="http://www.w3.org/2000/svg" xmlns:svg="http://www.w3.org/2000/svg">
 <defs>
  <linearGradient id="paint0_linear" x1="0.559752" x2="-0.026261" y1="0.482296" y2="1.086409">
   <stop stop-color="#410F0B"/>
   <stop offset="0.7628" stop-color="#4D190B"/>
  </linearGradient>
 </defs>
 <g class="layer">
  <title>Layer 1</title>
  <circle cx="83.6267" cy="58.9113" fill="#5194A6" id="svg_1" r="58.2127"/>
  <rect fill="#EBF4FF" height="48.9324" id="svg_2" rx="1" transform="rotate(-9.5796 80.8584 30.1379)" width="65.8056" x="80.8584" y="30.1379"/>
  <path d="m113.6417,55.4062l0.2751,-0.4175l-0.3666,-0.2415l-0.2869,0.3322l0.3784,0.3268zm11.3733,7.4921l-0.275,0.4175l0.389,0.2561l0.283,-0.3695l-0.397,-0.3041zm19.324,-24.633c-0.037,-0.2738 -0.288,-0.4663 -0.562,-0.4301l-4.461,0.59c-0.274,0.0362 -0.466,0.2875 -0.43,0.5612c0.036,0.2738 0.287,0.4664 0.561,0.4302l3.966,-0.5245l0.524,3.9655c0.036,0.2737 0.288,0.4663 0.561,0.4301c0.274,-0.0362 0.467,-0.2875 0.431,-0.5613l-0.59,-4.4611zm-44.1558,33.4925l13.837,-16.0248l-0.7569,-0.6536l-13.837,16.0248l0.7569,0.6536zm13.1835,-15.934l11.3733,7.492l0.55,-0.8351l-11.3732,-7.492l-0.5501,0.8351zm12.0453,7.3786l18.828,-24.5674l-0.794,-0.6083l-18.828,24.5674l0.794,0.6083z" fill="#EC1455" id="svg_3"/>
  <path d="m94.833,52.3322l-0.6765,0.1142l-0.4303,-2.5494c-0.2081,0.2728 -0.4706,0.4929 -0.7873,0.6603l-0.1036,-0.6139c0.1668,-0.0876 0.3402,-0.2291 0.5201,-0.4245c0.1797,-0.1971 0.2899,-0.4096 0.3306,-0.6377l0.5489,-0.0926l0.5981,3.5436zm2.6178,-0.4418l-0.6764,0.1142l-0.4303,-2.5494c-0.2082,0.2728 -0.4706,0.4929 -0.7873,0.6602l-0.1036,-0.6138c0.1667,-0.0876 0.3401,-0.2291 0.5201,-0.4245c0.1796,-0.1971 0.2898,-0.4096 0.3306,-0.6377l0.5489,-0.0926l0.598,3.5436z" fill="#EC1455" id="svg_4"/>
  <path d="m92.3046,37.3581l-0.6764,0.1141l-0.4303,-2.5494c-0.2081,0.2728 -0.4706,0.4929 -0.7873,0.6603l-0.1036,-0.6139c0.1668,-0.0876 0.3401,-0.2291 0.5201,-0.4245c0.1797,-0.197 0.2899,-0.4096 0.3306,-0.6376l0.5489,-0.0927l0.598,3.5437zm3.34,-1.21l0.106,0.6284l-2.3712,0.4002c-0.0144,-0.2419 0.0247,-0.4796 0.1173,-0.7131c0.0924,-0.2351 0.2983,-0.5604 0.6177,-0.9758c0.257,-0.3355 0.4115,-0.5597 0.4635,-0.6724c0.0695,-0.1553 0.0927,-0.3012 0.0697,-0.4376c-0.0255,-0.1509 -0.0859,-0.2595 -0.1813,-0.326c-0.094,-0.0683 -0.2125,-0.0904 -0.3553,-0.0663c-0.1413,0.0239 -0.2464,0.0853 -0.3155,0.1845c-0.0691,0.0991 -0.0934,0.2485 -0.073,0.4481l-0.6854,0.0463c-0.0227,-0.3791 0.0582,-0.6676 0.2427,-0.8654c0.1845,-0.1979 0.4356,-0.3236 0.7534,-0.3772c0.3482,-0.0588 0.6377,-0.0111 0.8684,0.1431c0.2307,0.1542 0.3696,0.3709 0.4167,0.6501c0.0269,0.1589 0.0236,0.3155 -0.0098,0.4697c-0.0321,0.1523 -0.0966,0.3175 -0.1937,0.4956c-0.0642,0.1182 -0.1865,0.2931 -0.367,0.525c-0.1804,0.2318 -0.294,0.3847 -0.341,0.4586c-0.0453,0.0737 -0.0805,0.144 -0.1055,0.211l1.3433,-0.2268z" fill="#EC1455" id="svg_5"/>
  <path d="m77.1715,51.5506c0,0 -15.6972,-22.6088 -34.0777,-9.8038c-18.38044,12.8049 -19.85628,31.4122 -18.6488,40.1489c1.20747,8.7367 1.8112,13.0718 -0.33541,16.0729c-2.14663,3.0674 -8.72065,8.7364 -7.44609,21.2084c1.20748,12.405 16.1667,24.476 32.6018,18.14c16.4351,-6.336 17.8439,-7.936 17.8439,-7.936c0,0 12.7455,4.268 19.0512,-9.804c6.3728,-14.072 2.8846,-30.4785 2.0796,-33.2796c-0.8721,-2.8011 8.5194,-13.005 1.677,-24.8096c-6.7753,-11.8046 -12.7455,-9.9372 -12.7455,-9.9372z" fill="url(#paint0_linear)" id="svg_6"/>
  <path d="m92.0926,78.0536c-0.9758,-7.5589 -6.0498,-13.9468 -12.9778,-16.1825c-8.8796,-2.8745 -19.9058,-2.7681 -27.029,0c-10.9287,4.1521 -11.9044,27.2547 -11.9044,27.2547c-0.4879,1.5969 -0.8782,3.3004 -1.0734,5.1103c-1.7564,15.1179 8.4893,29.0649 23.0283,31.0869c13.2706,1.81 25.4677,-6.92 28.7854,-20.015c2.7321,-9.0491 2.1467,-19.802 1.1709,-27.2544z" fill="#FFC197" id="svg_7"/>
  <path d="m80.2103,61.908c0,0 -1.8943,13.8153 -16.1994,15.8597c-14.3704,2.0444 -22.7967,-2.2922 -22.7967,-2.2922c0,0 -13.26,-5.08 -5.2909,-12.0187c7.9691,-6.9386 27.5651,-16.0455 35.5341,-10.3459c7.9691,5.6995 10.19,4.0268 8.7529,8.7971z" fill="#410F0B" id="svg_8"/>
  <path d="m71.6434,58.9991c-0.1076,0.661 11.3297,19.5623 21.6133,22.0122c10.2837,2.4499 -3.9453,-25.7875 -7.8988,-26.6815c-3.9536,-0.894 -12.7713,-8.967 -13.7145,4.6693z" fill="#410F0B" id="svg_9"/>
  <path d="m38.7121,98.5018c-4.0659,-0.5159 -7.0329,-4.0236 -6.4834,-7.9441l0.1099,-1.0317c0.5494,-3.8173 4.2856,-6.6028 8.4614,-6.087c4.0659,0.5159 7.0329,4.0236 6.4834,7.9441l-0.1099,1.0317c-0.5494,3.8172 -4.3955,6.6028 -8.4614,6.087z" fill="#FFC197" id="svg_10"/>
  <path d="m65.4326,101.938c0,0 5.2174,5.687 8.4366,7.437c0,0 -2.9972,3.719 -5.6614,2.406c-2.6642,-1.312 -2.7752,-9.843 -2.7752,-9.843z" fill="#BC7646" id="svg_11"/>
  <path d="m70.4951,83.3774c0,0 2.4814,5.8294 6.7493,6.5581c0,0 -5.856,1.9431 -6.7493,-6.5581z" fill="#BC7646" id="svg_12"/>
  <path d="m87.3682,91.8141c0,0 3.0791,1.5989 5.0585,0.7524c0.1099,0 -2.4193,2.5395 -5.0585,-0.7524z" fill="#BC7646" id="svg_13"/>
  <path d="m86.4835,93.5013c0,0 1.4261,7.9357 0.6582,9.1637c-0.7679,1.228 -1.5358,1.228 -2.8522,0.284c-1.3164,-0.945 2.194,-9.4477 2.194,-9.4477z" fill="#BC7646" id="svg_14"/>
  <path clip-rule="evenodd" d="m135.09,100.251c9.319,0 16.873,-7.5547 16.873,-16.8735c0,-9.3189 -7.554,-16.8733 -16.873,-16.8733c-9.319,0 -16.873,7.5544 -16.873,16.8733c0,9.3188 7.554,16.8735 16.873,16.8735zm0,-10.1243c3.728,0 6.749,-3.0217 6.749,-6.7493c0,-3.7275 -3.021,-6.7492 -6.749,-6.7492c-3.727,0 -6.749,3.0217 -6.749,6.7492c0,3.7276 3.022,6.7493 6.749,6.7493z" fill="#DAE0E7" fill-rule="evenodd" id="svg_15"/>
  <rect fill="#DAE0E7" height="8.43662" id="svg_16" rx="1" width="10.1239" x="130.027" y="63.1296"/>
  <rect fill="#DAE0E7" height="8.43662" id="svg_17" rx="1" width="10.1239" x="130.027" y="95.1887"/>
  <rect fill="#DAE0E7" height="8.43662" id="svg_18" rx="1" transform="rotate(90 155.338 78.3155)" width="10.1239" x="155.338" y="78.3155"/>
  <rect fill="#DAE0E7" height="8.43662" id="svg_19" rx="1" transform="rotate(90 123.278 78.3155)" width="10.1239" x="123.278" y="78.3155"/>
  <rect fill="#DAE0E7" height="8.43662" id="svg_20" rx="1" transform="rotate(135 152.986 94.1155)" width="10.1239" x="152.986" y="94.1155"/>
  <rect fill="#DAE0E7" height="8.43662" id="svg_21" rx="1" transform="rotate(135 130.317 71.4464)" width="10.1239" x="130.317" y="71.4464"/>
  <rect fill="#DAE0E7" height="8.43662" id="svg_22" rx="1" transform="rotate(45 145.826 65.4805)" width="10.1239" x="145.826" y="65.4805"/>
  <rect fill="#DAE0E7" height="8.43662" id="svg_23" rx="1" transform="rotate(45 123.158 88.1498)" width="10.1239" x="123.158" y="88.1498"/>
  <path clip-rule="evenodd" d="m106.4062,108.406c5.436,0 9.8428,-4.407 9.8428,-9.8427c0,-5.436 -4.4068,-9.8427 -9.8428,-9.8427c-5.436,0 -9.8427,4.4067 -9.8427,9.8427c0,5.4357 4.4067,9.8427 9.8427,9.8427zm0,-5.906c2.1744,0 3.9371,-1.762 3.9371,-3.9367c0,-2.1744 -1.7627,-3.9371 -3.9371,-3.9371c-2.1744,0 -3.9371,1.7627 -3.9371,3.9371c0,2.1747 1.7627,3.9367 3.9371,3.9367z" fill="#B6CBE4" fill-rule="evenodd" id="svg_24"/>
  <rect fill="#B6CBE4" height="4.92136" id="svg_25" rx="1" width="5.90563" x="103.4521" y="86.7521"/>
  <rect fill="#B6CBE4" height="4.92136" id="svg_26" rx="1" width="5.90563" x="103.4521" y="105.453"/>
  <rect fill="#B6CBE4" height="4.92136" id="svg_27" rx="1" transform="rotate(90 118.217 95.6105)" width="5.90563" x="118.217" y="95.6105"/>
  <rect fill="#B6CBE4" height="4.92136" id="svg_28" rx="1" transform="rotate(90 99.5156 95.6105)" width="5.90563" x="99.5156" y="95.6105"/>
  <rect fill="#B6CBE4" height="4.92136" id="svg_29" rx="1" transform="rotate(135 116.846 104.827)" width="5.90563" x="116.846" y="104.827"/>
  <rect fill="#B6CBE4" height="4.92136" id="svg_30" rx="1" transform="rotate(135 103.621 91.6035)" width="5.90563" x="103.6211" y="91.6035"/>
  <rect fill="#B6CBE4" height="4.92136" id="svg_31" rx="1" transform="rotate(45 112.669 88.1234)" width="5.90563" x="112.6689" y="88.1234"/>
  <rect fill="#B6CBE4" height="4.92136" id="svg_32" rx="1" transform="rotate(45 99.4453 101.347)" width="5.90563" x="99.4453" y="101.347"/>
 </g>
</svg>