<?xml version="1.0"?>
<svg width="134" height="109" xmlns="http://www.w3.org/2000/svg" xmlns:svg="http://www.w3.org/2000/svg">
 <g class="layer">
  <title>Layer 1</title>
  <circle cx="58.6123" cy="47.6387" fill="#5194A6" id="svg_1" r="47.1338"/>
  <path clip-rule="evenodd" d="m79.4042,27.5463c-0.5425,0.1035 -0.8985,0.6271 -0.795,1.1696l4.7433,24.8758c0.1034,0.5425 0.6271,0.8984 1.1696,0.795l36.9539,-7.0463c0.543,-0.1035 0.898,-0.6271 0.795,-1.1696l-1.337,-7.0139l10.281,3.5813c0.727,0.2532 1.456,-0.3755 1.311,-1.1316l-3.783,-19.8417c-0.144,-0.7562 -1.053,-1.0727 -1.636,-0.5697l-8.242,7.1135l-1.337,-7.0137c-0.104,-0.5425 -0.627,-0.8984 -1.17,-0.795l-36.9538,7.0463z" fill="#3D6A9E" fill-rule="evenodd" id="svg_2"/>
  <rect fill="#BC7646" height="39.6197" id="svg_3" rx="1" transform="rotate(9.14986 68.249 45.7036)" width="53.2817" x="68.249" y="45.7036"/>
  <rect fill="#1B3913" height="34.1549" id="svg_4" rx="1" transform="rotate(9.14986 70.5117 48.8357)" width="47.8169" x="70.5117" y="48.8357"/>
  <path d="m77.1765,65.7867l-0.1823,1.1323l-4.2736,-0.6883c0.1152,-0.4206 0.3193,-0.8032 0.6122,-1.1477c0.2933,-0.3474 0.8323,-0.7829 1.617,-1.3064c0.632,-0.4234 1.0249,-0.7162 1.1786,-0.8784c0.2083,-0.2246 0.3322,-0.4599 0.3718,-0.7057c0.0438,-0.2719 0.0036,-0.4921 -0.1206,-0.6604c-0.1209,-0.1708 -0.31,-0.277 -0.5675,-0.3184c-0.2545,-0.041 -0.4693,0.003 -0.6444,0.1321c-0.1751,0.1291 -0.3029,0.3696 -0.3833,0.7216l-1.1952,-0.3171c0.1803,-0.6594 0.485,-1.1044 0.9138,-1.335c0.4289,-0.2307 0.9296,-0.2999 1.5023,-0.2076c0.6277,0.1011 1.0936,0.3497 1.3977,0.7459c0.3042,0.3962 0.4157,0.8459 0.3347,1.3492c-0.0461,0.2863 -0.1422,0.5513 -0.2883,0.7948c-0.1427,0.2411 -0.3482,0.4855 -0.6166,0.7331c-0.1778,0.1642 -0.4874,0.3918 -0.929,0.6827c-0.4415,0.2909 -0.7236,0.4858 -0.8464,0.5848c-0.1199,0.0993 -0.2205,0.1989 -0.3018,0.2985l2.4209,0.39zm2.7177,0.6602l0.2662,-1.653l-1.666,-0.2683l0.1838,-1.1411l1.666,0.2684l0.2663,-1.653l1.1107,0.1789l-0.2663,1.653l1.6704,0.269l-0.1838,1.1411l-1.6704,-0.2691l-0.2662,1.653l-1.1107,-0.1789zm6.7702,2.0297l-1.2191,-0.1964l0.74,-4.5946c-0.5125,0.3448 -1.0871,0.5683 -1.7238,0.6705l0.1782,-1.1063c0.335,-0.0529 0.7123,-0.1939 1.132,-0.4231c0.4202,-0.232 0.7309,-0.5306 0.9321,-0.8959l0.9892,0.1594l-1.0286,6.3864zm2.6547,-3.2046l0.1803,-1.1193l4.447,0.7162l-0.1802,1.1194l-4.4471,-0.7163zm-0.3103,1.9264l0.181,-1.1237l4.4471,0.7162l-0.181,1.1237l-4.4471,-0.7162zm5.4327,0.7993l1.2032,0.0469c-0.0109,0.3069 0.0533,0.5531 0.1926,0.7388c0.1392,0.1856 0.326,0.2973 0.5603,0.335c0.2516,0.0406 0.4781,-0.0209 0.6795,-0.1843c0.2043,-0.1629 0.3326,-0.4064 0.3847,-0.7303c0.0494,-0.3066 0.0061,-0.5629 -0.1299,-0.7687c-0.136,-0.2059 -0.3225,-0.328 -0.5597,-0.3662c-0.1562,-0.0251 -0.3477,-0.0248 -0.5744,0.001l0.2946,-0.9719c0.3283,0.0618 0.5913,0.0315 0.7891,-0.091c0.1983,-0.1253 0.3176,-0.3138 0.3582,-0.5655c0.0344,-0.214 -0.0017,-0.3949 -0.1085,-0.5427c-0.1067,-0.1477 -0.2657,-0.2386 -0.4768,-0.2726c-0.2083,-0.0336 -0.3978,0.0101 -0.5686,0.131c-0.1708,0.1208 -0.2945,0.3175 -0.3711,0.5901l-1.0929,-0.3719c0.1401,-0.3721 0.3066,-0.6599 0.4996,-0.8632c0.1963,-0.2058 0.4453,-0.3511 0.7468,-0.4361c0.3049,-0.0874 0.6323,-0.1029 0.9823,-0.0466c0.5987,0.0965 1.0481,0.3647 1.3482,0.8047c0.2476,0.3604 0.3397,0.7373 0.2763,1.1306c-0.0899,0.5583 -0.4668,0.9546 -1.1306,1.1889c0.3518,0.1368 0.6143,0.3586 0.7875,0.6654c0.176,0.3073 0.233,0.6533 0.1711,1.038c-0.0899,0.5582 -0.3705,1.0012 -0.8417,1.3289c-0.4712,0.3276 -1.0105,0.4426 -1.6179,0.3447c-0.5756,-0.0927 -1.0263,-0.3344 -1.3521,-0.7252c-0.3253,-0.3936 -0.4752,-0.8629 -0.4498,-1.4078z" fill="white" id="svg_5"/>
  <path d="m56.5635,42.8569c-6.3756,-5.4648 -21.9958,-14.6183 -33.4719,-7.514c-14.34502,8.8802 -15.02812,32.1056 -13.66192,46.4507c1.36622,14.345 0.68312,19.8094 -3.4155,19.8094c-1.5386,0 -2.73626,-0.3 -3.62122,-0.69c-0.69135,-0.493 -1.31393,-0.9539 -1.84356,-1.3589c0.2417,0.3626 0.84261,0.9179 1.84356,1.3589c4.36143,3.11 11.46024,7.521 15.23394,7.521c5.4647,0 25.2746,-4.781 32.1056,-6.831c5.4648,-1.639 6.831,-9.7907 6.831,-13.6616l0,-41.669l0,-3.4155z" fill="#CA0D46" id="svg_6"/>
  <path d="m65.5087,62.3781c-0.7406,-5.8065 -4.5922,-10.7134 -9.8511,-12.4308c-6.7403,-2.2081 -15.1101,-2.1263 -20.5171,0c-8.2957,3.1895 -9.0364,20.936 -9.0364,20.936c-0.3704,1.2267 -0.6666,2.5352 -0.8148,3.9255c-1.3332,11.6129 6.444,22.3263 17.4803,23.8801c10.0734,1.3901 19.332,-5.3158 21.8503,-15.3749c2.074,-6.9513 1.6295,-15.2113 0.8888,-20.9359z" fill="#FFC197" id="svg_7"/>
  <path d="m49.6964,48.1442c0.7809,1.7242 10.5865,21.294 18.5698,19.1387c7.9833,-2.2415 2.5165,-15.2592 -3.2106,-21.2939c-5.7272,-6.0348 -19.0906,-6.6382 -15.3592,2.1552z" fill="#CA0D46" id="svg_8"/>
  <path d="m49.0488,67.4485c0,0 2.0091,4.7199 5.4648,5.3099c0,0 -4.7415,1.5733 -5.4648,-5.3099z" fill="#BC7646" id="svg_9"/>
  <path d="m62.7109,74.2795c0,0 2.4931,1.2947 4.0958,0.6093c0.0891,0 -1.9588,2.0562 -4.0958,-0.6093z" fill="#BC7646" id="svg_10"/>
  <path d="m61.9941,75.6458c0,0 1.1547,6.4254 0.533,7.4198c-0.6218,0.9944 -1.2436,0.9944 -2.3094,0.2295c-1.0659,-0.7649 1.7764,-7.6493 1.7764,-7.6493z" fill="#BC7646" id="svg_11"/>
  <path d="m19.6761,72.9132c6.0113,0.5465 23.453,-16.1667 31.4225,-24.5915c-14.7549,-7.6508 -25.73,-0.4554 -29.3732,4.0985c-3.1878,6.6033 -8.0606,19.9465 -2.0493,20.493z" fill="#CA0D46" id="svg_12"/>
  <path d="m20.8798,83.793c-3.2921,-0.4176 -5.6944,-3.2578 -5.2495,-6.4321l0.0889,-0.8354c0.4449,-3.0908 3.4701,-5.3462 6.8511,-4.9285c3.2921,0.4177 5.6944,3.2578 5.2495,6.4321l-0.089,0.8354c-0.4448,3.0908 -3.559,5.3462 -6.851,4.9285z" fill="#FFC197" id="svg_13"/>
  <circle fill="none" id="svg_14" r="6.33099" stroke="#5194A6" transform="matrix(-1 0 0 1 51.7813 70.1808)"/>
  <path d="m63.211,75.6457c0,1.8113 0.4416,3.4269 1.1292,4.573c0.6936,1.156 1.5822,1.758 2.4694,1.758c0.8872,0 1.7758,-0.602 2.4694,-1.758c0.6877,-1.1461 1.1292,-2.7617 1.1292,-4.573c0,-1.8113 -0.4415,-3.4269 -1.1292,-4.573c-0.6936,-1.1561 -1.5822,-1.758 -2.4694,-1.758c-0.8872,0 -1.7758,0.6019 -2.4694,1.758c-0.6876,1.1461 -1.1292,2.7617 -1.1292,4.573z" fill="none" id="svg_15" stroke="#5194A6"/>
  <path d="m63.3945,74.9626c-0.6831,-0.9108 -2.7324,-2.7324 -5.4648,-2.7324" id="svg_16" stroke="#5194A6"/>
  <path d="m52.4639,85.8923c0.2277,0.6831 1.2295,2.0493 3.4155,2.0493" id="svg_17" stroke="#BC7646"/>
 </g>
</svg>