<?xml version="1.0"?>
<svg width="173" height="142" xmlns="http://www.w3.org/2000/svg" xmlns:svg="http://www.w3.org/2000/svg">
 <defs>
  <linearGradient id="paint0_linear" x1="-0.000428" x2="0.999808" y1="0.499004" y2="0.499004">
   <stop stop-color="#410F0B"/>
   <stop offset="0.6172" stop-color="#410F0B"/>
   <stop offset="0.8726" stop-color="#47140B"/>
   <stop offset="1" stop-color="#4D190B"/>
  </linearGradient>
  <linearGradient id="paint1_linear" x1="-0.001678" x2="0.996121" y1="0.497989" y2="0.497989">
   <stop stop-color="#410F0B"/>
   <stop offset="0.6172" stop-color="#410F0B"/>
   <stop offset="0.8726" stop-color="#47140B"/>
   <stop offset="1" stop-color="#4D190B"/>
  </linearGradient>
 </defs>
 <g class="layer">
  <title>Layer 1</title>
  <circle cx="84.0242" cy="58.9113" fill="#5194A6" id="svg_1" r="58.2127"/>
  <rect fill="#EBF4FF" height="55.4984" id="svg_2" rx="3" transform="rotate(17.5046 97.1582 14.4054)" width="34.6865" x="97.1582" y="14.4054"/>
  <rect fill="#EBF4FF" height="6.9373" id="svg_3" rx="0.69373" transform="rotate(17.5046 93.3682 24.1208)" width="1.38746" x="93.3682" y="24.1208"/>
  <rect fill="#EBF4FF" height="6.9373" id="svg_4" rx="0.69373" transform="rotate(17.5046 127.073 32.5692)" width="1.38746" x="127.073" y="32.5692"/>
  <rect fill="#EBF4FF" height="6.9373" id="svg_5" rx="0.69373" transform="rotate(17.5046 124.57 40.5084)" width="1.38746" x="124.57" y="40.5084"/>
  <rect fill="#3D6A9E" height="46.4799" id="svg_6" transform="rotate(17.5046 99.6318 18.0953)" width="27.7492" x="99.6318" y="18.0953"/>
  <circle cx="97.6128" cy="69.4689" fill="#CAD7E6" id="svg_7" r="1.73433" transform="rotate(17.5046 97.6128 69.4689)"/>
  <path clip-rule="evenodd" d="m138.214,51.713l-8.556,4.9403l-8.557,-4.9403l0,6.0467l8.304,0l0.253,-0.1456l0.252,0.1456l8.304,0l0,-6.0467z" fill="#EC1455" fill-rule="evenodd" id="svg_8"/>
  <rect fill="#FFAD69" height="38.8081" id="svg_9" width="53.8305" x="102.3223" y="63.5246"/>
  <rect fill="#FA9F4D" height="38.8081" id="svg_10" width="36.3043" x="102.3223" y="63.5246"/>
  <rect fill="#FA9F4D" height="6.25936" id="svg_11" width="55.0824" x="101.6963" y="57.2653"/>
  <rect fill="#EF964D" height="6.25936" id="svg_12" width="36.9302" x="101.6963" y="57.2653"/>
  <rect fill="#EC1455" height="45.0674" id="svg_13" width="5.63343" x="116.093" y="57.2653"/>
  <rect fill="#ED588D" height="45.0674" id="svg_14" width="3.12968" x="147.39" y="57.2653"/>
  <path d="m45.12,59.7549c6.6391,0 12.6634,3.3167 16.7821,8.6373c5.3481,1.1055 9.4668,2.6948 9.4668,2.6948l-3.8113,17.8272c-0.2459,2.2803 -0.6762,4.4223 -1.4139,6.4952c-3.258,9.7426 -11.4954,16.6526 -21.0852,16.6526c-12.4789,0 -22.62198,-11.678 -22.62198,-26.119c0,-14.4414 10.14298,-26.1881 22.68348,-26.1881z" fill="#FFC197" id="svg_15"/>
  <path d="m56.087,82.0952c0,0 -4.555,1.4164 -9.8821,-2.2365c-0.0772,-0.0745 5.2499,7.1566 9.8821,2.2365z" fill="#E0AA85" id="svg_16"/>
  <path d="m62.9326,85.0648c0,0 2.7819,1.3809 5.9298,0.4874c-0.0733,0 -4.3192,3.6552 -5.9298,-0.4874z" fill="#E0AA85" id="svg_17"/>
  <path d="m60.1358,87.7645c0,0 -0.3765,13.5935 -1.3805,13.8125c-1.004,0.219 -2.5727,-1.169 -2.5727,-1.169l3.9532,-12.6435z" fill="#E0AA85" id="svg_18"/>
  <path d="m50.1563,103.334c0,0 -5.9246,-2.16 -5.0504,-5.6867c-0.0972,0 -3.885,7.3427 5.0504,5.6867z" fill="#E0AA85" id="svg_19"/>
  <path d="m69.6817,69.8412c0,0 -4.8153,4.3817 -12.3717,4.3817c-7.5564,0 -13.0385,-0.9389 -16.7426,-2.1908c-3.7041,-1.2519 -0.9631,-3.521 -6.4452,0c-5.482,3.521 -7.3341,11.3454 -7.3341,11.3454c0,0 -1.7039,-6.4943 -5.55616,-6.729c-3.85228,-0.2347 -4.96351,9.2328 -6.6674,0c-1.70389,-9.2328 -0.07408,-22.8473 12.22356,-27.7767c12.2976,-5.0076 23.9286,-6.0248 30.5219,-1.0172c6.5933,5.0077 9.3343,9.3893 9.3343,9.3893l3.0374,12.5973z" fill="url(#paint0_linear)" id="svg_20"/>
  <path d="m67.2042,71.8797c0,0 1.8274,16.563 5.9207,15.8632c4.0932,-0.6998 8.4789,-11.8974 5.9206,-17.8849c-2.5583,-5.9876 -9.0637,-11.7419 -11.8413,-11.7419c-2.7776,-0.0778 0,13.7636 0,13.7636z" fill="url(#paint1_linear)" id="svg_21"/>
  <path d="m21.59313,90.1268c3.26157,0 5.90567,-3.0218 5.90567,-6.7493c0,-3.7276 -2.6441,-6.7493 -5.90567,-6.7493c-3.26159,0 -5.90563,3.0217 -5.90563,6.7493c0,3.7275 2.64404,6.7493 5.90563,6.7493z" fill="#FFC197" id="svg_22"/>
 </g>
</svg>