<svg width="538" height="613" viewBox="0 0 538 613" fill="none" xmlns="http://www.w3.org/2000/svg">
<g id="&#208;&#161;&#209;&#131;&#208;&#191;&#208;&#181;&#209;&#128; &#208;&#160;&#208;&#190;&#208;&#183;&#209;&#131;&#208;&#188;">
<path id="Vector" d="M381.25 219.761C381.25 219.761 383.25 223.761 381.25 229.761C379.25 235.761 379.25 236.761 379.25 236.761L400.25 227.761L396.25 206.761L381.25 219.761Z" fill="#EFC3A5"/>
<path id="Vector_2" d="M408.85 108.161C408.55 107.461 408.25 106.861 407.95 106.161C407.95 106.161 391.25 64.8611 387.25 61.8611C383.25 58.8611 365.25 38.8611 360.25 35.8611C355.25 32.8611 330.25 22.8611 327.25 22.8611C324.25 22.8611 311.25 39.8611 311.25 39.8611L314.55 46.1611C307.25 46.9611 300.05 48.7611 293.05 51.7611C289.85 53.1611 286.75 54.7611 283.85 56.5611L282.25 51.8611L233.25 82.8611C233.25 82.8611 224.25 120.861 233.25 138.861C242.25 156.861 259.95 186.061 259.95 186.061C283.85 227.861 330.85 247.861 370.05 231.061C412.75 212.661 430.15 157.661 408.85 108.161Z" fill="#F7CBAD"/>
<g id="&#208;&#179;&#208;&#187;&#208;&#176;&#208;&#183; 2">
<path id="Vector_3" d="M337.751 133.361C337.251 134.661 336.551 137.361 337.151 138.761C338.051 140.761 339.251 142.761 341.151 145.261C344.151 149.261 349.151 151.661 349.751 152.061C352.051 153.761 372.451 148.461 375.951 137.261C379.451 126.161 378.151 113.861 375.551 111.561C372.951 109.361 355.051 99.3612 346.451 115.761C341.151 125.661 338.751 130.861 337.751 133.361Z" fill="white"/>
<g id="Group">
<path id="Vector_4" d="M355.451 107.461C351.851 107.961 348.851 110.961 347.351 114.561C345.851 118.161 345.651 122.261 346.151 126.261C346.651 130.061 347.651 133.861 349.751 136.961C351.851 140.061 355.051 142.461 358.451 142.761C360.151 142.961 361.851 142.561 363.451 141.961C367.651 140.261 371.051 136.361 372.651 131.761C374.251 127.161 374.251 121.961 372.951 117.161C372.351 114.861 371.351 112.561 369.851 110.661C367.051 107.161 362.351 105.561 358.251 106.461C354.151 107.361 350.651 110.761 348.951 114.961" fill="url(#paint0_radial)"/>
</g>
<g id="Group_2">
<path id="Vector_5" d="M357.75 116.561C356.25 116.761 354.95 117.961 354.35 119.361C353.75 120.761 353.65 122.461 353.85 123.961C354.05 125.461 354.45 126.961 355.35 128.161C356.25 129.361 357.55 130.361 358.95 130.461C359.65 130.561 360.35 130.361 361.05 130.161C362.85 129.461 364.25 127.961 364.95 126.061C365.65 124.161 365.65 122.161 365.15 120.261C364.85 119.361 364.45 118.461 363.85 117.661C362.65 116.261 360.75 115.661 359.05 116.061C357.35 116.461 355.85 117.761 355.15 119.461" fill="#333333"/>
</g>
<g id="Group_3">
<g id="Group_4">
<path id="Vector_6" d="M336.751 138.761C337.951 134.961 338.751 130.961 340.251 127.261C341.751 123.561 343.851 120.261 346.251 117.061C348.751 113.861 351.751 111.261 355.351 109.361C358.751 107.461 362.751 107.561 366.451 108.561C369.751 109.461 372.951 110.961 374.651 114.061C375.851 116.261 379.151 114.361 378.051 112.061C376.251 108.661 373.051 106.661 369.551 105.461C365.551 104.061 361.051 103.561 356.951 104.961C354.851 105.661 353.051 107.061 351.351 108.461C349.651 109.861 347.951 111.361 346.451 113.061C343.651 116.461 341.451 120.361 339.651 124.361C337.651 128.761 335.951 133.761 336.151 138.661C336.151 138.961 336.651 139.061 336.751 138.761Z" fill="#333333"/>
</g>
</g>
<g id="Group_5">
<g id="Group_6">
<path id="Vector_7" d="M347.55 151.761C354.75 155.861 363.95 151.861 369.85 147.061C373.05 144.461 375.55 141.161 377.25 137.361C378.95 133.561 380.35 129.061 378.95 124.961C378.65 124.061 377.15 124.161 377.15 125.161C377.55 132.961 374.15 140.261 368.25 145.261C365.35 147.661 362.05 149.561 358.45 150.561C354.95 151.561 351.25 151.561 347.65 151.261C347.45 151.261 347.35 151.661 347.55 151.761Z" fill="#333333"/>
</g>
</g>
<g id="Group_7">
<g id="Group_8">
<path id="Vector_8" d="M354.351 120.161C354.251 120.661 354.151 121.061 354.051 121.561C353.951 121.761 353.951 121.961 354.051 122.161C354.051 122.261 354.151 122.461 354.251 122.561C354.351 122.661 354.451 122.761 354.551 122.861C354.751 122.961 354.951 122.961 355.051 122.961C355.251 122.961 355.451 122.961 355.651 122.961C355.951 122.961 356.151 122.761 356.351 122.561C356.551 122.361 356.651 122.161 356.751 121.961C356.851 121.761 356.851 121.561 356.851 121.261C356.851 121.061 356.851 120.961 356.751 120.761C356.651 120.661 356.651 120.561 356.551 120.461C356.451 120.361 356.351 120.261 356.251 120.261C356.051 120.161 355.851 120.161 355.651 120.061C355.451 120.061 355.351 120.061 355.151 120.161C355.051 120.161 354.951 120.161 354.851 120.261C354.651 120.361 354.551 120.361 354.351 120.461C354.151 120.661 353.951 120.761 353.851 121.061C353.651 121.461 353.551 121.861 353.751 122.261C353.851 122.461 353.951 122.661 354.151 122.861C354.351 122.961 354.451 123.161 354.751 123.161C354.851 123.161 355.051 123.261 355.151 123.161C355.551 123.161 355.851 123.061 356.151 122.861C356.751 122.461 357.151 121.961 357.351 121.261C357.351 121.161 357.451 120.961 357.351 120.861C357.351 120.761 357.351 120.561 357.251 120.461C357.051 120.261 356.851 120.061 356.651 119.961C356.051 119.761 355.251 119.861 354.751 120.361C354.551 120.561 354.551 120.661 354.451 120.961C354.351 121.061 354.351 121.261 354.351 121.461C354.351 121.561 354.351 121.761 354.351 121.861V121.961C354.351 122.061 354.451 122.161 354.451 122.261C354.651 122.661 355.151 122.961 355.551 122.961C355.951 122.961 356.251 122.861 356.551 122.661C356.851 122.461 357.051 122.261 357.251 121.961C357.451 121.661 357.451 121.361 357.451 121.061C357.451 120.661 357.251 120.261 356.951 119.961C356.751 119.761 356.551 119.661 356.351 119.661C356.151 119.661 356.051 119.661 355.851 119.661C355.651 119.661 355.551 119.661 355.351 119.761C355.151 119.761 355.051 119.861 354.851 119.961C354.751 120.061 354.551 120.161 354.451 120.261C354.351 120.361 354.251 120.461 354.151 120.661V120.761C354.151 120.861 354.051 120.961 354.051 121.061C354.051 121.161 354.051 121.261 353.951 121.461V121.561C353.951 121.861 354.051 122.061 354.151 122.261C354.151 122.361 354.251 122.361 354.251 122.461C354.351 122.561 354.351 122.561 354.451 122.661C354.651 122.861 354.851 122.961 355.051 123.061C355.151 123.061 355.151 123.061 355.251 123.061C355.351 123.061 355.451 123.061 355.451 123.061C355.651 123.061 355.751 123.061 355.951 122.961C356.251 122.861 356.351 122.761 356.551 122.561C356.651 122.461 356.651 122.461 356.751 122.361C356.851 122.261 356.951 122.061 357.051 121.961C357.151 121.761 357.151 121.561 357.151 121.461C357.151 121.361 357.151 121.261 357.151 121.161C357.151 121.061 357.051 120.961 357.051 120.861C356.851 120.561 356.651 120.361 356.351 120.261C356.251 120.261 356.051 120.161 355.951 120.161C355.751 120.161 355.551 120.261 355.251 120.361C355.051 120.461 354.951 120.661 354.751 120.861C354.651 120.961 354.651 121.061 354.651 121.161C354.651 121.261 354.651 121.361 354.651 121.461C354.651 121.461 354.651 121.461 354.651 121.561C354.651 121.661 354.651 121.861 354.751 121.961C354.751 122.061 354.851 122.161 354.951 122.261C355.151 122.461 355.451 122.561 355.751 122.561C356.051 122.561 356.351 122.461 356.551 122.261C356.651 122.161 356.651 122.161 356.751 122.061C356.851 121.861 356.851 121.661 356.851 121.561C356.851 121.561 356.851 121.561 356.851 121.461C356.851 121.561 356.851 121.661 356.851 121.761C356.851 121.761 356.851 121.761 356.851 121.661C356.851 121.761 356.751 121.861 356.751 121.961C356.751 121.961 356.751 121.961 356.751 121.861C356.651 121.961 356.651 121.961 356.551 122.061C356.451 122.161 356.451 122.161 356.351 122.261C356.351 122.261 356.351 122.261 356.451 122.261C356.351 122.261 356.251 122.361 356.151 122.361H356.251C356.151 122.361 356.051 122.361 355.951 122.361H356.051C355.951 122.361 355.851 122.361 355.751 122.361C355.751 122.361 355.751 122.361 355.851 122.361C355.751 122.361 355.651 122.261 355.551 122.261C355.451 122.161 355.451 122.161 355.351 122.061C355.251 121.961 355.251 121.961 355.151 121.861C355.151 121.761 355.051 121.661 355.051 121.561C355.051 121.261 355.151 120.961 355.151 120.761C355.151 120.861 355.051 120.861 355.051 120.961C355.151 120.861 355.151 120.861 355.251 120.761C355.151 120.861 355.151 120.961 355.051 120.961C355.151 120.861 355.151 120.861 355.251 120.761L355.151 120.861C355.251 120.861 355.351 120.761 355.451 120.761H355.351C355.451 120.761 355.551 120.761 355.651 120.761H355.551C355.651 120.761 355.751 120.761 355.851 120.761H355.751C355.851 120.761 355.951 120.861 356.051 120.861C356.051 120.861 355.951 120.861 355.951 120.761C356.051 120.861 356.051 120.861 356.151 120.961C356.151 120.961 356.051 120.961 356.051 120.861C356.151 120.961 356.151 120.961 356.251 121.061C356.251 121.061 356.251 120.961 356.151 120.961C356.151 121.061 356.251 121.161 356.251 121.261V121.161C356.251 121.261 356.251 121.361 356.251 121.461C356.251 121.361 356.251 121.361 356.251 121.261C356.251 121.361 356.251 121.461 356.251 121.561C356.251 121.461 356.251 121.461 356.251 121.361C356.251 121.461 356.151 121.561 356.151 121.661C356.151 121.561 356.251 121.561 356.251 121.461C356.151 121.561 356.151 121.561 356.051 121.661L356.151 121.561C356.051 121.661 356.051 121.661 355.951 121.761C356.051 121.761 356.051 121.661 356.151 121.661C356.051 121.661 355.951 121.761 355.851 121.761C355.951 121.761 356.051 121.661 356.151 121.661C356.051 121.661 355.951 121.661 355.851 121.661C355.951 121.661 356.151 121.661 356.251 121.661C356.151 121.661 356.051 121.661 355.951 121.661H356.051C355.951 121.661 355.851 121.561 355.751 121.561C355.751 121.561 355.751 121.561 355.851 121.561C355.751 121.461 355.751 121.461 355.651 121.361C355.651 121.361 355.651 121.361 355.751 121.461C355.651 121.361 355.651 121.361 355.551 121.261V121.361C355.551 121.261 355.451 121.161 355.451 121.061V121.161C355.451 121.061 355.451 120.961 355.451 120.861C355.451 120.961 355.451 120.961 355.451 121.061C355.451 120.961 355.451 120.861 355.451 120.761V120.861C355.451 120.761 355.551 120.661 355.551 120.561C355.551 120.561 355.551 120.661 355.451 120.661C355.551 120.561 355.551 120.561 355.651 120.461C355.651 120.561 355.551 120.561 355.451 120.661C355.551 120.561 355.551 120.561 355.651 120.461C355.551 120.561 355.451 120.661 355.251 120.661C355.351 120.661 355.451 120.561 355.551 120.561H355.451C355.551 120.561 355.651 120.561 355.751 120.561H355.651C355.751 120.561 355.851 120.561 355.951 120.561C355.951 120.561 355.951 120.561 355.851 120.561C355.951 120.561 356.051 120.661 356.151 120.661C356.151 120.661 356.151 120.661 356.051 120.661C356.151 120.761 356.151 120.761 356.251 120.861C356.251 120.861 356.251 120.861 356.151 120.761C356.251 120.861 356.251 120.861 356.351 120.961V120.861C356.351 120.961 356.451 121.061 356.451 121.161V121.061C356.451 121.161 356.451 121.261 356.451 121.361C356.451 121.261 356.451 121.261 356.451 121.161C356.451 121.261 356.451 121.361 356.451 121.461V121.361C356.451 121.461 356.351 121.561 356.351 121.661C356.351 121.661 356.351 121.561 356.451 121.561C356.351 121.661 356.351 121.661 356.251 121.761C356.251 121.761 356.251 121.761 356.351 121.661C356.251 121.761 356.251 121.761 356.151 121.861C356.151 121.861 356.251 121.861 356.251 121.761C356.151 121.761 356.051 121.861 355.951 121.861H356.051C355.951 121.861 355.851 121.861 355.751 121.861C355.851 121.861 355.951 121.861 355.951 121.861C355.851 121.861 355.751 121.861 355.651 121.861C355.751 121.861 355.851 121.861 355.951 121.961C355.651 121.561 355.451 121.061 355.151 120.661C355.151 120.761 355.151 120.761 355.051 120.861C355.051 120.761 355.151 120.661 355.151 120.561C355.051 120.661 355.051 120.861 354.951 120.961C355.051 120.861 355.051 120.861 355.151 120.761C355.051 120.861 354.951 120.961 354.851 121.061C354.951 120.961 354.951 120.961 355.051 120.861C354.951 120.961 354.851 120.961 354.751 121.061C354.851 121.061 354.951 120.961 355.051 120.961C354.951 120.961 354.851 121.061 354.751 121.061C354.851 121.061 354.951 121.061 355.051 121.061H354.951C355.051 121.061 355.151 121.061 355.251 121.061C355.251 121.061 355.251 121.061 355.151 121.061C355.251 121.061 355.351 121.161 355.451 121.161C355.451 121.161 355.451 121.161 355.351 121.161C355.451 121.261 355.451 121.261 355.551 121.361C355.651 121.461 355.651 121.461 355.751 121.561C355.751 121.561 355.751 121.561 355.751 121.461C355.751 121.561 355.851 121.661 355.851 121.761V121.661C355.851 121.761 355.851 121.861 355.851 121.961V121.861C355.851 121.961 355.851 122.061 355.851 122.161C355.851 122.061 355.851 122.061 355.851 122.061C355.851 122.161 355.751 122.261 355.751 122.361V122.261C355.651 122.361 355.651 122.361 355.551 122.461L355.651 122.361C355.551 122.461 355.551 122.461 355.451 122.561C355.551 122.561 355.551 122.461 355.651 122.461C355.551 122.461 355.451 122.561 355.351 122.561C355.451 122.461 355.651 122.461 355.751 122.461C355.651 122.461 355.551 122.461 355.451 122.461H355.551C355.451 122.461 355.351 122.461 355.251 122.461H355.351C355.251 122.461 355.151 122.361 355.051 122.361C355.051 122.361 355.051 122.361 355.151 122.361C355.051 122.261 355.051 122.261 354.951 122.161C354.851 122.061 354.851 122.061 354.751 121.961C354.751 121.961 354.751 121.961 354.751 122.061C354.751 121.961 354.651 121.861 354.651 121.761V121.861C354.651 121.761 354.651 121.661 354.651 121.561V121.661C354.651 121.561 354.651 121.461 354.651 121.361V121.461C354.651 121.361 354.751 121.261 354.751 121.161C354.751 121.161 354.751 121.261 354.651 121.261C354.751 121.161 354.751 121.161 354.851 121.061C354.851 121.061 354.851 121.061 354.751 121.161C354.851 121.061 354.851 121.061 354.951 120.961C354.951 120.961 354.851 120.961 354.851 121.061C354.951 121.061 355.051 120.961 355.151 120.961H355.051C355.151 120.961 355.251 120.961 355.351 120.961C355.251 120.961 355.151 120.961 355.051 120.961C355.351 121.461 355.751 121.861 356.051 122.361C356.151 121.861 356.251 121.461 356.351 120.961C356.451 120.661 356.351 120.361 356.251 120.161C356.151 119.961 355.851 119.761 355.651 119.661C355.351 119.561 355.051 119.661 354.851 119.761C354.551 119.661 354.351 119.861 354.351 120.161Z" fill="white"/>
</g>
</g>
<g id="Group_9">
<g id="Group_10">
<path id="Vector_9" d="M354.951 126.361C355.151 126.261 355.251 126.261 355.451 126.161C355.551 126.061 355.651 125.961 355.651 125.861C355.651 125.761 355.651 125.661 355.651 125.461C355.651 125.361 355.551 125.261 355.451 125.161C355.351 125.061 355.151 125.061 355.051 125.061C354.851 125.161 354.751 125.161 354.551 125.261C354.451 125.361 354.251 125.461 354.151 125.561C354.051 125.661 353.951 125.961 354.051 126.061C354.051 126.261 354.251 126.361 354.451 126.461C354.651 126.461 354.851 126.561 355.151 126.461C355.351 126.361 355.551 126.261 355.651 126.061C355.751 125.961 355.751 125.961 355.751 125.861C355.751 125.761 355.751 125.761 355.751 125.661C355.751 125.461 355.651 125.361 355.451 125.261C355.251 125.061 354.851 125.061 354.551 125.161C354.351 125.261 354.251 125.361 354.151 125.561C354.151 125.761 354.151 125.961 354.251 126.061C354.351 126.161 354.551 126.261 354.651 126.361C354.851 126.461 354.951 126.361 355.151 126.361C355.451 126.361 355.651 126.161 355.851 125.861C355.851 125.761 355.951 125.661 355.951 125.561C355.951 125.461 355.951 125.361 355.851 125.261C355.751 125.161 355.751 125.161 355.651 125.061H355.551C355.451 125.061 355.451 125.061 355.351 125.061C355.051 125.061 354.751 125.161 354.551 125.161C354.451 125.161 354.251 125.261 354.251 125.361C354.151 125.461 354.151 125.661 354.151 125.761C354.151 125.861 354.251 126.061 354.351 126.061C354.351 126.061 354.451 126.061 354.451 126.161C354.651 126.261 354.751 126.261 354.951 126.361C355.151 126.261 355.451 126.161 355.651 126.161C355.451 125.861 355.251 125.661 355.051 125.361C355.051 125.361 355.051 125.361 355.051 125.461L355.151 125.361L355.051 125.461L355.151 125.361L355.051 125.461C355.051 125.461 355.151 125.461 355.151 125.361H355.051H355.151H355.051H355.151H355.051C355.051 125.361 355.151 125.361 355.151 125.461C355.151 125.461 355.051 125.461 355.051 125.361L355.151 125.461C355.051 125.661 355.051 125.961 354.951 126.361C354.951 126.261 354.951 126.261 354.951 126.261H354.851C354.951 126.261 354.951 126.261 354.951 126.361C354.951 126.261 354.851 126.261 354.851 126.261C354.951 126.261 354.951 126.261 354.951 126.361C354.951 126.261 354.851 126.261 354.851 126.261C354.851 126.161 354.951 126.261 354.951 126.361C354.851 125.961 354.851 125.761 354.851 125.461L354.751 125.561L354.851 125.461C354.851 125.461 354.751 125.561 354.651 125.561C354.651 125.561 354.751 125.561 354.751 125.461C354.651 125.461 354.651 125.461 354.551 125.461H354.651C354.551 125.461 354.551 125.461 354.451 125.461H354.551C354.551 125.461 354.551 125.461 354.451 125.461C354.751 125.761 354.851 126.061 354.951 126.361C354.951 126.361 355.051 126.361 354.951 126.361C355.051 126.361 354.951 126.361 354.951 126.361C355.051 126.361 355.251 126.261 355.351 126.161C355.351 126.161 355.251 126.161 355.251 126.261C355.151 125.961 354.951 125.561 354.851 125.261C354.651 125.361 354.551 125.361 354.351 125.461C354.251 125.561 354.151 125.661 354.151 125.761C354.151 125.861 354.151 126.061 354.251 126.161C354.351 126.261 354.451 126.361 354.551 126.361H354.651C354.851 126.361 354.951 126.361 354.951 126.361Z" fill="white"/>
</g>
</g>
</g>
<g id="&#208;&#179;&#208;&#187;&#208;&#176;&#208;&#183; 1">
<path id="Vector_10" d="M291.351 152.861C292.551 153.561 294.851 155.161 295.251 156.561C295.951 158.561 296.451 160.961 296.851 163.961C297.451 168.861 295.651 173.761 295.551 174.361C295.151 176.961 277.751 185.661 268.151 179.361C258.551 173.061 256.151 164.061 255.251 160.861C253.251 153.861 257.651 137.961 274.151 144.961C284.151 149.161 289.051 151.661 291.351 152.861Z" fill="white"/>
<g id="Group_11">
<path id="Vector_11" d="M273.251 144.761C276.151 143.761 280.251 145.761 283.251 146.761C286.451 147.861 287.25 150.461 288.55 153.761C289.75 156.961 290.551 160.361 290.251 163.661C289.951 166.961 288.55 170.061 286.05 171.761C284.85 172.561 283.45 172.961 281.95 173.061C278.05 173.461 273.95 171.661 270.85 168.661C267.75 165.661 265.65 161.561 264.65 157.261C264.15 155.161 263.95 152.961 264.35 150.961C265.05 147.061 267.85 142.261 271.45 142.961C275.25 143.761 278.25 145.761 281.95 145.961" fill="url(#paint1_radial)"/>
</g>
<g id="Group_12">
<path id="Vector_12" d="M275.85 149.961C277.05 149.561 278.55 149.961 279.55 150.861C280.65 151.761 281.35 152.961 281.85 154.361C282.35 155.661 282.65 156.961 282.45 158.261C282.35 159.561 281.65 160.861 280.65 161.561C280.15 161.861 279.55 162.061 278.95 162.161C277.35 162.361 275.65 161.661 274.35 160.461C273.05 159.261 272.25 157.661 271.85 155.961C271.65 155.161 271.65 154.261 271.75 153.461C272.05 151.861 273.25 150.661 274.75 150.261C276.25 149.861 277.85 150.361 279.05 151.361" fill="#333333"/>
</g>
<g id="Group_13">
<g id="Group_14">
<path id="Vector_13" d="M295.951 155.961C293.451 152.661 289.851 150.261 286.251 148.261C282.551 146.261 278.651 144.561 274.651 143.461C272.551 142.861 270.451 142.561 268.251 142.461C266.151 142.361 264.051 142.261 261.951 142.561C258.151 143.161 254.851 146.461 253.051 149.661C250.751 153.561 251.851 158.661 252.951 162.761C253.651 165.061 257.251 164.061 256.551 161.761C255.951 159.661 255.351 157.461 255.351 155.261C255.351 153.161 255.951 151.561 257.151 149.861C258.251 148.261 260.251 146.561 262.151 145.861C264.351 145.061 266.751 145.161 269.051 145.161C273.851 145.161 279.051 146.661 283.351 148.661C287.751 150.761 291.451 153.761 295.551 156.361C295.851 156.561 296.151 156.261 295.951 155.961Z" fill="#333333"/>
</g>
</g>
<g id="Group_15">
<g id="Group_16">
<path id="Vector_14" d="M296.351 172.661C294.251 174.961 291.751 177.261 288.851 178.661C285.751 180.161 282.251 180.861 278.851 180.761C271.151 180.661 264.051 176.961 259.251 170.961C258.551 170.161 257.551 171.161 257.851 171.961C259.451 175.561 262.951 177.961 266.351 179.761C270.251 181.861 274.551 182.961 279.051 182.961C285.951 182.861 294.551 180.061 296.751 172.761C296.851 172.661 296.551 172.461 296.351 172.661Z" fill="#333333"/>
</g>
</g>
<g id="Group_17">
<g id="Group_18">
<path id="Vector_15" d="M270.551 154.861C270.951 155.161 271.251 155.361 271.651 155.661C271.551 155.161 271.551 154.561 271.451 154.061C271.451 154.061 271.351 154.161 271.251 154.161C271.351 154.061 271.351 154.061 271.451 153.961L271.351 154.061C271.451 154.061 271.551 153.961 271.551 153.961H271.451C271.551 153.961 271.651 153.961 271.751 153.961H271.651C271.751 153.961 271.851 153.961 271.951 153.961H271.851C271.951 153.961 272.051 154.061 272.051 154.061C272.051 154.061 271.951 154.061 271.951 153.961C272.051 154.061 272.051 154.061 272.151 154.161L272.051 154.061C272.151 154.161 272.151 154.161 272.251 154.261C272.251 154.261 272.251 154.161 272.151 154.161C272.151 154.261 272.251 154.361 272.251 154.361C272.251 154.361 272.251 154.361 272.251 154.261C272.251 154.361 272.251 154.461 272.251 154.561V154.461C272.251 154.561 272.251 154.661 272.251 154.761C272.251 154.761 272.251 154.761 272.251 154.661C272.251 154.761 272.151 154.861 272.151 154.861C272.151 154.861 272.151 154.861 272.151 154.761C272.051 154.861 272.051 154.861 271.951 154.961L272.051 154.861C271.951 154.961 271.951 154.961 271.851 155.061C271.951 154.961 272.051 154.961 272.151 154.961C272.051 154.961 271.951 155.061 271.951 155.061C272.051 155.061 272.151 154.961 272.151 154.961C272.051 154.961 271.951 154.961 271.851 154.961H271.951C271.851 154.961 271.751 154.961 271.651 154.961H271.751C271.651 154.961 271.551 154.861 271.551 154.861C271.551 154.861 271.651 154.861 271.651 154.961C271.551 154.861 271.551 154.861 271.451 154.761L271.551 154.861C271.451 154.761 271.451 154.761 271.351 154.661C271.351 154.661 271.351 154.761 271.451 154.761C271.451 154.661 271.351 154.561 271.351 154.561V154.661C271.351 154.561 271.351 154.461 271.351 154.361C271.351 154.361 271.351 154.361 271.351 154.461C271.351 154.361 271.351 154.261 271.351 154.161C271.351 154.161 271.351 154.161 271.351 154.261C271.351 154.161 271.451 154.061 271.451 154.061C271.551 153.961 271.551 153.961 271.651 153.861C271.651 153.861 271.651 153.861 271.551 153.961C271.651 153.861 271.651 153.861 271.751 153.761C271.751 153.761 271.651 153.861 271.551 153.861C271.651 153.861 271.751 153.761 271.751 153.761C271.651 153.761 271.551 153.861 271.451 153.861C271.551 153.861 271.651 153.861 271.751 153.861C271.651 153.861 271.551 153.861 271.451 153.861C271.551 153.861 271.651 153.861 271.751 153.861C271.651 153.861 271.451 153.761 271.351 153.761C271.451 153.761 271.551 153.861 271.551 153.861C271.451 153.861 271.351 153.761 271.251 153.661C271.351 154.161 271.451 154.561 271.651 155.061C271.651 154.961 271.751 154.961 271.751 154.861C271.651 154.961 271.651 154.961 271.551 155.061C271.551 154.961 271.651 154.961 271.651 154.961C271.551 155.061 271.551 155.061 271.451 155.161C271.451 155.161 271.551 155.161 271.551 155.061C271.451 155.061 271.351 155.161 271.351 155.161H271.451C271.351 155.161 271.251 155.161 271.151 155.161H271.251C271.151 155.161 271.051 155.161 270.951 155.161H271.051C270.951 155.161 270.851 155.061 270.851 155.061C270.851 155.061 270.951 155.061 270.951 155.161C270.851 155.061 270.851 155.061 270.751 154.961L270.851 155.061C270.751 154.961 270.751 154.961 270.651 154.861L270.751 154.961C270.751 154.861 270.651 154.761 270.651 154.761V154.861C270.651 154.761 270.651 154.661 270.651 154.561V154.661C270.651 154.561 270.651 154.461 270.651 154.361C270.651 154.361 270.651 154.361 270.651 154.461C270.651 154.361 270.751 154.261 270.751 154.261C270.751 154.261 270.751 154.261 270.751 154.361C270.851 154.261 270.851 154.261 270.951 154.161C271.051 154.061 271.051 154.061 271.151 153.961C271.151 153.961 271.151 153.961 271.051 153.961C271.151 153.961 271.251 153.861 271.251 153.861C271.151 153.861 271.051 153.861 271.051 153.961C271.151 153.961 271.251 153.961 271.351 153.961C271.251 153.961 271.151 153.961 271.051 153.961C271.151 153.961 271.251 153.961 271.351 153.961C271.251 153.961 271.251 153.961 271.151 153.861C271.251 153.861 271.351 153.961 271.351 153.961C271.351 153.961 271.251 153.961 271.251 153.861C271.351 153.961 271.351 153.961 271.451 154.061L271.351 153.961C271.451 154.061 271.451 154.061 271.551 154.161L271.451 154.061C271.451 154.161 271.551 154.261 271.551 154.261V154.161C271.551 154.261 271.551 154.361 271.551 154.461V154.361C271.551 154.461 271.551 154.561 271.551 154.661V154.561C271.551 154.661 271.451 154.761 271.451 154.761C271.451 154.761 271.451 154.761 271.451 154.661C271.351 154.761 271.351 154.761 271.251 154.861L271.351 154.761C271.251 154.861 271.251 154.861 271.151 154.961C271.251 154.861 271.351 154.761 271.551 154.761C271.451 154.761 271.351 154.861 271.351 154.861C271.451 154.861 271.451 154.861 271.551 154.861C271.451 154.861 271.351 154.861 271.251 154.861H271.351C271.251 154.861 271.151 154.861 271.051 154.861C271.151 154.861 271.151 154.861 271.251 154.861C271.151 154.861 271.051 154.761 271.051 154.761C271.151 154.761 271.151 154.861 271.251 154.861C271.151 154.761 271.151 154.761 271.051 154.661L271.151 154.761C271.051 154.661 271.051 154.661 270.951 154.561C270.951 154.561 270.951 154.661 271.051 154.661C271.051 154.561 270.951 154.461 270.951 154.461V154.561C270.951 154.461 270.951 154.361 270.951 154.261V154.361C270.951 154.261 270.951 154.161 270.951 154.061V154.161C270.951 154.061 271.051 153.961 271.051 153.961C271.051 153.961 271.051 154.061 270.951 154.061C271.051 153.961 271.051 153.961 271.151 153.861C271.151 153.861 271.151 153.861 271.051 153.961C271.151 153.861 271.151 153.861 271.251 153.761C271.251 153.761 271.151 153.761 271.151 153.861C271.251 153.861 271.351 153.761 271.351 153.761H271.251C271.351 153.761 271.451 153.761 271.551 153.761C271.451 153.761 271.351 153.761 271.351 153.761C271.451 153.761 271.551 153.761 271.651 153.761C271.551 153.761 271.351 153.661 271.251 153.661C271.451 153.861 271.651 153.961 271.851 154.161C271.851 154.261 271.951 154.361 271.951 154.361C271.951 154.361 271.951 154.361 271.951 154.261C271.951 154.361 271.951 154.461 271.951 154.561C271.951 154.661 271.951 154.761 271.951 154.861C271.951 154.861 271.951 154.861 271.951 154.761C271.951 154.861 271.851 154.961 271.851 154.961C271.751 155.061 271.751 155.061 271.651 155.161C271.651 155.161 271.651 155.161 271.651 155.061C271.551 155.161 271.551 155.161 271.451 155.261C271.351 155.261 271.251 155.361 271.251 155.361C271.251 155.361 271.251 155.361 271.351 155.361C271.251 155.361 271.151 155.361 271.051 155.361C271.051 155.361 271.051 155.361 271.151 155.361C271.051 155.361 270.951 155.361 270.851 155.361C270.851 155.361 270.851 155.361 270.951 155.361C270.851 155.361 270.751 155.261 270.751 155.261C270.751 155.261 270.751 155.261 270.851 155.261C270.751 155.161 270.751 155.161 270.651 155.061C270.551 154.961 270.551 154.961 270.451 154.861C270.651 155.061 270.751 155.261 271.051 155.361C271.251 155.461 271.651 155.361 271.851 155.261C272.051 155.161 272.251 154.861 272.351 154.661C272.451 154.361 272.451 154.061 272.251 153.861C272.151 153.661 271.951 153.561 271.751 153.361C271.551 153.261 271.351 153.161 271.151 153.161C270.751 153.161 270.251 153.361 270.051 153.761C269.951 153.961 269.851 154.161 269.851 154.361C269.851 154.561 269.951 154.861 270.051 154.961C270.151 155.161 270.451 155.361 270.651 155.461H270.751C270.951 155.461 271.051 155.561 271.251 155.561C271.551 155.561 271.951 155.561 272.151 155.361C272.351 155.261 272.451 155.061 272.651 154.861C272.651 154.861 272.651 154.861 272.651 154.761C272.751 154.661 272.751 154.561 272.751 154.461C272.851 154.061 272.751 153.661 272.551 153.361C272.451 153.261 272.351 153.161 272.251 153.061C272.151 152.961 272.051 152.861 271.851 152.761C271.751 152.661 271.551 152.661 271.451 152.561C271.351 152.561 271.151 152.461 271.051 152.461C270.751 152.461 270.451 152.561 270.151 152.761C270.051 152.761 270.051 152.861 269.951 152.861C269.751 153.061 269.651 153.161 269.451 153.361C269.351 153.561 269.251 153.661 269.251 153.861C269.251 154.061 269.251 154.261 269.251 154.461C269.351 154.861 269.651 155.161 269.951 155.361C270.251 155.561 270.551 155.661 270.851 155.661C270.951 155.661 271.051 155.661 271.251 155.661C271.351 155.661 271.451 155.661 271.651 155.561C272.051 155.461 272.451 155.061 272.551 154.661C272.751 153.861 272.151 153.161 271.451 152.861C271.251 152.761 270.951 152.761 270.751 152.861C270.551 152.861 270.451 152.961 270.351 153.061C270.051 153.261 269.851 153.461 269.651 153.761C269.551 153.961 269.451 154.261 269.551 154.561C269.651 154.861 269.751 155.061 270.051 155.161C270.251 155.361 270.551 155.461 270.851 155.561C271.051 155.561 271.151 155.661 271.351 155.661C271.451 155.661 271.551 155.661 271.651 155.661C271.951 155.661 272.351 155.561 272.651 155.361C272.851 155.261 273.051 155.061 273.151 154.861C273.351 154.561 273.351 154.261 273.251 153.861C273.251 153.661 273.151 153.461 272.951 153.361C272.851 153.161 272.651 153.061 272.451 152.961C272.051 152.761 271.551 152.661 271.151 152.861C270.851 152.961 270.551 153.161 270.251 153.361C269.851 153.761 269.751 154.461 270.051 154.961C270.251 155.361 270.751 155.661 271.251 155.661C271.551 155.661 271.751 155.561 271.951 155.461C272.151 155.361 272.251 155.261 272.351 155.061C272.551 154.861 272.651 154.561 272.651 154.161C272.651 154.061 272.651 153.861 272.551 153.761C272.451 153.561 272.351 153.461 272.151 153.361C271.751 153.061 271.451 152.861 271.051 152.561C270.851 152.461 270.451 152.361 270.251 152.461C270.051 152.561 269.751 152.761 269.651 152.961C269.551 153.161 269.451 153.461 269.551 153.761C269.551 153.861 269.651 153.961 269.651 153.961C270.251 154.661 270.351 154.761 270.551 154.861Z" fill="white"/>
</g>
</g>
<g id="Group_19">
<g id="Group_20">
<path id="Vector_16" d="M274.85 157.161C274.65 157.161 274.55 157.261 274.35 157.261C274.45 157.561 274.55 157.961 274.65 158.261C274.75 158.261 274.85 158.161 274.95 158.161H274.85C274.95 158.161 275.05 158.161 275.15 158.161C275.05 157.861 274.85 157.661 274.75 157.361L274.85 157.261L274.75 157.361L274.85 157.261L274.75 157.361C274.75 157.361 274.85 157.361 274.85 157.261H274.75H274.85C274.75 157.261 274.75 157.261 274.65 157.261H274.75C274.75 157.261 274.75 157.261 274.65 157.261C274.75 157.461 274.85 157.661 275.05 157.861V157.761C275.05 157.761 275.05 157.861 274.95 157.861C274.95 157.861 274.95 157.761 275.05 157.761L274.95 157.861C274.95 157.861 274.95 157.761 275.05 157.761L274.95 157.861H275.05C275.05 157.861 274.95 157.861 274.95 157.961C274.75 157.761 274.55 157.661 274.25 157.461V157.361V157.461C274.25 157.461 274.25 157.361 274.35 157.361C274.35 157.361 274.35 157.461 274.25 157.461L274.35 157.361C274.35 157.361 274.35 157.461 274.25 157.461L274.35 157.361C274.35 157.361 274.25 157.361 274.25 157.461C274.25 157.461 274.35 157.461 274.35 157.361H274.25H274.35H274.25H274.35H274.25C274.25 157.661 274.35 157.961 274.35 158.261C274.55 158.161 274.75 157.961 274.95 157.861C275.05 157.761 275.15 157.661 275.15 157.561C275.15 157.461 275.15 157.261 275.05 157.161C274.95 157.061 274.85 156.961 274.75 156.961C274.65 156.961 274.45 156.961 274.35 157.061C274.15 157.161 273.95 157.361 273.75 157.461C273.65 157.461 273.65 157.561 273.55 157.661C273.45 157.761 273.45 157.861 273.45 157.961C273.45 158.061 273.45 158.161 273.55 158.161C273.65 158.261 273.75 158.261 273.85 158.361C274.15 158.461 274.45 158.461 274.65 158.261C274.75 158.161 274.85 158.061 274.95 157.961C275.05 157.861 275.05 157.661 275.05 157.461C275.05 157.261 274.95 157.161 274.85 157.061C274.85 157.061 274.75 156.961 274.65 156.961C274.55 156.961 274.45 156.961 274.35 156.961C274.25 157.061 274.05 157.061 273.95 157.261C273.85 157.361 273.75 157.561 273.75 157.661C273.75 157.761 273.75 157.961 273.85 158.061C273.95 158.161 274.05 158.261 274.15 158.261C274.35 158.261 274.55 158.361 274.75 158.261C274.85 158.261 274.95 158.161 275.05 158.161C275.15 158.061 275.25 157.961 275.35 157.861C275.45 157.761 275.45 157.461 275.35 157.361C275.25 157.161 275.05 157.061 274.95 157.061C274.65 157.061 274.35 157.061 274.15 157.161C274.05 157.161 273.95 157.261 273.85 157.361C273.75 157.461 273.75 157.661 273.75 157.761C273.75 157.861 273.85 157.961 273.95 158.061C274.05 158.161 274.25 158.161 274.35 158.161C274.55 158.161 274.65 158.061 274.85 158.061C274.95 158.061 275.05 157.961 275.15 157.861C275.25 157.761 275.25 157.561 275.25 157.461C275.25 157.361 275.15 157.261 275.05 157.161C275.15 157.161 275.05 157.161 274.85 157.161Z" fill="white"/>
</g>
</g>
</g>
<path id="Vector_17" d="M363.25 96.6612C363.25 96.6612 348.35 90.0612 339.25 97.3612C339.25 97.3612 345.55 84.6612 349.05 85.6612C352.45 86.5612 354.75 86.8612 363.25 96.6612Z" fill="url(#paint2_linear)"/>
<path id="Vector_18" d="M244.051 147.861C244.051 147.861 251.051 134.961 262.251 132.861C262.251 132.861 249.851 130.461 247.851 133.161C245.951 135.861 244.451 137.361 244.051 147.861Z" fill="url(#paint3_linear)"/>
<g id="Group_21">
<path id="Vector_19" d="M329.25 186.461C327.05 186.361 324.75 186.161 322.55 186.061C321.95 186.061 321.35 185.961 320.85 186.161C320.25 186.361 319.75 186.761 319.65 187.261C319.55 187.761 319.75 188.261 320.05 188.661C321.05 189.761 322.85 189.661 324.25 189.061C325.65 188.461 326.85 187.561 328.35 187.161" fill="#D19E7C"/>
</g>
<path id="Vector_20" d="M332.251 198.161C332.251 198.161 370.851 182.661 375.051 177.761C379.251 172.961 378.351 196.861 374.051 204.761C369.751 212.661 354.451 220.061 349.451 219.861C344.451 219.661 319.951 206.761 318.951 205.661C317.951 204.661 330.151 199.161 332.251 198.161Z" fill="#D52F52"/>
<path id="Vector_21" d="M359.25 30.7612C359.25 30.7612 369.25 58.7612 385.25 69.7612C401.25 80.7612 409.25 120.361 409.25 120.361C409.25 120.361 423.25 119.761 426.25 112.761C429.25 105.761 435.45 105.161 429.35 91.4612C423.25 77.7612 407.25 54.7612 394.25 40.7612C381.25 26.7612 359.25 30.7612 359.25 30.7612Z" fill="url(#paint4_linear)"/>
<path id="Vector_22" d="M324.45 201.961C324.45 201.961 326.35 208.861 329.35 207.861C332.35 206.861 372.35 185.861 372.35 183.861C372.35 181.861 371.15 180.761 371.15 180.761C371.15 180.761 343.85 193.261 336.55 196.561C329.25 199.761 324.45 201.961 324.45 201.961Z" fill="white"/>
<path id="Vector_23" d="M341.351 217.161C341.351 217.161 357.251 202.761 361.251 201.761C365.251 200.761 365.251 200.761 365.251 200.761C365.251 200.761 369.251 194.761 372.251 193.761C375.251 192.761 376.951 194.261 376.951 194.261C376.951 194.261 375.451 205.561 369.551 209.961C363.151 214.761 356.151 219.761 353.151 219.761C347.251 219.761 348.551 220.561 341.351 217.161Z" fill="#A01F3D"/>
<path id="Vector_24" d="M254.15 30.6612C254.15 30.6612 287.75 -13.2388 365.25 9.76117C442.75 32.7612 429.25 91.7612 429.25 91.7612C429.25 91.7612 395.25 57.7612 254.15 30.6612Z" fill="#E23D64"/>
<path id="Vector_25" d="M410.351 111.961C410.351 111.961 423.251 85.8612 431.251 91.8612C439.251 97.8612 439.251 116.861 439.251 123.861C439.251 130.861 442.251 138.861 436.251 147.861C430.251 156.861 419.251 165.861 415.251 160.861C411.251 155.861 410.351 111.961 410.351 111.961Z" fill="#F7CBAD"/>
<path id="Vector_26" d="M231.95 89.0612C231.95 89.0612 236.65 79.0612 239.45 78.9612C242.25 78.8612 232.25 73.8612 232.25 73.8612L230.95 77.6612L231.95 89.0612Z" fill="url(#paint5_linear)"/>
<path id="Vector_27" d="M248.65 73.4612C248.65 73.4612 247.35 82.7612 241.35 81.7612C235.35 80.7612 228.05 80.8612 227.25 65.3612C226.35 49.7612 240.85 47.9612 243.65 48.8612C246.45 49.7612 248.65 73.4612 248.65 73.4612Z" fill="url(#paint6_linear)"/>
<path id="Vector_28" d="M256.25 77.7612C256.25 77.7612 226.75 65.9612 244.55 46.3612C262.35 26.7612 301.25 46.7612 301.25 46.7612L256.25 77.7612Z" fill="url(#paint7_linear)"/>
<path id="Vector_29" d="M334.15 37.4612C334.15 37.4612 329.15 53.4612 311.15 62.4612C293.15 71.4612 281.15 89.4612 289.15 94.4612C297.15 99.4612 301.15 94.4612 301.15 94.4612C301.15 94.4612 257.15 128.461 247.15 96.4612C237.15 64.4612 247.15 43.4612 265.15 39.4612C283.15 35.4612 334.15 37.4612 334.15 37.4612Z" fill="url(#paint8_linear)"/>
<path id="Vector_30" d="M315.35 41.9612C315.35 41.9612 292.05 62.4612 283.05 72.4612C274.05 82.4612 278.05 93.4612 281.05 95.4612C281.05 95.4612 265.05 91.3612 288.55 61.8612C312.05 32.4612 312.05 32.4612 312.05 32.4612L315.35 41.9612Z" fill="#FFE5BB"/>
<path id="Vector_31" d="M230.05 115.561C230.05 115.561 163.15 127.561 169.15 62.3612C175.15 -2.83883 218.85 -3.63883 233.45 2.36117C248.05 8.36117 298.65 41.7612 298.65 41.7612C298.65 41.7612 253.25 52.0612 244.65 66.6612C236.05 81.2612 230.05 103.561 230.05 115.561Z" fill="#A01F3D"/>
<path id="Vector_32" d="M415.25 81.7611C415.25 81.7611 382.65 93.2611 358.65 82.9611C334.65 72.6611 233.45 2.36115 233.45 2.36115C233.45 2.36115 323.55 30.9611 347.25 41.7611C393.25 62.7611 415.25 81.7611 415.25 81.7611Z" fill="#D52F52"/>
<path id="Vector_33" d="M2.75 378.761C2.75 378.761 24.25 308.761 98.25 313.761C172.25 318.761 211.15 355.261 258.75 319.961L236.25 351.761L192.25 363.761H97.25L2.75 378.761Z" fill="#FFD277"/>
<path id="Vector_34" d="M296.25 274.261C295.65 274.561 295.05 275.061 294.55 275.561C290.85 279.861 273.65 299.861 261.25 316.761C247.25 335.761 223.25 348.761 185.25 348.761C147.25 348.761 94.2503 319.761 43.2503 345.761C20.0503 357.561 7.85029 367.961 1.35029 375.761C-2.34971 380.261 2.15029 386.661 7.65029 384.861C24.9503 379.161 55.1503 375.561 76.2503 408.761C107.25 457.761 69.2503 502.761 121.25 530.761C173.25 558.761 220.25 559.761 247.25 567.761C266.15 573.361 279.15 589.761 285.25 599.061C287.35 602.261 291.85 602.561 294.35 599.661C310.85 580.661 364.55 523.261 416.25 515.761C478.25 506.761 507.25 372.061 497.25 343.361C488.45 318.261 445.65 243.561 435.25 225.661C433.95 223.361 431.25 222.261 428.65 223.061L350.65 245.861C350.25 245.961 349.95 246.161 349.55 246.261L296.25 274.261Z" fill="url(#paint9_linear)"/>
<path id="Vector_35" d="M247.25 306.761C247.25 306.761 236.25 298.361 233.25 295.861C230.25 293.361 221.25 276.461 221.25 268.961C221.25 261.461 224.25 263.061 224.25 263.061C224.25 263.061 222.25 248.761 224.25 245.361C226.25 241.961 227.25 244.561 227.25 244.561C227.25 244.561 227.25 241.161 228.25 241.161C229.25 241.161 229.25 237.761 230.25 237.761C231.25 237.761 239.25 246.161 244.25 257.161C249.25 268.161 252.25 270.661 252.25 270.661C252.25 270.661 254.25 260.561 257.25 258.061C260.25 255.561 264.25 252.161 265.25 254.661C266.25 257.161 261.25 260.561 261.25 263.961C261.25 267.361 263.25 272.361 263.25 279.061C263.25 285.761 260.25 293.361 260.25 295.861C260.25 298.361 263.35 301.661 263.35 301.661L247.25 306.761Z" fill="#F7CBAD"/>
<path id="Vector_36" d="M361.25 249.761C361.25 249.761 366.25 241.761 357.25 243.761C348.25 245.761 321.25 256.761 316.25 273.761C311.25 290.761 309.25 307.761 309.25 307.761C309.25 307.761 297.25 324.761 297.25 329.761L262.25 299.761L247.25 306.761C247.25 306.761 277.25 354.761 293.25 359.761C309.25 364.761 312.25 364.761 316.25 359.761C320.25 354.761 329.25 323.761 329.25 323.761L361.25 249.761Z" fill="url(#paint10_radial)"/>
<path id="Vector_37" d="M372.25 427.761C372.25 427.761 332.25 456.761 327.25 467.761C322.25 478.761 319.25 493.761 324.25 499.761C329.25 505.761 379.25 536.761 379.25 536.761L406.25 518.761C406.25 518.761 387.25 488.761 380.25 487.761C373.25 486.761 376.25 486.761 376.25 486.761C376.25 486.761 438.25 462.761 434.25 444.761C430.25 426.761 401.25 418.761 401.25 418.761C401.25 418.761 384.25 418.761 372.25 427.761Z" fill="url(#paint11_radial)"/>
<path id="Vector_38" d="M489.15 412.361C489.15 412.361 494.25 460.761 497.25 471.761C500.25 482.761 517.25 510.761 519.25 516.761C521.25 522.761 489.25 536.761 489.25 536.761C489.25 536.761 436.45 479.861 425.35 449.361C414.25 418.761 427.25 378.761 427.25 378.761C427.25 378.761 488.05 398.961 489.15 412.361Z" fill="url(#paint12_radial)"/>
<path id="Vector_39" d="M517.35 373.561C517.35 373.561 518.25 377.861 520.25 380.861C522.25 383.861 529.25 393.861 528.25 397.861C527.25 401.861 518.25 407.861 512.25 406.861C506.25 405.861 505.25 402.861 505.25 402.861C505.25 402.861 502.25 404.861 501.25 402.861C500.25 400.861 497.25 393.861 497.25 390.861C497.25 387.861 499.25 379.861 499.25 378.861C499.25 377.861 502.25 370.861 502.25 370.861L513.25 369.861L517.35 373.561Z" fill="#F7CBAD"/>
<path id="Vector_40" d="M418.25 223.761C418.25 223.761 367.25 234.761 357.25 243.761C347.25 252.761 326.25 267.761 323.25 292.761C320.25 317.761 329.25 346.761 339.25 358.761C349.25 370.761 382.25 401.761 382.25 401.761C382.25 401.761 389.25 407.761 386.25 414.761C383.25 421.761 372.25 427.761 372.25 427.761C372.25 427.761 400.25 411.761 426.25 451.761C426.25 451.761 425.25 415.761 451.25 404.761C477.25 393.761 490.25 414.761 490.25 414.761C490.25 414.761 476.25 383.761 468.25 377.761C460.25 371.761 444.25 289.761 443.25 283.761C442.25 277.761 437.25 222.761 418.25 223.761Z" fill="url(#paint13_linear)"/>
<path id="Vector_41" d="M414.951 224.561C414.951 224.561 447.251 218.861 465.251 239.861C483.251 260.861 510.251 295.861 510.251 298.861C510.251 301.861 522.251 350.861 518.251 373.861C518.251 373.861 505.251 369.861 501.251 373.861C501.251 373.861 499.251 330.861 490.251 317.861C481.251 304.861 442.851 282.261 442.051 275.061C441.251 267.861 396.651 230.261 414.951 224.561Z" fill="url(#paint14_radial)"/>
<path id="Vector_42" d="M528.25 553.761C528.25 553.761 537.25 555.761 537.25 562.761C537.25 569.761 521.25 613.761 518.25 612.761C515.25 611.761 506.25 574.761 506.25 562.761C506.25 550.761 474.25 521.761 474.25 521.761V513.761L485.25 522.761L482.25 510.761L497.25 517.761L521.25 512.761L528.25 553.761Z" fill="#D52F52"/>
<path id="Vector_43" d="M406.25 518.761L419.25 541.761C419.25 541.761 430.25 540.761 434.25 545.761C438.25 550.761 431.25 606.761 427.25 602.761C423.25 598.761 407.25 568.761 406.25 560.761C405.25 552.761 363.25 529.761 363.25 529.761L361.25 522.761L378.25 525.761C378.25 525.761 397.25 518.761 406.25 518.761Z" fill="#D52F52"/>
<g id="Vector_44" filter="url(#filter0_di)">
<path d="M351.977 318.422C351.366 315.965 349.878 314.988 348.489 314.002C346.36 312.578 346.368 312.678 347.792 310.549C348.413 309.593 348.826 308.554 349.231 307.415C349.305 307.108 349.279 306.809 348.963 306.635C348.647 306.462 348.474 306.777 348.4 307.085C348.234 307.5 348.069 307.916 347.912 308.431C345.69 314.141 339.684 313.149 337.368 309.533C336.568 308.397 335.968 307.243 335.741 305.757C335.252 302.387 336.907 299.435 339.805 299.288C340.801 299.203 341.282 298.961 341.462 297.541C341.822 294.7 343.471 292.853 345.563 292.674C347.855 292.478 349.901 294.11 350.637 296.857C354.436 310.785 358.127 324.621 361.827 338.556C363.14 343.362 362.283 346.245 359.495 347.688C356.808 349.122 353.625 348.29 351.502 345.761C350.279 344.36 350.236 343.862 351.347 342.764C355.689 338.378 354.069 329.986 348.317 327.265C346.962 326.678 345.649 326.59 344.263 326.808C343.865 326.843 343.375 326.985 343.526 327.574C343.685 328.263 344.149 327.822 344.448 327.796C348.806 327.123 353.2 331.565 352.954 336.906C352.845 340.327 351.005 342.291 348.582 343.301C346.549 344.177 344.514 343.849 342.542 341.91C340.57 339.971 339.66 337.539 339.828 334.815C339.851 333.91 339.627 333.628 338.895 333.289C334.324 331.471 332.492 325.305 335.366 321.346C335.995 320.489 335.87 320.199 335.105 319.461C332.575 316.867 332.681 312.241 335.235 310.417C335.899 309.959 336.397 309.917 337.071 310.762C338.528 312.545 340.225 313.604 342.235 313.633C345.548 313.651 348.557 314.8 351.047 318.1C351.345 318.074 351.553 318.157 351.977 318.422ZM380.295 293.923C377.782 291.528 374.734 291.086 372.254 292.602C370.446 293.76 370.306 294.475 371.455 296.183C374.788 301.118 377.257 306.527 378.872 312.511C381.09 320.853 379.585 327.907 374.556 333.655C371.813 336.8 368.721 339.373 365.612 341.746C364.385 342.654 364.444 343.351 365.85 344.536C367.78 345.977 369.857 346.803 372.109 347.313C378.582 349.069 380.68 347.785 381.622 341.181C382.121 337.626 383.594 334.891 386.313 332.651C388.941 330.52 391.111 327.725 392.533 324.392C394.797 319.18 392.951 314.019 388.107 312.526C387.076 312.212 386.51 311.457 386.906 310.219C387.467 308.566 386.924 306.906 386.489 305.337C384.927 301.155 383.565 296.956 380.295 293.923ZM363.8 336.983C364.523 337.222 365.112 337.071 365.801 336.912C371.287 335.34 377.057 326.517 376.777 319.716C376.447 312.317 372.938 306.494 367.838 302.012C367.838 302.012 367.639 302.029 367.349 302.154C367.633 303.134 367.917 304.113 368.111 305.201C370.004 313.269 368.038 318.455 362.256 321.257C361.393 321.732 360.289 321.726 359.551 322.492C359.984 322.856 360.109 323.147 359.744 323.579C360.313 325.538 360.782 327.505 361.351 329.464C361.767 329.629 361.792 329.928 361.51 330.153C362.005 332.419 362.591 334.577 363.276 336.726C363.584 336.801 363.692 336.892 363.8 336.983ZM354.708 289.284C351.579 290.253 351.257 291.184 351.962 294.737C352.306 296.414 352.92 296.562 354.065 295.862C357.598 293.754 360.963 294.37 364.373 296.688C365.545 297.491 366.718 298.294 368.107 299.279C367.153 291.633 360.974 287.444 354.708 289.284ZM365.623 303.105C363.271 297.886 358.916 296.251 354.394 298.544C353.341 299.136 353.201 299.85 353.594 300.921C354.12 302.381 354.698 300.927 355.088 300.793C358.348 299.009 361.889 300.513 363.018 304.331C363.863 307.169 363.703 309.993 363.044 312.86C362.904 313.574 362.756 314.189 362.716 314.895C362.676 315.601 362.553 316.515 363.293 316.953C364.025 317.292 364.464 316.552 364.828 316.12C367.388 313.191 367.48 309.57 366.525 305.436C366.158 304.665 365.99 303.876 365.623 303.105ZM359.088 319.42C359.578 319.278 359.735 318.763 359.8 318.356C360.624 315.074 361.339 311.7 361.332 308.088C361.321 306.784 361.111 305.497 360.601 304.236C359.959 302.585 358.686 301.79 357.183 301.818C355.689 301.946 355.626 303.557 355.537 304.869C355.423 305.883 355.417 306.987 355.71 308.066C356.125 308.232 356.151 308.531 355.877 308.855C355.894 309.054 356.02 309.345 356.037 309.544C356.526 309.402 356.751 309.684 356.993 310.165C356.973 308.761 356.846 307.267 356.826 305.863C356.775 305.266 356.923 304.651 357.513 304.5C358.202 304.341 358.369 305.129 358.62 305.71C359.305 307.86 358.604 310.228 357.052 310.862C356.879 311.178 356.805 311.486 356.73 311.793C357.299 313.752 357.768 315.719 358.337 317.678C358.969 318.025 358.838 318.839 359.088 319.42ZM357.101 310.256C356.959 309.766 356.634 309.493 356.145 309.635C356.304 310.324 356.571 311.104 356.73 311.793C356.904 311.477 356.978 311.17 357.052 310.862C357.035 310.663 357.118 310.455 357.101 310.256ZM359.088 319.42C358.838 318.839 358.969 318.025 358.237 317.686C358.587 318.258 358.265 319.189 359.088 319.42ZM355.977 308.846C356.25 308.522 356.233 308.323 355.809 308.058C355.835 308.357 355.86 308.656 355.977 308.846Z" fill="white"/>
</g>
<path id="Vector_45" d="M406.25 223.761C406.25 223.761 391.25 238.261 379.25 243.961C367.25 249.761 378.25 250.761 378.25 250.761C378.25 250.761 411.25 235.761 418.25 229.761C425.25 223.761 429.75 223.061 434.55 224.361C439.25 225.761 427.25 215.761 418.25 217.761C409.25 219.761 406.25 223.761 406.25 223.761Z" fill="#FFD277"/>
<path id="Vector_46" d="M371.25 246.761C371.25 246.761 366.25 237.761 367.25 236.761C368.25 235.761 350.25 241.761 348.25 243.761C346.25 245.761 316.25 257.761 292.25 277.761C292.25 277.761 355.25 239.761 371.25 246.761Z" fill="#FFD277"/>
<g id="Group_22">
<path id="Vector_47" d="M373.751 258.161C378.114 258.161 381.651 254.624 381.651 250.261C381.651 245.898 378.114 242.361 373.751 242.361C369.388 242.361 365.851 245.898 365.851 250.261C365.851 254.624 369.388 258.161 373.751 258.161Z" fill="url(#paint15_linear)"/>
<path id="Vector_48" d="M373.751 256.461C377.175 256.461 379.951 253.685 379.951 250.261C379.951 246.837 377.175 244.061 373.751 244.061C370.327 244.061 367.551 246.837 367.551 250.261C367.551 253.685 370.327 256.461 373.751 256.461Z" fill="#E5B35A"/>
<path id="Vector_49" d="M372.55 249.861C372.55 249.461 372.35 249.261 372.15 249.161C371.85 248.861 371.85 248.861 372.15 248.661C372.25 248.561 372.45 248.461 372.55 248.261V248.161H372.45C372.45 248.261 372.35 248.261 372.35 248.361C371.75 249.061 370.65 248.661 370.45 247.961C370.35 247.761 370.25 247.561 370.35 247.361C370.45 246.861 370.85 246.561 371.45 246.661C371.65 246.661 371.75 246.661 371.85 246.561C372.05 246.161 372.45 246.061 372.75 246.161C373.15 246.261 373.35 246.561 373.35 246.961C373.35 248.961 373.35 250.961 373.35 252.961C373.35 253.661 373.05 254.061 372.55 254.161C372.05 254.361 371.55 254.161 371.25 253.761C371.15 253.561 371.15 253.461 371.35 253.361C372.35 252.861 372.45 251.561 371.55 251.061C371.35 250.961 371.15 250.861 370.85 250.861C370.75 250.861 370.65 250.861 370.65 250.961C370.65 251.061 370.75 251.061 370.85 251.061C371.65 251.061 372.15 251.861 371.95 252.661C371.75 253.161 371.35 253.361 370.85 253.461C370.45 253.561 370.05 253.461 369.75 253.061C369.45 252.761 369.45 252.361 369.55 251.861C369.65 251.761 369.55 251.661 369.45 251.561C368.65 251.161 368.55 250.061 369.35 249.661C369.55 249.561 369.55 249.561 369.45 249.361C369.05 248.861 369.35 248.161 369.95 248.061C370.05 248.061 370.15 248.061 370.25 248.161C370.45 248.461 370.75 248.761 371.05 248.861C371.65 249.061 372.05 249.261 372.35 249.861C372.45 249.761 372.45 249.761 372.55 249.861ZM377.45 247.861C377.25 247.461 376.85 247.261 376.45 247.361C376.15 247.461 376.15 247.461 376.25 247.761C376.55 248.461 376.65 249.261 376.65 250.061C376.65 251.161 376.25 251.961 375.35 252.561C374.85 252.961 374.25 253.161 373.75 253.461C373.55 253.561 373.45 253.661 373.65 253.861C373.85 254.061 374.15 254.261 374.45 254.361C375.35 254.661 375.65 254.561 376.05 253.761C376.25 253.361 376.55 252.961 376.95 252.761C377.35 252.561 377.65 252.261 377.95 251.961C378.35 251.461 378.35 250.761 377.85 250.461C377.75 250.361 377.65 250.261 377.75 250.161C377.85 249.961 377.85 249.761 377.85 249.561C377.85 248.961 377.75 248.361 377.45 247.861ZM373.65 252.761C373.75 252.861 373.85 252.761 373.95 252.761C374.85 252.661 375.95 251.661 376.15 250.861C376.35 249.961 376.15 249.061 375.55 248.361C375.55 248.361 375.55 248.361 375.45 248.361C375.45 248.461 375.45 248.661 375.45 248.761C375.45 249.861 374.95 250.461 373.95 250.561C373.75 250.561 373.65 250.561 373.45 250.661C373.55 250.761 373.55 250.761 373.45 250.861C373.45 251.161 373.45 251.461 373.45 251.661C373.55 251.661 373.55 251.761 373.45 251.761C373.55 252.061 373.55 252.361 373.65 252.761ZM374.15 246.161C373.65 246.161 373.55 246.261 373.55 246.661C373.55 246.861 373.65 246.961 373.85 246.961C374.45 246.861 374.95 247.161 375.35 247.561C375.45 247.661 375.65 247.861 375.75 248.061C375.85 247.061 375.15 246.261 374.15 246.161ZM375.25 248.361C375.15 247.561 374.55 247.161 373.75 247.261C373.55 247.261 373.55 247.361 373.55 247.561C373.55 247.761 373.75 247.661 373.75 247.561C374.35 247.461 374.75 247.861 374.75 248.361C374.75 248.761 374.65 249.161 374.45 249.461C374.45 249.561 374.35 249.661 374.35 249.761C374.35 249.861 374.25 249.961 374.35 250.061C374.45 250.161 374.55 250.061 374.65 249.961C375.15 249.661 375.25 249.261 375.25 248.661C375.25 248.661 375.25 248.461 375.25 248.361ZM373.65 250.261C373.75 250.261 373.75 250.161 373.85 250.161C374.15 249.761 374.35 249.361 374.45 248.861C374.55 248.661 374.55 248.561 374.45 248.361C374.45 248.161 374.25 247.961 374.05 247.861C373.85 247.761 373.75 248.061 373.65 248.161C373.55 248.261 373.55 248.461 373.55 248.561C373.65 248.561 373.55 248.661 373.55 248.661V248.761C373.65 248.761 373.65 248.861 373.65 248.861C373.65 248.661 373.75 248.461 373.75 248.261C373.75 248.161 373.85 248.061 373.95 248.161C374.05 248.161 374.05 248.261 374.05 248.361C374.05 248.661 373.85 248.961 373.65 248.961L373.55 249.061C373.55 249.361 373.55 249.661 373.55 249.861C373.65 250.061 373.65 250.161 373.65 250.261ZM373.75 248.961C373.75 248.861 373.75 248.861 373.65 248.861C373.65 248.961 373.65 249.061 373.65 249.161C373.65 249.061 373.65 249.061 373.75 248.961C373.65 248.961 373.65 248.961 373.75 248.961ZM373.65 250.261C373.65 250.161 373.65 250.061 373.55 249.961C373.55 250.061 373.55 250.161 373.65 250.261ZM373.55 248.761C373.65 248.761 373.65 248.661 373.55 248.661C373.55 248.661 373.55 248.661 373.55 248.761Z" fill="#664407"/>
<path id="Vector_50" d="M372.55 249.861C372.55 249.461 372.35 249.261 372.15 249.161C371.85 248.861 371.85 248.861 372.15 248.661C372.25 248.561 372.45 248.461 372.55 248.261V248.161H372.45C372.45 248.261 372.35 248.261 372.35 248.361C371.75 249.061 370.65 248.661 370.45 247.961C370.35 247.761 370.25 247.561 370.35 247.361C370.45 246.861 370.85 246.561 371.45 246.661C371.65 246.661 371.75 246.661 371.85 246.561C372.05 246.161 372.45 246.061 372.75 246.161C373.15 246.261 373.35 246.561 373.35 246.961C373.35 248.961 373.35 250.961 373.35 252.961C373.35 253.661 373.05 254.061 372.55 254.161C372.05 254.361 371.55 254.161 371.25 253.761C371.15 253.561 371.15 253.461 371.35 253.361C372.35 252.861 372.45 251.561 371.55 251.061C371.35 250.961 371.15 250.861 370.85 250.861C370.75 250.861 370.65 250.861 370.65 250.961C370.65 251.061 370.75 251.061 370.85 251.061C371.65 251.061 372.15 251.861 371.95 252.661C371.75 253.161 371.35 253.361 370.85 253.461C370.45 253.561 370.05 253.461 369.75 253.061C369.45 252.761 369.45 252.361 369.55 251.861C369.65 251.761 369.55 251.661 369.45 251.561C368.65 251.161 368.55 250.061 369.35 249.661C369.55 249.561 369.55 249.561 369.45 249.361C369.05 248.861 369.35 248.161 369.95 248.061C370.05 248.061 370.15 248.061 370.25 248.161C370.45 248.461 370.75 248.761 371.05 248.861C371.65 249.061 372.05 249.261 372.35 249.861C372.45 249.761 372.55 249.761 372.55 249.861ZM377.55 247.861C377.35 247.461 376.95 247.261 376.55 247.361C376.25 247.461 376.25 247.461 376.35 247.761C376.65 248.461 376.75 249.261 376.75 250.061C376.75 251.161 376.35 251.961 375.45 252.561C374.95 252.961 374.35 253.161 373.85 253.461C373.65 253.561 373.55 253.661 373.75 253.861C373.95 254.061 374.25 254.261 374.55 254.361C375.45 254.661 375.75 254.561 376.15 253.761C376.35 253.361 376.65 252.961 377.05 252.761C377.45 252.561 377.75 252.261 378.05 251.961C378.45 251.461 378.45 250.761 377.95 250.461C377.85 250.361 377.75 250.261 377.85 250.161C377.95 249.961 377.95 249.761 377.95 249.561C377.85 248.961 377.85 248.361 377.55 247.861ZM373.65 252.761C373.75 252.861 373.85 252.761 373.95 252.761C374.85 252.661 375.95 251.661 376.15 250.861C376.35 249.961 376.15 249.061 375.55 248.361C375.55 248.361 375.55 248.361 375.45 248.361C375.45 248.461 375.45 248.661 375.45 248.761C375.45 249.861 374.95 250.461 373.95 250.561C373.75 250.561 373.65 250.561 373.45 250.661C373.55 250.761 373.55 250.761 373.45 250.861C373.45 251.161 373.45 251.461 373.45 251.661C373.55 251.661 373.55 251.761 373.45 251.761C373.65 252.061 373.65 252.361 373.65 252.761ZM374.25 246.161C373.75 246.161 373.65 246.261 373.65 246.661C373.65 246.861 373.75 246.961 373.95 246.961C374.55 246.861 375.05 247.161 375.45 247.561C375.55 247.661 375.75 247.861 375.85 248.061C375.95 247.061 375.25 246.261 374.25 246.161ZM375.25 248.361C375.15 247.561 374.55 247.161 373.75 247.261C373.55 247.261 373.55 247.361 373.55 247.561C373.55 247.761 373.75 247.661 373.75 247.561C374.35 247.461 374.75 247.861 374.75 248.361C374.75 248.761 374.65 249.161 374.45 249.461C374.45 249.561 374.35 249.661 374.35 249.761C374.35 249.861 374.25 249.961 374.35 250.061C374.45 250.161 374.55 250.061 374.65 249.961C375.15 249.661 375.25 249.261 375.25 248.661C375.35 248.661 375.35 248.461 375.25 248.361ZM373.65 250.261C373.75 250.261 373.75 250.161 373.85 250.161C374.15 249.761 374.35 249.361 374.45 248.861C374.55 248.661 374.55 248.561 374.45 248.361C374.45 248.161 374.25 247.961 374.05 247.861C373.85 247.761 373.75 248.061 373.65 248.161C373.55 248.261 373.55 248.461 373.55 248.561C373.65 248.561 373.55 248.661 373.55 248.661V248.761C373.65 248.761 373.65 248.861 373.65 248.861C373.65 248.661 373.75 248.461 373.75 248.261C373.75 248.161 373.85 248.061 373.95 248.161C374.05 248.161 374.05 248.261 374.05 248.361C374.05 248.661 373.85 248.961 373.65 248.961L373.55 249.061C373.55 249.361 373.55 249.661 373.55 249.861C373.75 250.061 373.65 250.161 373.65 250.261ZM373.75 248.961C373.75 248.861 373.75 248.861 373.65 248.861C373.65 248.961 373.65 249.061 373.65 249.161C373.65 249.061 373.65 249.061 373.75 248.961ZM373.65 250.261C373.65 250.161 373.65 250.061 373.55 249.961C373.65 250.061 373.55 250.161 373.65 250.261ZM373.65 248.761C373.75 248.761 373.75 248.661 373.65 248.661C373.65 248.661 373.65 248.661 373.65 248.761Z" fill="#FFD277"/>
</g>
</g>
<defs>
<filter id="filter0_di" x="327" y="282" width="72.7804" height="73.4869" filterUnits="userSpaceOnUse" color-interpolation-filters="sRGB">
<feFlood flood-opacity="0" result="BackgroundImageFix"/>
<feColorMatrix in="SourceAlpha" type="matrix" values="0 0 0 0 0 0 0 0 0 0 0 0 0 0 0 0 0 0 127 0"/>
<feOffset/>
<feGaussianBlur stdDeviation="2"/>
<feColorMatrix type="matrix" values="0 0 0 0 1 0 0 0 0 1 0 0 0 0 1 0 0 0 0.3 0"/>
<feBlend mode="normal" in2="BackgroundImageFix" result="effect1_dropShadow"/>
<feBlend mode="normal" in="SourceGraphic" in2="effect1_dropShadow" result="shape"/>
<feColorMatrix in="SourceAlpha" type="matrix" values="0 0 0 0 0 0 0 0 0 0 0 0 0 0 0 0 0 0 127 0" result="hardAlpha"/>
<feOffset/>
<feGaussianBlur stdDeviation="5.5"/>
<feComposite in2="hardAlpha" operator="arithmetic" k2="-1" k3="1"/>
<feColorMatrix type="matrix" values="0 0 0 0 0.0383855 0 0 0 0 0.668276 0 0 0 0 0.8375 0 0 0 1 0"/>
<feBlend mode="normal" in2="shape" result="effect2_innerShadow"/>
</filter>
<radialGradient id="paint0_radial" cx="0" cy="0" r="1" gradientUnits="userSpaceOnUse" gradientTransform="translate(364.561 122.906) rotate(-8.16817) scale(15.2952 16.7893)">
<stop stop-color="#6DD5ED"/>
<stop offset="1" stop-color="#2193B0"/>
</radialGradient>
<radialGradient id="paint1_radial" cx="0" cy="0" r="1" gradientUnits="userSpaceOnUse" gradientTransform="translate(273.04 158.74) rotate(160.517) scale(13.2233 15.1113)">
<stop stop-color="#6DD5ED"/>
<stop offset="1" stop-color="#2193B0"/>
</radialGradient>
<linearGradient id="paint2_linear" x1="339.053" y1="96.825" x2="360.841" y2="89.4558" gradientUnits="userSpaceOnUse">
<stop offset="0.0761177" stop-color="#FFE5BB"/>
<stop offset="1" stop-color="#F7D9AD"/>
</linearGradient>
<linearGradient id="paint3_linear" x1="261.684" y1="132.216" x2="241.087" y2="142.449" gradientUnits="userSpaceOnUse">
<stop offset="0.0761177" stop-color="#FFE5BB"/>
<stop offset="1" stop-color="#F7D9AD"/>
</linearGradient>
<linearGradient id="paint4_linear" x1="359.252" y1="75.3522" x2="431.923" y2="75.3522" gradientUnits="userSpaceOnUse">
<stop stop-color="#FFE5BB"/>
<stop offset="1" stop-color="#F7D9AD"/>
</linearGradient>
<linearGradient id="paint5_linear" x1="230.697" y1="74.7063" x2="237.237" y2="86.0346" gradientUnits="userSpaceOnUse">
<stop stop-color="#FFE5BB"/>
<stop offset="0.3842" stop-color="#F7D9AD"/>
</linearGradient>
<linearGradient id="paint6_linear" x1="231.113" y1="52.5345" x2="246.873" y2="79.8306" gradientUnits="userSpaceOnUse">
<stop stop-color="#FFE5BB"/>
<stop offset="0.3842" stop-color="#F7D9AD"/>
</linearGradient>
<linearGradient id="paint7_linear" x1="244.005" y1="54.1613" x2="299.022" y2="64.1898" gradientUnits="userSpaceOnUse">
<stop stop-color="#FFE5BB"/>
<stop offset="0.3842" stop-color="#F7D9AD"/>
</linearGradient>
<linearGradient id="paint8_linear" x1="243.14" y1="73.5576" x2="334.102" y2="73.5576" gradientUnits="userSpaceOnUse">
<stop stop-color="#FFE5BB"/>
<stop offset="0.3842" stop-color="#F7D9AD"/>
</linearGradient>
<linearGradient id="paint9_linear" x1="297.366" y1="601.042" x2="237.57" y2="306.595" gradientUnits="userSpaceOnUse">
<stop stop-color="#FFFFE3"/>
<stop offset="0.3226" stop-color="#FDCF74"/>
<stop offset="1" stop-color="#CC9933"/>
</linearGradient>
<radialGradient id="paint10_radial" cx="0" cy="0" r="1" gradientUnits="userSpaceOnUse" gradientTransform="translate(304.945 303.522) scale(58.8757)">
<stop stop-color="#6DD5ED"/>
<stop offset="1" stop-color="#2193B0"/>
</radialGradient>
<radialGradient id="paint11_radial" cx="0" cy="0" r="1" gradientUnits="userSpaceOnUse" gradientTransform="translate(332.454 483.919) scale(57.7037)">
<stop stop-color="#6DD5ED"/>
<stop offset="1" stop-color="#2193B0"/>
</radialGradient>
<radialGradient id="paint12_radial" cx="0" cy="0" r="1" gradientUnits="userSpaceOnUse" gradientTransform="translate(470.105 457.808) scale(64.3731)">
<stop offset="0.0157079" stop-color="#6DD5ED"/>
<stop offset="1" stop-color="#2193B0"/>
</radialGradient>
<linearGradient id="paint13_linear" x1="322.667" y1="337.801" x2="490.253" y2="337.801" gradientUnits="userSpaceOnUse">
<stop offset="0.0761177" stop-color="#3E80A6"/>
<stop offset="1" stop-color="#34586F"/>
</linearGradient>
<radialGradient id="paint14_radial" cx="0" cy="0" r="1" gradientUnits="userSpaceOnUse" gradientTransform="translate(464.808 298.819) scale(131.363)">
<stop stop-color="#6DD5ED"/>
<stop offset="0.5786" stop-color="#2193B0"/>
</radialGradient>
<linearGradient id="paint15_linear" x1="367.701" y1="245.208" x2="379.751" y2="255.309" gradientUnits="userSpaceOnUse">
<stop stop-color="#FFFFE3"/>
<stop offset="0.1817" stop-color="#FDCF74"/>
<stop offset="1" stop-color="#F6C266"/>
</linearGradient>
</defs>
</svg>
