<svg width="99" height="99" viewBox="0 0 99 99" fill="none" xmlns="http://www.w3.org/2000/svg">
<path d="M59.1531 88.1407C80.6448 82.6322 93.5986 60.7321 88.0863 39.2254C82.5739 17.7188 60.6827 4.74979 39.191 10.2583C17.6993 15.7669 4.74551 37.667 10.2579 59.1736C15.7702 80.6803 37.6614 93.6493 59.1531 88.1407Z" fill="url(#paint0_linear)"/>
<path d="M57.0696 80.008C74.073 75.6498 84.3216 58.3232 79.9604 41.3079C75.5992 24.2926 58.2798 14.0319 41.2763 18.3901C24.2728 22.7483 14.0242 40.0749 18.3854 57.0902C22.7466 74.1055 40.0661 84.3661 57.0696 80.008Z" fill="#CDE38E"/>
<path d="M64.0629 35.9681C62.4672 31.2024 56.4136 28 49 28C44.0239 28 37.7607 29.7876 34.9857 33.7813L39.2179 36.6856C40.6335 34.6478 44.8388 33.1111 49 33.1111C54.6417 33.1111 58.4574 35.4144 59.1833 37.582C59.5623 38.714 58.9951 39.8534 57.4964 40.9674C56.6875 41.5697 55.6422 42.3843 54.4449 43.3333H31V48.4444H48.0906C45.9438 50.1814 43.7607 51.9477 41.7424 53.5556H31V58.6667H35.5629C33.6886 60.8708 33.0853 63.5249 33.9585 66.0851C35.5723 70.8189 41.6172 74 49 74C53.9768 74 60.2406 72.2124 63.015 68.2187L58.7821 65.3151C57.3672 67.3522 53.1618 68.8889 49 68.8889C43.3777 68.8889 39.5634 66.5989 38.8295 64.4446C38.4451 63.3179 38.9862 62.1859 40.4373 61.0818C41.3808 60.3637 42.4288 59.5471 43.5438 58.6667H67V53.5556H49.9188C50.4263 53.1456 54.775 49.6277 56.2522 48.4444H67V43.3333H62.4538C64.3408 41.1451 64.9288 38.5543 64.0629 35.9681Z" fill="#B0C76F"/>
<defs>
<linearGradient id="paint0_linear" x1="18.2645" y1="23.5423" x2="80.2" y2="74.807" gradientUnits="userSpaceOnUse">
<stop stop-color="#E9FAB9"/>
<stop offset="0.1817" stop-color="#E4F6AF"/>
<stop offset="1" stop-color="#B3CB70"/>
</linearGradient>
</defs>
</svg>
