<svg width="173" height="171" viewBox="0 0 173 171" fill="none" xmlns="http://www.w3.org/2000/svg">
<circle cx="84" cy="86" r="69" fill="#1BA37F"/>
<path d="M132.2 128.4C154.402 128.4 172.4 110.402 172.4 88.2C172.4 65.9981 154.402 48 132.2 48C109.998 48 92 65.9981 92 88.2C92 110.402 109.998 128.4 132.2 128.4Z" fill="url(#paint0_linear)"/>
<path d="M132.2 120.005C149.766 120.005 164.005 105.765 164.005 88.1999C164.005 70.6346 149.766 56.3951 132.2 56.3951C114.635 56.3951 100.396 70.6346 100.396 88.1999C100.396 105.765 114.635 120.005 132.2 120.005Z" fill="#E5B35A"/>
<path d="M126.872 84.6482C127.357 82.8723 126.63 81.6614 125.904 80.4506C124.773 78.6747 124.773 78.6747 126.711 78.0289C127.518 77.706 128.325 77.3024 129.052 76.6566C129.213 76.4952 129.375 76.253 129.213 76.0915C129.052 75.8494 128.81 76.0108 128.648 76.0915C128.325 76.253 128.083 76.4952 127.76 76.6566C123.724 79.3205 119.204 76.0108 118.719 72.459C118.558 71.3289 118.477 70.2795 118.881 69.1494C119.849 66.7277 122.513 65.6783 124.935 67.0506C125.823 67.5349 126.226 67.6156 126.953 66.8084C128.325 65.194 130.343 64.9518 132.039 65.8397C133.814 66.8084 134.702 68.7458 134.218 70.7638C131.716 80.7735 129.294 90.7024 126.711 100.631C125.823 104.102 124.047 105.636 121.383 105.798C118.639 105.959 116.378 104.425 115.571 102.004C115.167 100.631 115.329 100.308 116.701 99.9855C122.11 98.5325 124.128 92.559 120.576 88.6843C119.688 87.7156 118.639 87.1506 117.347 86.8277C117.024 86.747 116.54 86.5855 116.459 86.9891C116.298 87.4735 116.863 87.3927 117.185 87.5542C121.141 88.765 122.836 93.3662 120.576 96.7566C119.042 99.0168 116.782 99.5819 114.199 99.5012C112.1 99.4205 110.324 98.4518 109.355 96.4337C108.387 94.3349 108.629 92.3168 110.001 90.5409C110.485 89.8951 110.405 89.653 109.84 89.1686C106.288 86.0205 107.418 80.8542 111.939 79.4819C112.826 79.2397 112.907 78.9168 112.584 78.1096C111.373 75.2036 113.553 72.1361 116.62 72.1361C117.428 72.1361 117.831 72.3783 118.073 73.1855C118.558 75.0421 119.607 76.4952 121.302 77.4638C123.966 78.9168 125.904 80.9349 126.549 84.0024C126.549 84.1638 126.63 84.3253 126.872 84.6482ZM153.753 81.0964C153.107 78.9168 151.493 77.5446 149.636 77.3831C148.264 77.3024 147.86 77.6253 148.022 78.9976C148.425 82.953 148.183 86.8277 147.214 90.7024C145.842 96.1108 142.613 99.6626 137.447 101.6C134.46 102.73 131.393 103.376 128.245 103.941C126.953 104.183 126.711 104.587 127.437 105.717C128.325 107.17 129.536 108.219 130.908 109.188C134.783 111.932 136.64 111.69 139.465 107.977C140.999 106.04 142.775 104.829 145.116 104.264C147.376 103.699 149.394 102.73 151.251 101.358C153.995 99.1783 154.56 95.8686 152.381 93.6891C151.896 93.2048 151.816 92.6397 152.381 92.0747C153.188 91.3482 153.43 90.2988 153.672 89.3301C154.157 86.5855 154.641 83.8409 153.753 81.0964ZM128.729 100.47C129.132 100.873 129.698 100.954 130.182 101.035C134.622 101.681 141.483 98.2096 143.501 94.1735C145.681 89.8144 145.519 85.3747 143.824 81.0156C143.824 80.9349 143.663 80.9349 143.501 80.9349C143.34 81.5807 143.178 82.3072 143.017 82.953C141.483 88.2807 138.416 90.5409 133.492 90.2988C132.684 90.2181 131.958 89.8952 131.151 90.0566C131.312 90.3795 131.312 90.6217 130.908 90.7831C130.585 92.1554 130.182 93.5277 129.859 94.9807C130.101 95.2229 130.02 95.3843 129.698 95.465C129.213 96.9988 128.81 98.5325 128.487 100.147C128.567 100.308 128.648 100.389 128.729 100.47ZM139.707 68.3421C137.205 67.4542 136.64 67.8578 135.832 70.2795C135.429 71.4903 135.832 71.8132 136.882 71.894C140.03 72.2168 142.048 73.9927 143.501 76.7373C143.985 77.6253 144.47 78.5132 145.035 79.6433C146.892 74.9614 144.47 70.0373 139.707 68.3421ZM142.048 80.7735C142.371 76.8988 140.03 74.0735 136.155 73.5084C135.187 73.347 134.783 73.7506 134.702 74.5578C134.541 75.6879 135.429 75.0421 135.832 75.1229C138.658 75.4458 140.595 77.7867 139.949 80.3699C139.465 82.3072 138.416 83.9217 136.963 85.3747C136.64 85.6976 136.236 86.1012 135.994 86.4241C135.671 86.8277 135.267 87.312 135.671 87.8771C135.994 88.3614 136.559 88.0385 137.043 87.9578C139.788 87.1506 141.079 85.0518 141.887 82.3879C141.887 81.9036 142.048 81.3385 142.048 80.7735ZM131.877 87.9578C132.281 88.0385 132.523 87.7964 132.846 87.5542C134.622 85.859 136.317 84.0831 137.608 81.9843C138.093 81.1771 138.335 80.3699 138.496 79.4819C138.658 78.2711 138.012 77.2217 137.043 76.7373C135.913 76.1723 135.348 77.1409 134.783 77.8674C134.299 78.4325 133.895 79.0783 133.734 79.8855C133.976 80.1277 133.895 80.2891 133.572 80.3699C133.572 80.5313 133.492 80.6927 133.411 80.8542C133.814 80.9349 133.895 81.2578 133.814 81.5807C134.299 80.6927 134.783 79.8048 135.267 78.9168C135.51 78.594 135.832 78.1903 136.236 78.3518C136.801 78.594 136.64 79.0783 136.559 79.4819C136.236 81.0156 134.864 82.1458 133.572 81.9036C133.33 82.065 133.169 82.2265 132.926 82.3072C132.604 83.6795 132.2 85.0518 131.877 86.5048C132.281 87.0698 131.877 87.5542 131.877 87.9578ZM133.734 81.6614C133.814 81.3385 133.734 81.0156 133.33 80.9349C133.169 81.4193 133.088 81.9843 132.926 82.4686C133.169 82.3072 133.33 82.1458 133.572 82.065C133.572 81.9036 133.653 81.7421 133.734 81.6614ZM131.877 87.9578C131.958 87.4735 132.281 87.0699 131.958 86.5855C131.877 87.0699 131.231 87.5542 131.877 87.9578ZM133.411 80.3699C133.734 80.2891 133.814 80.1277 133.572 79.8855C133.572 80.047 133.492 80.2084 133.411 80.3699Z" fill="#664407"/>
<path d="M127.115 84.7289C127.6 82.953 126.873 81.7421 126.147 80.5313C125.017 78.7554 125.017 78.7554 126.954 78.1096C127.761 77.7867 128.568 77.3831 129.295 76.7373C129.456 76.5759 129.618 76.3337 129.456 76.1723C129.295 75.9301 129.053 76.0915 128.891 76.1723C128.568 76.3337 128.326 76.5759 128.003 76.7373C123.967 79.4012 119.447 76.0915 118.962 72.5397C118.801 71.4096 118.72 70.3602 119.124 69.2301C120.093 66.8084 122.756 65.759 125.178 67.1313C126.066 67.6156 126.47 67.6964 127.196 66.8891C128.568 65.2747 130.586 65.0325 132.282 65.9205C134.058 66.8891 134.946 68.8265 134.461 70.8446C131.959 80.8542 129.537 90.7831 126.954 100.712C126.066 104.183 124.29 105.717 121.626 105.878C118.882 106.04 116.621 104.506 115.814 102.084C115.411 100.712 115.572 100.389 116.944 100.066C122.353 98.6132 124.371 92.6397 120.819 88.765C119.931 87.7964 118.882 87.2313 117.59 86.9084C117.267 86.8277 116.783 86.6662 116.702 87.0699C116.541 87.5542 117.106 87.4735 117.429 87.6349C121.384 88.8458 123.079 93.447 120.819 96.8373C119.285 99.0976 117.025 99.6626 114.442 99.5819C112.343 99.5012 110.567 98.5325 109.599 96.5144C108.63 94.4156 108.872 92.3976 110.244 90.6217C110.729 89.9759 110.648 89.7337 110.083 89.2494C106.531 86.1012 107.661 80.9349 112.182 79.5626C113.07 79.3205 113.15 78.9976 112.827 78.1903C111.617 75.2843 113.796 72.2168 116.864 72.2168C117.671 72.2168 118.074 72.459 118.317 73.2662C118.801 75.1229 119.85 76.5759 121.546 77.5446C124.209 78.9976 126.147 81.0156 126.793 84.0831C126.712 84.2445 126.873 84.3253 127.115 84.7289ZM153.996 81.1771C153.35 78.9976 151.736 77.6253 149.879 77.4638C148.507 77.3831 148.103 77.706 148.265 79.0783C148.668 83.0337 148.426 86.9084 147.458 90.7831C146.085 96.1915 142.856 99.7433 137.69 101.681C134.703 102.811 131.636 103.457 128.488 104.022C127.196 104.264 126.954 104.667 127.68 105.798C128.568 107.251 129.779 108.3 131.152 109.269C135.026 112.013 136.883 111.771 139.708 108.058C141.242 106.12 143.018 104.91 145.359 104.345C147.619 103.779 149.637 102.811 151.494 101.439C154.238 99.259 154.803 95.9494 152.624 93.7698C152.14 93.2855 152.059 92.7204 152.624 92.1554C153.431 91.4289 153.673 90.3795 153.915 89.4108C154.319 86.6662 154.803 83.9217 153.996 81.1771ZM128.891 100.551C129.295 100.954 129.86 101.035 130.344 101.116C134.784 101.761 141.646 98.2903 143.664 94.2542C145.843 89.8951 145.682 85.4554 143.986 81.0964C143.986 81.0156 143.825 81.0156 143.664 81.0156C143.502 81.6614 143.341 82.3879 143.179 83.0337C141.646 88.3614 138.578 90.6217 133.654 90.3795C132.847 90.2988 132.12 89.9759 131.313 90.1373C131.474 90.4602 131.474 90.7024 131.071 90.8638C130.748 92.2361 130.344 93.6084 130.021 95.0614C130.264 95.3036 130.183 95.465 129.86 95.5458C129.376 97.0795 128.972 98.6132 128.649 100.228C128.811 100.308 128.891 100.47 128.891 100.551ZM139.87 68.3421C137.367 67.4542 136.802 67.8578 135.995 70.2795C135.591 71.4903 135.995 71.8132 137.044 71.894C140.193 72.2168 142.211 73.9927 143.664 76.7373C144.148 77.6253 144.632 78.5132 145.197 79.6433C147.054 75.0421 144.632 70.0373 139.87 68.3421ZM142.291 80.8542C142.614 76.9795 140.273 74.1542 136.399 73.5891C135.43 73.4277 135.026 73.8313 134.946 74.6385C134.784 75.7686 135.672 75.1229 136.076 75.2036C138.901 75.5265 140.838 77.8674 140.193 80.4506C139.708 82.3879 138.659 84.0024 137.206 85.4554C136.883 85.7783 136.479 86.1819 136.237 86.5048C135.914 86.9084 135.511 87.3927 135.914 87.9578C136.237 88.4421 136.802 88.1192 137.287 88.0385C140.031 87.2313 141.323 85.1325 142.13 82.4686C142.13 81.9843 142.211 81.4192 142.291 80.8542ZM132.04 88.0385C132.443 88.1192 132.685 87.8771 133.008 87.6349C134.784 85.9397 136.479 84.1638 137.771 82.065C138.255 81.2578 138.497 80.4506 138.659 79.5626C138.82 78.3518 138.174 77.3024 137.206 76.818C136.076 76.253 135.511 77.2217 134.946 77.9482C134.461 78.5132 134.058 79.159 133.896 79.9662C134.138 80.2084 134.058 80.3698 133.735 80.4506C133.735 80.612 133.654 80.7735 133.573 80.9349C133.977 81.0156 134.058 81.3385 133.977 81.6614C134.461 80.7735 134.946 79.8855 135.43 78.9976C135.672 78.6747 135.995 78.2711 136.399 78.4325C136.964 78.6747 136.802 79.159 136.721 79.5626C136.399 81.0964 135.026 82.2265 133.735 81.9843C133.493 82.1458 133.331 82.3072 133.089 82.3879C132.766 83.7602 132.362 85.1325 132.04 86.5855C132.443 87.1506 132.12 87.5542 132.04 88.0385ZM133.977 81.6614C134.058 81.3385 133.977 81.0156 133.573 80.9349C133.412 81.4192 133.331 81.9843 133.17 82.4686C133.412 82.3072 133.573 82.1457 133.815 82.065C133.815 81.9843 133.896 81.8229 133.977 81.6614ZM132.04 88.0385C132.12 87.5542 132.443 87.1506 132.12 86.6662C132.039 87.1506 131.474 87.5542 132.04 88.0385ZM133.654 80.4506C133.977 80.3698 134.058 80.2084 133.815 79.9662C133.735 80.1277 133.735 80.2891 133.654 80.4506Z" fill="#FFD277"/>
<path d="M135.404 37.1382C141.997 29.8463 141.431 18.5902 134.139 11.997C126.847 5.40369 115.591 5.96999 108.998 13.2618C102.404 20.5536 102.971 31.8097 110.263 38.403C117.554 44.9963 128.811 44.43 135.404 37.1382Z" fill="url(#paint1_linear)"/>
<path d="M132.646 34.645C137.863 28.8759 137.415 19.9705 131.645 14.7541C125.876 9.53776 116.971 9.98579 111.755 15.7548C106.538 21.5239 106.986 30.4293 112.755 35.6457C118.524 40.862 127.43 40.414 132.646 34.645Z" fill="#E5B35A"/>
<path d="M119.452 25.895C119.013 25.2086 118.4 25.0876 117.786 24.9666C116.867 24.8104 116.867 24.8104 117.231 23.9823C117.364 23.6213 117.471 23.2363 117.475 22.8059C117.47 22.705 117.438 22.58 117.337 22.5851C117.21 22.5662 117.191 22.6937 117.17 22.7707C117.127 22.9247 117.134 23.0761 117.091 23.2301C116.768 25.3468 114.338 25.8486 113.028 24.9529C112.609 24.6703 112.24 24.3852 111.989 23.9171C111.481 22.8797 111.928 21.6932 113.097 21.3054C113.52 21.1576 113.667 21.049 113.617 20.5706C113.495 19.6405 114.014 18.9058 114.809 18.6127C115.655 18.3171 116.555 18.6008 117.074 19.3592C119.618 23.1536 122.16 26.8976 124.654 30.6946C125.53 32.017 125.507 33.0557 124.768 33.9786C124.006 34.9279 122.832 35.2148 121.796 34.7608C121.226 34.4858 121.168 34.3369 121.469 33.7903C122.598 31.5825 121.236 29.1457 118.908 29.1616C118.326 29.1656 117.829 29.3424 117.34 29.6707C117.217 29.7528 117.02 29.8639 117.129 30.0103C117.24 30.2071 117.381 29.9976 117.53 29.9395C119.103 29 121.117 29.8096 121.559 31.5588C121.846 32.7338 121.361 33.6439 120.567 34.4683C119.917 35.1337 119.072 35.4293 118.121 35.1481C117.144 34.843 116.553 34.1641 116.378 33.186C116.309 32.8352 116.206 32.7898 115.879 32.8315C113.79 33.0631 112.429 31.1578 113.321 29.2655C113.505 28.902 113.423 28.7796 113.062 28.6459C111.748 28.1806 111.388 26.5538 112.299 25.5464C112.538 25.2812 112.738 25.2206 113.075 25.3808C113.828 25.7731 114.617 25.8599 115.439 25.5908C116.707 25.1474 117.945 25.1105 119.144 25.8093C119.197 25.8572 119.274 25.8787 119.452 25.895ZM126.269 16.0117C125.361 15.5766 124.431 15.6993 123.827 16.2611C123.392 16.6878 123.379 16.9163 123.877 17.2708C125.296 18.3129 126.497 19.5431 127.482 21.0119C128.851 23.0687 129.058 25.184 128.16 27.4561C127.645 28.7727 126.946 29.9719 126.196 31.1737C125.892 31.6698 125.953 31.8692 126.54 31.9662C127.281 32.1061 127.985 32.02 128.711 31.857C130.763 31.3995 131.235 30.7178 130.854 28.6871C130.673 27.6081 130.803 26.6652 131.313 25.7285C131.798 24.8184 132.079 23.8679 132.18 22.8506C132.279 21.302 131.36 20.1335 129.997 20.2021C129.694 20.2173 129.485 20.076 129.467 19.7226C129.468 19.2418 129.195 18.8506 128.949 18.4834C128.191 17.5093 127.434 16.5351 126.269 16.0117ZM125.2 29.9838C125.453 29.9711 125.647 29.8095 125.817 29.6744C127.348 28.408 128.245 25.1237 127.519 23.2623C126.735 21.2519 125.229 19.9865 123.294 19.2487C123.267 19.2248 123.219 19.2778 123.171 19.3308C123.335 19.5756 123.526 19.8444 123.69 20.0892C124.984 22.1751 124.816 23.8538 123.274 25.3991C123.008 25.6402 122.686 25.783 122.499 26.096C122.653 26.1389 122.733 26.2108 122.666 26.3913C123.021 26.9049 123.352 27.445 123.733 27.9825C123.884 27.9749 123.913 28.0494 123.844 28.1794C124.204 28.7939 124.588 29.382 125.022 29.9675C125.099 29.9889 125.15 29.9863 125.2 29.9838ZM117.909 16.8372C116.874 17.3954 116.839 17.7008 117.394 18.6851C117.672 19.1773 117.898 19.1406 118.236 18.8199C119.277 17.8818 120.46 17.7464 121.793 18.0843C122.228 18.1889 122.663 18.2935 123.202 18.4435C122.216 16.4434 119.88 15.7764 117.909 16.8372ZM122.687 19.7601C121.51 18.5034 119.887 18.4332 118.551 19.538C118.21 19.8082 118.223 20.0606 118.464 20.3268C118.787 20.7155 118.839 20.232 118.985 20.1235C119.93 19.2914 121.274 19.3503 121.931 20.3295C122.423 21.0639 122.642 21.888 122.688 22.7968C122.698 22.9987 122.71 23.2511 122.745 23.4265C122.781 23.6525 122.82 23.9289 123.126 23.9641C123.381 24.0019 123.443 23.7204 123.56 23.5374C124.11 22.3962 123.804 21.3488 123.169 20.2926C123.01 20.1487 122.872 19.9279 122.687 19.7601ZM122.026 25.2341C122.172 25.1255 122.164 24.9741 122.181 24.7961C122.151 23.7094 122.072 22.6253 121.766 21.5778C121.645 21.179 121.451 20.8598 121.208 20.5431C120.858 20.1304 120.321 20.0309 119.875 20.2052C119.354 20.4086 119.504 20.8818 119.575 21.2832C119.616 21.61 119.709 21.9344 119.926 22.2271C120.077 22.2195 120.106 22.294 120.037 22.424C120.09 22.4719 120.119 22.5464 120.148 22.6209C120.294 22.5123 120.425 22.5816 120.507 22.704C120.359 22.2813 120.211 21.8585 120.063 21.4357C120.029 21.2603 119.992 21.0344 120.165 20.9498C120.413 20.8361 120.524 21.033 120.632 21.1794C121.04 21.7409 121.004 22.5272 120.541 22.8795C120.522 23.0069 120.527 23.1079 120.482 23.2114C120.836 23.725 121.167 24.2651 121.548 24.8026C121.854 24.8379 121.893 25.1143 122.026 25.2341ZM120.509 22.7545C120.427 22.6321 120.297 22.5627 120.151 22.6713C120.262 22.8682 120.423 23.0625 120.535 23.2594C120.553 23.1319 120.548 23.0309 120.594 22.9274C120.541 22.8795 120.512 22.805 120.509 22.7545ZM122.026 25.2341C121.891 25.0638 121.854 24.8379 121.599 24.8001C121.734 24.9704 121.701 25.3264 122.026 25.2341ZM119.989 22.477C120.058 22.347 120.029 22.2725 119.878 22.2802C119.931 22.3281 119.96 22.4026 119.989 22.477Z" fill="#664407"/>
<path d="M119.551 25.8391C119.112 25.1527 118.498 25.0317 117.885 24.9107C116.966 24.7545 116.966 24.7545 117.329 23.9264C117.463 23.5654 117.57 23.1804 117.574 22.75C117.569 22.6491 117.537 22.5241 117.436 22.5292C117.309 22.5103 117.29 22.6378 117.268 22.7148C117.225 22.8688 117.233 23.0202 117.19 23.1742C116.866 25.2909 114.437 25.7927 113.127 24.897C112.707 24.6144 112.339 24.3293 112.087 23.8611C111.58 22.8238 112.026 21.6373 113.196 21.2495C113.619 21.1017 113.765 20.9931 113.716 20.5147C113.593 19.5846 114.113 18.8499 114.908 18.5568C115.754 18.2612 116.653 18.5449 117.172 19.3033C119.717 23.0977 122.259 26.8417 124.753 30.6386C125.629 31.9611 125.605 32.9998 124.867 33.9227C124.105 34.872 122.93 35.1589 121.895 34.7048C121.324 34.4299 121.266 34.281 121.568 33.7344C122.697 31.5266 121.334 29.0898 119.007 29.1057C118.425 29.1096 117.928 29.2865 117.438 29.6148C117.316 29.6969 117.119 29.808 117.228 29.9544C117.339 30.1512 117.48 29.9417 117.629 29.8836C119.201 28.9441 121.216 29.7537 121.658 31.5029C121.945 32.6779 121.459 33.588 120.666 34.4124C120.016 35.0778 119.17 35.3734 118.22 35.0922C117.243 34.7871 116.652 34.1082 116.476 33.1301C116.408 32.7793 116.304 32.7339 115.978 32.7756C113.889 33.0072 112.528 31.1018 113.419 29.2096C113.604 28.8461 113.522 28.7237 113.161 28.59C111.846 28.1247 111.486 26.4979 112.397 25.4905C112.637 25.2253 112.836 25.1647 113.173 25.3249C113.927 25.7172 114.716 25.804 115.537 25.5349C116.806 25.0915 118.044 25.0545 119.243 25.7534C119.272 25.8278 119.347 25.7988 119.551 25.8391ZM126.367 15.9558C125.46 15.5207 124.53 15.6434 123.925 16.2052C123.491 16.6319 123.477 16.8604 123.976 17.2149C125.395 18.257 126.596 19.4872 127.58 20.956C128.949 23.0128 129.157 25.1281 128.259 27.4002C127.743 28.7168 127.044 29.916 126.295 31.1178C125.991 31.6139 126.052 31.8133 126.639 31.9103C127.379 32.0502 128.084 31.9641 128.809 31.8011C130.861 31.3435 131.333 30.6619 130.953 28.6312C130.772 27.5521 130.902 26.6093 131.411 25.6726C131.897 24.7625 132.178 23.812 132.279 22.7947C132.378 21.2461 131.459 20.0776 130.096 20.1462C129.793 20.1614 129.583 20.0201 129.565 19.6667C129.567 19.1859 129.294 18.7947 129.048 18.4275C128.266 17.4799 127.508 16.5057 126.367 15.9558ZM125.275 29.9544C125.527 29.9417 125.722 29.7801 125.892 29.645C127.422 28.3786 128.32 25.0943 127.594 23.2329C126.809 21.2225 125.303 19.9571 123.368 19.2193C123.342 19.1954 123.294 19.2484 123.246 19.3014C123.41 19.5462 123.601 19.815 123.765 20.0598C125.059 22.1457 124.891 23.8244 123.349 25.3697C123.082 25.6108 122.761 25.7536 122.574 26.0666C122.728 26.1095 122.807 26.1814 122.741 26.3619C123.095 26.8755 123.426 27.4156 123.808 27.9531C123.959 27.9455 123.988 28.02 123.919 28.15C124.279 28.7645 124.663 29.3526 125.097 29.9381C125.171 29.909 125.248 29.9304 125.275 29.9544ZM117.957 16.7838C116.922 17.342 116.887 17.6475 117.442 18.6318C117.72 19.1239 117.946 19.0872 118.284 18.7665C119.325 17.8285 120.508 17.693 121.841 18.0309C122.276 18.1355 122.712 18.2401 123.251 18.3902C122.291 16.414 119.928 15.723 117.957 16.7838ZM122.785 19.7042C121.609 18.4475 119.985 18.3773 118.649 19.4821C118.309 19.7523 118.321 20.0047 118.562 20.2709C118.886 20.6596 118.937 20.1761 119.084 20.0675C120.029 19.2355 121.373 19.2944 122.029 20.2736C122.522 21.008 122.74 21.8321 122.786 22.7409C122.796 22.9428 122.809 23.1952 122.843 23.3706C122.88 23.5965 122.919 23.8729 123.225 23.9082C123.479 23.946 123.541 23.6645 123.659 23.4815C124.209 22.3403 123.903 21.2928 123.268 20.2366C123.108 20.0928 122.947 19.8985 122.785 19.7042ZM122.1 25.2047C122.247 25.0962 122.239 24.9447 122.255 24.7667C122.226 23.6801 122.146 22.5959 121.841 21.5484C121.719 21.1496 121.526 20.8304 121.282 20.5137C120.933 20.1011 120.396 20.0015 119.949 20.1758C119.428 20.3792 119.579 20.8524 119.649 21.2538C119.691 21.5807 119.783 21.905 120.001 22.1977C120.152 22.1901 120.181 22.2646 120.112 22.3946C120.165 22.4425 120.194 22.517 120.223 22.5915C120.369 22.4829 120.499 22.5522 120.581 22.6746C120.433 22.2519 120.286 21.8291 120.138 21.4063C120.104 21.2309 120.067 21.005 120.24 20.9204C120.487 20.8067 120.598 21.0036 120.707 21.15C121.115 21.7115 121.078 22.4978 120.615 22.8501C120.596 22.9776 120.602 23.0785 120.556 23.182C120.911 23.6956 121.242 24.2357 121.623 24.7732C121.929 24.8085 121.965 25.0344 122.1 25.2047ZM120.581 22.6746C120.499 22.5522 120.369 22.4829 120.223 22.5915C120.334 22.7883 120.496 22.9826 120.607 23.1795C120.626 23.052 120.62 22.951 120.666 22.8475C120.639 22.8236 120.61 22.7491 120.581 22.6746ZM122.1 25.2047C121.965 25.0344 121.929 24.8085 121.674 24.7707C121.809 24.9411 121.773 25.2465 122.1 25.2047ZM120.088 22.4211C120.157 22.2911 120.128 22.2166 119.977 22.2243C120.006 22.2987 120.059 22.3466 120.088 22.4211Z" fill="#FFD277"/>
<rect y="65.4224" width="84.927" height="113.236" rx="6" transform="rotate(-21.7152 0 65.4224)" fill="#347FAA"/>
<rect x="5.19629" y="67.6585" width="77" height="98" rx="6" transform="rotate(-21.7152 5.19629 67.6585)" fill="#EBF4FF"/>
<rect x="12.4316" y="72.3118" width="67" height="38" rx="6" transform="rotate(-21.7152 12.4316 72.3118)" fill="#3D6A9E"/>
<rect x="31.5802" y="119.043" width="10" height="10" rx="2.5" transform="rotate(-21.7152 31.5802 119.043)" stroke="#5194A6"/>
<rect x="40.7921" y="142.174" width="10" height="10" rx="2.5" transform="rotate(-21.7152 40.7921 142.174)" stroke="#5194A6"/>
<rect x="78.3233" y="128.303" width="10" height="10" rx="2.5" transform="rotate(-21.7152 78.3233 128.303)" stroke="#5194A6"/>
<path d="M47.5076 116.419L45.7718 116.772C45.6942 116.047 45.8153 115.44 46.1351 114.95C46.4549 114.459 47.053 114.04 47.9294 113.69C48.7253 113.373 49.356 113.233 49.8214 113.268C50.2851 113.299 50.6535 113.43 50.9265 113.659C51.202 113.883 51.4941 114.383 51.8027 115.157L52.6132 117.248C52.8493 117.841 53.0513 118.268 53.2193 118.53C53.3899 118.786 53.6176 119.043 53.9024 119.303L52.1368 120.006C52.043 119.906 51.9159 119.753 51.7554 119.547C51.6836 119.453 51.6346 119.391 51.6085 119.363C51.4216 119.78 51.1842 120.133 50.896 120.419C50.6078 120.705 50.2669 120.927 49.8731 121.084C49.1788 121.36 48.5554 121.39 48.0032 121.174C47.4551 120.955 47.0664 120.558 46.8371 119.983C46.6853 119.601 46.6415 119.227 46.7055 118.858C46.7678 118.485 46.9308 118.155 47.1944 117.868C47.4606 117.576 47.8792 117.247 48.4501 116.883C49.2218 116.394 49.7415 116.017 50.0094 115.754L49.9385 115.576C49.802 115.233 49.6203 115.023 49.3936 114.947C49.1653 114.866 48.8161 114.919 48.3461 115.106C48.0286 115.233 47.8062 115.395 47.679 115.593C47.5501 115.787 47.4929 116.062 47.5076 116.419ZM50.4722 116.916C50.2739 117.083 49.9482 117.319 49.495 117.622C49.0418 117.925 48.7592 118.157 48.6472 118.32C48.4801 118.578 48.4472 118.834 48.5483 119.088C48.6478 119.337 48.827 119.516 49.0858 119.624C49.3446 119.732 49.6179 119.729 49.9058 119.614C50.2276 119.486 50.4924 119.258 50.7002 118.93C50.8521 118.683 50.9155 118.429 50.8905 118.17C50.8764 117.999 50.7842 117.699 50.6138 117.272L50.4722 116.916ZM55.8752 121.688C55.9265 120.795 55.944 120.118 55.9278 119.659C55.9116 119.199 55.8603 118.682 55.774 118.108C55.6877 117.534 55.5806 117.001 55.4527 116.507C55.3231 116.009 55.1597 115.513 54.9624 115.017C54.5611 114.01 54.0738 113.1 53.5004 112.289C52.9253 111.473 52.0923 110.539 51.0013 109.487L52.2143 109.004C53.2162 109.66 54.096 110.428 54.8537 111.308C55.6158 112.187 56.2058 113.151 56.624 114.201C56.9764 115.086 57.2144 116.09 57.338 117.213C57.4723 118.474 57.3954 119.803 57.1073 121.198L55.8752 121.688Z" fill="#5194A6"/>
<path d="M86.9599 107.214L83.2521 97.9033L85.0366 97.1926L86.3721 100.546C86.6729 99.7 87.2002 99.127 87.9538 98.8269C88.7752 98.4998 89.5736 98.5277 90.349 98.9105C91.1228 99.2891 91.7314 100.035 92.1749 101.149C92.6335 102.3 92.7116 103.297 92.409 104.138C92.1107 104.978 91.5699 105.554 90.7867 105.866C90.4014 106.02 89.9824 106.076 89.5297 106.036C89.0796 105.989 88.644 105.832 88.2229 105.563L88.6175 106.553L86.9599 107.214ZM87.3306 102.99C87.6088 103.688 87.9246 104.161 88.278 104.408C88.7759 104.759 89.281 104.832 89.7933 104.628C90.1871 104.472 90.4549 104.171 90.5969 103.727C90.7415 103.277 90.6696 102.69 90.3813 101.966C90.0744 101.195 89.7138 100.696 89.2994 100.469C88.8834 100.237 88.4574 100.208 88.0213 100.382C87.5937 100.552 87.3046 100.861 87.1541 101.309C87.002 101.752 87.0608 102.312 87.3306 102.99ZM95.5821 106.951C95.6334 106.058 95.6509 105.381 95.6347 104.921C95.6184 104.462 95.5672 103.945 95.4809 103.371C95.3946 102.797 95.2875 102.264 95.1596 101.77C95.03 101.272 94.8666 100.776 94.6693 100.28C94.268 99.2727 93.7806 98.363 93.2072 97.5515C92.6322 96.7356 91.7991 95.8018 90.7082 94.7499L91.9212 94.2668C92.923 94.9225 93.8029 95.6906 94.5606 96.571C95.3226 97.4497 95.9127 98.4141 96.3309 99.4641C96.6833 100.349 96.9213 101.353 97.0448 102.476C97.1792 103.737 97.1023 105.065 96.8142 106.46L95.5821 106.951Z" fill="#FF2E6D"/>
<path d="M61.3918 137.726L59.7591 138.744C59.5599 138.416 59.319 138.205 59.0365 138.112C58.7582 138.016 58.4519 138.035 58.1174 138.169C57.6728 138.346 57.3787 138.642 57.2351 139.057C57.094 139.467 57.1668 140.031 57.4534 140.751C57.7721 141.551 58.1306 142.063 58.5288 142.287C58.9313 142.51 59.3591 142.531 59.8121 142.35C60.1508 142.215 60.3902 142.01 60.5302 141.733C60.6686 141.452 60.6886 141.059 60.5904 140.554L62.4621 140.154C62.6004 141.031 62.4931 141.778 62.1401 142.394C61.7871 143.011 61.1767 143.492 60.3087 143.837C59.3222 144.23 58.4108 144.233 57.5744 143.845C56.7423 143.455 56.107 142.71 55.6686 141.609C55.2251 140.495 55.1746 139.512 55.5169 138.66C55.8575 137.803 56.5296 137.175 57.533 136.775C58.3544 136.448 59.0772 136.366 59.7015 136.53C60.3284 136.687 60.8918 137.086 61.3918 137.726ZM65.2375 144.869C65.2888 143.976 65.3063 143.299 65.2901 142.839C65.2739 142.38 65.2226 141.863 65.1363 141.289C65.05 140.715 64.9429 140.182 64.815 139.688C64.6854 139.19 64.522 138.694 64.3247 138.198C63.9234 137.191 63.4361 136.281 62.8627 135.469C62.2876 134.654 61.4546 133.72 60.3636 132.668L61.5766 132.185C62.5785 132.841 63.4583 133.609 64.2161 134.489C64.9781 135.368 65.5682 136.332 65.9863 137.382C66.3387 138.267 66.5767 139.271 66.7003 140.394C66.8346 141.655 66.7577 142.983 66.4696 144.378L65.2375 144.869Z" fill="#5194A6"/>
<path d="M101.229 128.44L99.5711 129.101L99.1765 128.11C99.0548 128.605 98.8434 129.023 98.5425 129.363C98.2441 129.698 97.9044 129.941 97.5233 130.093C96.7485 130.401 95.9599 130.355 95.1574 129.953C94.3574 129.546 93.7349 128.783 93.2897 127.666C92.8345 126.522 92.7576 125.547 93.0593 124.741C93.3592 123.929 93.9199 123.36 94.7413 123.033C95.4949 122.733 96.2717 122.787 97.0717 123.194L95.7362 119.841L97.5208 119.13L101.229 128.44ZM95.0644 126.819C95.351 127.539 95.6579 128.02 95.985 128.263C96.4584 128.614 96.9534 128.686 97.4699 128.481C97.8806 128.317 98.1608 128.004 98.3104 127.542C98.4583 127.076 98.3941 126.496 98.1175 125.802C97.809 125.027 97.4475 124.526 97.0332 124.298C96.6172 124.067 96.1911 124.038 95.755 124.211C95.3316 124.38 95.0434 124.691 94.8904 125.144C94.74 125.592 94.7979 126.15 95.0644 126.819ZM103.589 130.672C103.64 129.778 103.658 129.102 103.642 128.642C103.625 128.183 103.574 127.666 103.488 127.092C103.401 126.518 103.294 125.984 103.166 125.491C103.037 124.993 102.873 124.496 102.676 124.001C102.275 122.993 101.787 122.084 101.214 121.272C100.639 120.456 99.806 119.522 98.715 118.471L99.928 117.988C100.93 118.643 101.81 119.411 102.567 120.292C103.329 121.17 103.92 122.135 104.338 123.185C104.69 124.07 104.928 125.074 105.052 126.197C105.186 127.458 105.109 128.786 104.821 130.181L103.589 130.672Z" fill="#5194A6"/>
<rect x="68.7931" y="104.373" width="10" height="10" rx="2.5" transform="rotate(-21.7152 68.7931 104.373)" stroke="#5194A6"/>
<path d="M73.2026 107.029L76.4502 108.426L80.084 99.9827" stroke="#FF2E6D"/>
<circle cx="36.7426" cy="82.0046" r="12" transform="rotate(-21.7152 36.7426 82.0046)" fill="#EC1455"/>
<rect x="43.8135" y="72.7304" width="25" height="21" transform="rotate(-21.7152 43.8135 72.7304)" fill="#FFD277"/>
<circle cx="79.5377" cy="148.919" r="3" transform="rotate(-21.7152 79.5377 148.919)" fill="#EBF4FF"/>
<defs>
<linearGradient id="paint0_linear" x1="108.614" y1="55.6723" x2="155.872" y2="120.741" gradientUnits="userSpaceOnUse">
<stop stop-color="#FFFFE3"/>
<stop offset="0.1817" stop-color="#FDCF74"/>
<stop offset="1" stop-color="#F6C266"/>
</linearGradient>
<linearGradient id="paint1_linear" x1="104.513" y1="23.2866" x2="139.918" y2="27.0889" gradientUnits="userSpaceOnUse">
<stop stop-color="#FFFFE3"/>
<stop offset="0.1817" stop-color="#FDCF74"/>
<stop offset="1" stop-color="#F6C266"/>
</linearGradient>
</defs>
</svg>
