<svg width="169" height="141" viewBox="0 0 169 141" fill="none" xmlns="http://www.w3.org/2000/svg">
<circle cx="100" cy="69" r="69" fill="#36607B"/>
<path d="M42.0004 43.5C45.6004 48.3 40.5004 56.5 37.5004 60C37.5004 60.8333 36.9003 62.3 34.5 61.5C31.4996 60.5 18.5 72 18.5 86C18.5 96.4615 12.3929 107.156 8.73535 112.052C8.50805 112.419 8.26265 112.738 8.0004 113C8.23117 112.714 8.47716 112.398 8.73535 112.052C11.542 107.514 11.5883 95.4756 6.5004 89C1.0004 82 -4.4996 60 8.0004 41.5C20.5004 23 37.5004 37.5 42.0004 43.5Z" fill="#EC1455"/>
<rect x="58" y="13.0925" width="94.4897" height="70.2616" rx="1" transform="rotate(-6.13151 58 13.0925)" fill="#BC7646"/>
<rect x="63.335" y="17.3931" width="84.7984" height="60.5703" rx="1" transform="rotate(-6.13151 63.335 17.3931)" fill="#1B3913"/>
<path d="M86.0761 47.3842L86.3729 50.1472L75.9455 51.2674C75.9462 50.2107 76.1788 49.1863 76.6434 48.1941C77.1071 47.1948 78.0888 45.8329 79.5883 44.1083C80.795 42.7151 81.5263 41.7799 81.782 41.3027C82.1253 40.6447 82.2648 40.0158 82.2004 39.4159C82.1291 38.7525 81.8945 38.2637 81.4967 37.9495C81.1052 37.6274 80.5953 37.5002 79.9672 37.5676C79.3462 37.6344 78.8722 37.8745 78.5454 38.2879C78.2186 38.7014 78.0736 39.3452 78.1104 40.2193L75.1144 40.2413C75.115 38.5851 75.5427 37.3505 76.3978 36.5376C77.2528 35.7247 78.379 35.2432 79.7763 35.0931C81.3078 34.9286 82.5555 35.2122 83.5193 35.9439C84.4831 36.6756 85.031 37.6555 85.1629 38.8835C85.238 39.5822 85.1826 40.2627 84.9968 40.9252C84.8172 41.5798 84.4929 42.2822 84.0238 43.0322C83.7131 43.5296 83.1347 44.2592 82.2886 45.2211C81.4424 46.1829 80.9075 46.8186 80.6837 47.1282C80.467 47.4371 80.2955 47.7339 80.169 48.0188L86.0761 47.3842Z" fill="white"/>
<path d="M92.8493 47.192L92.416 43.1587L88.3509 43.5953L88.0518 40.8112L92.1169 40.3745L91.6836 36.3411L94.3937 36.05L94.827 40.0833L98.9027 39.6455L99.2018 42.4297L95.1261 42.8675L95.5594 46.9009L92.8493 47.192Z" fill="white"/>
<path d="M109.968 47.6125L106.994 47.932L105.789 36.7212C104.812 37.8542 103.611 38.7435 102.189 39.3889L101.899 36.6894C102.648 36.3519 103.44 35.7814 104.274 34.9779C105.108 34.1673 105.644 33.2709 105.881 32.2888L108.294 32.0295L109.968 47.6125Z" fill="white"/>
<path d="M114.126 38.4277L113.833 35.6965L124.684 34.5308L124.977 37.2621L114.126 38.4277ZM114.631 43.128L114.337 40.3862L125.188 39.2205L125.482 41.9623L114.631 43.128Z" fill="white"/>
<path d="M127.839 41.5271L130.681 40.8685C130.851 41.5926 131.159 42.1271 131.603 42.4721C132.047 42.817 132.554 42.9588 133.126 42.8974C133.74 42.8314 134.23 42.5432 134.597 42.0327C134.97 41.5214 135.114 40.8705 135.029 40.0801C134.949 39.332 134.684 38.7608 134.235 38.3664C133.786 37.9721 133.272 37.806 132.693 37.8681C132.312 37.9091 131.865 38.0321 131.351 38.2372L131.419 35.7777C132.226 35.7124 132.821 35.4735 133.205 35.0611C133.588 34.6415 133.747 34.1247 133.681 33.5107C133.625 32.9885 133.425 32.5888 133.081 32.3116C132.737 32.0344 132.308 31.9235 131.793 31.9789C131.284 32.0335 130.869 32.2565 130.547 32.6481C130.225 33.0396 130.062 33.5783 130.057 34.2642L127.265 34.0929C127.355 33.1338 127.56 32.355 127.881 31.7565C128.209 31.1502 128.698 30.6515 129.348 30.2604C130.005 29.8614 130.761 29.6161 131.614 29.5244C133.075 29.3674 134.297 29.7074 135.279 30.5442C136.088 31.2283 136.544 32.0503 136.647 33.0101C136.793 34.3722 136.166 35.539 134.764 36.5106C135.673 36.6056 136.429 36.9564 137.029 37.5629C137.637 38.1687 137.991 38.9409 138.092 39.8796C138.238 41.2417 137.865 42.4561 136.973 43.5228C136.081 44.5895 134.894 45.2025 133.412 45.3617C132.008 45.5126 130.8 45.2354 129.789 44.5301C128.777 43.8179 128.127 42.8169 127.839 41.5271Z" fill="white"/>
<rect x="34" y="60.5596" width="4" height="8" rx="2" transform="rotate(-22.9479 34 60.5596)" fill="#AEABAB"/>
<ellipse cx="54.5" cy="87" rx="26.5" ry="27" fill="#C4C4C4"/>
<path fill-rule="evenodd" clip-rule="evenodd" d="M168.95 88.6653C168.983 88.1145 169 87.5592 169 87C169 86.6986 168.995 86.3983 168.986 86.0993C168.991 85.7224 168.995 85.3557 169 85L168.929 85.0047C167.926 71.0247 156.477 60 142.5 60C127.864 60 116 72.0883 116 87C116 87.5024 116.013 88.0017 116.04 88.4974L116 88.5C116 105 116.3 138.4 117.5 140C119 142 167.5 137.5 168 130.5C168.365 125.389 168.758 102.398 168.95 88.6653Z" fill="#C4C4C4"/>
<path d="M80.723 77.0143C78.7684 79.5793 58.7869 82.6764 49.0405 83.9043L48.4482 88.3652L79.2178 103.547C81.0144 102.171 83.9699 93.0814 85.223 88.7083C85.1424 86.2765 82.1894 79.899 80.723 77.0143Z" fill="#AEABAB"/>
<path d="M68.5 82.5L65 83C65.4 85.4 64.8333 91.3333 64.5 94L67.5 95C67.9 93.4 68.3333 86 68.5 82.5Z" fill="#8F8F8F"/>
<path d="M119.5 118.5H116.5L116 85L116.5 83.5C126.5 87.5 135 86.5 138 85.5V94C130.8 96.8 122 95.8333 118.5 95L119.5 118.5Z" fill="#AEABAB"/>
<path d="M75 82L71.5 82.64C71.9 85.712 71.3333 93.3067 71 96.72L74 98C74.4 95.952 74.8333 86.48 75 82Z" fill="#8F8F8F"/>
<path d="M81 80L77.5 80.8C77.9 84.64 77.3333 94.1333 77 98.4L80 100C80.4 97.44 80.8333 85.6 81 80Z" fill="#8F8F8F"/>
<circle cx="45" cy="87" r="5" fill="#B4ACAC"/>
<circle r="1" transform="matrix(-1 0 0 1 153 109)" fill="#B4ACAC"/>
<circle r="1" transform="matrix(-1 0 0 1 153 88)" fill="#B4ACAC"/>
<circle r="1" transform="matrix(-1 0 0 1 153 102)" fill="#B4ACAC"/>
<circle r="1" transform="matrix(-1 0 0 1 125 71)" fill="#B4ACAC"/>
<circle r="1" transform="matrix(-1 0 0 1 140 71)" fill="#B4ACAC"/>
<circle r="1" transform="matrix(-1 0 0 1 130 71)" fill="#B4ACAC"/>
<circle r="1" transform="matrix(-1 0 0 1 145 71)" fill="#B4ACAC"/>
<circle r="1" transform="matrix(-1 0 0 1 155 71)" fill="#B4ACAC"/>
<circle r="1" transform="matrix(-1 0 0 1 135 71)" fill="#B4ACAC"/>
<circle r="1" transform="matrix(-1 0 0 1 150 71)" fill="#B4ACAC"/>
<circle r="1" transform="matrix(-1 0 0 1 160 71)" fill="#B4ACAC"/>
<circle r="1" transform="matrix(-1 0 0 1 153 116)" fill="#B4ACAC"/>
<circle r="1" transform="matrix(-1 0 0 1 153 95)" fill="#B4ACAC"/>
<circle r="1" transform="matrix(-1 0 0 1 153 122)" fill="#B4ACAC"/>
<circle r="1" transform="matrix(-1 0 0 1 153 129)" fill="#B4ACAC"/>
<circle r="1" transform="matrix(-1 0 0 1 153 135)" fill="#B4ACAC"/>
<path d="M31.9997 118C34.3997 112.8 33.9994 105.167 31.9994 101C41.1992 97 63.1662 102.667 72.9997 106C67.9997 110.5 59.3 115.1 58.5 119.5C57.5 125 73.9997 137.5 72.9997 139.5C71.9997 141.5 26.4994 137 24.4994 135.5C22.4994 134 28.9997 124.5 31.9997 118Z" fill="#C4C4C4"/>
<path d="M136.5 87C129.43 88.5694 119.721 86.3078 116 85V91.866C118.605 94.6124 129.988 95.9426 136.5 93V87Z" fill="#8F8F8F"/>
</svg>
