<svg width="170" height="122" viewBox="0 0 170 122" fill="none" xmlns="http://www.w3.org/2000/svg">
<rect y="18" width="159" height="104" rx="7" fill="#DAE0E7"/>
<path d="M9 113C13.5 101.5 28.1229 92.9359 39 94.5C59 97.3761 77.1629 58.3239 94.5 69.9999C143.5 103 137.914 36.746 150 38.0495" stroke="#EC1455" stroke-width="3" stroke-linecap="round"/>
<path d="M40.6028 87.4828C45.456 83.1155 45.85 75.6408 41.4828 70.7876C37.1155 65.9343 29.6408 65.5403 24.7876 69.9076C19.9343 74.2748 19.5404 81.7495 23.9076 86.6028C28.2748 91.456 35.7495 91.85 40.6028 87.4828Z" fill="url(#paint0_linear)"/>
<path d="M38.9512 85.6476C42.7909 82.1923 43.1026 76.2786 39.6474 72.4389C36.1922 68.5992 30.2785 68.2875 26.4388 71.7427C22.599 75.1979 22.2873 81.1116 25.7425 84.9513C29.1978 88.7911 35.1115 89.1028 38.9512 85.6476Z" fill="#E5B35A"/>
<path d="M30.8323 78.9668C30.5888 78.4833 30.1919 78.3615 29.7949 78.2397C29.1985 78.0738 29.1985 78.0738 29.495 77.5516C29.6079 77.3222 29.705 77.0752 29.7367 76.7911C29.7403 76.7241 29.7279 76.6394 29.6609 76.6358C29.578 76.6146 29.5568 76.6976 29.5374 76.747C29.4985 76.8458 29.4932 76.9464 29.4544 77.0452C29.0961 78.4214 27.4569 78.5871 26.6524 77.906C26.3948 77.6907 26.1707 77.4772 26.0367 77.1508C25.772 76.4309 26.1479 75.6775 26.9472 75.5011C27.2366 75.4323 27.3407 75.3705 27.3407 75.0512C27.3232 74.4283 27.7167 73.9784 28.2619 73.8391C28.8406 73.7015 29.4158 73.9503 29.7069 74.4867C31.1289 77.167 32.5526 79.8138 33.941 82.4924C34.4297 83.4258 34.3432 84.1104 33.7926 84.6697C33.2244 85.2449 32.4286 85.3542 31.7758 84.9836C31.4177 84.763 31.3894 84.6607 31.6259 84.3202C32.5223 82.9387 31.7885 81.2359 30.2499 81.0876C29.8652 81.0505 29.5247 81.1334 29.1788 81.3169C29.0924 81.3628 28.9547 81.4227 29.0165 81.5268C29.0765 81.6645 29.1841 81.5357 29.2864 81.5075C30.3893 80.9941 31.6649 81.6664 31.8377 82.8522C31.9471 83.6479 31.5641 84.2161 30.9836 84.7065C30.5089 85.1017 29.9302 85.2393 29.3215 84.9887C28.6969 84.7205 28.3528 84.2317 28.3035 83.5736C28.2823 83.3371 28.2171 83.3001 27.9983 83.3053C26.6026 83.3158 25.8334 81.9642 26.5516 80.775C26.6981 80.5474 26.6522 80.4609 26.4228 80.348C25.5865 79.9509 25.4596 78.8517 26.1301 78.2483C26.3065 78.0895 26.4424 78.063 26.6541 78.1918C27.1252 78.5024 27.6404 78.6136 28.2015 78.4919C29.0697 78.2855 29.8901 78.3456 30.6347 78.8891C30.6664 78.9244 30.7158 78.9438 30.8323 78.9668ZM36.0097 72.9027C35.4398 72.5533 34.8169 72.5709 34.3793 72.9008C34.0635 73.1531 34.0387 73.3031 34.344 73.5713C35.2103 74.3566 35.9195 75.2512 36.4699 76.2888C37.2338 77.741 37.2267 79.1525 36.4784 80.5923C36.0478 81.4268 35.5043 82.1714 34.9273 82.9142C34.6926 83.2212 34.7191 83.357 35.1002 83.4612C35.5801 83.6041 36.0512 83.5953 36.5417 83.5371C37.9286 83.3749 38.2868 82.9568 38.174 81.5893C38.1282 80.8641 38.2782 80.2501 38.6788 79.6661C39.0617 79.098 39.3123 78.4892 39.4482 77.8241C39.6194 76.8077 39.0919 75.9731 38.1868 75.9254C37.9856 75.9148 37.8568 75.8072 37.8692 75.5725C37.9027 75.2549 37.7493 74.9779 37.6117 74.7185C37.1777 74.0233 36.7437 73.328 36.0097 72.9027ZM34.3504 82.0601C34.518 82.069 34.6574 81.9754 34.7792 81.8978C35.8767 81.1657 36.6938 79.0572 36.341 77.7779C35.96 76.3963 35.0514 75.4576 33.8234 74.8382C33.8075 74.8205 33.7722 74.8523 33.7369 74.884C33.8286 75.057 33.9363 75.2475 34.028 75.4205C34.7407 76.8868 34.5148 77.9842 33.3908 78.8999C33.1984 79.0411 32.9761 79.1134 32.8314 79.3075C32.9302 79.3463 32.9778 79.3992 32.9214 79.5139C33.1207 79.8774 33.3024 80.2568 33.5177 80.6379C33.6182 80.6432 33.6324 80.6944 33.5776 80.7755C33.7735 81.2061 33.9869 81.6207 34.2339 82.0372C34.2833 82.0566 34.3169 82.0584 34.3504 82.0601ZM30.4305 72.8776C29.7088 73.1757 29.6647 73.3751 29.9646 74.0633C30.1145 74.4074 30.2663 74.3985 30.5115 74.2098C31.2632 73.6611 32.0537 73.6523 32.9112 73.9665C33.1918 74.0653 33.4723 74.1641 33.8181 74.3C33.303 72.9114 31.805 72.3113 30.4305 72.8776ZM33.3875 75.1346C32.6959 74.2241 31.6284 74.0669 30.6703 74.7056C30.4268 74.8609 30.418 75.0285 30.5591 75.2208C30.7461 75.4996 30.8132 75.1838 30.9173 75.122C31.5984 74.6369 32.4824 74.7675 32.8493 75.4592C33.1246 75.978 33.2127 76.5373 33.1809 77.1407C33.1739 77.2748 33.165 77.4425 33.1756 77.5607C33.1844 77.7124 33.1915 77.8977 33.3908 77.9418C33.5567 77.9842 33.6167 77.8024 33.7067 77.6895C34.1479 76.9732 34.0173 76.2603 33.6698 75.5192C33.5745 75.4134 33.4987 75.2581 33.3875 75.1346ZM32.5774 78.7058C32.6815 78.644 32.6868 78.5434 32.7097 78.427C32.7645 77.7071 32.7857 76.9854 32.6552 76.2726C32.6023 76.0009 32.4964 75.7768 32.3571 75.5509C32.1542 75.2545 31.8066 75.1521 31.4996 75.2368C31.1414 75.3355 31.2084 75.6584 31.2278 75.9284C31.233 76.1472 31.2718 76.3678 31.3953 76.576C31.4959 76.5813 31.51 76.6324 31.4553 76.7136C31.4871 76.7489 31.5012 76.8001 31.5153 76.8512C31.6194 76.7895 31.7006 76.8442 31.7464 76.9307C31.6777 76.6413 31.6089 76.3519 31.5401 76.0625C31.5295 75.9443 31.5207 75.7926 31.6407 75.7485C31.8118 75.6903 31.8718 75.8279 31.9336 75.932C32.1647 76.3308 32.087 76.8477 31.757 77.0489C31.7358 77.1318 31.7323 77.1989 31.6952 77.2641C31.8946 77.6276 32.0763 78.007 32.2915 78.3881C32.4909 78.4323 32.498 78.6175 32.5774 78.7058ZM31.7447 76.9642C31.6988 76.8777 31.6176 76.823 31.5135 76.8848C31.5735 77.0224 31.667 77.1618 31.727 77.2994C31.7482 77.2165 31.7517 77.1494 31.7888 77.0842C31.757 77.0489 31.7429 76.9977 31.7447 76.9642ZM32.5774 78.7058C32.4997 78.584 32.4909 78.4323 32.3251 78.3899C32.4027 78.5117 32.3568 78.7446 32.5774 78.7058ZM31.42 76.7454C31.4747 76.6642 31.4606 76.613 31.3601 76.6077C31.3918 76.643 31.4059 76.6942 31.42 76.7454Z" fill="#664407"/>
<path d="M30.9016 78.9366C30.6582 78.4531 30.2612 78.3313 29.8642 78.2095C29.2678 78.0436 29.2678 78.0436 29.5643 77.5214C29.6772 77.292 29.7743 77.045 29.8061 76.7609C29.8096 76.6939 29.7973 76.6092 29.7302 76.6056C29.6473 76.5845 29.6261 76.6674 29.6067 76.7168C29.5679 76.8156 29.5626 76.9162 29.5238 77.015C29.1655 78.3912 27.5263 78.5569 26.7217 77.8758C26.4641 77.6605 26.2401 77.447 26.106 77.1206C25.8414 76.4007 26.2173 75.6473 27.0166 75.4709C27.306 75.4021 27.4101 75.3403 27.4101 75.021C27.3925 74.3981 27.786 73.9482 28.3312 73.8089C28.91 73.6713 29.4852 73.9201 29.7763 74.4565C31.1982 77.1368 32.6219 79.7836 34.0103 82.4622C34.499 83.3956 34.4125 84.0802 33.8619 84.6395C33.2937 85.2147 32.498 85.324 31.8452 84.9534C31.487 84.7328 31.4588 84.6305 31.6952 84.29C32.5917 82.9085 31.8578 81.2057 30.3192 81.0574C29.9346 81.0203 29.594 81.1032 29.2482 81.2867C29.1617 81.3326 29.0241 81.3925 29.0858 81.4966C29.1458 81.6343 29.2534 81.5055 29.3558 81.4773C30.4586 80.9639 31.7342 81.6362 31.9071 82.822C32.0164 83.6177 31.6335 84.1859 31.0529 84.6763C30.5783 85.0715 29.9995 85.2091 29.3908 84.9585C28.7662 84.6903 28.4222 84.2015 28.3728 83.5434C28.3517 83.3069 28.2864 83.2699 28.0676 83.2751C26.6719 83.2856 25.9027 81.934 26.6209 80.7448C26.7674 80.5172 26.7215 80.4307 26.4922 80.3178C25.6558 79.9207 25.5289 78.8215 26.1994 78.2181C26.3759 78.0593 26.5118 78.0328 26.7235 78.1616C27.1946 78.4722 27.7098 78.5834 28.2709 78.4617C29.139 78.2553 29.9595 78.3154 30.704 78.8589C30.7181 78.9101 30.7693 78.896 30.9016 78.9366ZM36.079 72.8725C35.5091 72.5231 34.8863 72.5407 34.4487 72.8707C34.1328 73.1229 34.1081 73.2729 34.4133 73.5411C35.2796 74.3264 35.9888 75.221 36.5393 76.2586C37.3032 77.7108 37.296 79.1223 36.5478 80.5621C36.1172 81.3966 35.5737 82.1412 34.9966 82.884C34.7619 83.191 34.7884 83.3268 35.1695 83.431C35.6494 83.5739 36.1205 83.5651 36.6111 83.5069C37.9979 83.3447 38.3561 82.9266 38.2433 81.5591C38.1975 80.8339 38.3475 80.2199 38.7481 79.6359C39.131 79.0678 39.3816 78.4591 39.5175 77.7939C39.6888 76.7776 39.1613 75.9429 38.2561 75.8952C38.055 75.8846 37.9262 75.777 37.9385 75.5423C37.9721 75.2247 37.8186 74.9477 37.681 74.6883C37.2293 74.0089 36.7953 73.3137 36.079 72.8725ZM34.4021 82.0458C34.5697 82.0546 34.7091 81.9611 34.8308 81.8835C35.9284 81.1513 36.7455 79.0429 36.3927 77.7636C36.0117 76.382 35.1031 75.4433 33.8751 74.8239C33.8592 74.8062 33.8239 74.838 33.7886 74.8697C33.8803 75.0426 33.988 75.2332 34.0797 75.4061C34.7924 76.8725 34.5665 77.9699 33.4425 78.8856C33.2501 79.0267 33.0278 79.0991 32.8831 79.2931C32.9819 79.332 33.0295 79.3849 32.9731 79.4996C33.1724 79.8631 33.3541 80.2424 33.5694 80.6236C33.6699 80.6289 33.684 80.6801 33.6293 80.7612C33.8252 81.1918 34.0386 81.6064 34.2856 82.0229C34.3368 82.0087 34.3862 82.0282 34.4021 82.0458ZM30.4663 72.8456C29.7446 73.1438 29.7005 73.3432 30.0004 74.0313C30.1503 74.3754 30.3021 74.3666 30.5473 74.1778C31.299 73.6291 32.0895 73.6204 32.947 73.9345C33.2276 74.0333 33.5081 74.1322 33.8539 74.2681C33.3547 72.897 31.8408 72.2794 30.4663 72.8456ZM33.4569 75.1044C32.7653 74.1939 31.6978 74.0367 30.7396 74.6754C30.4961 74.8307 30.4873 74.9983 30.6284 75.1906C30.8154 75.4694 30.8825 75.1536 30.9866 75.0918C31.6677 74.6067 32.5517 74.7373 32.9187 75.429C33.1939 75.9478 33.2821 76.5071 33.2503 77.1105C33.2432 77.2446 33.2344 77.4123 33.2449 77.5305C33.2537 77.6822 33.2608 77.8675 33.4602 77.9116C33.626 77.954 33.686 77.7722 33.776 77.6593C34.2172 76.943 34.0867 76.2301 33.7391 75.489C33.6439 75.3832 33.5504 75.2438 33.4569 75.1044ZM32.6291 78.6914C32.7332 78.6297 32.7385 78.5291 32.7614 78.4127C32.8162 77.6928 32.8374 76.9711 32.7069 76.2583C32.654 75.9865 32.5481 75.7624 32.4087 75.5366C32.2059 75.2401 31.8583 75.1378 31.5512 75.2224C31.1931 75.3212 31.2601 75.6441 31.2795 75.9141C31.2847 76.1329 31.3235 76.3534 31.447 76.5617C31.5476 76.567 31.5617 76.6181 31.507 76.6993C31.5388 76.7346 31.5529 76.7857 31.567 76.8369C31.6711 76.7752 31.7523 76.8299 31.7981 76.9163C31.7293 76.627 31.6606 76.3376 31.5918 76.0482C31.5812 75.93 31.5724 75.7782 31.6924 75.7341C31.8635 75.6759 31.9235 75.8136 31.9852 75.9177C32.2164 76.3165 32.1387 76.8334 31.8087 77.0346C31.7875 77.1175 31.784 77.1845 31.7469 77.2498C31.9463 77.6133 32.128 77.9927 32.3432 78.3738C32.5426 78.4179 32.5514 78.5697 32.6291 78.6914ZM31.7981 76.9163C31.7523 76.8299 31.6711 76.7752 31.567 76.8369C31.627 76.9745 31.7205 77.1139 31.7805 77.2516C31.8016 77.1687 31.8052 77.1016 31.8422 77.0363C31.8264 77.0187 31.8122 76.9675 31.7981 76.9163ZM32.6291 78.6914C32.5514 78.5697 32.5426 78.4179 32.3768 78.3756C32.4544 78.4973 32.4103 78.6967 32.6291 78.6914ZM31.4894 76.7152C31.5441 76.634 31.53 76.5828 31.4294 76.5775C31.4435 76.6287 31.4753 76.664 31.4894 76.7152Z" fill="#FFD277"/>
<path d="M90.8827 61.1042C93.4526 58.7918 93.6612 54.8339 91.3487 52.2641C89.0362 49.6943 85.0783 49.4856 82.5085 51.7981C79.9387 54.1106 79.7301 58.0685 82.0426 60.6383C84.3551 63.2081 88.3129 63.4167 90.8827 61.1042Z" fill="url(#paint1_linear)"/>
<path d="M90.0079 60.1325C92.041 58.3029 92.2061 55.1716 90.3765 53.1384C88.547 51.1053 85.4157 50.9402 83.3825 52.7698C81.3494 54.5993 81.1843 57.7307 83.0139 59.7638C84.8434 61.797 87.9747 61.962 90.0079 60.1325Z" fill="#E5B35A"/>
<path d="M85.7088 56.595C85.5799 56.339 85.3697 56.2745 85.1594 56.21C84.8437 56.1222 84.8437 56.1222 85.0006 55.8456C85.0604 55.7242 85.1118 55.5934 85.1287 55.4429C85.1305 55.4074 85.124 55.3626 85.0885 55.3607C85.0446 55.3495 85.0334 55.3934 85.0231 55.4196C85.0025 55.4719 84.9997 55.5252 84.9792 55.5775C84.7895 56.3062 83.9215 56.394 83.4955 56.0333C83.3591 55.9193 83.2405 55.8062 83.1695 55.6334C83.0293 55.2522 83.2284 54.8533 83.6516 54.7599C83.8048 54.7234 83.86 54.6908 83.86 54.5216C83.8507 54.1918 84.059 53.9536 84.3477 53.8798C84.6542 53.807 84.9587 53.9387 85.1129 54.2228C85.8658 55.642 86.6197 57.0435 87.3548 58.4618C87.6136 58.9561 87.5678 59.3186 87.2763 59.6147C86.9754 59.9193 86.554 59.9771 86.2084 59.7809C86.0187 59.6641 86.0038 59.6099 86.129 59.4296C86.6037 58.6981 86.2151 57.7965 85.4004 57.718C85.1967 57.6983 85.0164 57.7422 84.8333 57.8394C84.7875 57.8637 84.7146 57.8954 84.7473 57.9505C84.7791 58.0234 84.836 57.9552 84.8902 57.9403C85.4742 57.6684 86.1496 58.0245 86.2412 58.6523C86.2991 59.0737 86.0963 59.3745 85.7889 59.6342C85.5376 59.8435 85.2311 59.9163 84.9088 59.7836C84.5781 59.6416 84.3959 59.3828 84.3698 59.0343C84.3586 58.9091 84.324 58.8895 84.2081 58.8923C83.4691 58.8978 83.0618 58.1821 83.4421 57.5524C83.5197 57.4319 83.4954 57.3861 83.3739 57.3263C82.9311 57.1161 82.8639 56.534 83.2189 56.2145C83.3124 56.1304 83.3843 56.1164 83.4964 56.1846C83.7459 56.3491 84.0187 56.408 84.3158 56.3435C84.7755 56.2343 85.2099 56.2661 85.6041 56.5539C85.621 56.5725 85.6471 56.5828 85.7088 56.595ZM88.4502 53.384C88.1485 53.199 87.8187 53.2083 87.5869 53.383C87.4197 53.5166 87.4066 53.596 87.5682 53.7381C88.0269 54.1539 88.4025 54.6276 88.6939 55.177C89.0984 55.9459 89.0946 56.6933 88.6984 57.4557C88.4704 57.8976 88.1826 58.2918 87.8771 58.6851C87.7528 58.8477 87.7668 58.9196 87.9686 58.9748C88.2227 59.0505 88.4722 59.0458 88.7319 59.015C89.4663 58.9291 89.656 58.7077 89.5962 57.9836C89.572 57.5996 89.6514 57.2745 89.8635 56.9653C90.0663 56.6644 90.199 56.3421 90.2709 55.9899C90.3616 55.4518 90.0823 55.0098 89.603 54.9846C89.4965 54.9789 89.4283 54.9219 89.4348 54.7977C89.4526 54.6295 89.3713 54.4828 89.2985 54.3455C89.0687 53.9774 88.8389 53.6092 88.4502 53.384ZM87.5716 58.2329C87.6604 58.2376 87.7342 58.1881 87.7987 58.147C88.3798 57.7593 88.8125 56.6429 88.6257 55.9655C88.4239 55.2339 87.9428 54.7368 87.2926 54.4089C87.2841 54.3995 87.2655 54.4163 87.2468 54.4331C87.2954 54.5247 87.3523 54.6256 87.4009 54.7172C87.7783 55.4936 87.6587 56.0747 87.0635 56.5596C86.9616 56.6343 86.8439 56.6726 86.7673 56.7754C86.8196 56.7959 86.8448 56.824 86.8149 56.8847C86.9205 57.0772 87.0167 57.278 87.1307 57.4798C87.1839 57.4827 87.1914 57.5097 87.1624 57.5527C87.2661 57.7807 87.3792 58.0003 87.51 58.2208C87.5361 58.231 87.5539 58.232 87.5716 58.2329ZM85.496 53.3707C85.1139 53.5286 85.0905 53.6342 85.2493 53.9986C85.3287 54.1807 85.4091 54.1761 85.5389 54.0761C85.937 53.7856 86.3555 53.7809 86.8096 53.9473C86.9581 53.9996 87.1067 54.0519 87.2898 54.1239C87.017 53.3886 86.2238 53.0709 85.496 53.3707ZM87.0618 54.5658C86.6956 54.0837 86.1303 54.0005 85.623 54.3387C85.4941 54.4209 85.4894 54.5096 85.5641 54.6115C85.6631 54.7591 85.6987 54.5919 85.7538 54.5592C86.1144 54.3023 86.5825 54.3714 86.7768 54.7377C86.9225 55.0124 86.9692 55.3086 86.9524 55.6281C86.9486 55.6991 86.944 55.7878 86.9496 55.8504C86.9542 55.9308 86.958 56.0289 87.0635 56.0523C87.1514 56.0747 87.1831 55.9785 87.2308 55.9187C87.4644 55.5394 87.3953 55.1619 87.2112 54.7695C87.1608 54.7134 87.1206 54.6312 87.0618 54.5658ZM86.6328 56.4568C86.6879 56.4241 86.6907 56.3708 86.7029 56.3092C86.7319 55.928 86.7431 55.5458 86.674 55.1684C86.646 55.0245 86.5899 54.9058 86.5161 54.7863C86.4087 54.6293 86.2247 54.5751 86.0621 54.6199C85.8724 54.6722 85.9079 54.8432 85.9182 54.9861C85.921 55.102 85.9415 55.2188 86.0069 55.329C86.0602 55.3318 86.0676 55.3589 86.0387 55.4019C86.0555 55.4206 86.063 55.4477 86.0704 55.4748C86.1256 55.4421 86.1685 55.4711 86.1928 55.5168C86.1564 55.3636 86.12 55.2104 86.0835 55.0572C86.0779 54.9946 86.0733 54.9142 86.1368 54.8909C86.2274 54.86 86.2592 54.9329 86.2919 54.988C86.4143 55.1992 86.3731 55.4729 86.1984 55.5794C86.1872 55.6233 86.1853 55.6589 86.1657 55.6934C86.2713 55.8859 86.3675 56.0868 86.4815 56.2886C86.587 56.3119 86.5908 56.41 86.6328 56.4568ZM86.1919 55.5346C86.1676 55.4888 86.1246 55.4598 86.0695 55.4925C86.1013 55.5654 86.1508 55.6392 86.1825 55.7121C86.1937 55.6682 86.1956 55.6327 86.2152 55.5981C86.1984 55.5794 86.1909 55.5523 86.1919 55.5346ZM86.6328 56.4568C86.5917 56.3923 86.587 56.3119 86.4992 56.2895C86.5403 56.354 86.516 56.4773 86.6328 56.4568ZM86.02 55.4187C86.0489 55.3758 86.0415 55.3487 85.9882 55.3458C86.005 55.3645 86.0125 55.3916 86.02 55.4187Z" fill="#664407"/>
<path d="M85.7459 56.579C85.617 56.323 85.4068 56.2585 85.1966 56.194C84.8808 56.1062 84.8808 56.1062 85.0378 55.8296C85.0976 55.7082 85.149 55.5774 85.1658 55.427C85.1677 55.3915 85.1611 55.3466 85.1256 55.3448C85.0817 55.3335 85.0705 55.3775 85.0602 55.4036C85.0397 55.4559 85.0368 55.5092 85.0163 55.5615C84.8266 56.2902 83.9586 56.378 83.5326 56.0173C83.3962 55.9033 83.2776 55.7903 83.2066 55.6174C83.0665 55.2362 83.2655 54.8373 83.6887 54.7439C83.842 54.7075 83.8971 54.6748 83.8971 54.5057C83.8878 54.1759 84.0961 53.9376 84.3848 53.8639C84.6913 53.791 84.9959 53.9228 85.15 54.2068C85.9029 55.626 86.6568 57.0275 87.392 58.4458C87.6507 58.9401 87.6049 59.3026 87.3134 59.5987C87.0125 59.9033 86.5912 59.9612 86.2455 59.7649C86.0558 59.6481 86.0409 59.594 86.1661 59.4137C86.6408 58.6821 86.2522 57.7805 85.4375 57.702C85.2338 57.6824 85.0535 57.7262 84.8704 57.8234C84.8246 57.8477 84.7517 57.8794 84.7844 57.9346C84.8162 58.0074 84.8732 57.9393 84.9273 57.9243C85.5113 57.6525 86.1868 58.0085 86.2783 58.6363C86.3362 59.0577 86.1334 59.3585 85.826 59.6182C85.5747 59.8275 85.2682 59.9003 84.9459 59.7677C84.6152 59.6256 84.433 59.3668 84.4069 59.0183C84.3957 58.8931 84.3611 58.8735 84.2452 58.8763C83.5062 58.8818 83.0989 58.1661 83.4792 57.5365C83.5568 57.4159 83.5325 57.3702 83.411 57.3104C82.9682 57.1001 82.901 56.5181 83.256 56.1986C83.3495 56.1145 83.4214 56.1005 83.5335 56.1687C83.783 56.3331 84.0558 56.392 84.3529 56.3276C84.8126 56.2183 85.247 56.2501 85.6412 56.5379C85.6487 56.565 85.6758 56.5575 85.7459 56.579ZM88.4873 53.3681C88.1856 53.1831 87.8558 53.1924 87.624 53.3671C87.4568 53.5007 87.4437 53.5801 87.6053 53.7221C88.064 54.1379 88.4396 54.6116 88.731 55.161C89.1355 55.9299 89.1317 56.6774 88.7355 57.4397C88.5075 57.8816 88.2197 58.2759 87.9142 58.6692C87.7899 58.8317 87.8039 58.9037 88.0057 58.9588C88.2599 59.0345 88.5093 59.0298 88.769 58.999C89.5034 58.9131 89.6931 58.6917 89.6333 57.9676C89.6091 57.5837 89.6885 57.2585 89.9006 56.9493C90.1034 56.6485 90.2361 56.3262 90.308 55.9739C90.3987 55.4358 90.1194 54.9939 89.6401 54.9686C89.5336 54.963 89.4654 54.906 89.472 54.7817C89.4897 54.6135 89.4084 54.4669 89.3356 54.3295C89.0964 53.9698 88.8666 53.6017 88.4873 53.3681ZM87.5994 58.2254C87.6881 58.23 87.7619 58.1805 87.8264 58.1394C88.4076 57.7517 88.8402 56.6353 88.6534 55.9579C88.4517 55.2264 87.9706 54.7293 87.3203 54.4013C87.3119 54.392 87.2932 54.4088 87.2745 54.4256C87.3231 54.5172 87.3801 54.6181 87.4287 54.7096C87.8061 55.486 87.6864 56.0672 87.0913 56.552C86.9894 56.6267 86.8717 56.665 86.7951 56.7678C86.8474 56.7884 86.8726 56.8164 86.8427 56.8771C86.9483 57.0696 87.0445 57.2705 87.1585 57.4723C87.2117 57.4751 87.2192 57.5022 87.1902 57.5452C87.2939 57.7731 87.4069 57.9927 87.5377 58.2132C87.5648 58.2057 87.591 58.216 87.5994 58.2254ZM85.5154 53.3538C85.1332 53.5117 85.1099 53.6173 85.2687 53.9816C85.3481 54.1638 85.4284 54.1592 85.5583 54.0592C85.9563 53.7687 86.3749 53.764 86.8289 53.9304C86.9775 53.9827 87.126 54.035 87.3091 54.107C87.0448 53.381 86.2432 53.054 85.5154 53.3538ZM87.0989 54.5498C86.7327 54.0677 86.1674 53.9845 85.6601 54.3227C85.5312 54.4049 85.5265 54.4937 85.6012 54.5955C85.7002 54.7431 85.7358 54.5759 85.7909 54.5432C86.1515 54.2863 86.6196 54.3555 86.8139 54.7217C86.9596 54.9964 87.0063 55.2926 86.9895 55.6121C86.9858 55.6831 86.9811 55.7719 86.9867 55.8345C86.9913 55.9148 86.9951 56.0129 87.1006 56.0363C87.1885 56.0587 87.2202 55.9625 87.2679 55.9027C87.5015 55.5234 87.4324 55.1459 87.2484 54.7535C87.1979 54.6975 87.1484 54.6236 87.0989 54.5498ZM86.6606 56.4492C86.7157 56.4165 86.7185 56.3633 86.7306 56.3016C86.7596 55.9204 86.7709 55.5383 86.7018 55.1608C86.6737 55.0169 86.6177 54.8983 86.5439 54.7787C86.4365 54.6217 86.2524 54.5675 86.0899 54.6124C85.9002 54.6647 85.9357 54.8356 85.9459 54.9786C85.9487 55.0944 85.9693 55.2112 86.0347 55.3215C86.0879 55.3243 86.0954 55.3514 86.0664 55.3943C86.0832 55.413 86.0907 55.4401 86.0982 55.4672C86.1533 55.4345 86.1963 55.4635 86.2206 55.5093C86.1842 55.3561 86.1477 55.2028 86.1113 55.0496C86.1057 54.987 86.101 54.9067 86.1646 54.8833C86.2552 54.8525 86.287 54.9254 86.3197 54.9805C86.442 55.1916 86.4009 55.4654 86.2262 55.5719C86.215 55.6158 86.2131 55.6513 86.1935 55.6859C86.299 55.8783 86.3953 56.0792 86.5092 56.281C86.6148 56.3044 86.6195 56.3847 86.6606 56.4492ZM86.2206 55.5093C86.1963 55.4635 86.1533 55.4345 86.0982 55.4672C86.13 55.5401 86.1795 55.6139 86.2112 55.6868C86.2224 55.6429 86.2243 55.6074 86.2439 55.5728C86.2355 55.5635 86.2281 55.5364 86.2206 55.5093ZM86.6606 56.4492C86.6195 56.3847 86.6148 56.3044 86.527 56.282C86.5681 56.3464 86.5447 56.452 86.6606 56.4492ZM86.0571 55.4028C86.0861 55.3598 86.0786 55.3327 86.0253 55.3299C86.0328 55.357 86.0496 55.3757 86.0571 55.4028Z" fill="#FFD277"/>
<path d="M75.0273 53.2493C77.5971 50.9368 77.8057 46.9789 75.4932 44.4091C73.1808 41.8393 69.2229 41.6307 66.6531 43.9431C64.0832 46.2556 63.8746 50.2135 66.1871 52.7833C68.4996 55.3531 72.4575 55.5617 75.0273 53.2493Z" fill="url(#paint2_linear)"/>
<path d="M74.1524 52.2775C76.1856 50.4479 76.3506 47.3166 74.5211 45.2834C72.6915 43.2503 69.5602 43.0853 67.527 44.9148C65.4939 46.7444 65.3288 49.8757 67.1584 51.9088C68.9879 53.942 72.1193 54.107 74.1524 52.2775Z" fill="#E5B35A"/>
<path d="M69.8533 48.74C69.7244 48.484 69.5142 48.4195 69.304 48.355C68.9882 48.2672 68.9882 48.2672 69.1452 47.9906C69.205 47.8692 69.2564 47.7384 69.2732 47.588C69.2751 47.5525 69.2685 47.5076 69.233 47.5057C69.1891 47.4945 69.1779 47.5384 69.1676 47.5646C69.1471 47.6169 69.1443 47.6702 69.1237 47.7225C68.934 48.4512 68.066 48.539 67.64 48.1783C67.5036 48.0643 67.385 47.9513 67.314 47.7784C67.1739 47.3972 67.3729 46.9983 67.7962 46.9049C67.9494 46.8685 68.0045 46.8358 68.0045 46.6667C67.9952 46.3369 68.2036 46.0986 68.4923 46.0248C68.7987 45.952 69.1033 46.0838 69.2574 46.3678C70.0103 47.787 70.7642 49.1885 71.4994 50.6068C71.7581 51.1011 71.7123 51.4636 71.4208 51.7597C71.1199 52.0643 70.6986 52.1222 70.3529 51.9259C70.1633 51.8091 70.1483 51.7549 70.2735 51.5746C70.7482 50.8431 70.3596 49.9415 69.5449 49.863C69.3412 49.8433 69.1609 49.8872 68.9778 49.9844C68.932 50.0087 68.8591 50.0404 68.8918 50.0956C68.9236 50.1684 68.9806 50.1002 69.0348 50.0853C69.6187 49.8135 70.2942 50.1695 70.3857 50.7973C70.4436 51.2187 70.2408 51.5195 69.9334 51.7792C69.6821 51.9885 69.3756 52.0613 69.0533 51.9286C68.7226 51.7866 68.5404 51.5278 68.5143 51.1793C68.5031 51.0541 68.4685 51.0345 68.3527 51.0373C67.6136 51.0428 67.2064 50.3271 67.5867 49.6975C67.6642 49.5769 67.6399 49.5312 67.5185 49.4714C67.0756 49.2611 67.0084 48.679 67.3635 48.3595C67.4569 48.2755 67.5288 48.2615 67.6409 48.3297C67.8904 48.4941 68.1632 48.553 68.4603 48.4886C68.92 48.3793 69.3544 48.4111 69.7487 48.6989C69.7655 48.7176 69.7916 48.7278 69.8533 48.74ZM72.5947 45.5291C72.293 45.344 71.9632 45.3534 71.7315 45.5281C71.5642 45.6616 71.5511 45.7411 71.7128 45.8831C72.1715 46.2989 72.547 46.7726 72.8385 47.322C73.2429 48.0909 73.2391 48.8383 72.843 49.6007C72.615 50.0426 72.3272 50.4368 72.0216 50.8301C71.8973 50.9927 71.9114 51.0646 72.1132 51.1198C72.3673 51.1955 72.6167 51.1908 72.8765 51.16C73.6108 51.0741 73.8005 50.8527 73.7408 50.1286C73.7165 49.7446 73.7959 49.4195 74.008 49.1103C74.2108 48.8095 74.3435 48.4871 74.4155 48.1349C74.5061 47.5968 74.2268 47.1548 73.7475 47.1296C73.641 47.124 73.5728 47.067 73.5794 46.9427C73.5971 46.7745 73.5159 46.6278 73.443 46.4905C73.2132 46.1224 72.9834 45.7543 72.5947 45.5291ZM71.7161 50.3779C71.8049 50.3826 71.8787 50.3331 71.9432 50.292C72.5243 49.9043 72.957 48.7879 72.7702 48.1105C72.5684 47.3789 72.0873 46.8819 71.4371 46.5539C71.4287 46.5445 71.41 46.5614 71.3913 46.5782C71.4399 46.6697 71.4969 46.7706 71.5454 46.8622C71.9228 47.6386 71.8032 48.2197 71.208 48.7046C71.1062 48.7793 70.9885 48.8176 70.9118 48.9204C70.9642 48.9409 70.9894 48.969 70.9595 49.0297C71.065 49.2222 71.1613 49.423 71.2752 49.6249C71.3285 49.6277 71.3359 49.6548 71.307 49.6977C71.4107 49.9257 71.5237 50.1453 71.6545 50.3658C71.6806 50.3761 71.6984 50.377 71.7161 50.3779ZM69.6405 45.5157C69.2584 45.6736 69.235 45.7792 69.3938 46.1436C69.4732 46.3258 69.5536 46.3211 69.6835 46.2211C70.0815 45.9306 70.5 45.926 70.9541 46.0923C71.1026 46.1446 71.2512 46.197 71.4343 46.2689C71.1616 45.5336 70.3684 45.2159 69.6405 45.5157ZM71.2063 46.7108C70.8401 46.2287 70.2749 46.1455 69.7675 46.4837C69.6386 46.5659 69.6339 46.6546 69.7086 46.7565C69.8077 46.9041 69.8432 46.7369 69.8983 46.7042C70.259 46.4473 70.727 46.5165 70.9213 46.8827C71.0671 47.1574 71.1138 47.4536 71.0969 47.7731C71.0932 47.8441 71.0885 47.9329 71.0941 47.9955C71.0988 48.0758 71.1025 48.1739 71.2081 48.1973C71.2959 48.2197 71.3277 48.1235 71.3753 48.0637C71.6089 47.6844 71.5398 47.3069 71.3558 46.9145C71.3053 46.8584 71.2652 46.7762 71.2063 46.7108ZM70.7773 48.6018C70.8324 48.5691 70.8353 48.5158 70.8474 48.4542C70.8764 48.073 70.8876 47.6909 70.8185 47.3134C70.7905 47.1695 70.7345 47.0509 70.6607 46.9313C70.5532 46.7743 70.3692 46.7201 70.2066 46.7649C70.017 46.8172 70.0524 46.9882 70.0627 47.1312C70.0655 47.247 70.086 47.3638 70.1514 47.4741C70.2047 47.4769 70.2122 47.504 70.1832 47.5469C70.2 47.5656 70.2075 47.5927 70.215 47.6198C70.2701 47.5871 70.3131 47.6161 70.3373 47.6619C70.3009 47.5086 70.2645 47.3554 70.2281 47.2022C70.2225 47.1396 70.2178 47.0592 70.2813 47.0359C70.372 47.0051 70.4037 47.0779 70.4364 47.1331C70.5588 47.3442 70.5177 47.618 70.343 47.7245C70.3317 47.7684 70.3299 47.8039 70.3102 47.8384C70.4158 48.0309 70.512 48.2318 70.626 48.4336C70.7316 48.457 70.7353 48.5551 70.7773 48.6018ZM70.3364 47.6796C70.3121 47.6338 70.2691 47.6049 70.214 47.6376C70.2458 47.7104 70.2953 47.7842 70.3271 47.8571C70.3383 47.8132 70.3401 47.7777 70.3598 47.7431C70.3429 47.7245 70.3355 47.6974 70.3364 47.6796ZM70.7773 48.6018C70.7362 48.5373 70.7316 48.457 70.6437 48.4345C70.6848 48.499 70.6605 48.6223 70.7773 48.6018ZM70.1645 47.5637C70.1935 47.5208 70.186 47.4937 70.1328 47.4909C70.1496 47.5096 70.157 47.5367 70.1645 47.5637Z" fill="#664407"/>
<path d="M69.8904 48.724C69.7615 48.468 69.5513 48.4035 69.3411 48.3391C69.0253 48.2512 69.0253 48.2512 69.1823 47.9747C69.2421 47.8532 69.2935 47.7224 69.3103 47.572C69.3122 47.5365 69.3056 47.4917 69.2701 47.4898C69.2262 47.4786 69.215 47.5225 69.2047 47.5486C69.1842 47.601 69.1814 47.6542 69.1608 47.7065C68.9711 48.4353 68.1031 48.523 67.6771 48.1623C67.5407 48.0483 67.4221 47.9353 67.3511 47.7624C67.211 47.3812 67.41 46.9823 67.8333 46.8889C67.9865 46.8525 68.0416 46.8198 68.0416 46.6507C68.0323 46.3209 68.2407 46.0827 68.5294 46.0089C68.8358 45.936 69.1404 46.0678 69.2945 46.3518C70.0474 47.7711 70.8013 49.1725 71.5365 50.5908C71.7952 51.0851 71.7494 51.4476 71.4579 51.7437C71.157 52.0483 70.7357 52.1062 70.39 51.91C70.2004 51.7932 70.1854 51.739 70.3106 51.5587C70.7853 50.8272 70.3967 49.9255 69.582 49.847C69.3783 49.8274 69.198 49.8713 69.0149 49.9684C68.9691 49.9927 68.8962 50.0245 68.9289 50.0796C68.9607 50.1525 69.0177 50.0843 69.0719 50.0693C69.6558 49.7975 70.3313 50.1535 70.4228 50.7814C70.4807 51.2027 70.2779 51.5035 69.9705 51.7633C69.7192 51.9725 69.4127 52.0454 69.0904 51.9127C68.7597 51.7706 68.5775 51.5118 68.5514 51.1633C68.5402 51.0381 68.5056 51.0185 68.3898 51.0213C67.6508 51.0269 67.2435 50.3112 67.6238 49.6815C67.7013 49.561 67.677 49.5152 67.5556 49.4554C67.1127 49.2451 67.0455 48.6631 67.4006 48.3436C67.494 48.2595 67.566 48.2455 67.6781 48.3137C67.9275 48.4781 68.2003 48.537 68.4974 48.4726C68.9571 48.3633 69.3915 48.3951 69.7858 48.6829C69.7933 48.71 69.8203 48.7025 69.8904 48.724ZM72.6319 45.5131C72.3301 45.3281 72.0003 45.3374 71.7686 45.5121C71.6013 45.6457 71.5882 45.7251 71.7499 45.8671C72.2086 46.2829 72.5841 46.7566 72.8756 47.306C73.2801 48.075 73.2763 48.8224 72.8801 49.5847C72.6521 50.0266 72.3643 50.4209 72.0587 50.8142C71.9345 50.9767 71.9485 51.0487 72.1503 51.1038C72.4044 51.1795 72.6538 51.1749 72.9136 51.144C73.6479 51.0582 73.8376 50.8367 73.7779 50.1127C73.7536 49.7287 73.833 49.4035 74.0452 49.0943C74.2479 48.7935 74.3806 48.4712 74.4526 48.119C74.5432 47.5808 74.2639 47.1389 73.7846 47.1136C73.6781 47.108 73.6099 47.051 73.6165 46.9267C73.6342 46.7586 73.553 46.6119 73.4801 46.4745C73.241 46.1148 73.0112 45.7467 72.6319 45.5131ZM71.7439 50.3704C71.8327 50.3751 71.9065 50.3255 71.9709 50.2844C72.5521 49.8968 72.9848 48.7803 72.798 48.1029C72.5962 47.3714 72.1151 46.8743 71.4649 46.5463C71.4564 46.537 71.4378 46.5538 71.4191 46.5706C71.4676 46.6622 71.5246 46.7631 71.5732 46.8546C71.9506 47.6311 71.831 48.2122 71.2358 48.697C71.1339 48.7718 71.0162 48.8101 70.9396 48.9128C70.9919 48.9334 71.0171 48.9614 70.9872 49.0221C71.0928 49.2146 71.189 49.4155 71.303 49.6173C71.3562 49.6201 71.3637 49.6472 71.3347 49.6902C71.4384 49.9182 71.5515 50.1377 71.6822 50.3582C71.7093 50.3507 71.7355 50.361 71.7439 50.3704ZM69.6599 45.4988C69.2778 45.6567 69.2544 45.7623 69.4132 46.1267C69.4926 46.3089 69.5729 46.3042 69.7028 46.2042C70.1008 45.9137 70.5194 45.9091 70.9735 46.0754C71.122 46.1277 71.2706 46.1801 71.4537 46.252C71.1893 45.5261 70.3877 45.199 69.6599 45.4988ZM71.2434 46.6949C70.8772 46.2127 70.312 46.1295 69.8046 46.4677C69.6757 46.5499 69.671 46.6387 69.7458 46.7405C69.8448 46.8881 69.8803 46.7209 69.9354 46.6882C70.2961 46.4313 70.7641 46.5005 70.9584 46.8667C71.1042 47.1414 71.1509 47.4376 71.134 47.7571C71.1303 47.8281 71.1256 47.9169 71.1312 47.9795C71.1359 48.0598 71.1396 48.1579 71.2452 48.1813C71.333 48.2037 71.3648 48.1075 71.4124 48.0477C71.646 47.6684 71.5769 47.291 71.3929 46.8985C71.3424 46.8425 71.2929 46.7687 71.2434 46.6949ZM70.8051 48.5942C70.8602 48.5615 70.863 48.5083 70.8752 48.4466C70.9042 48.0654 70.9154 47.6833 70.8463 47.3058C70.8183 47.162 70.7622 47.0433 70.6884 46.9237C70.581 46.7667 70.397 46.7125 70.2344 46.7574C70.0447 46.8097 70.0802 46.9807 70.0905 47.1236C70.0933 47.2395 70.1138 47.3562 70.1792 47.4665C70.2325 47.4693 70.2399 47.4964 70.211 47.5394C70.2278 47.5581 70.2353 47.5851 70.2427 47.6122C70.2979 47.5795 70.3408 47.6085 70.3651 47.6543C70.3287 47.5011 70.2923 47.3478 70.2558 47.1946C70.2502 47.132 70.2456 47.0517 70.3091 47.0283C70.3997 46.9975 70.4315 47.0704 70.4642 47.1255C70.5866 47.3367 70.5454 47.6104 70.3707 47.7169C70.3595 47.7608 70.3576 47.7963 70.338 47.8309C70.4436 48.0233 70.5398 48.2242 70.6538 48.426C70.7593 48.4494 70.764 48.5298 70.8051 48.5942ZM70.3651 47.6543C70.3408 47.6085 70.2979 47.5795 70.2427 47.6122C70.2745 47.6851 70.324 47.7589 70.3558 47.8318C70.367 47.7879 70.3688 47.7524 70.3885 47.7178C70.3801 47.7085 70.3726 47.6814 70.3651 47.6543ZM70.8051 48.5942C70.764 48.5298 70.7593 48.4494 70.6715 48.427C70.7126 48.4914 70.6892 48.597 70.8051 48.5942ZM70.2016 47.5478C70.2306 47.5048 70.2231 47.4777 70.1699 47.4749C70.1773 47.502 70.1942 47.5207 70.2016 47.5478Z" fill="#FFD277"/>
<path d="M102.648 47.3845C108.054 42.52 108.493 34.1941 103.629 28.7882C98.7641 23.3823 90.4383 22.9435 85.0324 27.8081C79.6265 32.6726 79.1876 40.9984 84.0522 46.4043C88.9167 51.8102 97.2426 52.2491 102.648 47.3845Z" fill="url(#paint3_linear)"/>
<path d="M100.808 45.3403C105.085 41.4916 105.432 34.9045 101.584 30.6276C97.7351 26.3506 91.148 26.0034 86.8711 29.8521C82.5941 33.7007 82.2469 40.2878 86.0956 44.5648C89.9442 48.8417 96.5313 49.1889 100.808 45.3403Z" fill="#E5B35A"/>
<path d="M91.7646 37.8986C91.4934 37.36 91.0512 37.2244 90.609 37.0887C89.9448 36.9039 89.9448 36.9039 90.275 36.3222C90.4008 36.0667 90.5089 35.7916 90.5443 35.4752C90.5482 35.4005 90.5345 35.3061 90.4598 35.3022C90.3674 35.2786 90.3439 35.371 90.3222 35.426C90.279 35.5361 90.2731 35.6481 90.2298 35.7581C89.8307 37.2911 88.0049 37.4757 87.1087 36.717C86.8218 36.4772 86.5722 36.2394 86.4229 35.8758C86.1282 35.0739 86.5468 34.2347 87.4372 34.0382C87.7595 33.9616 87.8755 33.8928 87.8755 33.5371C87.8559 32.8433 88.2942 32.3422 88.9015 32.187C89.5462 32.0337 90.1869 32.3109 90.5111 32.9084C92.095 35.8939 93.6808 38.8421 95.2273 41.8256C95.7716 42.8654 95.6753 43.6279 95.062 44.2509C94.4291 44.8915 93.5427 45.0133 92.8156 44.6006C92.4166 44.3548 92.3852 44.2409 92.6486 43.8616C93.6471 42.3227 92.8297 40.4261 91.1159 40.2609C90.6874 40.2196 90.3081 40.3119 89.9229 40.5163C89.8266 40.5674 89.6733 40.6342 89.742 40.7502C89.8088 40.9035 89.9287 40.76 90.0427 40.7286C91.2711 40.1567 92.692 40.9056 92.8845 42.2264C93.0063 43.1128 92.5798 43.7456 91.9332 44.2919C91.4044 44.7321 90.7598 44.8854 90.0817 44.6062C89.386 44.3074 89.0028 43.763 88.9478 43.0299C88.9243 42.7666 88.8516 42.7253 88.6079 42.7312C87.0533 42.7428 86.1965 41.2373 86.9965 39.9127C87.1596 39.6592 87.1085 39.5629 86.853 39.4371C85.9215 38.9948 85.7801 37.7703 86.527 37.0982C86.7235 36.9214 86.8749 36.8919 87.1107 37.0354C87.6354 37.3813 88.2093 37.5052 88.8343 37.3696C89.8013 37.1398 90.7152 37.2067 91.5445 37.8121C91.5799 37.8514 91.6349 37.873 91.7646 37.8986ZM97.5315 31.144C96.8968 30.7548 96.203 30.7744 95.7155 31.1419C95.3637 31.4229 95.3362 31.59 95.6762 31.8887C96.6411 32.7634 97.4311 33.7599 98.0442 34.9156C98.8951 36.5332 98.8871 38.1055 98.0537 39.7091C97.574 40.6387 96.9686 41.4681 96.3259 42.2954C96.0645 42.6374 96.094 42.7887 96.5185 42.9047C97.053 43.064 97.5778 43.0542 98.1242 42.9894C99.669 42.8087 100.068 42.3429 99.9423 40.8197C99.8913 40.012 100.058 39.328 100.505 38.6775C100.931 38.0447 101.21 37.3667 101.362 36.6257C101.552 35.4937 100.965 34.564 99.9565 34.5109C99.7325 34.4991 99.589 34.3792 99.6028 34.1178C99.6402 33.764 99.4692 33.4554 99.3159 33.1665C98.8325 32.3921 98.3491 31.6177 97.5315 31.144ZM95.6833 41.3441C95.87 41.354 96.0253 41.2498 96.1609 41.1634C97.3834 40.3478 98.2936 37.9993 97.9006 36.5744C97.4762 35.0354 96.4641 33.9898 95.0963 33.2998C95.0786 33.2802 95.0393 33.3156 95 33.3509C95.1022 33.5435 95.222 33.7558 95.3242 33.9484C96.1181 35.5817 95.8664 36.8042 94.6144 37.8241C94.4002 37.9813 94.1525 38.0619 93.9914 38.278C94.1014 38.3213 94.1545 38.3803 94.0916 38.508C94.3136 38.9129 94.516 39.3354 94.7558 39.76C94.8678 39.7659 94.8835 39.8229 94.8226 39.9133C95.0407 40.3929 95.2785 40.8547 95.5536 41.3186C95.6086 41.3402 95.646 41.3422 95.6833 41.3441ZM91.317 31.116C90.5132 31.4481 90.464 31.6702 90.7981 32.4367C90.9651 32.82 91.1341 32.8102 91.4073 32.5999C92.2446 31.9887 93.1251 31.979 94.0803 32.3289C94.3927 32.439 94.7052 32.549 95.0904 32.7004C94.5167 31.1536 92.8481 30.4853 91.317 31.116ZM94.6108 33.63C93.8405 32.6158 92.6514 32.4408 91.5842 33.1522C91.3129 33.3251 91.3031 33.5118 91.4603 33.726C91.6686 34.0366 91.7433 33.6848 91.8593 33.616C92.618 33.0756 93.6026 33.2211 94.0113 33.9916C94.3179 34.5694 94.4161 35.1924 94.3807 35.8646C94.3728 36.014 94.363 36.2007 94.3748 36.3324C94.3846 36.5014 94.3924 36.7077 94.6145 36.7569C94.7992 36.8041 94.8661 36.6016 94.9663 36.4759C95.4577 35.678 95.3123 34.8839 94.9252 34.0585C94.8191 33.9405 94.7346 33.7676 94.6108 33.63ZM93.7084 37.6078C93.8244 37.539 93.8303 37.427 93.8558 37.2973C93.9168 36.4954 93.9405 35.6916 93.7951 34.8976C93.7361 34.5949 93.6182 34.3453 93.463 34.0937C93.237 33.7635 92.8498 33.6495 92.5078 33.7438C92.1089 33.8538 92.1835 34.2135 92.2051 34.5142C92.211 34.7579 92.2542 35.0036 92.3918 35.2355C92.5038 35.2414 92.5195 35.2984 92.4586 35.3888C92.494 35.4281 92.5097 35.4851 92.5254 35.5421C92.6414 35.4733 92.7318 35.5343 92.7829 35.6306C92.7062 35.3083 92.6296 34.9859 92.553 34.6636C92.5412 34.5319 92.5314 34.3629 92.665 34.3138C92.8557 34.2489 92.9225 34.4022 92.9913 34.5182C93.2487 34.9624 93.1622 35.5382 92.7946 35.7623C92.771 35.8546 92.7671 35.9293 92.7258 36.002C92.9479 36.4069 93.1503 36.8295 93.39 37.254C93.6121 37.3032 93.62 37.5095 93.7084 37.6078ZM92.7809 35.6679C92.7298 35.5716 92.6394 35.5107 92.5234 35.5795C92.5902 35.7328 92.6944 35.888 92.7612 36.0414C92.7848 35.949 92.7887 35.8743 92.83 35.8016C92.7946 35.7623 92.7789 35.7053 92.7809 35.6679ZM93.7084 37.6078C93.6219 37.4722 93.6121 37.3032 93.4274 37.256C93.5138 37.3916 93.4627 37.651 93.7084 37.6078ZM92.4193 35.4242C92.4802 35.3338 92.4645 35.2768 92.3525 35.2709C92.3878 35.3102 92.4036 35.3672 92.4193 35.4242Z" fill="#664407"/>
<path d="M91.8418 37.8652C91.5706 37.3266 91.1284 37.191 90.6862 37.0554C90.0219 36.8706 90.0219 36.8706 90.3521 36.2888C90.4779 36.0333 90.5861 35.7582 90.6215 35.4418C90.6254 35.3671 90.6116 35.2728 90.537 35.2688C90.4446 35.2452 90.421 35.3376 90.3994 35.3926C90.3561 35.5027 90.3502 35.6147 90.307 35.7248C89.9079 37.2577 88.082 37.4423 87.1859 36.6836C86.899 36.4438 86.6494 36.206 86.5 35.8424C86.2053 35.0405 86.624 34.2013 87.5143 34.0048C87.8366 33.9282 87.9526 33.8594 87.9526 33.5037C87.933 32.8099 88.3714 32.3088 88.9787 32.1536C89.6233 32.0003 90.264 32.2775 90.5882 32.875C92.1721 35.8605 93.7579 38.8087 95.3044 41.7923C95.8488 42.832 95.7524 43.5945 95.1392 44.2175C94.5063 44.8582 93.6199 44.98 92.8927 44.5672C92.4938 44.3215 92.4623 44.2075 92.7257 43.8282C93.7243 42.2894 92.9068 40.3927 91.193 40.2275C90.7646 40.1862 90.3852 40.2785 90 40.4829C89.9037 40.534 89.7504 40.6008 89.8192 40.7168C89.886 40.8701 90.0059 40.7266 90.1199 40.6952C91.3483 40.1233 92.7692 40.8723 92.9617 42.193C93.0835 43.0794 92.6569 43.7122 92.0103 44.2585C91.4816 44.6987 90.8369 44.852 90.1589 44.5729C89.4632 44.2741 89.08 43.7296 89.025 42.9965C89.0014 42.7332 88.9287 42.6919 88.685 42.6978C87.1304 42.7095 86.2736 41.2039 87.0736 39.8793C87.2368 39.6258 87.1857 39.5295 86.9302 39.4037C85.9986 38.9614 85.8572 37.737 86.6041 37.0649C86.8007 36.888 86.952 36.8585 87.1878 37.002C87.7126 37.348 88.2864 37.4718 88.9114 37.3363C89.8784 37.1064 90.7923 37.1733 91.6217 37.7787C91.6374 37.8357 91.6944 37.82 91.8418 37.8652ZM97.6087 31.1106C96.9739 30.7214 96.2801 30.741 95.7927 31.1085C95.4409 31.3896 95.4133 31.5566 95.7533 31.8554C96.7182 32.73 97.5083 33.7265 98.1214 34.8822C98.9722 36.4998 98.9643 38.0721 98.1308 39.6758C97.6512 40.6053 97.0458 41.4347 96.4031 42.2621C96.1416 42.604 96.1711 42.7554 96.5956 42.8713C97.1302 43.0306 97.6549 43.0208 98.2013 42.956C99.7461 42.7753 100.145 42.3095 100.019 40.7863C99.9684 39.9786 100.136 39.2946 100.582 38.6441C101.008 38.0113 101.287 37.3333 101.439 36.5924C101.63 35.4603 101.042 34.5306 100.034 34.4775C99.8096 34.4657 99.6662 34.3458 99.68 34.0844C99.7173 33.7306 99.5464 33.4221 99.3931 33.1331C98.89 32.3764 98.4066 31.602 97.6087 31.1106ZM95.7408 41.3285C95.9275 41.3383 96.0828 41.2341 96.2184 41.1477C97.4409 40.3321 98.3511 37.9836 97.9581 36.5587C97.5337 35.0198 96.5216 33.9741 95.1538 33.2841C95.1361 33.2645 95.0968 33.2999 95.0575 33.3352C95.1597 33.5279 95.2795 33.7401 95.3817 33.9327C96.1756 35.566 95.9239 36.7885 94.6719 37.8084C94.4577 37.9656 94.21 38.0462 94.0488 38.2623C94.1589 38.3056 94.212 38.3646 94.1491 38.4923C94.3711 38.8972 94.5735 39.3198 94.8133 39.7443C94.9253 39.7502 94.941 39.8072 94.8801 39.8976C95.0982 40.3772 95.336 40.839 95.6111 41.3029C95.6681 41.2872 95.7231 41.3088 95.7408 41.3285ZM91.3568 31.0807C90.553 31.4128 90.5038 31.6348 90.8379 32.4014C91.0049 32.7846 91.1739 32.7748 91.4471 32.5645C92.2844 31.9534 93.1649 31.9436 94.1201 32.2935C94.4326 32.4036 94.745 32.5137 95.1302 32.6651C94.5742 31.1379 92.8879 30.4499 91.3568 31.0807ZM94.688 33.5966C93.9176 32.5824 92.7286 32.4074 91.6613 33.1188C91.3901 33.2917 91.3802 33.4784 91.5375 33.6927C91.7458 34.0032 91.8205 33.6514 91.9364 33.5826C92.6951 33.0422 93.6797 33.1877 94.0885 33.9582C94.395 34.536 94.4933 35.1591 94.4578 35.8312C94.45 35.9806 94.4401 36.1673 94.4519 36.299C94.4617 36.468 94.4696 36.6744 94.6916 36.7235C94.8764 36.7707 94.9432 36.5683 95.0435 36.4425C95.5349 35.6446 95.3895 34.8506 95.0024 34.0251C94.8963 33.9071 94.7921 33.7519 94.688 33.5966ZM93.7659 37.5921C93.8819 37.5234 93.8878 37.4113 93.9133 37.2816C93.9743 36.4798 93.9979 35.6759 93.8526 34.8819C93.7936 34.5792 93.6757 34.3296 93.5205 34.078C93.2945 33.7478 92.9073 33.6338 92.5653 33.7281C92.1664 33.8381 92.241 34.1978 92.2626 34.4985C92.2685 34.7422 92.3117 34.9879 92.4493 35.2198C92.5613 35.2257 92.577 35.2827 92.5161 35.3731C92.5515 35.4124 92.5672 35.4694 92.5829 35.5264C92.6989 35.4577 92.7893 35.5186 92.8404 35.6149C92.7637 35.2926 92.6871 34.9702 92.6105 34.6479C92.5987 34.5162 92.5889 34.3472 92.7225 34.2981C92.9132 34.2332 92.98 34.3866 93.0488 34.5025C93.3062 34.9467 93.2197 35.5226 92.8521 35.7466C92.8285 35.839 92.8246 35.9136 92.7833 35.9863C93.0054 36.3912 93.2078 36.8138 93.4475 37.2383C93.6696 37.2875 93.6794 37.4565 93.7659 37.5921ZM92.8404 35.6149C92.7893 35.5186 92.6989 35.4577 92.5829 35.5264C92.6497 35.6797 92.7539 35.835 92.8207 35.9883C92.8443 35.8959 92.8482 35.8213 92.8895 35.7485C92.8718 35.7289 92.8561 35.6719 92.8404 35.6149ZM93.7659 37.5921C93.6794 37.4565 93.6696 37.2875 93.4849 37.2403C93.5713 37.3759 93.5222 37.598 93.7659 37.5921ZM92.4964 35.3908C92.5574 35.3004 92.5416 35.2434 92.4296 35.2375C92.4453 35.2945 92.4807 35.3338 92.4964 35.3908Z" fill="#FFD277"/>
<path fill-rule="evenodd" clip-rule="evenodd" d="M137.507 16.9091C138.184 19.9338 139.523 22.7901 141.862 25.0013C142.488 25.4555 144.015 26.2989 146.086 26.8864L145.374 32.4174L141.27 31.8891C140.576 31.7997 139.941 32.29 139.852 32.9842C139.762 33.6783 140.253 34.3135 140.947 34.4028L153.516 36.0208C154.21 36.1101 154.845 35.6198 154.934 34.9257C155.024 34.2315 154.533 33.5963 153.839 33.507L150.402 33.0645L151.114 27.5333C153.266 27.4893 154.955 27.0603 155.676 26.7795C158.326 25.3274 160.268 23.1017 161.671 20.5551C165.098 20.9357 168.211 18.4998 168.653 15.0663C169.02 12.2145 167.43 9.56184 164.927 8.45853C165.045 6.73431 165.029 5.18151 164.934 3.95019L151.811 2.26099L151.811 2.2609L138.687 0.571587C138.303 1.68308 137.913 3.09478 137.599 4.69364C135.194 5.34076 133.297 7.38195 132.959 10.0056C132.553 13.1582 134.539 16.0673 137.507 16.9091ZM137.277 6.59819C136.909 9.19334 136.78 12.1145 137.164 14.9769C135.443 14.1172 134.37 12.2367 134.63 10.2207C134.841 8.58037 135.882 7.25021 137.277 6.59819ZM166.981 14.8511C166.684 17.1587 164.744 18.8525 162.488 18.9078C163.736 16.1007 164.426 13.0427 164.757 10.2646C166.295 11.1861 167.225 12.9589 166.981 14.8511Z" fill="url(#paint4_linear)"/>
<path d="M152.735 7.54466L151.064 19.7765L147.574 19.3294L148.669 11.3143C148.047 11.6576 147.453 11.9238 146.887 12.1129C146.327 12.3026 145.632 12.4641 144.804 12.5973L145.178 9.85722C146.403 9.64126 147.375 9.31782 148.095 8.88691C148.815 8.45601 149.41 7.88669 149.88 7.17897L152.735 7.54466Z" fill="#FCCB73"/>
<defs>
<linearGradient id="paint0_linear" x1="21.141" y1="76.2242" x2="44.2707" y2="81.152" gradientUnits="userSpaceOnUse">
<stop stop-color="#FFFFE3"/>
<stop offset="0.1817" stop-color="#FDCF74"/>
<stop offset="1" stop-color="#F6C266"/>
</linearGradient>
<linearGradient id="paint1_linear" x1="80.5776" y1="55.1428" x2="92.8249" y2="57.7521" gradientUnits="userSpaceOnUse">
<stop stop-color="#FFFFE3"/>
<stop offset="0.1817" stop-color="#FDCF74"/>
<stop offset="1" stop-color="#F6C266"/>
</linearGradient>
<linearGradient id="paint2_linear" x1="64.7222" y1="47.2878" x2="76.9695" y2="49.8971" gradientUnits="userSpaceOnUse">
<stop stop-color="#FFFFE3"/>
<stop offset="0.1817" stop-color="#FDCF74"/>
<stop offset="1" stop-color="#F6C266"/>
</linearGradient>
<linearGradient id="paint3_linear" x1="80.9705" y1="34.8439" x2="106.734" y2="40.3329" gradientUnits="userSpaceOnUse">
<stop stop-color="#FFFFE3"/>
<stop offset="0.1817" stop-color="#FDCF74"/>
<stop offset="1" stop-color="#F6C266"/>
</linearGradient>
<linearGradient id="paint4_linear" x1="138.882" y1="1.88504" x2="159.557" y2="33.4712" gradientUnits="userSpaceOnUse">
<stop stop-color="#FFFFE3"/>
<stop offset="0.12291" stop-color="#FDCF74"/>
<stop offset="0.624519" stop-color="#CD8300"/>
</linearGradient>
</defs>
</svg>
