<svg width="266" height="157" viewBox="0 0 266 157" fill="none" xmlns="http://www.w3.org/2000/svg">
<rect y="30.0996" width="82" height="114" rx="7" transform="rotate(-16.3619 0 30.0996)" fill="#DAE0E7"/>
<rect x="66.6904" y="58.4613" width="13" height="5" rx="2.5" transform="rotate(73.6381 66.6904 58.4613)" fill="#E5B35A"/>
<rect x="33.3975" y="51.5604" width="37" height="18" rx="5" transform="rotate(-16.3619 33.3975 51.5604)" fill="#FDCF74"/>
<rect x="46.541" y="64.3771" width="13" height="5" rx="2.5" transform="rotate(73.6381 46.541 64.3771)" fill="#FDCF74"/>
<rect x="37.9053" y="66.9124" width="13" height="5" rx="2.5" transform="rotate(73.6381 37.9053 66.9124)" fill="#FDCF74"/>
<rect x="72.2803" y="52.6514" width="17" height="5" rx="2.5" transform="rotate(73.6381 72.2803 52.6514)" fill="#FDCF74"/>
<circle cx="33.059" cy="52.181" r="17.5" transform="rotate(-16.3619 33.059 52.181)" fill="#664407"/>
<circle cx="33.059" cy="52.181" r="10.5" transform="rotate(-16.3619 33.059 52.181)" fill="#FDCF74"/>
<circle cx="23.1294" cy="46.7586" r="2.5" transform="rotate(-16.3619 23.1294 46.7586)" fill="#FDCF74"/>
<circle cx="39.4409" cy="41.9696" r="2.5" transform="rotate(-16.3619 39.4409 41.9696)" fill="#FDCF74"/>
<path d="M69.5467 45.1162C71.5303 47.1394 76.1462 51.6205 78.7413 53.3599C80.9087 54.8126 82.6108 55.0934 83.4857 55.037C83.6374 55.0208 83.7771 54.9984 83.9042 54.9707C83.7988 55.0017 83.6583 55.0259 83.4857 55.037C80.9087 55.3124 74.8613 53.7921 68.1074 45.5388L69.5467 45.1162Z" fill="#FFD277"/>
<path d="M80.7441 54.8563C80.885 55.3361 81.9625 56.1662 85.1456 55.6485C89.1244 55.0015 83.6226 54.0112 80.7441 54.8563Z" fill="#664407"/>
<ellipse cx="32.8606" cy="53.2813" rx="2" ry="0.5" transform="rotate(-16.3619 32.8606 53.2813)" fill="#ED588D"/>
<circle cx="27.1343" cy="49.7515" r="0.5" transform="rotate(-16.3619 27.1343 49.7515)" fill="#664407"/>
<circle cx="35.77" cy="47.2161" r="0.5" transform="rotate(-16.3619 35.77 47.2161)" fill="#664407"/>
<path d="M50.384 99.7035L57.1202 97.7258L59.9432 107.341L58.0018 107.911L55.6562 99.9225L52.7637 100.772L53.9692 104.878C54.3145 106.054 54.5165 106.888 54.5752 107.379C54.6326 107.865 54.5467 108.285 54.3176 108.637C54.0917 108.983 53.6551 109.252 53.0079 109.442C52.7806 109.508 52.3609 109.608 51.749 109.74L51.308 108.238L51.7429 108.118C52.1495 107.998 52.4068 107.863 52.5146 107.713C52.6224 107.562 52.6134 107.273 52.4876 106.844L51.9958 105.193L50.384 99.7035ZM65.3202 103.355L67.2472 103.124C67.2088 103.867 66.9858 104.49 66.5782 104.994C66.1736 105.493 65.5887 105.855 64.8235 106.08C63.6123 106.435 62.5997 106.303 61.7857 105.682C61.1404 105.183 60.6759 104.45 60.3922 103.484C60.0533 102.329 60.0899 101.338 60.5021 100.509C60.9129 99.6758 61.5797 99.1238 62.5023 98.8529C63.5387 98.5487 64.4571 98.6519 65.2578 99.1625C66.0571 99.6688 66.651 100.632 67.0394 102.052L62.4218 103.408C62.5954 103.95 62.8693 104.333 63.2433 104.556C63.6162 104.774 64.0146 104.821 64.4388 104.696C64.7274 104.612 64.947 104.462 65.0975 104.247C65.2481 104.031 65.3223 103.734 65.3202 103.355ZM64.8782 101.461C64.7085 100.932 64.452 100.567 64.1087 100.369C63.7642 100.166 63.4039 100.12 63.0279 100.23C62.6256 100.349 62.3362 100.593 62.1599 100.963C61.9835 101.333 61.9714 101.768 62.1234 102.27L64.8782 101.461ZM67.3892 97.5892L71.423 96.4049C72.2494 96.1622 72.9125 96.1314 73.4121 96.3125C73.9117 96.4935 74.2507 96.8879 74.4292 97.4957C74.5435 97.8849 74.5293 98.2572 74.3866 98.6125C74.2483 98.9666 74.0228 99.2418 73.7099 99.4382C74.2256 99.415 74.649 99.5306 74.9801 99.7848C75.3113 100.039 75.5333 100.359 75.6463 100.743C75.8055 101.286 75.7362 101.786 75.4384 102.244C75.1393 102.697 74.6006 103.038 73.8223 103.267L69.4343 104.555L67.3892 97.5892ZM70.0946 99.9368L71.2818 99.5882C71.8546 99.42 72.2467 99.2266 72.4579 99.0078C72.6736 98.7878 72.7358 98.5225 72.6446 98.212C72.5586 97.9191 72.3774 97.7467 72.1009 97.6948C71.8276 97.6374 71.387 97.6978 70.7792 97.8763L69.592 98.2248L70.0946 99.9368ZM70.9438 102.829L72.4 102.402C72.9247 102.248 73.2887 102.072 73.492 101.875C73.6952 101.677 73.7487 101.415 73.6524 101.087C73.5523 100.745 73.3459 100.552 73.0332 100.506C72.7192 100.456 72.1643 100.547 71.3684 100.781L70.4239 101.058L70.9438 102.829Z" fill="#FFCD6A"/>
<g filter="url(#filter0_d)">
<rect x="87" y="7.99999" width="82" height="114" rx="7" fill="#DAE0E7"/>
<path d="M118.431 95.3154L120.393 95.9375C120.092 97.0312 119.59 97.8447 118.889 98.3779C118.191 98.9066 117.305 99.1709 116.229 99.1709C114.899 99.1709 113.805 98.7174 112.948 97.8105C112.091 96.8991 111.663 95.6549 111.663 94.0781C111.663 92.4101 112.094 91.1159 112.955 90.1953C113.816 89.2702 114.949 88.8076 116.353 88.8076C117.578 88.8076 118.574 89.1699 119.34 89.8945C119.796 90.3229 120.137 90.9381 120.365 91.7402L118.362 92.2187C118.244 91.6992 117.995 91.2891 117.617 90.9883C117.243 90.6875 116.788 90.5371 116.25 90.5371C115.507 90.5371 114.903 90.8037 114.438 91.3369C113.978 91.8701 113.748 92.7337 113.748 93.9277C113.748 95.1947 113.976 96.097 114.432 96.6348C114.887 97.1725 115.48 97.4414 116.209 97.4414C116.747 97.4414 117.209 97.2705 117.597 96.9287C117.984 96.5869 118.262 96.0491 118.431 95.3154ZM122.642 91.7402H129.074V99H127.16V93.2988H124.542V96.5596C124.542 97.389 124.446 97.9723 124.255 98.3096C124.063 98.6422 123.852 98.861 123.619 98.9658C123.387 99.0706 123.013 99.123 122.498 99.123C122.193 99.123 121.789 99.082 121.288 99V97.585C121.329 97.585 121.436 97.5895 121.609 97.5986C121.81 97.6123 121.965 97.6191 122.074 97.6191C122.334 97.6191 122.493 97.5348 122.553 97.3662C122.612 97.193 122.642 96.7168 122.642 95.9375V91.7402ZM130.387 95.2676C130.387 94.6295 130.544 94.012 130.858 93.415C131.173 92.818 131.617 92.3623 132.191 92.0478C132.77 91.7334 133.415 91.5762 134.126 91.5762C135.224 91.5762 136.124 91.9339 136.826 92.6494C137.528 93.3603 137.879 94.2604 137.879 95.3496C137.879 96.4479 137.523 97.3594 136.812 98.084C136.106 98.804 135.215 99.1641 134.14 99.1641C133.474 99.1641 132.839 99.0137 132.232 98.7129C131.631 98.4121 131.173 97.9723 130.858 97.3935C130.544 96.8102 130.387 96.1016 130.387 95.2676ZM132.355 95.3701C132.355 96.0902 132.526 96.6416 132.868 97.0244C133.21 97.4072 133.632 97.5986 134.133 97.5986C134.634 97.5986 135.053 97.4072 135.391 97.0244C135.732 96.6416 135.903 96.0856 135.903 95.3564C135.903 94.6455 135.732 94.0986 135.391 93.7158C135.053 93.333 134.634 93.1416 134.133 93.1416C133.632 93.1416 133.21 93.333 132.868 93.7158C132.526 94.0986 132.355 94.6501 132.355 95.3701ZM139.314 91.7402H141.235V94.3994H143.983V91.7402H145.911V99H143.983V95.9512H141.235V99H139.314V91.7402Z" fill="#FFCD6A"/>
<path d="M150 37C151.833 38.5 155.6 41.7 156 42.5C156.4 43.3 152.167 39.1667 150 37Z" stroke="#C4C4C4"/>
<rect x="115" y="48" width="8" height="19" rx="4" fill="#B9B9B9"/>
<rect x="134" y="48" width="8" height="19" rx="4" fill="#B9B9B9"/>
<ellipse cx="132" cy="42.5" rx="20" ry="15.5" fill="#C4C4C4"/>
<path d="M127.5 21.1419C125.9 17.5419 119.833 23.3085 117 26.6419V39.6418C119.333 40.9752 124.7 43.5418 127.5 43.1418C131 42.6418 129.5 25.6419 127.5 21.1419Z" fill="#B9B9B9"/>
<path d="M95.0996 44.0418C96.6996 47.6418 102.766 41.8752 105.6 38.5418L105.6 25.5419C103.266 24.2085 97.8996 21.6419 95.0996 22.0419C91.5996 22.5419 93.0996 39.5418 95.0996 44.0418Z" fill="#B9B9B9"/>
<path d="M103.5 54.5C102.7 48.1 105.167 39.1667 106.5 35.5L110.5 39C109.167 41.1667 106.5 46.2 106.5 49V64H103.5C103.833 63.5 104.3 60.9 103.5 54.5Z" fill="#C4C4C4"/>
<ellipse cx="110" cy="33.5" rx="10" ry="9.5" fill="#C4C4C4"/>
<rect x="123" y="48" width="8" height="19" rx="4" fill="#C4C4C4"/>
<rect x="142" y="44" width="8" height="23" rx="4" fill="#C4C4C4"/>
<circle cx="104" cy="32" r="1" fill="#053A78"/>
<circle cx="111" cy="32" r="1" fill="#053A78"/>
</g>
<g filter="url(#filter1_d)">
<rect x="181.367" y="12" width="82" height="114" rx="7" transform="rotate(17.0194 181.367 12)" fill="#DAE0E7"/>
<path d="M183.11 100.08L181.362 99.0662C182.245 97.6302 183.636 97.203 185.536 97.7846C186.66 98.1287 187.432 98.6366 187.851 99.3081C188.275 99.9766 188.385 100.644 188.181 101.311C188.041 101.768 187.784 102.142 187.409 102.433C187.035 102.719 186.544 102.921 185.936 103.04C186.506 103.453 186.888 103.908 187.084 104.406C187.28 104.9 187.289 105.439 187.111 106.023C186.853 106.864 186.336 107.449 185.558 107.779C184.785 108.109 183.784 108.086 182.555 107.71C181.553 107.403 180.813 106.996 180.334 106.487C179.857 105.974 179.613 105.215 179.601 104.211L181.551 104.171C181.558 104.802 181.685 105.249 181.934 105.511C182.187 105.774 182.536 105.974 182.98 106.11C183.59 106.297 184.075 106.302 184.434 106.126C184.794 105.946 185.026 105.686 185.13 105.346C185.25 104.953 185.188 104.589 184.943 104.252C184.703 103.916 184.265 103.651 183.628 103.456L183.19 103.322L183.633 101.877L183.855 101.945C184.448 102.127 184.941 102.133 185.337 101.963C185.732 101.793 185.997 101.488 186.131 101.048C186.238 100.699 186.199 100.366 186.016 100.048C185.836 99.7305 185.509 99.4993 185.034 99.3539C184.224 99.1058 183.582 99.348 183.11 100.08ZM190.168 102.269L192.443 102.966L192.688 108.331L195.907 104.026L198.176 104.721L196.051 111.662L194.489 111.184L195.887 106.615L192.796 110.666L191.227 110.186L191.011 105.122L189.612 109.692L188.043 109.211L190.168 102.269ZM202.597 111.25L204.333 112.117C203.892 112.716 203.363 113.114 202.745 113.311C202.133 113.505 201.446 113.485 200.683 113.252C199.476 112.882 198.703 112.215 198.365 111.248C198.101 110.476 198.116 109.609 198.411 108.646C198.763 107.495 199.339 106.688 200.139 106.222C200.941 105.753 201.801 105.659 202.721 105.94C203.754 106.256 204.464 106.848 204.851 107.715C205.24 108.577 205.206 109.708 204.749 111.108L200.148 109.699C199.994 110.248 200.012 110.718 200.202 111.11C200.393 111.497 200.7 111.756 201.123 111.885C201.41 111.973 201.676 111.969 201.92 111.872C202.164 111.775 202.39 111.568 202.597 111.25ZM203.27 109.425C203.419 108.89 203.405 108.445 203.228 108.09C203.052 107.731 202.777 107.494 202.402 107.38C202.001 107.257 201.625 107.302 201.274 107.513C200.923 107.725 200.673 108.083 200.524 108.585L203.27 109.425ZM213.425 109.389L211.301 116.33L209.477 115.772L210.359 112.889L210.189 112.837C209.793 112.716 209.485 112.679 209.265 112.726C209.052 112.77 208.781 112.923 208.453 113.185L208.3 113.289L206.496 114.86L204.359 114.205L206.289 112.594C206.84 112.134 207.281 111.907 207.613 111.913C207.108 111.725 206.749 111.403 206.536 110.947C206.328 110.488 206.31 109.98 206.481 109.422C206.618 108.973 206.84 108.621 207.147 108.367C207.458 108.115 207.805 107.985 208.188 107.978C208.577 107.969 209.118 108.07 209.811 108.282L213.425 109.389ZM211.24 110.013L209.926 109.611C209.442 109.463 209.081 109.429 208.842 109.508C208.605 109.583 208.437 109.78 208.34 110.098C208.242 110.416 208.283 110.679 208.463 110.886C208.643 111.094 208.985 111.275 209.491 111.43L210.693 111.798L211.24 110.013Z" fill="#FFCD6A"/>
<rect x="183.651" y="66.035" width="43" height="5" rx="2.5" transform="rotate(17.0194 183.651 66.035)" fill="#2CCD90"/>
<rect x="187.027" y="61.8394" width="39" height="5" rx="2.5" transform="rotate(17.0194 187.027 61.8394)" fill="#2CCD90"/>
<path d="M212.581 39.856L208.98 41.3685" stroke="#EC1455" stroke-linecap="round"/>
<rect x="190.403" y="57.6437" width="35" height="5" rx="2.5" transform="rotate(17.0194 190.403 57.6437)" fill="#2CCD90"/>
<rect x="212.957" y="73.0191" width="35" height="5" rx="2.5" transform="rotate(-87.9928 212.957 73.0191)" fill="#2CCD90"/>
<rect x="217.879" y="43.0465" width="7" height="5" rx="2.5" transform="rotate(-162.981 217.879 43.0465)" fill="#2CCD90"/>
</g>
<defs>
<filter id="filter0_d" x="76" y="-7.62939e-06" width="98" height="130" filterUnits="userSpaceOnUse" color-interpolation-filters="sRGB">
<feFlood flood-opacity="0" result="BackgroundImageFix"/>
<feColorMatrix in="SourceAlpha" type="matrix" values="0 0 0 0 0 0 0 0 0 0 0 0 0 0 0 0 0 0 127 0"/>
<feOffset dx="-3"/>
<feGaussianBlur stdDeviation="4"/>
<feColorMatrix type="matrix" values="0 0 0 0 0 0 0 0 0 0 0 0 0 0 0 0 0 0 0.15 0"/>
<feBlend mode="normal" in2="BackgroundImageFix" result="effect1_dropShadow"/>
<feBlend mode="normal" in="SourceGraphic" in2="effect1_dropShadow" result="shape"/>
</filter>
<filter id="filter1_d" x="134" y="2.99999" width="131.776" height="153.008" filterUnits="userSpaceOnUse" color-interpolation-filters="sRGB">
<feFlood flood-opacity="0" result="BackgroundImageFix"/>
<feColorMatrix in="SourceAlpha" type="matrix" values="0 0 0 0 0 0 0 0 0 0 0 0 0 0 0 0 0 0 127 0"/>
<feOffset dx="-4" dy="1"/>
<feGaussianBlur stdDeviation="5"/>
<feColorMatrix type="matrix" values="0 0 0 0 0 0 0 0 0 0 0 0 0 0 0 0 0 0 0.25 0"/>
<feBlend mode="normal" in2="BackgroundImageFix" result="effect1_dropShadow"/>
<feBlend mode="normal" in="SourceGraphic" in2="effect1_dropShadow" result="shape"/>
</filter>
</defs>
</svg>
