<svg width="165" height="141" viewBox="0 0 165 141" fill="none" xmlns="http://www.w3.org/2000/svg">
<path d="M75.1831 16.0098H143.183L138.183 24.0098H70.1831L75.1831 16.0098Z" fill="#DDB25C"/>
<path d="M66.1831 35.0098H134.183L129.183 43.0098H61.1831L66.1831 35.0098Z" fill="#DDB25C"/>
<path d="M62.1831 57.0098H130.183L125.183 65.0098H57.1831L62.1831 57.0098Z" fill="#DDB25C"/>
<path d="M55.0825 85.0414C42.783 85.604 13.6182 121.377 0.57322 139.193C0.341674 139.51 -0.317302 140.01 0.183049 140.01C1.00291 140.01 50.4626 142.51 52.1826 138.01C55.6769 128.867 62.7697 121.611 68.3604 120.908C73.9511 120.205 104.7 127.941 115.881 124.424C127.063 120.908 166.198 89.2609 164.101 88.5576C162.424 87.995 160.141 87.8544 159.209 87.8544C158.743 87.3855 157.392 86.4478 155.715 86.4478H150.823C148.587 85.3226 147.096 85.0414 146.63 85.0414C139.362 85.0414 124.034 94.6527 120.773 97.7002C117.745 97.9346 108.613 96.8577 93.5182 96.2951C74.6496 95.5918 70.457 84.3381 55.0825 85.0414Z" fill="#FFC197"/>
<g filter="url(#filter0_d)">
<rect x="79.1831" y="92.0098" width="47" height="6" rx="1" fill="#BCD37B"/>
</g>
<g filter="url(#filter1_d)">
<rect x="76.1831" y="86.0098" width="47" height="6" rx="1" fill="#D0E595"/>
</g>
<g filter="url(#filter2_d)">
<rect x="82.1831" y="80.0098" width="47" height="6" rx="1" fill="#D0E595"/>
</g>
<path d="M93.0522 91.9313C102.73 85.5893 105.431 72.5971 99.0842 62.9126C92.7377 53.228 79.7475 50.5184 70.0696 56.8604C60.3918 63.2025 57.6912 76.1946 64.0377 85.8792C70.3841 95.5637 83.3744 98.2734 93.0522 91.9313Z" fill="url(#paint0_linear)"/>
<path d="M90.6523 88.2671C98.309 83.2495 100.446 72.9706 95.4245 65.3085C90.4034 57.6464 80.126 55.5027 72.4692 60.5203C64.8125 65.5379 62.6759 75.8168 67.697 83.4789C72.7181 91.141 82.9955 93.2848 90.6523 88.2671Z" fill="#CDE38E"/>
<path d="M86.6797 65.3561C85.0886 63.2732 81.5611 62.7133 77.9024 63.9633C75.4466 64.8022 72.657 66.7404 71.9608 69.1792L74.5391 69.899C74.8942 68.6547 76.7105 67.1873 78.7641 66.4857C81.5484 65.5345 83.8198 66.0279 84.5435 66.9753C84.9214 67.47 84.8336 68.128 84.2818 68.9305C83.9842 69.3641 83.6056 69.9423 83.1747 70.6126L71.6042 74.5653L72.466 77.0878L80.9005 74.2063C80.1338 75.4255 79.3543 76.6652 78.6293 77.799L73.3277 79.6102L74.1894 82.1326L76.4413 81.3633C75.8879 82.7671 76.0376 84.1787 76.9002 85.295C78.4948 87.3591 82.0144 87.9099 85.658 86.6651C88.1141 85.8261 90.904 83.8878 91.5999 81.4491L89.0214 80.7297C88.6665 81.9736 86.8502 83.441 84.7962 84.1427C82.0215 85.0906 79.753 84.6035 79.0276 83.6641C78.6479 83.1729 78.7241 82.523 79.2541 81.7334C79.5987 81.22 79.9782 80.6403 80.38 80.0178L91.9561 76.0631L91.0944 73.5406L82.6645 76.4205C82.8458 76.1326 84.3989 73.6633 84.9284 72.8303L90.2326 71.0182L89.3709 68.4958L87.1273 69.2623C87.6896 67.8642 87.543 66.4864 86.6797 65.3561Z" fill="#B0C76F"/>
<path d="M34.7254 34.1708C40.1786 40.2562 49.536 40.7657 55.6256 35.3088C61.7153 29.8518 62.2313 20.4948 56.7782 14.4093C51.325 8.32387 41.9676 7.81437 35.8779 13.2713C29.7882 18.7283 29.2722 28.0853 34.7254 34.1708Z" fill="url(#paint1_linear)"/>
<path d="M37.029 32.108C41.3434 36.9226 48.7466 37.3257 53.5646 33.0084C58.3825 28.691 58.7908 21.2881 54.4764 16.4735C50.162 11.6589 42.7588 11.2558 37.9409 15.5731C33.1229 19.8905 32.7147 27.2934 37.029 32.108Z" fill="#CDE38E"/>
<path d="M52.6059 26.907C53.8917 25.5755 53.909 23.0533 52.6487 20.631C51.8028 19.0052 50.1541 17.2628 48.3775 17.035L48.148 18.9114C49.0545 19.0276 50.2714 20.1403 50.9788 21.4999C51.9378 23.3432 51.8339 24.9814 51.2491 25.587C50.9437 25.9033 50.475 25.9117 49.8562 25.6114C49.522 25.4495 49.0781 25.2464 48.5645 25.0166L44.5791 17.3565L42.9092 18.2254L45.8144 23.8093C44.882 23.4031 43.9338 22.9901 43.0654 22.604L41.2392 19.0942L39.5693 19.9631L40.345 21.4539C39.3062 21.2162 38.3365 21.4702 37.6484 22.1907C36.3761 23.5227 36.3644 26.0385 37.6194 28.4506C38.4654 30.0767 40.1142 31.8194 41.8907 32.0469L42.1198 30.1704C41.2137 30.0544 39.9968 28.9416 39.2893 27.5818C38.3336 25.7449 38.4334 24.1093 39.0124 23.5034C39.3152 23.1862 39.7771 23.1706 40.3845 23.457C40.7795 23.6432 41.2244 23.8468 41.7016 24.0614L45.689 31.7252L47.3589 30.8563L44.4553 25.2754C44.6755 25.3716 46.5641 26.1944 47.2018 26.4759L49.0288 29.9875L50.6988 29.1186L49.926 27.6333C50.9617 27.8778 51.9081 27.6295 52.6059 26.907Z" fill="#B0C76F"/>
<g filter="url(#filter3_d)">
<path d="M88.8081 102.508C84.351 102.508 73.7188 103.431 67.9152 104.583C57.8867 106.38 41.2188 102.106 35.1831 99.053C37.9688 95.5978 47.7188 86.3356 56.076 85.2297C66.5224 83.8474 74.8795 89.3755 79.7545 90.7578C84.6295 92.1401 87.4152 94.2158 98.5581 93.5246C107.472 92.9717 112.487 96.9783 113.183 101.127C111.094 103.89 107.472 104.581 104.13 104.581C99.951 104.581 94.3795 102.508 88.8081 102.508Z" fill="#FFC197"/>
<path d="M88.8081 102.508C84.351 102.508 73.7188 103.431 67.9152 104.583C57.8867 106.38 41.2188 102.106 35.1831 99.053C37.9688 95.5978 47.7188 86.3356 56.076 85.2297C66.5224 83.8474 74.8795 89.3755 79.7545 90.7578C84.6295 92.1401 87.4152 94.2158 98.5581 93.5246C107.472 92.9717 112.487 96.9783 113.183 101.127C111.094 103.89 107.472 104.581 104.13 104.581C99.951 104.581 94.3795 102.508 88.8081 102.508Z" fill="url(#paint2_linear)"/>
</g>
<path d="M139.511 55.7107C153.137 52.2183 161.35 38.3334 157.855 24.698C154.36 11.0626 140.481 2.84012 126.855 6.33259C113.229 9.82505 105.016 23.7099 108.511 37.3453C112.006 50.9807 125.885 59.2032 139.511 55.7107Z" fill="url(#paint3_linear)"/>
<path d="M138.189 50.5535C148.97 47.7903 155.467 36.8051 152.702 26.0173C149.937 15.2294 138.957 8.72406 128.176 11.4872C117.396 14.2503 110.898 25.2355 113.663 36.0234C116.428 46.8112 127.409 53.3166 138.189 50.5535Z" fill="#CDE38E"/>
<path d="M142.624 22.6339C141.613 19.6124 137.775 17.582 133.074 17.582C129.919 17.582 125.948 18.7154 124.189 21.2474L126.872 23.0888C127.77 21.7968 130.436 20.8225 133.074 20.8225C136.651 20.8225 139.07 22.2829 139.531 23.6571C139.771 24.3748 139.411 25.0972 138.461 25.8035C137.948 26.1854 137.285 26.7018 136.526 27.3035H121.662V30.544H132.498C131.137 31.6453 129.753 32.7651 128.473 33.7845H121.662V37.025H124.555C123.367 38.4224 122.984 40.1051 123.538 41.7283C124.561 44.7296 128.394 46.7464 133.074 46.7464C136.23 46.7464 140.201 45.6131 141.96 43.0811L139.276 41.2401C138.379 42.5317 135.713 43.506 133.074 43.506C129.51 43.506 127.091 42.0541 126.626 40.6882C126.382 39.9739 126.725 39.2562 127.645 38.5562C128.244 38.1009 128.908 37.5832 129.615 37.025H144.486V33.7845H133.657C133.979 33.5246 136.736 31.2942 137.672 30.544H144.486V27.3035H141.604C142.801 25.9162 143.173 24.2736 142.624 22.6339Z" fill="#B0C76F"/>
<defs>
<filter id="filter0_d" x="75.1831" y="89.0098" width="55" height="14" filterUnits="userSpaceOnUse" color-interpolation-filters="sRGB">
<feFlood flood-opacity="0" result="BackgroundImageFix"/>
<feColorMatrix in="SourceAlpha" type="matrix" values="0 0 0 0 0 0 0 0 0 0 0 0 0 0 0 0 0 0 127 0"/>
<feOffset dy="1"/>
<feGaussianBlur stdDeviation="2"/>
<feColorMatrix type="matrix" values="0 0 0 0 0.737255 0 0 0 0 0.462745 0 0 0 0 0.27451 0 0 0 0.52 0"/>
<feBlend mode="normal" in2="BackgroundImageFix" result="effect1_dropShadow"/>
<feBlend mode="normal" in="SourceGraphic" in2="effect1_dropShadow" result="shape"/>
</filter>
<filter id="filter1_d" x="75.1831" y="86.0098" width="49" height="8" filterUnits="userSpaceOnUse" color-interpolation-filters="sRGB">
<feFlood flood-opacity="0" result="BackgroundImageFix"/>
<feColorMatrix in="SourceAlpha" type="matrix" values="0 0 0 0 0 0 0 0 0 0 0 0 0 0 0 0 0 0 127 0"/>
<feOffset dy="1"/>
<feGaussianBlur stdDeviation="0.5"/>
<feColorMatrix type="matrix" values="0 0 0 0 0.674826 0 0 0 0 0.766667 0 0 0 0 0.415278 0 0 0 1 0"/>
<feBlend mode="normal" in2="BackgroundImageFix" result="effect1_dropShadow"/>
<feBlend mode="normal" in="SourceGraphic" in2="effect1_dropShadow" result="shape"/>
</filter>
<filter id="filter2_d" x="81.1831" y="80.0098" width="49" height="8" filterUnits="userSpaceOnUse" color-interpolation-filters="sRGB">
<feFlood flood-opacity="0" result="BackgroundImageFix"/>
<feColorMatrix in="SourceAlpha" type="matrix" values="0 0 0 0 0 0 0 0 0 0 0 0 0 0 0 0 0 0 127 0"/>
<feOffset dy="1"/>
<feGaussianBlur stdDeviation="0.5"/>
<feColorMatrix type="matrix" values="0 0 0 0 0.690196 0 0 0 0 0.780392 0 0 0 0 0.435294 0 0 0 0.34 0"/>
<feBlend mode="normal" in2="BackgroundImageFix" result="effect1_dropShadow"/>
<feBlend mode="normal" in="SourceGraphic" in2="effect1_dropShadow" result="shape"/>
</filter>
<filter id="filter3_d" x="35.1831" y="84.0098" width="84" height="24.0001" filterUnits="userSpaceOnUse" color-interpolation-filters="sRGB">
<feFlood flood-opacity="0" result="BackgroundImageFix"/>
<feColorMatrix in="SourceAlpha" type="matrix" values="0 0 0 0 0 0 0 0 0 0 0 0 0 0 0 0 0 0 127 0"/>
<feOffset dx="4" dy="1"/>
<feGaussianBlur stdDeviation="1"/>
<feColorMatrix type="matrix" values="0 0 0 0 0.737255 0 0 0 0 0.462745 0 0 0 0 0.27451 0 0 0 0.06 0"/>
<feBlend mode="normal" in2="BackgroundImageFix" result="effect1_dropShadow"/>
<feBlend mode="normal" in="SourceGraphic" in2="effect1_dropShadow" result="shape"/>
</filter>
<linearGradient id="paint0_linear" x1="61.9817" y1="66.9445" x2="101.191" y2="81.8024" gradientUnits="userSpaceOnUse">
<stop stop-color="#E9FAB9"/>
<stop offset="0.1817" stop-color="#E4F6AF"/>
<stop offset="1" stop-color="#B3CB70"/>
</linearGradient>
<linearGradient id="paint1_linear" x1="48.8806" y1="9.83028" x2="42.6597" y2="38.7807" gradientUnits="userSpaceOnUse">
<stop stop-color="#E9FAB9"/>
<stop offset="0.1817" stop-color="#E4F6AF"/>
<stop offset="1" stop-color="#B3CB70"/>
</linearGradient>
<linearGradient id="paint2_linear" x1="108.308" y1="60.3464" x2="71.0062" y2="100.716" gradientUnits="userSpaceOnUse">
<stop stop-color="#FFCEAD"/>
<stop offset="1" stop-color="white" stop-opacity="0"/>
</linearGradient>
<linearGradient id="paint3_linear" x1="113.587" y1="14.7547" x2="152.855" y2="47.257" gradientUnits="userSpaceOnUse">
<stop stop-color="#E9FAB9"/>
<stop offset="0.1817" stop-color="#E4F6AF"/>
<stop offset="1" stop-color="#B3CB70"/>
</linearGradient>
</defs>
</svg>
