<svg width="108" height="95" viewBox="0 0 108 95" fill="none" xmlns="http://www.w3.org/2000/svg">
<path d="M1.81332 92.4277L91.373 92.4277V81.8436L1.81332 81.8436V92.4277Z" fill="white"/>
<path d="M1.83199 92.4277H40.4966V81.8436H1.83199V92.4277Z" fill="#F9F3E3"/>
<path d="M0.291786 94.1836L93.1064 94.1836V92.3579L0.291786 92.3579V94.1836Z" fill="#347FAA"/>
<path d="M0.291786 81.9102L93.1064 81.9102V80.0845L0.291786 80.0845V81.9102Z" fill="#347FAA"/>
<path d="M0.289772 93.2676H1.89258L1.89258 81.8446H0.289772L0.289772 93.2676Z" fill="#347FAA"/>
<path d="M9.66435 44.9531L99.2241 44.9531V34.369L9.66435 34.369V44.9531Z" fill="white"/>
<path d="M9.6826 44.9531L48.3472 44.9531V34.369L9.6826 34.369V44.9531Z" fill="#F9F3E3"/>
<path d="M8.11796 46.709L100.933 46.709V44.8833L8.11796 44.8833V46.709Z" fill="#347FAA"/>
<path d="M8.11796 34.4355L100.933 34.4355V32.6099L8.11796 32.6099V34.4355Z" fill="#347FAA"/>
<path d="M8.11596 45.793H9.71875L9.71875 34.37H8.11596L8.11596 45.793Z" fill="#347FAA"/>
<path d="M108.001 68.6085V67.5723H101.688H83.0215H29.4879C24.8521 67.5723 23.7671 70.3848 23.7671 73.8388C23.7671 77.2929 24.8521 80.1054 29.4879 80.1054H83.0215H101.688H108.001V79.0692H101.688V68.6085H108.001Z" fill="#DA6C33"/>
<path d="M104.992 79.0662H69.0157C66.1307 79.0662 63.7881 76.7224 63.7881 73.8358C63.7881 70.9493 66.1307 68.6055 69.0157 68.6055H104.992V79.0662Z" fill="white"/>
<path d="M102.008 48.4262V46.6992H95.6951H77.0286H23.495C18.8592 46.6992 15.0864 51.3868 15.0864 57.1353C15.0864 62.8838 18.8592 67.5714 23.495 67.5714H77.0286H95.6951H102.008V65.8444H95.6951V48.4262H102.008Z" fill="#74BEC9"/>
<path d="M98.9996 65.8459H66.8202C61.8392 65.8459 57.7705 61.7751 57.7705 56.7914V56.5693C57.7705 52.1038 61.42 48.4277 65.9078 48.4277H98.9749V65.8459H98.9996Z" fill="white"/>
<rect x="55.1279" y="10.3105" width="31.1622" height="22.4658" transform="rotate(-0.0126788 55.1279 10.3105)" fill="#74BEC9"/>
<rect x="55.1279" y="10.3105" width="21.0164" height="22.4658" transform="rotate(-0.0126788 55.1279 10.3105)" fill="#5194A6"/>
<rect x="54.7642" y="6.68164" width="31.8869" height="3.62351" transform="rotate(-0.0126788 54.7642 6.68164)" fill="#5194A6"/>
<rect x="54.7642" y="6.68164" width="21.3787" height="3.62351" transform="rotate(-0.0126788 54.7642 6.68164)" fill="#478899"/>
<rect x="63.0986" y="6.68164" width="3.26116" height="26.0893" transform="rotate(-0.0126788 63.0986 6.68164)" fill="#EC1455"/>
<rect x="81.2158" y="6.67969" width="1.81176" height="26.0893" transform="rotate(-0.0126788 81.2158 6.67969)" fill="#ED588D"/>
<path fill-rule="evenodd" clip-rule="evenodd" d="M65.9956 2.69357L70.9493 5.55213L75.9021 2.69117L75.9029 6.19107L71.0944 6.19214L70.9498 6.10872L70.8053 6.1922L65.9964 6.19327L65.9956 2.69357Z" fill="#EC1455"/>
<rect x="25.311" y="3.79688" width="18.1527" height="29.0443" rx="3" transform="rotate(-0.569983 25.311 3.79688)" fill="#410F0B"/>
<rect x="25.0029" y="9.24609" width="0.726107" height="3.63054" rx="0.363054" transform="rotate(-0.569983 25.0029 9.24609)" fill="#410F0B"/>
<rect x="43.144" y="7.97461" width="0.726107" height="3.63054" rx="0.363054" transform="rotate(-0.569983 43.144 7.97461)" fill="#410F0B"/>
<rect x="43.187" y="12.334" width="0.726107" height="3.63054" rx="0.363054" transform="rotate(-0.569983 43.187 12.334)" fill="#410F0B"/>
<rect x="27.1411" y="5.23438" width="14.5221" height="24.3246" transform="rotate(-0.569983 27.1411 5.23438)" fill="#FFCD6A"/>
<circle cx="34.4786" cy="31.1193" r="0.907634" transform="rotate(-0.569983 34.4786 31.1193)" fill="#E5B35A"/>
<path d="M48.3003 24.4464L51.783 23.6427L49.3719 21.5664" stroke="black" stroke-width="4" stroke-linejoin="round"/>
<path d="M56.873 24.4464L53.3903 23.6427L55.8014 21.5664" stroke="black" stroke-width="4" stroke-linejoin="round"/>
<rect x="42.54" y="18.0156" width="1.33952" height="3.34879" fill="#C4C4C4"/>
<path d="M42.138 18.5615C41.8852 18.6728 41.7705 18.9678 41.8817 19.2206C41.9929 19.4733 42.288 19.5881 42.5407 19.4769L42.138 18.5615ZM44.2151 18.7401C44.4679 18.6289 44.5826 18.3339 44.4714 18.0811C44.3602 17.8283 44.0651 17.7136 43.8124 17.8248L44.2151 18.7401ZM42.138 19.1643C41.8852 19.2755 41.7705 19.5706 41.8817 19.8234C41.9929 20.0761 42.288 20.1909 42.5407 20.0796L42.138 19.1643ZM44.2151 19.3429C44.4679 19.2317 44.5826 18.9366 44.4714 18.6839C44.3602 18.4311 44.0651 18.3164 43.8124 18.4276L44.2151 19.3429ZM42.138 19.7671C41.8852 19.8783 41.7705 20.1734 41.8817 20.4261C41.9929 20.6789 42.288 20.7936 42.5407 20.6824L42.138 19.7671ZM44.2151 19.9457C44.4679 19.8345 44.5826 19.5394 44.4714 19.2867C44.3602 19.0339 44.0651 18.9192 43.8124 19.0304L44.2151 19.9457ZM42.138 20.3699C41.8852 20.4811 41.7705 20.7762 41.8817 21.0289C41.9929 21.2817 42.288 21.3964 42.5407 21.2852L42.138 20.3699ZM44.2151 20.5485C44.4679 20.4373 44.5826 20.1422 44.4714 19.8894C44.3602 19.6367 44.0651 19.5219 43.8124 19.6332L44.2151 20.5485ZM42.138 21.0397C41.8852 21.1509 41.7705 21.4459 41.8817 21.6987C41.9929 21.9514 42.288 22.0662 42.5407 21.955L42.138 21.0397ZM44.2151 21.2182C44.4679 21.107 44.5826 20.812 44.4714 20.5592C44.3602 20.3064 44.0651 20.1917 43.8124 20.3029L44.2151 21.2182ZM42.138 17.9588C41.8852 18.07 41.7705 18.365 41.8817 18.6178C41.9929 18.8705 42.288 18.9853 42.5407 18.8741L42.138 17.9588ZM44.2151 18.1373C44.4679 18.0261 44.5826 17.7311 44.4714 17.4783C44.3602 17.2256 44.0651 17.1108 43.8124 17.222L44.2151 18.1373ZM42.5407 19.4769L44.2151 18.7401L43.8124 17.8248L42.138 18.5615L42.5407 19.4769ZM42.5407 20.0796L44.2151 19.3429L43.8124 18.4276L42.138 19.1643L42.5407 20.0796ZM42.5407 20.6824L44.2151 19.9457L43.8124 19.0304L42.138 19.7671L42.5407 20.6824ZM42.5407 21.2852L44.2151 20.5485L43.8124 19.6332L42.138 20.3699L42.5407 21.2852ZM42.5407 21.955L44.2151 21.2182L43.8124 20.3029L42.138 21.0397L42.5407 21.955ZM42.5407 18.8741L44.2151 18.1373L43.8124 17.222L42.138 17.9588L42.5407 18.8741Z" fill="#DAE0E7"/>
<rect x="60.4902" y="18.0156" width="1.33952" height="3.34879" fill="#C4C4C4"/>
<path d="M60.0877 18.5615C59.8349 18.6728 59.7202 18.9678 59.8314 19.2206C59.9426 19.4733 60.2377 19.5881 60.4904 19.4769L60.0877 18.5615ZM62.1648 18.7401C62.4176 18.6289 62.5323 18.3339 62.4211 18.0811C62.3099 17.8283 62.0148 17.7136 61.7621 17.8248L62.1648 18.7401ZM60.0877 19.1643C59.8349 19.2755 59.7202 19.5706 59.8314 19.8234C59.9426 20.0761 60.2377 20.1909 60.4904 20.0796L60.0877 19.1643ZM62.1648 19.3429C62.4176 19.2317 62.5323 18.9366 62.4211 18.6839C62.3099 18.4311 62.0148 18.3164 61.7621 18.4276L62.1648 19.3429ZM60.0877 19.7671C59.8349 19.8783 59.7202 20.1734 59.8314 20.4261C59.9426 20.6789 60.2377 20.7936 60.4904 20.6824L60.0877 19.7671ZM62.1648 19.9457C62.4176 19.8345 62.5323 19.5394 62.4211 19.2867C62.3099 19.0339 62.0148 18.9192 61.7621 19.0304L62.1648 19.9457ZM60.0877 20.3699C59.8349 20.4811 59.7202 20.7762 59.8314 21.0289C59.9426 21.2817 60.2377 21.3964 60.4904 21.2852L60.0877 20.3699ZM62.1648 20.5485C62.4176 20.4373 62.5323 20.1422 62.4211 19.8894C62.3099 19.6367 62.0148 19.5219 61.7621 19.6332L62.1648 20.5485ZM60.0877 21.0397C59.8349 21.1509 59.7202 21.4459 59.8314 21.6987C59.9426 21.9514 60.2377 22.0662 60.4904 21.955L60.0877 21.0397ZM62.1648 21.2182C62.4176 21.107 62.5323 20.812 62.4211 20.5592C62.3099 20.3064 62.0148 20.1917 61.7621 20.3029L62.1648 21.2182ZM60.0877 17.9588C59.8349 18.07 59.7202 18.365 59.8314 18.6178C59.9426 18.8705 60.2377 18.9853 60.4904 18.8741L60.0877 17.9588ZM62.1648 18.1373C62.4176 18.0261 62.5323 17.7311 62.4211 17.4783C62.3099 17.2256 62.0148 17.1108 61.7621 17.222L62.1648 18.1373ZM60.4904 19.4769L62.1648 18.7401L61.7621 17.8248L60.0877 18.5615L60.4904 19.4769ZM60.4904 20.0796L62.1648 19.3429L61.7621 18.4276L60.0877 19.1643L60.4904 20.0796ZM60.4904 20.6824L62.1648 19.9457L61.7621 19.0304L60.0877 19.7671L60.4904 20.6824ZM60.4904 21.2852L62.1648 20.5485L61.7621 19.6332L60.0877 20.3699L60.4904 21.2852ZM60.4904 21.955L62.1648 21.2182L61.7621 20.3029L60.0877 21.0397L60.4904 21.955ZM60.4904 18.8741L62.1648 18.1373L61.7621 17.222L60.0877 17.9588L60.4904 18.8741Z" fill="#DAE0E7"/>
<rect x="51.2471" y="21.5" width="2.41113" height="2.41113" rx="1.20556" fill="#276E97"/>
<path d="M43.2771 18.1498C40.6516 18.1498 40.1739 20.6503 40.2632 21.9005H40.1292H39.8613C39.4595 21.9005 38.6558 20.427 38.6558 19.6903C38.6558 18.9536 39.2585 17.2792 39.8613 16.8103C40.3436 16.4353 44.6166 15.8503 46.6929 15.6048C47.5635 15.0243 49.5862 13.7428 50.7114 13.2606C52.1179 12.6578 61.4945 13.4615 61.9633 13.5955C62.4322 13.7294 63.3029 14.3992 64.1735 15.2699C65.0442 16.1406 65.1782 17.748 65.3121 18.1498C65.4461 18.5517 66.0489 19.7573 66.0489 20.427C66.0489 20.9628 64.7987 21.454 64.1735 21.6326C63.9949 20.561 63.1153 18.4177 61.0257 18.4177C58.936 18.4177 57.9671 20.7396 57.7439 21.9005H46.291C46.3803 20.6503 45.9025 18.1498 43.2771 18.1498Z" fill="#CA0D46"/>
<path d="M51.6488 13.7971C50.9522 13.8507 48.7688 15.2929 47.7642 16.0073H62.9677C63.1686 16.0073 61.3602 14.132 60.9584 13.998C60.5565 13.8641 52.5194 13.7301 51.6488 13.7971Z" fill="#EBF4FF"/>
<circle cx="43.545" cy="27.0562" r="5.69294" fill="black"/>
<circle cx="43.545" cy="27.0562" r="5.69294" fill="black"/>
<circle cx="43.545" cy="27.0562" r="5.69294" fill="black"/>
<circle cx="43.545" cy="27.0562" r="5.69294" fill="black"/>
<circle cx="43.545" cy="27.0562" r="5.69294" fill="black"/>
<circle cx="61.4947" cy="27.0562" r="5.69294" fill="black"/>
<circle cx="61.4947" cy="27.0562" r="5.69294" fill="black"/>
<circle cx="61.4947" cy="27.0562" r="5.69294" fill="black"/>
<circle cx="61.4947" cy="27.0562" r="5.69294" fill="black"/>
<circle cx="61.4947" cy="27.0562" r="5.69294" fill="black"/>
<circle cx="43.5448" cy="27.0566" r="2.74601" fill="#C4C4C4"/>
<circle cx="61.4945" cy="27.0566" r="2.74601" fill="#C4C4C4"/>
<circle cx="51.5148" cy="23.5104" r="0.535806" fill="#053A78"/>
<circle cx="53.3898" cy="23.5104" r="0.535806" fill="#053A78"/>
</svg>
