<svg width="127" height="115" viewBox="0 0 127 115" fill="none" xmlns="http://www.w3.org/2000/svg">
<path d="M114 101.5C99.2 94.3001 72.5 100.167 61 104L69.5 113L125 114.5C127.5 113.167 128.8 108.7 114 101.5Z" fill="#FF2E6D"/>
<rect y="8.0925" width="68.9088" height="51.2399" rx="1" transform="rotate(-6.13151 0 8.0925)" fill="#BC7646"/>
<rect x="3.89062" y="11.2288" width="61.8412" height="44.1723" rx="1" transform="rotate(-6.13151 3.89062 11.2288)" fill="#1B3913"/>
<path d="M20.4749 33.1005L20.6913 35.1154L13.0869 35.9324C13.0874 35.1618 13.2571 34.4147 13.5958 33.6911C13.934 32.9623 14.6499 31.9691 15.7435 30.7115C16.6235 29.6954 17.1568 29.0134 17.3433 28.6654C17.5937 28.1855 17.6954 27.7269 17.6484 27.2894C17.5964 26.8056 17.4254 26.4491 17.1352 26.22C16.8497 25.9851 16.4779 25.8923 16.0198 25.9415C15.5669 25.9902 15.2213 26.1653 14.9829 26.4668C14.7446 26.7683 14.6389 27.2378 14.6657 27.8753L12.4808 27.8914C12.4812 26.6835 12.7932 25.7831 13.4167 25.1903C14.0402 24.5975 14.8616 24.2464 15.8806 24.1369C16.9975 24.0169 17.9074 24.2237 18.6103 24.7574C19.3132 25.291 19.7127 26.0056 19.8089 26.9011C19.8637 27.4106 19.8233 27.907 19.6877 28.3901C19.5568 28.8675 19.3203 29.3797 18.9782 29.9267C18.7516 30.2894 18.3298 30.8215 17.7127 31.5229C17.0956 32.2244 16.7055 32.688 16.5424 32.9138C16.3843 33.139 16.2592 33.3555 16.167 33.5632L20.4749 33.1005Z" fill="white"/>
<path d="M25.4144 32.9603L25.0984 30.0189L22.1338 30.3374L21.9157 28.3069L24.8803 27.9885L24.5643 25.047L26.5407 24.8347L26.8567 27.7761L29.829 27.4568L30.0471 29.4873L27.0748 29.8066L27.3908 32.748L25.4144 32.9603Z" fill="white"/>
<path d="M37.8988 33.2669L35.7295 33.5L34.8512 25.3242C34.1382 26.1505 33.2629 26.799 32.2254 27.2697L32.0139 25.301C32.5601 25.0549 33.1376 24.6389 33.7462 24.0529C34.3543 23.4617 34.7449 22.808 34.9178 22.0918L36.678 21.9027L37.8988 33.2669Z" fill="white"/>
<path d="M40.9312 26.5687L40.7172 24.5769L48.6305 23.7268L48.8445 25.7187L40.9312 26.5687ZM41.2994 29.9965L41.0846 27.997L48.9979 27.1469L49.2127 29.1465L41.2994 29.9965Z" fill="white"/>
<path d="M85.2021 101C86.8021 96.6 85.8688 87.1667 85.2021 83L94.7021 76C95.3688 83.8333 96.7021 100.2 96.7021 103C96.7021 106.5 83.2021 106.5 85.2021 101Z" fill="#F6B78D"/>
<ellipse cx="80.5" cy="52" rx="32.5" ry="33" fill="#FFC197"/>
<path d="M92 34.5C100.4 36.1 107.833 48.8333 110.5 55C114.5 59.0001 117 58 118.5 48.5C120 39 109 20 98.5 11C88 2.00002 65.5 12 61.5 15.5C57.5 19 62.5 29 67 31C71.5 33 81.5 32.5 92 34.5Z" fill="#664407"/>
<path d="M57.5161 77.5556C55.5548 80.4889 54.2473 88.963 53.8387 92.8333L52 111.778L69.7742 113L59.9677 98.3333C61.1935 97.9259 64.3806 96.5 67.3226 94.0556C71 91 71 87.3333 71 86.1111C71 84.8889 69.1613 84.8889 63.6452 78.7778C62.1742 77.3111 60.5806 78.1667 59.9677 78.7778C61.8065 75.5185 65.1161 69 63.6452 69C61.8065 69 59.9677 73.8889 57.5161 77.5556Z" fill="#F2B48A"/>
<circle cx="110" cy="62" r="7" fill="#FFC197"/>
<path d="M64.5 67C65.8333 68 69.6 69.7 74 68.5" stroke="#BC7646"/>
<path d="M74.5 45C76.1667 45.5 80 46.3 82 45.5C80.3333 46.6667 76.5 48.2 74.5 45Z" fill="#BC7646"/>
<path d="M55.2783 40.2456C56.8057 41.0793 60.3909 42.6543 62.5131 42.2849C60.6413 43.0819 56.5738 43.7899 55.2783 40.2456Z" fill="#BC7646"/>
<path d="M60.4998 58C60.0998 57.2 62.6665 50.3333 63.9998 47C63.4999 50.3333 62.5 57.3 62.5 58.5C62.5 60 60.9998 59 60.4998 58Z" fill="#BC7646"/>
</svg>
