<svg width="105" height="106" viewBox="0 0 105 106" fill="none" xmlns="http://www.w3.org/2000/svg">
<path d="M17.1601 94.0554C36.2475 86.988 49.2564 97.0002 53.375 102.89V105.344C35.6226 105.834 0.799461 106.031 3.52623 102.89C6.253 99.7487 13.7516 95.6914 17.1601 94.0554Z" fill="#2075DA"/>
<path fill-rule="evenodd" clip-rule="evenodd" d="M33.125 39.6246H92.125V52.9285L103.375 46.4333V69.816L92.125 63.3208V76.6246H33.125V39.6246Z" fill="#053A78"/>
<path d="M36.1729 93.6246C34.5729 89.2246 35.5062 79.7913 36.1729 75.6246L26.6729 68.6246C26.0062 76.458 24.6729 92.8246 24.6729 95.6246C24.6729 99.1246 38.1729 99.1246 36.1729 93.6246Z" fill="#F6B78D"/>
<ellipse rx="32.5" ry="33" transform="matrix(-1 0 0 1 40.875 44.6246)" fill="#FFC197"/>
<path d="M59.375 63.1246C57.0417 63.2913 52.075 63.1246 50.875 61.1246C51.375 62.6246 53.775 65.1246 59.375 63.1246Z" fill="#BC7646"/>
<path d="M58.4482 45.8232L54.8035 46.9259" stroke="#BC7646" stroke-linecap="round"/>
<path d="M67.3752 57.1246C67.7752 54.3246 66.2086 47.6246 65.3752 44.6246V56.1246C65.8752 57.6246 66.9752 59.9246 67.3752 57.1246Z" fill="#BC7646"/>
<path d="M11.3494 48.4909C17.2233 47.7973 27.1723 44.8327 29.3746 37.1246C32.3746 26.6246 40.3746 18.1246 47.8746 20.1246C55.3746 22.1246 62.8746 29.1245 67.3746 24.6246C71.8746 20.1246 73.3746 7.12456 67.3746 3.12456C62.5746 -0.0754414 61.7082 -0.208775 61.875 0.124559C61.875 2.79125 61.275 8.12463 58.875 8.12463C55.875 8.12463 34.375 -0.375366 23.875 5.62463C15.475 10.4246 11.0414 19.958 9.87464 24.1246C7.54143 25.458 2.675 28.6246 1.875 30.6246C0.875 33.1246 -3.625 56.7543 6.375 52.1246C12.4041 49.3333 12.564 48.5475 11.3494 48.4909Z" fill="#FFDD99"/>
<circle r="7" transform="matrix(-1 0 0 1 11.375 54.6246)" fill="#FFC197"/>
<ellipse rx="1" ry="11.5" transform="matrix(-1 0 0 1 103.375 58.1246)" fill="#011833"/>
<path d="M74.375 85.635C78.6179 81.637 78.3754 74.3075 78.3754 70.6427C78.3754 66.245 74.8397 65.4787 73.0718 65.6453L65.4111 73.6412C64.2325 76.9728 61.8754 84.0358 61.8754 85.635C61.8754 87.2341 60.3039 88.6334 59.5182 89.1332L45.3754 105.625H55.8754L67.8754 89.6246C68.6611 90.4575 70.1321 89.6329 74.375 85.635Z" fill="#FFC197"/>
<circle r="1.5" transform="matrix(-1 0 0 1 69.875 42.1246)" fill="#BC7646"/>
</svg>
