<svg width="163" height="146" viewBox="0 0 163 146" fill="none" xmlns="http://www.w3.org/2000/svg">
<path d="M163 0H61.9301C55.9848 5.14286 44.1933 19.2857 44.5897 34.7143C44.986 50.1429 15.0284 96 0 117H95.1246C99.5836 117 119.401 98.1429 124.851 67.7143C129.211 43.3714 152.1 12.4286 163 0Z" fill="#FFD277"/>
<path d="M65 7H133L128 15H60L65 7Z" fill="#DDB25C"/>
<path d="M56 26H124L119 34H51L56 26Z" fill="#DDB25C"/>
<path d="M52 48H120L115 56H47L52 48Z" fill="#DDB25C"/>
<path fill-rule="evenodd" clip-rule="evenodd" d="M58.9285 78.066C59.1462 81.1577 60.0441 84.1819 62.0274 86.7174C62.5786 87.26 63.9624 88.3218 65.923 89.2118L64.3937 94.5746L60.4144 93.4398C59.7414 93.2478 59.0401 93.6379 58.8482 94.3109C58.6563 94.984 59.0463 95.6852 59.7193 95.8771L71.906 99.3526C72.5791 99.5445 73.2803 99.1545 73.4722 98.4815C73.6642 97.8084 73.2742 97.1072 72.6011 96.9152L69.2683 95.9648L70.7978 90.6018C72.9319 90.8793 74.6666 90.7073 75.4209 90.5371C78.2586 89.4968 80.5106 87.5858 82.2781 85.2772C85.6099 86.1649 89.0513 84.2208 90.0007 80.8916C90.7893 78.1266 89.6134 75.2665 87.3022 73.8018C87.6771 72.1147 87.8925 70.5768 87.9821 69.345L75.2584 65.7164L75.2584 65.7164L62.5339 62.0875C61.9876 63.1292 61.3918 64.4669 60.8427 66.001C58.3678 66.282 56.1873 68.0172 55.4618 70.5611C54.5901 73.6177 56.119 76.7906 58.9285 78.066ZM60.2401 67.8362C59.4886 70.3473 58.9254 73.2166 58.8778 76.1042C57.304 74.9972 56.5242 72.9777 57.0816 71.023C57.5352 69.4326 58.7635 68.2727 60.2401 67.8362ZM88.38 80.4294C87.7419 82.6669 85.5705 84.0522 83.3312 83.7701C84.9847 81.1808 86.1231 78.26 86.8648 75.5624C88.2484 76.7031 88.9032 78.5948 88.38 80.4294Z" fill="url(#paint0_linear)"/>
<path d="M75.3851 71.079L71.9074 82.9244L68.5225 81.9614L70.8013 74.1995C70.1354 74.4462 69.5085 74.6208 68.9205 74.7233C68.3381 74.8273 67.6272 74.8833 66.7881 74.8913L67.5671 72.2378C68.8106 72.2071 69.8203 72.0324 70.5964 71.7137C71.3724 71.395 72.0457 70.9209 72.6163 70.2913L75.3851 71.079Z" fill="#FCCB73"/>
<ellipse cx="55.5" cy="109" rx="10.5" ry="10" fill="#664407"/>
<path d="M53.0002 113.5C52.5002 117 51.4002 124.7 51.0002 127.5C50.6002 130.3 50.8335 135.333 51.0002 137.5" stroke="black"/>
<path d="M50.8834 140.5C49.2834 136.9 50.2168 134.667 50.8834 134C53.6832 135.2 53.7169 142.5 53.3838 146C53.217 145.667 52.4834 144.1 50.8834 140.5Z" fill="#EC1455"/>
<defs>
<linearGradient id="paint0_linear" x1="62.5306" y1="63.4153" x2="78.2599" y2="97.7331" gradientUnits="userSpaceOnUse">
<stop stop-color="#FFFFE3"/>
<stop offset="0.12291" stop-color="#FDCF74"/>
<stop offset="0.624519" stop-color="#CD8300"/>
</linearGradient>
</defs>
</svg>
