<svg width="1440" height="657" viewBox="0 0 1440 657" fill="none" xmlns="http://www.w3.org/2000/svg">
<path d="M250 642.385C132.4 633.585 -33.6665 544.052 -102 500.385C-116.666 323.718 -137.2 -13.815 -102 49.3851C-57.9998 128.385 458 147.885 622.5 62.3851C787 -23.1149 977 -14.1149 1263.5 49.3851C1433.29 87.0164 1508.92 142.884 1536.8 183.819C1571.75 199.317 1565.16 212.795 1550.5 219.885C1550.46 210.639 1546.55 198.143 1536.8 183.819C1510.94 172.357 1462.36 159.789 1377.5 147.885C847 73.4661 939.5 574.885 812.5 624.885C685.5 674.885 397 653.385 250 642.385Z" fill="url(#paint0_linear)"/>
<path d="M679.593 511.29C679.593 511.29 617.063 440.879 665.681 321.306L678.187 340.482L668.715 312.126C668.715 312.126 696.909 254.079 731.17 218.54C731.17 218.54 727.692 289.544 726.212 295.467L709.562 322.861L726.435 305.314C726.435 305.24 739.68 385.72 679.593 511.29Z" fill="#DA6C33"/>
<path d="M681.147 515.289C679.593 511.29 660.131 369.728 729.617 225.13L731.096 218.614" stroke="#C15729" stroke-miterlimit="10"/>
<path d="M865.702 529.208C865.702 529.208 892.786 506.256 912.396 477.158L896.116 474.123L914.542 473.53C914.542 473.53 939.48 429.921 937.926 408.524C937.926 408.524 886.496 441.323 876.654 455.169C866.812 469.014 864.222 476.936 864.222 476.936L866.738 489.301L861.484 479.305C861.484 479.305 848.386 507.514 847.128 515.955C845.944 524.395 846.832 537.722 846.832 537.722C846.832 537.722 859.93 534.39 865.702 529.208Z" fill="#D52F52"/>
<path d="M659.834 526.765C659.834 526.765 707.934 404.23 753.666 362.768L756.034 387.275L759.734 357.141C759.734 357.141 788.298 334.189 810.794 326.119C810.794 326.119 795.476 386.387 783.562 405.489C771.574 424.665 761.362 442.36 761.362 442.36L740.716 436.733L757.662 446.358C757.662 446.358 687.14 518.472 659.834 526.765Z" fill="url(#paint1_linear)"/>
<path d="M235.15 498.407C235.15 498.407 193.636 373.504 202.294 312.273L219.758 329.525L203.33 303.981C203.33 303.981 210.582 268.072 222.718 247.415C222.718 247.415 249.506 303.463 252.614 325.897C255.648 348.256 259.2 368.469 259.2 368.469L239.738 377.354L258.904 373.874C258.83 373.948 250.838 474.567 235.15 498.407Z" fill="url(#paint2_linear)"/>
<path d="M875.174 374.466C873.62 375.651 865.184 400.528 865.554 406.747C865.924 412.893 868.144 434.586 868.144 434.586C868.144 434.586 872.806 410.153 873.176 404.748C873.546 399.343 875.174 374.466 875.174 374.466Z" fill="#FFCD6A"/>
<path d="M854.899 398.159C856.823 392.902 855.491 411.264 859.709 417.631C863.927 424.072 863.261 441.027 863.261 441.027C863.261 441.027 860.005 438.954 856.897 432.439C853.863 425.997 852.383 405.118 854.899 398.159Z" fill="#FFCD6A"/>
<path d="M876.729 420C877.025 418.297 875.767 407.266 879.689 394.383C883.537 381.426 888.273 375.281 888.273 375.281C888.273 375.281 884.425 406.377 882.205 411.338C879.911 416.15 876.729 420 876.729 420Z" fill="#FFCD6A"/>
<path d="M883.536 411.042C885.312 406.747 888.494 396.974 895.302 393.124C902.036 389.274 907.216 386.461 907.216 386.461C907.216 386.461 900.704 394.605 897.152 399.418C893.452 404.156 883.536 411.042 883.536 411.042Z" fill="#FFCD6A"/>
<path d="M878.282 419.112C878.282 419.112 877.838 417.557 883.314 416.521C888.79 415.484 892.564 415.04 898.188 416.372C903.812 417.705 913.136 422.444 913.136 422.444L895.228 423.554L878.282 419.112Z" fill="#FFCD6A"/>
<path d="M871.475 426.96C871.475 426.96 881.687 425.923 888.347 427.182C895.007 428.441 899.817 429.625 905.071 431.772C910.325 433.92 911.656 436.437 911.656 436.437C911.656 436.437 896.265 437.177 893.675 437.622C891.085 437.992 889.975 434.734 885.387 433.623C880.873 432.587 871.475 426.96 871.475 426.96Z" fill="#FFCD6A"/>
<path d="M865.554 437.992C865.258 436.733 871.696 434.142 876.432 435.474C881.168 436.807 887.532 436.511 891.824 438.362C896.042 440.213 903.22 442.582 903.22 442.582C903.22 442.582 896.264 441.694 889.752 442.508C883.24 443.323 880.65 444.359 875.322 442.138C869.994 439.991 865.554 437.992 865.554 437.992Z" fill="#FFCD6A"/>
<path d="M860.596 447.173C864 445.47 862.89 445.248 870.142 445.692C877.32 446.136 883.314 446.062 887.384 446.58C891.454 447.024 897.892 448.579 899.52 447.395C901.148 446.21 896.634 450.356 896.634 450.356L884.276 453.984L869.328 453.836L860.596 447.173Z" fill="#FFCD6A"/>
<path d="M858.302 447.839C857.266 445.544 854.528 437.399 851.198 433.327C847.868 429.255 844.094 422.147 840.32 418.149C836.547 414.151 833.438 413.041 833.438 413.041C833.438 413.041 841.652 438.51 847.646 443.767C853.64 449.023 858.302 447.839 858.302 447.839Z" fill="#FFCD6A"/>
<path d="M855.121 459.315C856.231 458.056 862.743 456.205 877.321 459.167C891.899 462.128 902.555 463.905 902.555 463.905L869.699 470.421C869.699 470.421 848.831 466.719 855.121 459.315Z" fill="#FFCD6A"/>
<path d="M854.454 457.464C855.342 456.798 856.082 454.65 839.728 444.877C823.449 435.104 820.562 437.251 820.562 437.251C820.562 437.251 837.434 459.167 844.316 459.315C851.198 459.463 849.57 461.24 854.454 457.464Z" fill="#FFCD6A"/>
<path d="M885.608 407.191C885.608 407.191 860.67 437.103 854.454 457.464C848.164 477.825 842.541 502.776 842.541 502.776L841.875 506.774C841.875 506.774 853.566 466.645 855.268 461.388C856.97 456.131 860.374 444.507 875.026 423.85C889.604 403.193 889.382 404.674 889.382 404.674L885.608 407.191Z" fill="#FFCD6A"/>
<path d="M687.436 464.72C687.436 464.72 692.394 434.068 705.196 404.822L714.52 413.707L706.898 401.343C706.898 401.343 727.988 360.399 744.416 349.293C744.416 349.293 742.862 401.417 737.016 415.632C731.17 429.848 726.434 436.067 726.434 436.067L716.296 441.398L725.916 439.102C725.916 439.102 710.968 463.609 705.27 469.236C699.572 474.789 689.434 481.823 689.434 481.823C689.434 481.823 686.178 471.457 687.436 464.72Z" fill="#D52F52"/>
<path d="M231.524 504.183C229.97 500.703 180.39 434.438 180.39 434.438L199.186 412.522L176.394 429.181L173.952 426.516L198.742 404.008L170.844 422.147L164.924 413.855L191.934 389.348L158.264 402.971L155.082 398.603L172.398 390.977L153.158 395.568L138.136 374.54L135.028 369.284L151.382 354.402L131.032 364.841L85.6699 315.679C85.6699 315.679 170.326 339.668 209.472 386.387C248.618 433.105 257.35 514.77 257.35 514.77L248.47 522.767L231.524 504.183Z" fill="url(#paint3_linear)"/>
<path d="M188.011 388.978C187.863 390.607 198.075 410.449 202.071 413.855C206.067 417.261 220.645 428.663 220.645 428.663C220.645 428.663 208.509 411.412 205.327 408.006C202.219 404.526 188.011 388.978 188.011 388.978Z" fill="#347FAA"/>
<path d="M190.675 415.262C188.603 410.968 199.037 422.592 205.401 423.776C211.839 424.961 221.829 435.326 221.829 435.326C221.829 435.326 218.647 436.141 212.801 434.216C206.955 432.291 193.339 420.963 190.675 415.262Z" fill="#347FAA"/>
<path d="M216.797 414.744C215.909 413.559 208.509 407.858 202.811 397.863C197.113 387.867 196.151 381.352 196.151 381.352C196.151 381.352 212.875 402.009 214.577 406.303C216.353 410.523 216.797 414.744 216.797 414.744Z" fill="#347FAA"/>
<path d="M215.317 405.341C213.689 401.713 209.619 394.013 211.247 387.571C212.875 381.13 214.133 376.391 214.133 376.391C214.133 376.391 215.243 385.128 216.131 390.163C216.945 395.197 215.317 405.341 215.317 405.341Z" fill="#347FAA"/>
<path d="M217.167 413.263C217.167 413.263 215.909 412.596 218.573 408.672C221.163 404.674 223.087 402.157 227.231 399.491C231.375 396.826 239.737 393.865 239.737 393.865L229.895 405.489L217.167 413.263Z" fill="#347FAA"/>
<path d="M217.981 422.073C217.981 422.073 223.383 415.188 228.045 411.856C232.707 408.524 236.333 406.229 240.699 404.304C245.139 402.379 247.433 402.971 247.433 402.971C247.433 402.971 238.849 412.818 237.591 414.669C236.333 416.52 233.669 415.262 230.265 417.409C226.935 419.63 217.981 422.073 217.981 422.073Z" fill="#347FAA"/>
<path d="M221.237 432.143C220.275 431.624 222.495 426.146 226.121 423.998C229.747 421.851 233.299 417.779 236.925 416.298C240.551 414.744 246.249 411.782 246.249 411.782C246.249 411.782 241.587 415.484 238.257 420C234.927 424.517 234.039 426.664 229.599 428.589C225.085 430.588 221.237 432.143 221.237 432.143Z" fill="#347FAA"/>
<path d="M223.976 440.583C224.938 437.474 224.124 438.066 228.712 433.92C233.226 429.774 236.704 426.072 239.368 423.85C242.032 421.629 246.768 418.594 246.99 416.891C247.212 415.188 247.138 420.445 247.138 420.445L242.106 430.07L233.226 439.176L223.976 440.583Z" fill="#347FAA"/>
<path d="M223.013 442.434C221.015 441.694 214.429 438.584 209.989 438.214C205.549 437.844 198.964 435.993 194.302 435.993C189.64 435.993 187.124 437.177 187.124 437.177C187.124 437.177 207.473 447.098 214.281 446.58C220.941 445.988 223.013 442.434 223.013 442.434Z" fill="#347FAA"/>
<path d="M228.194 451.097C228.046 449.69 230.784 444.581 241.144 437.399C251.578 430.218 258.83 424.739 258.83 424.739L243.512 448.653C243.512 448.727 229.008 459.315 228.194 451.097Z" fill="#347FAA"/>
<path d="M226.565 450.43C226.639 449.468 225.825 447.839 210.212 452.059C194.672 456.279 194.228 459.315 194.228 459.315C194.228 459.315 217.537 461.832 221.755 457.76C225.973 453.614 226.047 455.687 226.565 450.43Z" fill="#347FAA"/>
<path d="M214.208 401.787C214.208 401.787 217.834 434.586 226.639 450.43C235.445 466.275 247.359 484.34 247.359 484.34L249.431 487.079C249.431 487.079 231.745 456.279 229.525 452.207C227.305 448.135 222.199 439.102 218.13 418.001C214.06 396.9 214.874 397.937 214.874 397.937L214.208 401.787Z" fill="#347FAA"/>
<path d="M586.481 649.71H855.248V617.947H586.481V649.71Z" fill="white"/>
<path d="M586.536 649.71H702.567V617.947H586.536V649.71Z" fill="#F9F3E3"/>
<path d="M581.914 654.989H860.449V649.51H581.914V654.989Z" fill="#347FAA"/>
<path d="M581.914 618.147H860.449V612.668H581.914V618.147Z" fill="#347FAA"/>
<path d="M581.906 652.239H586.716V617.959H581.906V652.239Z" fill="#347FAA"/>
<path d="M610.039 507.233L878.807 507.233V475.47L610.039 475.47V507.233Z" fill="white"/>
<path d="M610.095 507.233H726.126V475.47H610.095V507.233Z" fill="#F9F3E3"/>
<path d="M605.399 512.512H883.934V507.033L605.399 507.033V512.512Z" fill="#347FAA"/>
<path d="M605.399 475.67L883.934 475.67V470.192L605.399 470.192V475.67Z" fill="#347FAA"/>
<path d="M605.391 509.762H610.201V475.482H605.391V509.762Z" fill="#347FAA"/>
<path d="M905.144 578.222V575.112H886.2H830.182H669.528C655.616 575.112 652.36 583.552 652.36 593.918C652.36 604.283 655.616 612.724 669.528 612.724H830.182H886.2H905.144V609.614H886.2V578.222H905.144Z" fill="#DA6C33"/>
<path d="M896.116 609.614H788.15C779.492 609.614 772.462 602.581 772.462 593.918C772.462 585.255 779.492 578.222 788.15 578.222H896.116V609.614Z" fill="white"/>
<path d="M887.162 517.658V512.475H868.218H812.2H651.546C637.635 512.475 626.312 526.542 626.312 543.793C626.312 561.044 637.635 575.112 651.546 575.112H812.2H868.218H887.162V569.929H868.218V517.658H887.162Z" fill="#74BEC9"/>
<path d="M878.134 569.929H781.564C766.616 569.929 754.406 557.713 754.406 542.757V542.091C754.406 528.69 765.358 517.658 778.826 517.658H878.06V569.929H878.134Z" fill="white"/>
<path d="M45.1232 585.809H313.891V554.046H45.1232V585.809Z" fill="white"/>
<path d="M45.1787 585.809H161.21V554.046H45.1787V585.809Z" fill="#F9F3E3"/>
<path d="M40.4832 591.014H319.019V585.535H40.4832V591.014Z" fill="#347FAA"/>
<path d="M40.4832 554.247H319.019V548.768H40.4832V554.247Z" fill="#347FAA"/>
<path d="M40.4752 588.338H45.2852L45.2852 554.058H40.4752L40.4752 588.338Z" fill="#347FAA"/>
<path d="M267.783 515.807V512.697H248.839H192.822H32.168C18.256 512.697 15 521.137 15 531.503C15 541.868 18.256 550.309 32.168 550.309H192.822H248.839H267.783V547.199H248.839V515.807H267.783Z" fill="#DA6C33"/>
<path d="M258.755 547.199H150.79C142.132 547.199 135.102 540.165 135.102 531.503C135.102 522.84 142.132 515.807 150.79 515.807H258.755V547.199Z" fill="white"/>
<path d="M346.297 597.546V592.363H327.353H271.335H110.682C96.7697 592.363 85.4478 606.43 85.4478 623.682C85.4478 640.933 96.7697 655 110.682 655H271.335H327.353H346.297V649.817H327.353V597.546H346.297Z" fill="#FFCD6A"/>
<path d="M337.343 649.817H240.773C225.825 649.817 213.615 637.601 213.615 622.645V621.979C213.615 608.578 224.567 597.546 238.035 597.546H337.269V649.817H337.343Z" fill="white"/>
<path d="M324.467 476.196V472.938H305.523H249.505H88.8516C74.9397 472.938 63.6177 481.897 63.6177 492.781C63.6177 503.738 74.9397 512.623 88.8516 512.623H249.505H305.523H324.467V509.365H305.523V476.196H324.467Z" fill="#74BEC9"/>
<path d="M315.439 509.366H209.249C199.629 509.366 191.785 501.517 191.785 491.892C191.785 483.23 198.815 476.196 207.473 476.196H315.439V509.366Z" fill="white"/>
<path d="M443.163 447.987C443.163 447.987 439.759 444.803 437.243 458.278C434.801 471.828 433.395 462.647 433.395 462.647C433.395 462.647 433.247 449.172 436.651 448.283C439.981 447.469 443.163 447.987 443.163 447.987Z" fill="#347FAA"/>
<path d="M326.435 436.779L595.203 436.779V412.716L326.435 412.716V436.779Z" fill="white"/>
<path d="M326.491 436.779H442.522V412.716H326.491V436.779Z" fill="#F9F3E3"/>
<path d="M321.795 440.797L600.33 440.797V436.651L321.795 436.651V440.797Z" fill="#FFCD6A"/>
<path d="M321.795 412.844L600.33 412.844V408.698L321.795 408.698V412.844Z" fill="#FFCD6A"/>
<path d="M321.787 438.698H326.597V412.71H321.787V438.698Z" fill="#FFCD6A"/>
<path d="M433.099 479.157V458.871C433.099 449.246 440.943 441.397 450.563 441.397H466.695C475.353 441.397 482.382 448.431 482.382 457.094V479.157H433.099Z" fill="#347FAA"/>
<path d="M435.541 655V463.757C435.541 454.132 443.385 446.284 453.005 446.284H464.327C472.985 446.284 480.015 453.318 480.015 461.98V654.926H435.541V655Z" fill="white"/>
<path d="M416.893 654.186C418.077 654.334 419.187 653.371 419.261 652.186L437.169 458.278C437.317 457.094 436.355 455.983 435.171 455.909C433.987 455.761 432.877 456.724 432.803 457.908L414.895 651.816C414.821 653.001 415.709 654.037 416.893 654.186Z" fill="#347FAA"/>
<path d="M499.107 654.186C497.923 654.334 496.813 653.371 496.739 652.186L478.831 458.278C478.683 457.094 479.645 455.983 480.829 455.909C482.013 455.761 483.123 456.724 483.197 457.908L501.105 651.816C501.179 653.001 500.291 654.037 499.107 654.186Z" fill="#347FAA"/>
<path d="M472.837 447.987C472.837 447.987 476.241 444.803 478.757 458.278C481.199 471.828 482.605 462.647 482.605 462.647C482.605 462.647 482.753 449.172 479.349 448.283C476.019 447.469 472.837 447.987 472.837 447.987Z" fill="#347FAA"/>
<path fill-rule="evenodd" clip-rule="evenodd" d="M508.875 366.248L525.969 406.155C526.572 407.483 527.961 408.269 529.376 408.154H572.588C574.364 408.154 575.844 406.673 575.918 404.822C575.918 402.971 574.438 401.49 572.588 401.49H531.222L515.017 363.657C514.277 361.954 512.353 361.139 510.651 361.88C508.949 362.62 508.135 364.545 508.875 366.248Z" fill="#A3BCC1"/>
<path fill-rule="evenodd" clip-rule="evenodd" d="M386.417 392.54L380.416 406.55C379.676 408.178 377.752 408.993 376.05 408.326C374.348 407.586 373.534 405.661 374.274 403.958L391.368 364.051C392.108 362.348 394.032 361.534 395.734 362.274C397.436 363.015 398.25 364.94 397.51 366.642L387.633 389.701C387.897 389.818 388.133 390.009 388.305 390.269L399.078 406.38C399.535 407.072 399.381 407.946 398.7 408.347C398.02 408.748 397.11 408.539 396.653 407.848L386.417 392.54Z" fill="#A3BCC1"/>
<path d="M542.471 136.268C559.105 136.268 572.589 122.776 572.589 106.134C572.589 89.4914 559.105 76 542.471 76C525.837 76 512.353 89.4914 512.353 106.134C512.353 122.776 525.837 136.268 542.471 136.268Z" fill="url(#paint4_linear)"/>
<path d="M542.471 129.974C555.631 129.974 566.299 119.301 566.299 106.134C566.299 92.967 555.631 82.2932 542.471 82.2932C529.311 82.2932 518.643 92.967 518.643 106.134C518.643 119.301 529.311 129.974 542.471 129.974Z" fill="#E5B35A"/>
<path d="M538.475 103.542C538.845 102.21 538.253 101.321 537.735 100.433C536.921 99.1001 536.921 99.1001 538.327 98.5818C538.993 98.3597 539.511 97.9895 540.029 97.5453C540.177 97.4712 540.251 97.2491 540.103 97.101C539.955 96.9529 539.807 97.027 539.659 97.101C539.437 97.2491 539.215 97.3972 538.993 97.5453C535.959 99.5443 532.555 97.027 532.185 94.4356C532.037 93.6212 531.963 92.8068 532.333 91.9923C533.073 90.1414 535.071 89.401 536.921 90.4375C537.587 90.8077 537.883 90.8077 538.401 90.2154C539.437 89.0308 540.917 88.8087 542.249 89.475C543.581 90.2154 544.247 91.6221 543.877 93.177C542.027 100.655 540.177 108.133 538.253 115.611C537.587 118.202 536.255 119.387 534.257 119.461C532.185 119.535 530.483 118.424 529.891 116.647C529.595 115.611 529.669 115.389 530.779 115.092C534.849 113.982 536.329 109.54 533.665 106.578C532.999 105.838 532.185 105.467 531.297 105.171C531.075 105.097 530.705 105.023 530.631 105.319C530.557 105.69 530.927 105.616 531.223 105.69C534.183 106.652 535.441 110.058 533.739 112.575C532.629 114.204 530.853 114.722 529.003 114.648C527.375 114.574 526.043 113.834 525.377 112.353C524.637 110.798 524.785 109.243 525.821 107.911C526.191 107.466 526.117 107.244 525.673 106.874C523.009 104.505 523.823 100.655 527.227 99.6184C527.893 99.3962 527.967 99.2482 527.671 98.5818C526.783 96.3606 528.411 94.0654 530.705 94.1395C531.297 94.1395 531.593 94.3616 531.741 94.9539C532.111 96.3606 532.925 97.4712 534.183 98.1376C536.181 99.2482 537.661 100.729 538.105 103.024C538.179 103.172 538.327 103.246 538.475 103.542ZM558.603 100.877C558.085 99.2482 556.901 98.2116 555.495 98.1376C554.459 98.0635 554.163 98.3597 554.237 99.3962C554.533 102.358 554.385 105.245 553.645 108.133C552.609 112.131 550.241 114.796 546.319 116.277C544.099 117.092 541.805 117.61 539.437 117.98C538.475 118.128 538.327 118.498 538.845 119.313C539.511 120.423 540.473 121.238 541.435 121.904C544.321 123.903 545.727 123.755 547.873 121.016C548.983 119.535 550.389 118.646 552.165 118.202C553.867 117.832 555.347 117.092 556.753 115.981C558.825 114.352 559.269 111.909 557.641 110.206C557.271 109.836 557.197 109.391 557.641 109.021C558.233 108.503 558.381 107.689 558.603 106.948C558.899 104.949 559.269 102.876 558.603 100.877ZM539.881 115.389C540.177 115.685 540.621 115.759 540.991 115.833C544.321 116.351 549.427 113.76 550.981 110.724C552.609 107.466 552.461 104.135 551.203 100.803C551.203 100.803 551.129 100.803 550.981 100.729C550.833 101.247 550.759 101.765 550.611 102.284C549.427 106.282 547.207 107.985 543.507 107.763C542.915 107.763 542.323 107.466 541.731 107.615C541.879 107.911 541.805 108.059 541.509 108.207C541.287 109.243 540.991 110.28 540.769 111.317C540.917 111.465 540.917 111.613 540.695 111.687C540.325 112.871 540.029 113.982 539.807 115.167C539.733 115.241 539.807 115.315 539.881 115.389ZM548.095 91.2519C546.245 90.5856 545.801 90.8818 545.209 92.6587C544.913 93.5472 545.209 93.7693 546.023 93.8433C548.391 94.0654 549.945 95.3981 550.981 97.4712C551.351 98.1376 551.721 98.8039 552.091 99.6184C553.497 96.2126 551.647 92.5106 548.095 91.2519ZM549.871 100.581C550.093 97.6193 548.317 95.5462 545.431 95.176C544.691 95.102 544.395 95.3241 544.321 95.9904C544.173 96.8049 544.913 96.3606 545.135 96.3606C547.281 96.5828 548.687 98.3597 548.243 100.285C547.873 101.765 547.059 102.95 546.023 104.061C545.801 104.357 545.505 104.579 545.283 104.875C545.061 105.171 544.765 105.541 545.061 105.986C545.357 106.356 545.727 106.134 546.097 106.06C548.169 105.467 549.131 103.913 549.723 101.84C549.723 101.469 549.797 101.025 549.871 100.581ZM542.175 105.986C542.471 106.06 542.693 105.838 542.841 105.69C544.173 104.431 545.431 103.098 546.393 101.543C546.763 100.951 546.985 100.285 547.059 99.6184C547.207 98.7299 546.689 97.9155 545.949 97.5453C545.135 97.101 544.691 97.8414 544.247 98.3597C543.877 98.8039 543.581 99.2482 543.433 99.8405C543.581 100.063 543.507 100.137 543.285 100.211C543.285 100.359 543.211 100.433 543.211 100.581C543.507 100.655 543.581 100.877 543.507 101.099C543.877 100.433 544.247 99.7664 544.617 99.1001C544.765 98.8039 544.987 98.5818 545.357 98.7299C545.801 98.878 545.653 99.2482 545.579 99.6184C545.357 100.803 544.321 101.617 543.359 101.469C543.211 101.543 543.063 101.691 542.915 101.765C542.693 102.802 542.397 103.839 542.175 104.875C542.471 105.319 542.249 105.69 542.175 105.986ZM543.581 101.247C543.581 100.951 543.581 100.803 543.285 100.729C543.211 101.099 543.063 101.543 542.989 101.914C543.137 101.84 543.285 101.691 543.433 101.617C543.507 101.469 543.581 101.321 543.581 101.247ZM542.175 105.986C542.249 105.616 542.471 105.319 542.249 104.949C542.175 105.319 541.805 105.69 542.175 105.986ZM543.359 100.285C543.581 100.211 543.655 100.137 543.507 99.9145C543.507 100.063 543.433 100.211 543.359 100.285Z" fill="#664407"/>
<path d="M538.623 103.542C538.993 102.21 538.401 101.321 537.883 100.433C537.069 99.1001 537.069 99.1001 538.475 98.5818C539.141 98.3597 539.659 97.9895 540.177 97.5453C540.325 97.4712 540.399 97.2491 540.251 97.101C540.103 96.9529 539.955 97.027 539.807 97.101C539.585 97.2491 539.363 97.3972 539.141 97.5453C536.107 99.5443 532.703 97.027 532.333 94.4356C532.185 93.6212 532.111 92.8068 532.481 91.9923C533.221 90.1414 535.219 89.401 537.069 90.4375C537.735 90.8077 538.031 90.8077 538.549 90.2154C539.585 89.0308 541.065 88.8087 542.397 89.475C543.729 90.2154 544.395 91.6221 544.025 93.177C542.175 100.655 540.325 108.133 538.401 115.611C537.735 118.202 536.403 119.387 534.405 119.461C532.333 119.535 530.631 118.424 530.039 116.647C529.743 115.611 529.817 115.389 530.927 115.092C534.997 113.982 536.477 109.54 533.813 106.578C533.147 105.838 532.333 105.467 531.445 105.171C531.223 105.097 530.853 105.023 530.779 105.319C530.705 105.69 531.075 105.616 531.371 105.69C534.331 106.652 535.589 110.058 533.887 112.575C532.777 114.204 531.001 114.722 529.151 114.648C527.523 114.574 526.191 113.834 525.525 112.353C524.785 110.798 524.933 109.243 525.969 107.911C526.339 107.466 526.265 107.244 525.821 106.874C523.157 104.505 523.971 100.655 527.375 99.6184C528.041 99.3962 528.115 99.2482 527.819 98.5818C526.931 96.3606 528.559 94.0654 530.853 94.1395C531.445 94.1395 531.741 94.3616 531.889 94.9539C532.259 96.3606 533.073 97.4712 534.331 98.1376C536.329 99.2482 537.809 100.729 538.253 103.024C538.327 103.172 538.475 103.246 538.623 103.542ZM558.751 100.877C558.233 99.2482 557.049 98.2116 555.643 98.1376C554.607 98.0635 554.311 98.3597 554.385 99.3962C554.681 102.358 554.533 105.245 553.793 108.133C552.757 112.131 550.389 114.796 546.467 116.277C544.247 117.092 541.953 117.61 539.585 117.98C538.623 118.128 538.475 118.498 538.993 119.313C539.659 120.423 540.621 121.238 541.583 121.904C544.469 123.903 545.875 123.755 548.021 121.016C549.131 119.535 550.537 118.646 552.313 118.202C554.015 117.832 555.495 117.092 556.901 115.981C558.973 114.352 559.417 111.909 557.789 110.206C557.419 109.836 557.345 109.391 557.789 109.021C558.381 108.503 558.529 107.689 558.751 106.948C559.047 105.023 559.417 102.95 558.751 100.877ZM540.029 115.389C540.325 115.685 540.769 115.759 541.139 115.833C544.469 116.351 549.575 113.76 551.129 110.724C552.757 107.466 552.609 104.135 551.351 100.803C551.351 100.803 551.277 100.803 551.129 100.729C550.981 101.247 550.907 101.765 550.759 102.284C549.575 106.282 547.355 107.985 543.655 107.763C543.063 107.763 542.471 107.466 541.879 107.615C542.027 107.911 541.953 108.059 541.657 108.207C541.435 109.243 541.139 110.28 540.917 111.317C541.065 111.465 541.065 111.613 540.843 111.687C540.473 112.871 540.177 113.982 539.955 115.167C539.881 115.241 539.955 115.315 540.029 115.389ZM548.243 91.326C546.393 90.6596 545.949 90.9558 545.357 92.7327C545.061 93.6212 545.357 93.8433 546.171 93.9173C548.539 94.1395 550.093 95.4722 551.129 97.5453C551.499 98.2116 551.869 98.878 552.239 99.6924C553.645 96.2866 551.795 92.5846 548.243 91.326ZM550.019 100.655C550.241 97.6933 548.465 95.6202 545.579 95.2501C544.839 95.176 544.543 95.3981 544.469 96.0645C544.321 96.8789 545.061 96.4347 545.283 96.4347C547.429 96.6568 548.835 98.4337 548.391 100.359C548.021 101.84 547.207 103.024 546.171 104.135C545.949 104.431 545.653 104.653 545.431 104.949C545.209 105.245 544.913 105.616 545.209 106.06C545.505 106.43 545.875 106.208 546.245 106.134C548.317 105.541 549.279 103.987 549.871 101.914C549.871 101.543 550.019 101.099 550.019 100.655ZM542.323 106.06C542.619 106.134 542.841 105.912 542.989 105.764C544.321 104.505 545.579 103.172 546.541 101.617C546.911 101.025 547.133 100.359 547.207 99.6924C547.355 98.8039 546.837 97.9895 546.097 97.6193C545.283 97.1751 544.839 97.9155 544.395 98.4337C544.025 98.878 543.729 99.3222 543.581 99.9145C543.729 100.137 543.655 100.211 543.433 100.285C543.433 100.433 543.359 100.507 543.359 100.655C543.655 100.729 543.729 100.951 543.655 101.173C544.025 100.507 544.395 99.8405 544.765 99.1741C544.913 98.878 545.135 98.6558 545.505 98.8039C545.949 98.952 545.801 99.3222 545.727 99.6924C545.505 100.877 544.469 101.691 543.507 101.543C543.359 101.617 543.211 101.765 543.063 101.84C542.841 102.876 542.545 103.913 542.323 104.949C542.693 105.393 542.397 105.69 542.323 106.06ZM543.803 101.321C543.803 101.025 543.803 100.877 543.507 100.803C543.433 101.173 543.285 101.617 543.211 101.988C543.359 101.914 543.507 101.765 543.655 101.691C543.655 101.469 543.729 101.395 543.803 101.321ZM542.323 106.06C542.397 105.69 542.619 105.393 542.397 105.023C542.323 105.393 541.953 105.69 542.323 106.06ZM543.507 100.359C543.729 100.285 543.803 100.211 543.655 99.9885C543.655 100.063 543.581 100.211 543.507 100.359Z" fill="#FFD277"/>
<path d="M578.509 252.006C589.298 252.006 598.045 243.255 598.045 232.46C598.045 221.665 589.298 212.913 578.509 212.913C567.719 212.913 558.973 221.665 558.973 232.46C558.973 243.255 567.719 252.006 578.509 252.006Z" fill="url(#paint5_linear)"/>
<path d="M578.509 247.934C587.051 247.934 593.975 241.006 593.975 232.46C593.975 223.913 587.051 216.985 578.509 216.985C569.967 216.985 563.043 223.913 563.043 232.46C563.043 241.006 569.967 247.934 578.509 247.934Z" fill="#E5B35A"/>
<path d="M575.919 230.757C576.141 229.868 575.771 229.276 575.401 228.758C574.883 227.869 574.883 227.943 575.771 227.573C576.215 227.425 576.585 227.203 576.881 226.907C576.955 226.833 577.029 226.759 576.955 226.611C576.881 226.462 576.733 226.537 576.659 226.611C576.511 226.685 576.363 226.833 576.215 226.907C574.291 228.165 572.071 226.611 571.775 224.908C571.701 224.389 571.627 223.871 571.849 223.353C572.293 222.168 573.625 221.65 574.809 222.316C575.253 222.538 575.401 222.538 575.771 222.168C576.437 221.428 577.399 221.28 578.213 221.724C579.027 222.168 579.471 223.131 579.249 224.093C578.065 228.906 576.881 233.792 575.623 238.605C575.179 240.308 574.365 241.048 573.033 241.122C571.701 241.196 570.591 240.456 570.221 239.271C569.999 238.605 570.073 238.457 570.813 238.309C573.403 237.642 574.439 234.681 572.663 232.83C572.219 232.386 571.701 232.089 571.109 231.941C570.961 231.867 570.739 231.793 570.665 232.015C570.591 232.238 570.887 232.238 571.035 232.312C572.959 232.904 573.773 235.125 572.663 236.754C571.923 237.864 570.813 238.161 569.555 238.087C568.519 238.013 567.631 237.568 567.187 236.606C566.743 235.569 566.817 234.607 567.483 233.718C567.705 233.422 567.705 233.274 567.409 233.052C565.707 231.497 566.225 229.054 568.445 228.313C568.889 228.165 568.889 228.091 568.741 227.647C568.149 226.24 569.185 224.76 570.739 224.76C571.109 224.76 571.331 224.908 571.405 225.278C571.627 226.166 572.145 226.907 572.959 227.351C574.291 228.091 575.179 229.054 575.549 230.535C575.771 230.535 575.845 230.609 575.919 230.757ZM589.017 229.054C588.721 228.017 587.907 227.277 587.019 227.277C586.353 227.277 586.131 227.425 586.205 228.091C586.427 230.016 586.279 231.867 585.835 233.792C585.169 236.384 583.615 238.161 581.099 239.049C579.619 239.567 578.139 239.938 576.659 240.16C575.993 240.234 575.919 240.456 576.289 241.048C576.733 241.715 577.325 242.307 577.991 242.751C579.841 244.084 580.729 243.936 582.135 242.159C582.875 241.196 583.763 240.604 584.873 240.382C585.983 240.16 586.945 239.641 587.833 238.975C589.165 237.939 589.461 236.31 588.351 235.273C588.129 235.051 588.055 234.755 588.351 234.459C588.721 234.089 588.869 233.57 588.943 233.126C589.165 231.719 589.387 230.387 589.017 229.054ZM576.807 238.457C577.029 238.679 577.251 238.679 577.547 238.753C579.693 239.049 583.023 237.42 584.059 235.421C585.095 233.348 585.021 231.201 584.207 228.98C584.207 228.98 584.133 228.98 584.059 228.906C583.985 229.202 583.911 229.572 583.837 229.868C583.097 232.46 581.617 233.57 579.249 233.422C578.879 233.422 578.509 233.2 578.139 233.348C578.213 233.496 578.213 233.644 577.991 233.718C577.843 234.385 577.621 235.051 577.473 235.717C577.547 235.865 577.547 235.939 577.399 235.939C577.177 236.68 576.955 237.42 576.807 238.235C576.807 238.309 576.807 238.383 576.807 238.457ZM582.135 222.835C580.951 222.39 580.655 222.612 580.285 223.797C580.137 224.389 580.285 224.537 580.803 224.537C582.357 224.686 583.319 225.574 583.985 226.907C584.207 227.351 584.429 227.795 584.725 228.313C585.687 226.018 584.503 223.649 582.135 222.835ZM583.319 228.832C583.467 226.907 582.357 225.574 580.433 225.352C579.989 225.278 579.767 225.5 579.693 225.87C579.619 226.388 580.063 226.092 580.211 226.092C581.617 226.24 582.505 227.351 582.209 228.684C581.987 229.646 581.469 230.387 580.803 231.127C580.655 231.275 580.433 231.497 580.359 231.645C580.211 231.867 579.989 232.089 580.211 232.312C580.359 232.534 580.655 232.386 580.877 232.312C582.209 231.941 582.801 230.905 583.245 229.572C583.245 229.424 583.319 229.128 583.319 228.832ZM578.361 232.386C578.583 232.46 578.657 232.312 578.805 232.163C579.693 231.349 580.507 230.461 581.099 229.498C581.321 229.128 581.469 228.684 581.543 228.239C581.617 227.647 581.321 227.129 580.803 226.907C580.285 226.611 579.989 227.129 579.693 227.425C579.471 227.721 579.249 228.017 579.175 228.388C579.249 228.536 579.249 228.61 579.101 228.61C579.101 228.684 579.027 228.758 579.027 228.832C579.249 228.906 579.249 229.054 579.249 229.202C579.471 228.758 579.693 228.313 579.989 227.869C580.063 227.721 580.285 227.499 580.433 227.573C580.729 227.647 580.655 227.943 580.581 228.165C580.433 228.906 579.767 229.498 579.175 229.35C579.101 229.424 578.953 229.498 578.879 229.572C578.731 230.238 578.509 230.905 578.361 231.571C578.583 231.941 578.361 232.163 578.361 232.386ZM579.249 229.276C579.249 229.128 579.249 228.98 579.027 228.906C578.953 229.128 578.879 229.424 578.805 229.646C578.879 229.572 579.027 229.498 579.101 229.424C579.175 229.424 579.249 229.35 579.249 229.276ZM578.361 232.386C578.361 232.163 578.583 231.941 578.361 231.719C578.361 231.941 578.065 232.163 578.361 232.386ZM579.101 228.684C579.249 228.61 579.323 228.536 579.175 228.462C579.175 228.536 579.175 228.61 579.101 228.684Z" fill="#664407"/>
<path d="M576.067 230.757C576.289 229.868 575.919 229.276 575.549 228.758C575.031 227.869 575.031 227.943 575.919 227.573C576.363 227.425 576.733 227.203 577.029 226.907C577.103 226.833 577.177 226.759 577.103 226.611C577.029 226.462 576.881 226.537 576.807 226.611C576.659 226.685 576.511 226.833 576.363 226.907C574.439 228.165 572.219 226.611 571.923 224.908C571.849 224.389 571.775 223.871 571.997 223.353C572.441 222.168 573.773 221.65 574.957 222.316C575.401 222.538 575.549 222.538 575.919 222.168C576.585 221.428 577.547 221.28 578.361 221.724C579.175 222.168 579.619 223.131 579.397 224.093C578.213 228.906 577.029 233.792 575.771 238.605C575.327 240.308 574.513 241.048 573.181 241.122C571.849 241.196 570.739 240.456 570.369 239.271C570.147 238.605 570.221 238.457 570.961 238.309C573.551 237.642 574.587 234.681 572.811 232.83C572.367 232.386 571.849 232.089 571.257 231.941C571.109 231.867 570.887 231.793 570.813 232.015C570.739 232.238 571.035 232.238 571.183 232.312C573.107 232.904 573.921 235.125 572.811 236.754C572.071 237.864 570.961 238.161 569.703 238.087C568.667 238.013 567.779 237.568 567.335 236.606C566.891 235.569 566.965 234.607 567.631 233.718C567.853 233.422 567.853 233.274 567.557 233.052C565.855 231.497 566.373 229.054 568.593 228.313C569.037 228.165 569.037 228.091 568.889 227.647C568.297 226.24 569.333 224.76 570.887 224.76C571.257 224.76 571.479 224.908 571.553 225.278C571.775 226.166 572.293 226.907 573.107 227.351C574.439 228.091 575.327 229.054 575.697 230.535C575.845 230.535 575.919 230.609 576.067 230.757ZM589.091 229.054C588.795 228.017 587.981 227.277 587.093 227.277C586.427 227.277 586.205 227.425 586.279 228.091C586.501 230.016 586.353 231.867 585.909 233.792C585.243 236.384 583.689 238.161 581.173 239.049C579.693 239.567 578.213 239.938 576.733 240.16C576.067 240.234 575.993 240.456 576.363 241.048C576.807 241.715 577.399 242.307 578.065 242.751C579.915 244.084 580.803 243.936 582.209 242.159C582.949 241.196 583.837 240.604 584.947 240.382C586.057 240.16 587.019 239.641 587.907 238.975C589.239 237.939 589.535 236.31 588.425 235.273C588.203 235.051 588.129 234.755 588.425 234.459C588.795 234.089 588.943 233.57 589.017 233.126C589.239 231.719 589.535 230.387 589.091 229.054ZM576.955 238.457C577.177 238.679 577.399 238.679 577.695 238.753C579.841 239.049 583.171 237.42 584.207 235.421C585.243 233.348 585.169 231.201 584.355 228.98C584.355 228.98 584.281 228.98 584.207 228.906C584.133 229.202 584.059 229.572 583.985 229.868C583.245 232.46 581.765 233.57 579.397 233.422C579.027 233.422 578.657 233.2 578.287 233.348C578.361 233.496 578.361 233.644 578.139 233.718C577.991 234.385 577.769 235.051 577.621 235.717C577.695 235.865 577.695 235.939 577.547 235.939C577.325 236.68 577.103 237.42 576.955 238.235C576.881 238.383 576.881 238.383 576.955 238.457ZM582.283 222.835C581.099 222.39 580.803 222.612 580.433 223.797C580.285 224.389 580.433 224.537 580.951 224.537C582.505 224.686 583.467 225.574 584.133 226.907C584.355 227.351 584.577 227.795 584.873 228.313C585.761 226.092 584.577 223.649 582.283 222.835ZM583.393 228.906C583.541 226.981 582.431 225.648 580.507 225.426C580.063 225.352 579.841 225.574 579.767 225.944C579.693 226.462 580.137 226.166 580.285 226.166C581.691 226.314 582.579 227.425 582.283 228.758C582.061 229.72 581.543 230.461 580.877 231.201C580.729 231.349 580.507 231.571 580.433 231.719C580.285 231.941 580.063 232.163 580.285 232.386C580.433 232.608 580.729 232.46 580.951 232.386C582.283 232.015 582.875 230.979 583.319 229.646C583.319 229.424 583.393 229.202 583.393 228.906ZM578.435 232.386C578.657 232.46 578.731 232.312 578.879 232.163C579.767 231.349 580.581 230.461 581.173 229.498C581.395 229.128 581.543 228.684 581.617 228.239C581.691 227.647 581.395 227.129 580.877 226.907C580.359 226.611 580.063 227.129 579.767 227.425C579.545 227.721 579.323 228.017 579.249 228.388C579.323 228.536 579.323 228.61 579.175 228.61C579.175 228.684 579.101 228.758 579.101 228.832C579.323 228.906 579.323 229.054 579.323 229.202C579.545 228.758 579.767 228.313 580.063 227.869C580.137 227.721 580.359 227.499 580.507 227.573C580.803 227.647 580.729 227.943 580.655 228.165C580.507 228.906 579.841 229.498 579.249 229.35C579.175 229.424 579.027 229.498 578.953 229.572C578.805 230.238 578.583 230.905 578.435 231.571C578.657 231.941 578.509 232.163 578.435 232.386ZM579.397 229.276C579.397 229.128 579.397 228.98 579.175 228.906C579.101 229.128 579.027 229.424 578.953 229.646C579.027 229.572 579.175 229.498 579.249 229.424C579.323 229.424 579.323 229.35 579.397 229.276ZM578.435 232.386C578.435 232.163 578.657 231.941 578.435 231.719C578.435 231.941 578.139 232.163 578.435 232.386ZM579.249 228.684C579.397 228.61 579.471 228.536 579.323 228.462C579.249 228.536 579.249 228.61 579.249 228.684Z" fill="#FFD277"/>
<path d="M384.483 211.041C400.785 211.041 414 197.819 414 181.508C414 165.198 400.785 151.976 384.483 151.976C368.181 151.976 354.966 165.198 354.966 181.508C354.966 197.819 368.181 211.041 384.483 211.041Z" fill="url(#paint6_linear)"/>
<path d="M384.483 204.874C397.38 204.874 407.836 194.413 407.836 181.508C407.836 168.604 397.38 158.143 384.483 158.143C371.585 158.143 361.13 168.604 361.13 181.508C361.13 194.413 371.585 204.874 384.483 204.874Z" fill="#E5B35A"/>
<path d="M380.571 178.958C380.927 177.654 380.394 176.764 379.86 175.875C379.03 174.57 379.03 174.57 380.453 174.096C381.045 173.858 381.638 173.562 382.172 173.087C382.29 172.969 382.409 172.791 382.29 172.672C382.172 172.494 381.994 172.613 381.875 172.672C381.638 172.791 381.46 172.969 381.223 173.087C378.26 175.044 374.941 172.613 374.585 170.004C374.466 169.173 374.407 168.403 374.703 167.572C375.415 165.793 377.371 165.022 379.149 166.03C379.801 166.386 380.097 166.446 380.631 165.852C381.638 164.666 383.12 164.489 384.365 165.141C385.669 165.852 386.321 167.276 385.965 168.758C384.128 176.112 382.349 183.406 380.453 190.7C379.801 193.25 378.497 194.377 376.541 194.496C374.526 194.614 372.866 193.488 372.273 191.709C371.977 190.7 372.095 190.463 373.103 190.226C377.074 189.159 378.556 184.77 375.948 181.924C375.296 181.212 374.526 180.797 373.577 180.56C373.34 180.5 372.985 180.382 372.925 180.678C372.807 181.034 373.222 180.975 373.459 181.093C376.363 181.983 377.608 185.363 375.948 187.854C374.822 189.514 373.162 189.929 371.266 189.87C369.725 189.811 368.421 189.099 367.709 187.617C366.998 186.075 367.176 184.592 368.184 183.288C368.539 182.813 368.48 182.635 368.065 182.279C365.457 179.967 366.287 176.171 369.606 175.163C370.258 174.985 370.317 174.748 370.08 174.155C369.191 172.02 370.792 169.766 373.044 169.766C373.637 169.766 373.933 169.944 374.111 170.537C374.466 171.901 375.237 172.969 376.482 173.68C378.438 174.748 379.86 176.23 380.334 178.484C380.275 178.603 380.394 178.662 380.571 178.958ZM400.309 176.349C399.835 174.748 398.649 173.74 397.286 173.621C396.278 173.562 395.982 173.799 396.1 174.807C396.397 177.713 396.219 180.56 395.508 183.406C394.5 187.379 392.129 189.989 388.336 191.412C386.143 192.242 383.891 192.717 381.579 193.132C380.631 193.31 380.453 193.606 380.986 194.436C381.638 195.504 382.527 196.275 383.535 196.986C386.38 199.003 387.743 198.825 389.818 196.097C390.944 194.674 392.248 193.784 393.967 193.369C395.626 192.954 397.108 192.242 398.471 191.234C400.487 189.633 400.901 187.202 399.301 185.6C398.946 185.245 398.886 184.829 399.301 184.414C399.894 183.881 400.072 183.11 400.249 182.398C400.546 180.382 400.901 178.365 400.309 176.349ZM381.935 190.582C382.231 190.878 382.646 190.938 383.001 190.997C386.261 191.471 391.299 188.921 392.781 185.956C394.382 182.754 394.263 179.492 393.018 176.29C393.018 176.23 392.9 176.23 392.781 176.23C392.663 176.705 392.544 177.239 392.426 177.713C391.299 181.627 389.047 183.288 385.432 183.11C384.839 183.05 384.305 182.813 383.713 182.932C383.831 183.169 383.831 183.347 383.535 183.465C383.298 184.474 383.001 185.482 382.764 186.549C382.942 186.727 382.883 186.846 382.646 186.905C382.29 188.032 381.994 189.159 381.757 190.345C381.816 190.404 381.875 190.463 381.935 190.582ZM389.936 166.92C388.099 166.268 387.684 166.564 387.091 168.343C386.795 169.233 387.091 169.47 387.862 169.529C390.173 169.766 391.655 171.071 392.722 173.087C393.078 173.74 393.433 174.392 393.848 175.222C395.271 171.842 393.433 168.165 389.936 166.92ZM391.714 176.112C391.951 173.265 390.233 171.19 387.388 170.775C386.676 170.656 386.38 170.953 386.321 171.546C386.202 172.376 386.854 171.901 387.15 171.961C389.225 172.198 390.647 173.918 390.173 175.815C389.818 177.239 389.047 178.425 387.98 179.492C387.743 179.729 387.447 180.026 387.269 180.263C387.032 180.56 386.736 180.915 387.032 181.331C387.269 181.686 387.684 181.449 388.04 181.39C390.055 180.797 391.003 179.255 391.596 177.298C391.596 176.942 391.655 176.527 391.714 176.112ZM384.187 181.39C384.483 181.449 384.661 181.271 384.898 181.093C386.202 179.848 387.447 178.543 388.395 177.001C388.751 176.408 388.929 175.815 389.047 175.163C389.166 174.273 388.692 173.503 387.98 173.147C387.15 172.732 386.736 173.443 386.321 173.977C385.965 174.392 385.669 174.867 385.55 175.46C385.728 175.637 385.669 175.756 385.432 175.815C385.432 175.934 385.372 176.053 385.313 176.171C385.609 176.23 385.669 176.468 385.609 176.705C385.965 176.053 386.321 175.4 386.676 174.748C386.854 174.511 387.091 174.214 387.388 174.333C387.802 174.511 387.684 174.867 387.625 175.163C387.388 176.29 386.38 177.12 385.432 176.942C385.254 177.061 385.135 177.179 384.957 177.239C384.72 178.247 384.424 179.255 384.187 180.322C384.483 180.738 384.246 181.034 384.187 181.39ZM385.609 176.705C385.669 176.468 385.609 176.23 385.313 176.171C385.195 176.527 385.135 176.942 385.017 177.298C385.195 177.179 385.313 177.061 385.491 177.001C385.491 176.883 385.55 176.824 385.609 176.705ZM384.187 181.39C384.246 181.034 384.483 180.738 384.246 180.382C384.187 180.738 383.772 181.034 384.187 181.39ZM385.372 175.815C385.609 175.756 385.669 175.637 385.491 175.46C385.432 175.578 385.432 175.697 385.372 175.815Z" fill="#664407"/>
<path d="M380.689 179.018C381.045 177.713 380.512 176.824 379.978 175.934C379.148 174.629 379.148 174.629 380.571 174.155C381.164 173.918 381.756 173.621 382.29 173.147C382.408 173.028 382.527 172.85 382.408 172.732C382.29 172.554 382.112 172.672 381.993 172.732C381.756 172.85 381.579 173.028 381.341 173.147C378.378 175.104 375.059 172.672 374.703 170.063C374.585 169.233 374.525 168.462 374.822 167.632C375.533 165.853 377.489 165.082 379.267 166.09C379.919 166.446 380.215 166.505 380.749 165.912C381.756 164.726 383.238 164.548 384.483 165.2C385.787 165.912 386.439 167.335 386.083 168.818C384.246 176.171 382.468 183.465 380.571 190.76C379.919 193.31 378.615 194.436 376.659 194.555C374.644 194.674 372.984 193.547 372.391 191.768C372.095 190.76 372.214 190.522 373.221 190.285C377.192 189.218 378.674 184.829 376.066 181.983C375.414 181.271 374.644 180.856 373.695 180.619C373.458 180.56 373.103 180.441 373.043 180.738C372.925 181.093 373.34 181.034 373.577 181.153C376.481 182.042 377.726 185.422 376.066 187.913C374.94 189.574 373.281 189.989 371.384 189.929C369.843 189.87 368.539 189.159 367.828 187.676C367.116 186.134 367.294 184.652 368.302 183.347C368.657 182.872 368.598 182.695 368.183 182.339C365.575 180.026 366.405 176.231 369.724 175.222C370.376 175.044 370.436 174.807 370.198 174.214C369.309 172.079 370.91 169.826 373.162 169.826C373.755 169.826 374.051 170.004 374.229 170.597C374.585 171.961 375.355 173.028 376.6 173.74C378.556 174.807 379.978 176.29 380.452 178.543C380.452 178.603 380.512 178.721 380.689 179.018ZM400.427 176.349C399.953 174.748 398.767 173.74 397.404 173.621C396.396 173.562 396.1 173.799 396.219 174.807C396.515 177.713 396.337 180.56 395.626 183.406C394.618 187.379 392.247 189.989 388.454 191.412C386.261 192.242 384.009 192.717 381.697 193.132C380.749 193.31 380.571 193.606 381.104 194.436C381.756 195.504 382.645 196.275 383.653 196.986C386.498 199.003 387.861 198.825 389.936 196.097C391.062 194.674 392.366 193.784 394.085 193.369C395.744 192.954 397.226 192.242 398.589 191.234C400.605 189.633 401.02 187.202 399.419 185.6C399.064 185.245 399.004 184.829 399.419 184.414C400.012 183.881 400.19 183.11 400.368 182.398C400.723 180.382 401.079 178.365 400.427 176.349ZM382.053 190.582C382.349 190.878 382.764 190.938 383.12 190.997C386.38 191.471 391.418 188.921 392.899 185.956C394.5 182.754 394.381 179.492 393.137 176.29C393.137 176.231 393.018 176.231 392.899 176.231C392.781 176.705 392.662 177.239 392.544 177.713C391.418 181.627 389.165 183.288 385.55 183.11C384.957 183.05 384.424 182.813 383.831 182.932C383.949 183.169 383.949 183.347 383.653 183.465C383.416 184.474 383.12 185.482 382.883 186.549C383.06 186.727 383.001 186.846 382.764 186.905C382.408 188.032 382.112 189.159 381.875 190.345C381.934 190.463 381.993 190.522 382.053 190.582ZM390.114 166.979C388.276 166.327 387.861 166.623 387.269 168.403C386.972 169.292 387.269 169.529 388.039 169.589C390.351 169.826 391.833 171.13 392.899 173.147C393.255 173.799 393.611 174.451 394.026 175.282C395.389 171.842 393.611 168.225 390.114 166.979ZM391.833 176.112C392.07 173.265 390.351 171.19 387.506 170.775C386.794 170.656 386.498 170.953 386.439 171.546C386.32 172.376 386.972 171.901 387.269 171.961C389.343 172.198 390.766 173.918 390.291 175.815C389.936 177.239 389.165 178.425 388.098 179.492C387.861 179.729 387.565 180.026 387.387 180.263C387.15 180.56 386.854 180.915 387.15 181.331C387.387 181.686 387.802 181.449 388.158 181.39C390.173 180.797 391.121 179.255 391.714 177.298C391.714 177.001 391.833 176.586 391.833 176.112ZM384.364 181.449C384.661 181.508 384.839 181.331 385.076 181.153C386.38 179.907 387.624 178.603 388.573 177.061C388.928 176.468 389.106 175.875 389.225 175.222C389.343 174.333 388.869 173.562 388.158 173.206C387.328 172.791 386.913 173.503 386.498 174.036C386.142 174.451 385.846 174.926 385.728 175.519C385.905 175.697 385.846 175.815 385.609 175.875C385.609 175.993 385.55 176.112 385.49 176.231C385.787 176.29 385.846 176.527 385.787 176.764C386.142 176.112 386.498 175.46 386.854 174.807C387.032 174.57 387.269 174.274 387.565 174.392C387.98 174.57 387.861 174.926 387.802 175.222C387.565 176.349 386.557 177.179 385.609 177.001C385.431 177.12 385.313 177.239 385.135 177.298C384.898 178.306 384.601 179.314 384.364 180.382C384.661 180.797 384.364 181.093 384.364 181.449ZM385.728 176.764C385.787 176.527 385.728 176.29 385.431 176.231C385.313 176.586 385.253 177.001 385.135 177.357C385.313 177.239 385.431 177.12 385.609 177.061C385.668 176.942 385.668 176.883 385.728 176.764ZM384.364 181.449C384.424 181.093 384.661 180.797 384.424 180.441C384.364 180.738 383.949 181.093 384.364 181.449ZM385.49 175.815C385.728 175.756 385.787 175.637 385.609 175.46C385.609 175.578 385.55 175.697 385.49 175.815Z" fill="#FFD277"/>
<path d="M507.69 288.581L394.397 306.869C390.623 307.461 386.997 304.87 386.405 301.094C385.813 297.318 388.403 293.69 392.177 293.098L505.47 274.81C509.244 274.218 512.87 276.809 513.462 280.585C514.054 284.361 511.464 287.989 507.69 288.581Z" fill="#FFCD6A"/>
<path d="M481.42 292.875L394.397 306.943C390.623 307.535 386.997 304.944 386.405 301.168C385.813 297.392 388.403 293.764 392.177 293.171L479.2 279.104L481.42 292.875Z" fill="#FA9F4D"/>
<path d="M371.679 296.947L375.157 296.355C377.377 295.985 379.227 298.576 378.487 300.946L377.303 304.722L376.119 308.498C375.379 310.867 372.567 311.385 371.087 309.312L368.793 306.128L366.499 302.945C365.019 300.871 365.981 297.91 368.201 297.54L371.679 296.947Z" fill="#FA9F4D"/>
<path d="M525.08 271.404L528.558 270.812C530.778 270.441 532.628 273.033 531.888 275.402L530.704 279.178L529.52 282.954C528.78 285.323 525.968 285.842 524.488 283.768L522.194 280.585L519.9 277.401C518.42 275.328 519.382 272.366 521.602 271.996L525.08 271.404Z" fill="#FFCD6A"/>
<path d="M427.697 138.06C427.697 138.06 496.517 137.616 500.957 146.352C505.397 155.015 504.953 191.146 498.589 196.773C492.225 202.326 496.295 203.14 492.299 208.249C488.303 213.431 478.313 216.245 472.245 205.954C466.177 195.662 441.535 197.587 428.437 194.033C415.413 190.479 396.913 187.888 405.645 161.604C414.377 135.32 421.629 138.06 427.697 138.06Z" fill="#DAE0E7"/>
<path d="M556.679 259.928C558.233 261.557 557.863 265.333 556.679 267.332C555.495 269.331 547.873 270.145 548.687 265.111C549.501 260.076 553.867 256.892 556.679 259.928Z" fill="#DAE0E7"/>
<path d="M564.671 270.071C563.117 271.922 563.487 273.699 564.671 274.292C565.855 274.884 567.113 277.179 568.741 274.292C570.369 271.404 569.999 268.813 567.927 268.443C565.855 267.998 564.671 270.071 564.671 270.071Z" fill="#DAE0E7"/>
<path d="M461.219 212.913C461.219 212.913 452.709 212.099 453.671 216.985C454.633 221.872 455.891 228.461 461.219 227.277C466.547 226.018 470.247 212.987 461.219 212.913Z" fill="#DAE0E7"/>
<path d="M433.321 227.425C428.437 235.347 429.917 240.826 436.503 238.753C443.089 236.68 446.345 233.644 443.089 231.275C439.833 228.906 435.763 223.501 433.321 227.425Z" fill="#DAE0E7"/>
<path d="M409.493 245.786C404.017 246.527 398.689 251.932 404.831 253.931C410.973 255.93 421.111 253.042 421.111 253.042C421.111 253.042 421.185 244.306 409.493 245.786Z" fill="#DAE0E7"/>
<path d="M376.045 262.815C375.823 267.258 378.931 276.735 385.073 270.886C391.215 265.037 400.243 264.815 391.215 261.113C382.187 257.411 378.635 256.67 378.635 258.003C378.635 259.262 376.045 262.815 376.045 262.815Z" fill="#DAE0E7"/>
<path d="M353.549 275.772C353.549 277.549 358.211 280.437 359.247 279.104C360.357 277.771 363.465 274.217 360.357 272.663C357.323 271.182 353.549 275.772 353.549 275.772Z" fill="#DAE0E7"/>
<path d="M505.767 220.169C499.921 224.611 495.407 227.277 501.549 228.313C507.691 229.35 517.829 232.385 518.051 227.425C518.347 222.464 513.093 214.542 505.767 220.169Z" fill="#DAE0E7"/>
<path d="M525.599 239.197C521.973 241.048 521.159 247.637 523.601 247.934C526.043 248.23 535.737 249.414 535.293 245.638C534.849 241.862 532.851 235.421 525.599 239.197Z" fill="#DAE0E7"/>
<path d="M591.681 524.173C591.681 524.173 596.269 523.211 597.823 525.876C599.303 528.467 592.051 554.455 590.571 553.196C589.091 551.938 584.873 530.763 586.057 528.467C587.167 526.246 591.681 524.173 591.681 524.173Z" fill="#3F0C0B"/>
<path d="M584.133 532.021C584.133 532.021 588.647 530.837 589.609 532.021C590.571 533.206 586.131 559.934 584.133 559.194C582.135 558.453 577.769 536.612 578.657 535.797C579.619 535.057 584.133 532.021 584.133 532.021Z" fill="#490F0F"/>
<path d="M631.049 429.551C631.049 429.551 576.363 444.507 575.845 466.423C575.327 488.338 581.617 525.654 586.057 528.541C587.833 529.652 592.347 525.876 591.681 523.285C591.015 520.693 587.241 493.891 590.719 484.118C594.197 474.345 650.659 451.245 650.659 451.245L654.359 434.882L631.049 429.551Z" fill="url(#paint7_linear)"/>
<path d="M663.905 424.887C663.905 424.887 673.895 436.215 673.673 446.506C673.451 456.798 670.195 471.235 654.359 471.901C638.523 472.568 608.405 469.902 601.671 472.864C594.937 475.826 579.545 495.224 581.173 514.77C582.135 526.394 583.171 530.17 583.911 531.281C584.281 531.799 584.207 532.539 583.911 533.132C582.505 535.649 579.397 540.091 577.029 536.241C573.773 531.133 555.347 489.597 574.217 468.125C593.087 446.654 663.905 424.887 663.905 424.887Z" fill="url(#paint8_linear)"/>
<path d="M604.483 381.5C604.483 381.5 600.783 396.678 593.457 395.716C586.131 394.753 566.077 371.357 561.785 370.764C557.493 370.172 544.321 376.243 542.693 380.686C541.065 385.128 551.721 381.426 556.309 381.426C560.897 381.426 564.597 379.871 565.485 380.167C566.373 380.463 584.429 407.71 590.423 408.006C596.417 408.302 610.551 408.154 615.361 385.202C620.171 362.324 604.483 381.5 604.483 381.5Z" fill="#F2B78F"/>
<path d="M620.319 357.437C620.319 357.437 613.289 357.733 609.737 363.286C606.185 368.765 599.747 382.759 600.857 383.573C601.893 384.387 615.361 390.088 617.507 388.089C619.653 386.09 620.319 357.437 620.319 357.437Z" fill="#F6C266"/>
<path d="M617.433 357.437C617.433 357.437 631.641 343.37 640.743 346.924C649.845 350.552 658.059 370.172 660.501 385.942C662.943 401.712 666.051 421.629 663.905 424.961C661.759 428.218 645.701 437.547 632.011 430.217C618.321 422.888 609.737 361.361 617.433 357.437Z" fill="#FFCD6A"/>
<path d="M620.319 331.968C620.319 331.968 625.795 342.407 625.795 350.255C625.795 350.255 624.833 359.436 625.795 362.324C626.757 365.285 636.673 352.106 636.673 348.849C636.673 345.591 634.823 343.814 633.047 339.002C631.271 334.189 627.867 325.156 627.867 325.156L620.319 331.968Z" fill="#F2B78F"/>
<path d="M613.511 277.475C605.519 277.475 598.267 281.029 593.309 286.73C586.871 287.915 581.913 289.618 581.913 289.618L586.501 308.72C586.797 311.163 587.315 313.458 588.203 315.679C592.125 326.119 602.041 333.523 613.585 333.523C628.607 333.523 640.817 321.01 640.817 305.536C640.817 290.062 628.533 277.475 613.511 277.475Z" fill="#FFC197"/>
<path d="M618.765 288.285C618.765 288.285 630.013 297.762 630.013 302.797L643.259 299.243L640.743 282.584L619.579 283.695L618.765 288.285Z" fill="#DA6C33"/>
<path d="M581.913 289.618C581.913 289.618 585.835 259.484 611.365 259.484C636.895 259.484 640.817 282.732 640.817 282.732C640.817 282.732 622.095 294.504 581.913 289.618Z" fill="#3A5A74"/>
<path d="M564.597 296.207C572.663 295.17 592.495 292.727 604.113 293.394C605.297 293.468 606.333 292.727 606.703 291.617L607.369 289.469C607.665 288.581 606.999 287.693 606.111 287.693C600.857 287.544 585.465 287.322 578.509 289.618C573.181 291.394 567.705 293.69 564.375 295.17C563.783 295.467 564.005 296.281 564.597 296.207Z" fill="#4A7089"/>
<path d="M601.301 299.835C601.301 299.835 605.667 301.242 610.773 297.614C610.773 297.54 605.741 304.722 601.301 299.835Z" fill="#E0AA85"/>
<path d="M638.227 307.609C642.11 307.609 645.257 304.46 645.257 300.575C645.257 296.691 642.11 293.542 638.227 293.542C634.345 293.542 631.197 296.691 631.197 300.575C631.197 304.46 634.345 307.609 638.227 307.609Z" fill="#FFC197"/>
<path d="M591.311 303.537C591.311 303.537 588.499 304.796 585.317 303.981C585.391 303.981 589.683 307.313 591.311 303.537Z" fill="#E0AA85"/>
<path d="M595.307 304.425C595.307 304.425 595.751 318.197 596.935 318.419C598.119 318.641 599.969 317.234 599.969 317.234L595.307 304.425Z" fill="#E0AA85"/>
<path d="M607.443 319.603C607.443 319.603 611.957 317.382 611.291 313.754C611.365 313.754 614.177 321.306 607.443 319.603Z" fill="#E0AA85"/>
<path d="M548.169 387.867C548.169 387.867 555.347 373.134 560.971 372.986C572.663 372.615 578.361 378.242 585.243 382.463C592.495 386.979 604.039 399.343 615.361 387.867C626.683 376.391 636.821 358.03 640.817 359.066C644.813 360.029 646.811 378.761 641.705 385.572C636.599 392.458 622.909 409.487 607.147 408.006C591.459 406.525 576.437 388.83 572.959 386.239C567.039 381.87 563.635 382.611 561.637 385.276C559.639 387.867 553.571 392.088 551.351 391.94C549.131 391.791 545.653 390.681 548.169 387.867Z" fill="#FFC197"/>
<path d="M622.095 372.912C622.095 372.912 637.709 352.847 643.333 355.957C648.957 358.992 655.543 365.137 648.957 378.316C642.371 391.495 641.557 393.939 639.559 393.346C637.561 392.754 618.395 380.982 618.543 378.464C618.691 376.021 622.095 372.912 622.095 372.912Z" fill="#FFD277"/>
<path d="M330.461 524.173C330.461 524.173 325.873 523.211 324.319 525.876C322.839 528.467 330.091 554.455 331.571 553.196C333.051 551.938 337.269 530.763 336.085 528.467C334.901 526.172 330.461 524.173 330.461 524.173Z" fill="#3F0C0B"/>
<path d="M338.009 532.021C338.009 532.021 333.495 530.837 332.533 532.021C331.571 533.206 336.011 559.934 338.009 559.194C340.007 558.527 344.373 536.612 343.485 535.797C342.523 535.057 338.009 532.021 338.009 532.021Z" fill="#490F0F"/>
<path d="M291.093 429.551C291.093 429.551 345.779 444.507 346.297 466.423C346.815 488.338 340.525 525.654 336.085 528.541C334.309 529.652 329.795 525.876 330.461 523.285C331.127 520.693 334.901 493.891 331.423 484.118C327.945 474.345 271.483 451.245 271.483 451.245L267.783 434.882L291.093 429.551Z" fill="#F2B78F"/>
<path d="M258.237 424.887C258.237 424.887 248.247 436.215 248.469 446.506C248.691 456.798 251.947 471.235 267.783 471.901C283.619 472.568 313.737 469.902 320.471 472.864C327.205 475.826 342.597 495.224 340.969 514.77C340.007 526.394 338.971 530.17 338.231 531.281C337.861 531.799 337.935 532.539 338.231 533.132C339.637 535.649 342.745 540.091 345.113 536.241C348.369 531.133 366.795 489.597 347.925 468.125C329.055 446.654 258.237 424.887 258.237 424.887Z" fill="#FFC197"/>
<path d="M291.093 429.551C291.093 429.551 339.637 441.472 346.297 461.462C352.957 481.379 347.629 472.938 347.629 472.938L315.439 468.57L280.881 445.84C280.881 445.914 281.695 428.589 291.093 429.551Z" fill="#2D7A9B"/>
<path d="M317.659 381.5C317.659 381.5 321.359 396.678 328.685 395.716C336.011 394.753 356.065 371.357 360.357 370.764C364.649 370.172 377.821 376.243 379.449 380.686C381.151 385.128 370.421 381.426 365.833 381.426C361.245 381.426 357.545 379.871 356.657 380.167C355.769 380.463 337.713 407.71 331.719 408.006C325.725 408.302 311.591 408.154 306.781 385.202C301.971 362.25 317.659 381.5 317.659 381.5Z" fill="#F2B78F"/>
<path d="M301.823 357.437C301.823 357.437 308.853 357.733 312.405 363.286C315.957 368.765 322.395 382.759 321.285 383.573C320.249 384.387 306.781 390.088 304.635 388.089C302.489 386.09 301.823 357.437 301.823 357.437Z" fill="#EF964D"/>
<path d="M258.238 424.887C258.238 424.887 237.222 446.21 252.17 466.719C252.91 467.755 254.02 468.496 255.204 469.014C264.527 472.938 266.673 472.124 284.137 471.901C311.887 471.605 313.293 471.383 322.839 476.196C329.203 479.379 330.239 486.783 330.239 486.783L352.661 475.381C352.661 475.381 344.965 452.207 313.515 443.322C282.065 434.438 286.949 431.55 286.949 431.55L258.238 424.887Z" fill="#347FAA"/>
<path d="M304.709 357.437C304.709 357.437 290.501 343.37 281.399 346.924C272.297 350.552 264.083 370.172 261.641 385.942C259.199 401.712 256.091 421.629 258.237 424.961C260.383 428.218 276.441 437.547 290.131 430.217C303.821 422.888 312.405 361.361 304.709 357.437Z" fill="#FA9F4D"/>
<path d="M301.823 331.968C301.823 331.968 296.347 342.407 296.347 350.255C296.347 350.255 297.309 359.436 296.347 362.324C295.385 365.285 285.469 352.106 285.469 348.849C285.469 345.591 287.319 343.814 289.095 339.002C290.871 334.189 294.275 325.156 294.275 325.156L301.823 331.968Z" fill="#F2B78F"/>
<path d="M308.631 277.475C316.623 277.475 323.875 281.029 328.833 286.73C335.271 287.915 340.229 289.618 340.229 289.618L335.641 308.72C335.345 311.163 334.827 313.458 333.939 315.679C330.017 326.119 320.101 333.523 308.557 333.523C293.535 333.523 281.325 321.01 281.325 305.536C281.325 290.062 293.535 277.475 308.631 277.475Z" fill="#FFC197"/>
<path d="M320.841 299.835C320.841 299.835 316.475 301.242 311.369 297.614C311.295 297.54 316.401 304.722 320.841 299.835Z" fill="#E0AA85"/>
<path d="M330.831 303.537C330.831 303.537 333.643 304.796 336.825 303.981C336.751 303.981 332.459 307.313 330.831 303.537Z" fill="#E0AA85"/>
<path d="M326.835 304.425C326.835 304.425 326.391 318.197 325.207 318.419C324.023 318.641 322.173 317.234 322.173 317.234L326.835 304.425Z" fill="#E0AA85"/>
<path d="M314.7 319.603C314.7 319.603 310.186 317.382 310.852 313.754C310.778 313.754 307.892 321.306 314.7 319.603Z" fill="#E0AA85"/>
<path d="M373.973 387.867C373.973 387.867 366.795 373.134 361.171 372.986C349.479 372.615 343.781 378.242 336.899 382.463C329.647 386.979 318.103 399.343 306.781 387.867C295.459 376.391 285.321 358.03 281.325 359.066C277.329 360.029 275.331 378.761 280.437 385.572C285.543 392.384 299.233 409.487 314.995 408.006C330.683 406.525 345.705 388.83 349.183 386.239C355.103 381.87 358.507 382.611 360.505 385.276C362.503 387.867 368.571 392.088 370.791 391.94C373.159 391.717 376.489 390.681 373.973 387.867Z" fill="#FFC197"/>
<path d="M300.047 372.912C300.047 372.912 284.433 352.847 278.809 355.957C273.185 358.992 266.599 365.137 273.185 378.316C279.771 391.495 280.585 393.939 282.583 393.346C284.655 392.754 303.747 380.982 303.599 378.464C303.451 376.021 300.047 372.912 300.047 372.912Z" fill="#FFAD69"/>
<path d="M330.831 288.951C330.831 288.951 332.681 304.722 336.825 304.055C340.969 303.389 345.409 292.727 342.819 287.026C340.229 281.325 333.643 275.847 330.831 275.847C328.019 275.772 330.831 288.951 330.831 288.951Z" fill="url(#paint9_linear)"/>
<path d="M333.791 287.767C333.791 287.767 328.981 291.913 321.433 291.913C313.885 291.913 308.409 291.024 304.709 289.84C301.009 288.655 303.747 286.508 298.271 289.84C292.795 293.172 290.945 300.576 290.945 300.576C290.945 300.576 289.243 294.43 285.395 294.208C281.547 293.986 280.437 302.945 278.735 294.208C277.033 285.472 278.661 272.589 290.945 267.924C303.229 263.186 314.847 262.223 321.433 266.962C328.019 271.7 330.757 275.846 330.757 275.846L333.791 287.767Z" fill="url(#paint10_linear)"/>
<path d="M283.916 307.609C287.798 307.609 290.946 304.46 290.946 300.575C290.946 296.691 287.798 293.542 283.916 293.542C280.033 293.542 276.886 296.691 276.886 300.575C276.886 304.46 280.033 307.609 283.916 307.609Z" fill="#FFC197"/>
<path fill-rule="evenodd" clip-rule="evenodd" d="M436.947 153.396C438.204 159.012 440.69 164.315 445.034 168.42C446.196 169.264 449.03 170.829 452.876 171.92L451.554 182.19L443.935 181.209C442.646 181.043 441.466 181.954 441.301 183.242C441.135 184.531 442.045 185.711 443.334 185.877L466.671 188.881C467.96 189.046 469.139 188.136 469.305 186.847C469.471 185.558 468.56 184.379 467.271 184.213L460.889 183.392L462.211 173.122C466.207 173.04 469.345 172.244 470.683 171.722C475.604 169.026 479.209 164.894 481.815 160.165C488.177 160.871 493.955 156.348 494.776 149.974C495.457 144.68 492.507 139.755 487.859 137.706C488.08 134.504 488.049 131.621 487.872 129.335L463.506 126.198L463.506 126.198L439.139 123.061C438.425 125.125 437.702 127.746 437.119 130.715C432.652 131.916 429.129 135.706 428.502 140.578C427.749 146.432 431.435 151.833 436.947 153.396ZM436.521 134.251C435.837 139.07 435.598 144.494 436.311 149.809C433.114 148.212 431.123 144.721 431.604 140.977C431.997 137.931 433.931 135.461 436.521 134.251ZM491.673 149.574C491.121 153.859 487.519 157.003 483.331 157.107C485.649 151.895 486.929 146.217 487.544 141.06C490.399 142.771 492.125 146.062 491.673 149.574Z" fill="url(#paint11_linear)"/>
<path d="M464.979 136.038L461.924 159.134L455.542 158.29L457.544 143.156C456.407 143.804 455.322 144.307 454.287 144.664C453.262 145.022 451.993 145.327 450.478 145.578L451.162 140.405C453.402 139.997 455.179 139.386 456.495 138.573C457.811 137.759 458.899 136.684 459.759 135.348L464.979 136.038Z" fill="#FCCB73"/>
<defs>
<linearGradient id="paint0_linear" x1="299.468" y1="43.9348" x2="461.936" y2="765.637" gradientUnits="userSpaceOnUse">
<stop stop-color="#377093"/>
<stop offset="0.0302786" stop-color="#367097"/>
<stop offset="1" stop-color="#6EBACC"/>
</linearGradient>
<linearGradient id="paint1_linear" x1="650.893" y1="434.606" x2="819.795" y2="418.213" gradientUnits="userSpaceOnUse">
<stop offset="0.177" stop-color="#2CCD90"/>
<stop offset="1" stop-color="#005E63"/>
</linearGradient>
<linearGradient id="paint2_linear" x1="169.322" y1="433.371" x2="288.615" y2="312.613" gradientUnits="userSpaceOnUse">
<stop offset="0.177" stop-color="#2CCD90"/>
<stop offset="1" stop-color="#005E63"/>
</linearGradient>
<linearGradient id="paint3_linear" x1="247.76" y1="511.871" x2="128.671" y2="319.544" gradientUnits="userSpaceOnUse">
<stop stop-color="#ED588D"/>
<stop offset="1" stop-color="#F58279"/>
</linearGradient>
<linearGradient id="paint4_linear" x1="524.824" y1="81.7828" x2="560.265" y2="130.556" gradientUnits="userSpaceOnUse">
<stop stop-color="#FFFFE3"/>
<stop offset="0.1817" stop-color="#FDCF74"/>
<stop offset="1" stop-color="#F6C266"/>
</linearGradient>
<linearGradient id="paint5_linear" x1="567.111" y1="216.684" x2="590.073" y2="248.282" gradientUnits="userSpaceOnUse">
<stop stop-color="#FFFFE3"/>
<stop offset="0.1817" stop-color="#FDCF74"/>
<stop offset="1" stop-color="#F6C266"/>
</linearGradient>
<linearGradient id="paint6_linear" x1="367.163" y1="157.644" x2="401.887" y2="205.429" gradientUnits="userSpaceOnUse">
<stop stop-color="#FFFFE3"/>
<stop offset="0.1817" stop-color="#FDCF74"/>
<stop offset="1" stop-color="#F6C266"/>
</linearGradient>
<linearGradient id="paint7_linear" x1="575.821" y1="479.142" x2="654.365" y2="479.142" gradientUnits="userSpaceOnUse">
<stop offset="0.0761177" stop-color="#3E80A6"/>
<stop offset="1" stop-color="#34586F"/>
</linearGradient>
<linearGradient id="paint8_linear" x1="594.931" y1="450.223" x2="632.903" y2="495.453" gradientUnits="userSpaceOnUse">
<stop offset="0.0761177" stop-color="#3E80A6"/>
<stop offset="1" stop-color="#34586F"/>
</linearGradient>
<linearGradient id="paint9_linear" x1="329.558" y1="289.904" x2="343.535" y2="289.904" gradientUnits="userSpaceOnUse">
<stop stop-color="#410F0B"/>
<stop offset="0.6172" stop-color="#410F0B"/>
<stop offset="0.8726" stop-color="#47140B"/>
<stop offset="1" stop-color="#4D190B"/>
</linearGradient>
<linearGradient id="paint10_linear" x1="278.148" y1="282.178" x2="333.78" y2="282.178" gradientUnits="userSpaceOnUse">
<stop stop-color="#410F0B"/>
<stop offset="0.6172" stop-color="#410F0B"/>
<stop offset="0.8726" stop-color="#47140B"/>
<stop offset="1" stop-color="#4D190B"/>
</linearGradient>
<linearGradient id="paint11_linear" x1="439.5" y1="125.5" x2="477.887" y2="184.147" gradientUnits="userSpaceOnUse">
<stop stop-color="#FFFFE3"/>
<stop offset="0.12291" stop-color="#FDCF74"/>
<stop offset="0.624519" stop-color="#CD8300"/>
</linearGradient>
</defs>
</svg>
