<svg width="420" height="498" viewBox="0 0 420 498" fill="none" xmlns="http://www.w3.org/2000/svg">
<path d="M170.681 255.051C168.637 254.686 151.629 203.661 158.344 164.462C165.06 125.262 161.41 134.606 161.41 134.606C161.41 134.606 190.317 206.654 189.806 244.612C189.295 282.571 188.127 283.812 188.127 283.812L170.681 255.051Z" fill="url(#paint0_linear)"/>
<path d="M212.07 309.653C212.07 309.653 150.46 298.63 130.751 233.736L145.059 238.116L128.561 219.575C128.561 219.575 125.86 181.397 126.882 170.959C126.882 170.959 152.504 201.909 153.964 204.829L155.424 221.326L157.906 208.917C157.906 208.917 196.375 238.846 212.07 309.653Z" fill="url(#paint1_linear)"/>
<path d="M214.48 310.894C212.071 309.653 146.52 255.854 128.563 174.17L126.884 170.959" stroke="url(#paint2_linear)" stroke-width="0.5" stroke-miterlimit="10"/>
<path d="M95.8583 448.493C95.4933 445.573 72.7913 384.839 72.7913 384.839L91.7704 372.503L70.9663 379.948L69.7254 377.394L93.3034 366.006L68.3384 373.452L65.7106 365.86L91.4055 353.451L63.1557 356.225L61.7687 352.21L76.4411 350.312L60.9658 349.509L54.3231 330.384L53.1551 325.785L68.7034 318.266L51.1112 321.624L27.8252 274.687C27.8252 274.687 86.1497 311.404 105.275 355.203C124.4 399.001 112.94 462.216 112.94 462.216L104.545 466.304L95.8583 448.493Z" fill="url(#paint3_linear)"/>
<path d="M186.228 296.805C186.228 296.805 179.221 280.673 183.673 272.351C188.126 264.03 192.798 259.066 192.798 259.066C192.798 259.066 189.513 280.673 187.834 288.776C186.228 296.805 186.228 296.805 186.228 296.805Z" fill="#D52F52"/>
<path d="M181.994 294.615C181.994 294.615 169.147 287.316 166.227 275.198C163.307 263.081 164.84 254.248 164.84 254.248C164.84 254.248 179.221 268.628 178.345 273.519C177.469 278.483 181.994 294.615 181.994 294.615Z" fill="#D52F52"/>
<path d="M166.811 287.097C166.811 287.097 157.029 278.045 152.431 266.657C147.832 255.27 146.737 250.452 146.737 250.452C146.737 250.452 165.935 269.65 168.49 277.315C171.045 284.98 166.811 287.097 166.811 287.097Z" fill="#D52F52"/>
<path d="M181.776 298.776C183.162 297.827 164.402 308.412 168.855 321.551C173.381 334.69 173.381 334.69 173.381 334.69C173.381 334.69 184.33 319.142 183.965 312.134C183.6 305.127 189.367 297.243 189.367 297.243L181.776 298.776Z" fill="#D52F52"/>
<path d="M181.046 293.301C181.046 293.301 176.447 299.944 171.264 303.156C166.155 306.368 145.059 305.711 145.059 305.711C145.059 305.711 158.855 296.44 164.914 294.104C170.972 291.841 181.046 293.301 181.046 293.301Z" fill="#D52F52"/>
<path d="M163.015 286.805C163.015 286.805 160.606 297.097 145.058 295.856C129.51 294.615 129.51 292.279 129.51 292.279C129.51 292.279 154.694 286.002 158.854 285.345C162.942 284.688 164.475 285.856 164.475 285.856L163.015 286.805Z" fill="#D52F52"/>
<path d="M160.606 283.447C159.292 284.177 140.897 282.571 126.955 266.438C113.012 250.306 112.063 248.919 112.063 248.919C112.063 248.919 146.883 270.964 150.898 274.103C154.913 277.242 160.606 283.447 160.606 283.447Z" fill="#D52F52"/>
<path d="M158.854 282.717C158.854 282.717 180.827 299.141 201.12 300.236L201.485 300.017C201.485 300.017 179.732 296.148 159.438 281.841L158.854 282.717Z" fill="#D52F52"/>
<path d="M94.8359 430.17C94.8359 430.17 71.258 428.492 62.7173 437.908C54.1767 447.325 49.9429 455.427 49.9429 455.427C49.9429 455.427 75.9298 441.558 85.3463 435.864C94.8359 430.17 94.8359 430.17 94.8359 430.17Z" fill="#FFCD6A"/>
<path d="M90.1646 425.718C90.1646 425.718 75.1272 412.724 58.4839 414.403C41.8406 416.155 31.3291 422.068 31.3291 422.068C31.3291 422.068 56.002 433.893 61.8418 430.608C67.6815 427.324 90.1646 425.718 90.1646 425.718Z" fill="#FFCD6A"/>
<path d="M73.7396 409.877C73.7396 409.877 57.8993 401.556 41.402 400.826C24.9047 400.169 18.335 400.899 18.335 400.899C18.335 400.899 51.2565 416.593 62.1331 416.374C73.0096 416.228 73.7396 409.877 73.7396 409.877Z" fill="#FFCD6A"/>
<path d="M95.3467 423.601C94.7627 425.718 99.7995 397.249 118.487 397.03C137.174 396.884 137.174 396.884 137.174 396.884C137.174 396.884 122.356 417.688 113.377 420.389C104.398 423.09 96.9526 433.893 96.9526 433.893L95.3467 423.601Z" fill="#FFCD6A"/>
<path d="M88.0471 425.134C88.0471 425.134 94.4708 416.301 96.1498 408.344C97.9017 400.388 87.6091 373.963 87.6091 373.963C87.6091 373.963 82.0614 395.643 81.8424 404.33C81.6234 413.016 88.0471 425.134 88.0471 425.134Z" fill="#FFCD6A"/>
<path d="M71.6959 405.205C71.6959 405.205 83.7404 397.541 75.0538 378.343C66.3671 359.144 63.5933 360.166 63.5933 360.166C63.5933 360.166 66.9511 394.913 67.9731 400.461C68.995 406.008 71.1119 407.322 71.1119 407.322L71.6959 405.205Z" fill="#FFCD6A"/>
<path d="M66.3673 403.672C66.6593 401.702 56.4398 379.073 29.7229 368.634C3.00607 358.195 0.88916 357.611 0.88916 357.611C0.88916 357.611 44.3953 391.847 50.308 395.497C56.1478 399.22 66.3673 403.672 66.3673 403.672Z" fill="#FFCD6A"/>
<path d="M64.6152 401.848C64.6152 401.848 95.2739 422.36 105.785 447.544L105.639 448.055C105.639 448.055 90.9671 422.214 63.7393 402.943L64.6152 401.848Z" fill="#FFCD6A"/>
<path d="M108.341 408.344C108.341 408.344 67.2437 378.343 75.1273 326.807L84.0329 334.983L78.3392 316.295C78.3392 316.295 89.4347 289.287 93.7415 282.425C93.7415 282.425 101.844 312.937 101.844 315.419L97.2454 327.245L103.304 319.653C103.304 319.726 121.115 354.181 108.341 408.344Z" fill="url(#paint4_linear)"/>
<path d="M109.655 410.023C108.341 408.344 78.9961 347.611 93.8874 285.272L93.7414 282.498" stroke="url(#paint5_linear)" stroke-width="0.3945" stroke-miterlimit="10"/>
<path d="M231.267 291.695C231.267 291.695 243.531 240.306 257.546 232.787C271.562 225.268 271.562 225.268 271.562 225.268L267.401 245.196L276.306 222.421C276.306 222.421 291.344 217.312 305.213 213.37C319.082 209.501 319.082 209.501 319.082 209.501C319.082 209.501 298.57 247.094 291.709 256.073C284.92 264.979 268.934 264.322 268.934 264.322L284.92 264.979C284.92 264.979 262.802 304.105 252.217 310.967C241.633 317.828 227.982 312.5 227.982 312.5L231.267 291.695Z" fill="url(#paint6_linear)"/>
<path d="M220.537 322.646C220.245 320.529 261.415 240.379 314.192 211.837" stroke="url(#paint7_linear)" stroke-width="0.5" stroke-miterlimit="10"/>
<path d="M414.344 349.363H128.561V380.678H414.344V349.363Z" fill="white"/>
<path d="M300.25 349.363H128.561V380.678H300.25V349.363Z" fill="#F9F3E3"/>
<path d="M419.308 344.18H123.087V349.582H419.308V344.18Z" fill="#4A8FA6"/>
<path d="M419.307 380.459H123.086V385.861H419.307V380.459Z" fill="#4A8FA6"/>
<path d="M419.234 344.18H414.343V380.678H419.234V344.18Z" fill="#4A8FA6"/>
<path d="M73.817 422.338L377.63 422.338V391.022L73.817 391.022V422.338Z" fill="white"/>
<path d="M73.8569 422.338H205.032V391.022H73.8569V422.338Z" fill="#F9F3E3"/>
<path d="M68.5868 427.542L383.495 427.542V422.14L68.5868 422.14V427.542Z" fill="#347FAA"/>
<path d="M68.5868 391.219L383.495 391.219V385.817L68.5868 385.817V391.219Z" fill="#347FAA"/>
<path d="M68.5992 427.519H73.855V391.021H68.5992V427.519Z" fill="#347FAA"/>
<path d="M345.799 310.31V307.244H327.112H271.854H113.451C99.7271 307.244 88.5586 315.565 88.5586 325.785C88.5586 336.004 99.7271 344.326 113.451 344.326H271.927H327.185H345.872V341.26H327.185V310.31H345.799Z" fill="#74BEC9"/>
<path d="M336.967 341.333H230.391C221.851 341.333 214.916 334.398 214.916 325.858C214.916 317.317 221.851 310.382 230.391 310.382H336.894V341.333H336.967Z" fill="white"/>
<path d="M352.954 431.849V427.469H333.172H274.847H107.611C93.158 427.469 81.3325 439.295 81.3325 453.748C81.3325 468.202 93.158 480.027 107.611 480.027H274.92H333.245H353.027V475.647H333.245V431.776H352.954V431.849Z" fill="url(#paint8_linear)"/>
<path d="M343.611 475.72H186.083C174.039 475.72 164.111 465.866 164.111 453.748C164.111 441.704 173.966 431.776 186.083 431.776H343.611V475.72Z" fill="white"/>
<path d="M343.232 41.8874C343.232 41.8874 397.98 35.3907 402.287 41.8874C406.594 48.3842 409.441 77.1449 404.915 82.1817C400.389 87.2185 403.674 87.4375 400.973 91.8903C398.272 96.3431 390.534 99.5549 384.841 91.8903C379.074 84.2256 359.657 88.0214 348.926 86.3425C338.269 84.6636 323.304 84.2256 327.83 62.5455C332.356 40.8655 338.415 42.3984 343.232 41.8874Z" fill="#F1E9D2"/>
<path d="M402.36 103.424C403.747 104.884 403.455 108.315 402.36 110.066C401.265 111.891 394.476 112.548 395.133 108.096C395.936 103.57 399.878 100.723 402.36 103.424Z" fill="#F1E9D2"/>
<path d="M392.944 115.979C391.411 117.804 391.776 119.556 392.944 120.14C394.112 120.724 395.353 122.987 396.959 120.14C398.564 117.293 398.199 114.738 396.156 114.373C394.112 114.008 392.944 115.979 392.944 115.979Z" fill="#F1E9D2"/>
<path d="M354.912 64.1514C354.985 66.7792 356.226 73.349 356.591 73.8599C356.956 74.3709 375.862 77.0718 380.169 72.254C380.169 72.254 381.994 63.7864 380.169 62.1805C378.344 60.5745 354.912 64.1514 354.912 64.1514Z" fill="#74BEC9"/>
<path d="M386.812 57.1436C386.812 58.0195 387.323 63.4213 386.812 65.3922C386.301 67.3631 387.688 67.2901 387.688 67.2901V57.1436H386.812Z" fill="#410F0B"/>
<path d="M347.248 60.9395C348.197 60.5015 364.183 53.2018 366.665 53.2018C369.147 53.2018 390.243 53.2019 390.243 55.5378C390.243 57.8737 376.957 67.2172 372.14 68.0932C367.176 69.0422 336.882 65.5383 347.248 60.9395Z" fill="#94CACE"/>
<path d="M387.177 71.8889C387.177 71.8889 385.133 69.845 385.425 68.7501C385.717 67.5821 386.666 65.6842 387.177 65.6842C387.688 65.6842 388.491 66.4142 388.491 67.9471C388.491 69.48 387.177 71.8889 387.177 71.8889Z" fill="url(#paint9_linear)"/>
<path d="M44.0315 265.635C44.1045 265.781 44.1045 265.854 44.0315 265.927C44.0315 265.854 43.9585 265.708 44.0315 265.635Z" fill="#EC1455"/>
<path d="M44.0312 267.606C44.1045 267.68 44.1045 267.753 44.0312 267.826C44.0312 267.753 44.0312 267.68 44.0312 267.606Z" fill="#EC1455"/>
<path d="M44.0312 269.723L44.1039 269.796C44.0312 269.796 44.0312 269.796 44.0312 269.723Z" fill="#EC1455"/>
<path d="M378.805 478.59C378.805 478.59 375.301 482.24 378.878 485.306C382.381 488.372 407.784 499.54 409.828 497.131C412.821 493.554 388.659 476.984 388.659 476.984L378.805 478.59Z" fill="#3F0C0B"/>
<path d="M339.897 474.721C339.897 474.721 342.744 479.977 339.897 482.386C337.05 484.795 301.573 484.284 303.836 482.167C306.099 480.05 328.728 472.896 328.728 472.896L336.685 472.458L339.897 474.721Z" fill="#3F0C0B"/>
<path d="M377.344 321.501C378.804 323.253 387.199 369.095 388.586 395.228C389.827 418.733 388.805 467.422 388.586 476.911C388.586 477.86 387.856 478.663 386.907 478.882C384.498 479.32 380.191 479.904 378.731 478.517C375.957 475.962 365.3 384.205 360.993 368.438C356.613 352.671 358.876 323.326 358.876 323.326L377.344 321.501Z" fill="url(#paint10_linear)"/>
<path d="M279.675 177.113L318.583 195.8C320.334 196.603 322.378 195.654 322.743 193.756L328.583 167.259C328.875 165.945 328.218 164.558 326.977 163.974L288.07 145.287C286.318 144.484 284.274 145.433 283.909 147.33L278.069 173.828C277.777 175.142 278.434 176.529 279.675 177.113Z" fill="#A3BCC1"/>
<path d="M282.011 176.383L317.049 192.734C318.582 193.464 320.407 192.588 320.845 190.982L326.174 167.842C326.466 166.674 325.809 165.434 324.714 164.923L289.675 148.571C288.142 147.841 286.318 148.717 285.88 150.323L280.551 173.463C280.259 174.631 280.843 175.799 282.011 176.383Z" fill="#F57982"/>
<path d="M347.124 319.457C346.394 321.355 334.496 350.554 330.7 394.206C328.145 423.259 328.583 464.064 328.729 472.969C328.729 473.991 329.459 474.94 330.481 475.086C333.474 475.67 339.386 476.619 339.897 474.721C340.554 472.166 356.103 369.314 359.022 360.481C361.942 351.649 360.993 322.231 360.993 322.231L347.124 319.457Z" fill="url(#paint11_linear)"/>
<path d="M353.986 253.03C353.986 253.03 315.954 238.576 315.298 222.882C314.568 207.188 312.743 197.625 315.298 193.172C317.852 188.72 314.495 182.88 312.232 181.931C309.969 180.982 305.516 179.157 307.633 181.931C309.75 184.705 310.699 188.72 309.969 189.158C309.239 189.596 305.297 189.377 305.297 189.377L299.676 187.041C299.676 187.041 302.742 195.435 305.078 198.647C307.414 201.786 299.019 220.984 309.312 237.554C319.604 254.125 345.299 267.702 345.299 267.702L353.986 253.03Z" fill="#F7B68B"/>
<path d="M356.468 252.519C355.884 251.716 338.438 243.029 335.737 244.27C333.036 245.511 328.145 258.213 329.313 260.476C330.481 262.738 348.584 267.629 346.905 267.629C345.226 267.629 359.096 256.242 356.468 252.519Z" fill="#EF964D"/>
<path d="M376.542 323.18C379.753 322.231 381.578 304.347 385.885 288.652C388.586 278.944 386.761 271.06 386.688 267.264C386.323 252.811 374.936 241.277 349.606 251.716C339.24 256.023 343.547 317.413 347.124 319.457C350.701 321.501 367.636 325.735 376.542 323.18Z" fill="#FA9F4D"/>
<path d="M372.015 229.963C372.015 229.963 372.964 249.088 372.015 250.256C371.066 251.424 368.73 258.724 363.037 254.855C357.343 250.986 363.037 247.701 363.037 247.701L363.621 232.664L372.015 229.963Z" fill="#F7B68B"/>
<path d="M373.695 221.495C373.695 221.495 382.6 227.481 388.732 223.612C394.864 219.743 399.609 211.714 395.448 203.83C395.448 203.83 398.149 191.932 391.287 186.53C384.425 181.055 377.856 182.369 377.856 182.369C377.856 182.369 374.425 172.66 367.271 172.514C360.117 172.368 353.694 177.989 353.11 177.989C352.526 177.989 344.35 175.726 339.313 179.449C334.276 183.172 326.028 199.669 332.525 203.538C339.021 207.407 339.97 205.655 339.97 205.655L350.847 186.165L354.278 190.472C354.278 190.472 362.307 197.771 362.891 198.063C363.475 198.355 371.505 204.195 371.505 204.195L376.688 210.473L373.695 221.495Z" fill="#EC772A"/>
<path d="M339.825 203.465C340.555 198.282 344.35 193.902 349.533 192.37C356.176 190.399 364.424 190.472 369.753 192.37C377.929 195.216 378.659 211.057 378.659 211.057C379.024 212.152 379.316 213.32 379.462 214.561C380.776 224.926 373.111 234.489 362.235 235.876C352.307 237.117 343.182 231.131 340.701 222.152C338.657 215.948 339.095 208.575 339.825 203.465Z" fill="#FFC197"/>
<path d="M353.037 189.377C353.037 189.377 352.526 209.524 366.103 213.466C379.681 217.407 385.885 208.867 385.885 208.867C385.885 208.867 372.819 178.792 353.037 189.377Z" fill="#EC772A"/>
<path d="M353.621 190.909C352.964 192.369 344.715 208.94 337.999 207.115C331.284 205.217 335.883 194.194 340.7 189.085C345.518 183.975 356.76 183.464 353.621 190.909Z" fill="#EC772A"/>
<path d="M378.513 222.59C381.214 222.225 383.185 219.743 382.82 216.969L382.747 216.239C382.382 213.539 379.9 211.568 377.126 211.933C374.425 212.298 372.454 214.779 372.819 217.553L372.892 218.283C373.257 220.984 375.812 222.955 378.513 222.59Z" fill="#FFC197"/>
<path d="M357.344 219.524C357.344 219.524 353.913 223.32 351.796 224.488C351.796 224.488 353.767 226.97 355.519 226.094C357.271 225.218 357.344 219.524 357.344 219.524Z" fill="#BC7646"/>
<path d="M354.57 207.261C354.57 207.261 352.745 210.765 349.606 211.203C349.606 211.203 353.913 212.371 354.57 207.261Z" fill="#BC7646"/>
<path d="M342.525 212.59C342.525 212.59 340.481 213.831 339.167 213.174C339.094 213.174 340.773 215.145 342.525 212.59Z" fill="#BC7646"/>
<path d="M343.839 213.612C343.839 213.612 342.89 219.743 343.401 220.692C343.912 221.641 344.423 221.641 345.299 220.911C346.175 220.181 343.839 213.612 343.839 213.612Z" fill="#BC7646"/>
<path d="M329.896 284.418C329.896 284.418 314.932 288.141 310.406 280.623C305.808 273.104 305.589 267.921 307.486 268.943C309.384 269.965 311.209 277.922 315.005 278.068C318.728 278.287 326.685 277.849 326.685 277.849L329.896 284.418Z" fill="#F7B68B"/>
<path d="M316.539 281.426C307.145 281.426 299.53 273.811 299.53 264.417C299.53 255.024 307.145 247.409 316.539 247.409C325.932 247.409 333.547 255.024 333.547 264.417C333.547 273.811 325.932 281.426 316.539 281.426Z" fill="url(#paint12_linear)"/>
<path d="M316.539 277.849C309.121 277.849 303.107 271.835 303.107 264.417C303.107 257 309.121 250.986 316.539 250.986C323.957 250.986 329.97 257 329.97 264.417C329.97 271.835 323.957 277.849 316.539 277.849Z" fill="#E5B35A"/>
<path d="M319.093 265.22C319.531 264.563 320.115 264.49 320.699 264.417C321.575 264.271 321.575 264.344 321.283 263.541C321.137 263.176 321.137 262.811 321.137 262.446C321.137 262.373 321.21 262.227 321.283 262.227C321.429 262.227 321.429 262.3 321.429 262.446C321.429 262.592 321.429 262.738 321.502 262.884C321.721 264.928 323.984 265.512 325.298 264.782C325.736 264.563 326.101 264.271 326.32 263.833C326.831 262.884 326.466 261.716 325.371 261.278C325.006 261.132 324.86 260.986 324.933 260.549C325.079 259.673 324.641 258.943 323.911 258.651C323.108 258.359 322.232 258.578 321.721 259.235C319.093 262.665 316.465 266.169 313.911 269.6C313.035 270.841 312.962 271.79 313.619 272.739C314.276 273.688 315.444 274.053 316.392 273.615C316.976 273.396 316.976 273.25 316.757 272.666C315.808 270.476 317.195 268.213 319.458 268.359C319.969 268.359 320.48 268.578 320.918 268.943C321.064 269.016 321.21 269.162 321.064 269.308C320.918 269.454 320.772 269.308 320.699 269.235C319.239 268.286 317.268 268.943 316.757 270.549C316.392 271.644 316.83 272.593 317.56 273.396C318.144 274.053 318.947 274.418 319.823 274.199C320.772 273.98 321.356 273.323 321.575 272.447C321.648 272.155 321.794 272.082 322.086 272.155C324.057 272.447 325.444 270.768 324.714 268.87C324.568 268.505 324.641 268.432 325.006 268.286C326.32 267.921 326.758 266.388 325.882 265.366C325.663 265.147 325.444 265.001 325.152 265.22C324.422 265.585 323.619 265.585 322.889 265.293C321.721 264.782 320.553 264.709 319.312 265.293C319.385 265.22 319.312 265.22 319.093 265.22ZM313.181 255.439C314.057 255.074 314.933 255.22 315.517 255.804C315.881 256.242 315.881 256.461 315.444 256.753C314.057 257.702 312.816 258.797 311.794 260.111C310.407 262.008 310.042 263.979 310.845 266.169C311.283 267.41 311.867 268.651 312.524 269.819C312.816 270.33 312.67 270.476 312.159 270.549C311.429 270.622 310.772 270.549 310.115 270.33C308.217 269.819 307.779 269.089 308.217 267.191C308.436 266.169 308.363 265.293 307.925 264.344C307.487 263.468 307.268 262.519 307.268 261.57C307.268 260.111 308.217 259.016 309.458 259.162C309.75 259.162 309.969 259.089 309.969 258.724C309.969 258.286 310.261 257.921 310.553 257.556C311.283 256.753 312.013 255.877 313.181 255.439ZM313.473 268.797C313.254 268.797 313.035 268.578 312.889 268.432C311.502 267.118 310.845 263.979 311.575 262.227C312.378 260.33 313.911 259.235 315.808 258.651C315.808 258.651 315.882 258.724 315.955 258.724C315.809 258.943 315.59 259.162 315.444 259.454C314.13 261.351 314.13 262.957 315.59 264.563C315.809 264.782 316.173 264.928 316.319 265.293C316.173 265.293 316.1 265.439 316.173 265.585C315.808 266.096 315.444 266.534 315.079 267.045C314.933 267.045 314.933 267.118 314.933 267.191C314.568 267.775 314.13 268.286 313.692 268.797C313.546 268.797 313.473 268.797 313.473 268.797ZM321.137 256.68C322.086 257.264 322.086 257.556 321.502 258.432C321.21 258.87 320.991 258.87 320.699 258.505C319.75 257.556 318.655 257.337 317.341 257.629C316.903 257.702 316.465 257.775 315.955 257.921C316.976 256.023 319.312 255.512 321.137 256.68ZM316.392 259.162C317.633 257.994 319.093 258.067 320.334 259.162C320.626 259.454 320.626 259.673 320.407 259.892C320.115 260.257 320.042 259.746 319.969 259.673C319.093 258.797 317.852 258.797 317.122 259.746C316.611 260.403 316.392 261.205 316.246 262.008C316.246 262.227 316.173 262.446 316.173 262.592C316.1 262.811 316.027 263.103 315.808 263.103C315.59 263.103 315.517 262.884 315.444 262.665C315.006 261.57 315.298 260.548 316.027 259.6C316.027 259.527 316.173 259.381 316.392 259.162ZM316.757 264.49C316.611 264.417 316.611 264.198 316.611 264.052C316.684 263.03 316.83 262.008 317.195 260.986C317.341 260.621 317.56 260.33 317.779 260.038C318.144 259.673 318.655 259.6 319.093 259.819C319.604 260.038 319.385 260.476 319.312 260.84C319.239 261.132 319.166 261.424 318.947 261.716C318.801 261.716 318.801 261.789 318.801 261.935C318.728 262.008 318.728 262.081 318.655 262.081C318.509 262.008 318.436 262.008 318.29 262.154C318.436 261.789 318.655 261.351 318.801 260.986C318.874 260.84 318.874 260.622 318.728 260.549C318.509 260.403 318.363 260.621 318.29 260.767C317.852 261.278 317.852 262.008 318.29 262.373C318.29 262.446 318.29 262.592 318.29 262.665C317.925 263.176 317.56 263.614 317.195 264.125C316.903 264.052 316.83 264.344 316.757 264.49ZM318.29 262.154C318.363 262.008 318.509 262.008 318.655 262.081C318.509 262.227 318.363 262.446 318.217 262.592C318.217 262.519 318.217 262.373 318.217 262.3C318.29 262.227 318.29 262.227 318.29 262.154ZM316.757 264.49C316.903 264.344 316.976 264.125 317.195 264.125C317.049 264.198 317.049 264.49 316.757 264.49ZM318.801 261.935C318.728 261.789 318.801 261.716 318.947 261.716C318.874 261.789 318.874 261.862 318.801 261.935Z" fill="#664407"/>
<path d="M319.093 265.147C319.531 264.49 320.115 264.417 320.699 264.344C321.575 264.198 321.575 264.271 321.283 263.468C321.137 263.103 321.137 262.738 321.137 262.373C321.137 262.3 321.21 262.154 321.283 262.154C321.429 262.154 321.429 262.227 321.429 262.373C321.429 262.519 321.429 262.665 321.502 262.811C321.721 264.855 323.984 265.439 325.298 264.709C325.736 264.49 326.101 264.198 326.32 263.76C326.831 262.811 326.466 261.643 325.371 261.205C325.006 261.059 324.86 260.913 324.933 260.476C325.079 259.6 324.641 258.87 323.911 258.578C323.108 258.286 322.232 258.505 321.721 259.162C319.093 262.592 316.465 266.096 313.911 269.527C313.035 270.768 312.962 271.717 313.619 272.666C314.276 273.615 315.444 273.98 316.392 273.542C316.976 273.323 316.976 273.177 316.757 272.593C315.808 270.403 317.195 268.14 319.458 268.286C319.969 268.286 320.48 268.505 320.918 268.87C321.064 268.943 321.21 269.089 321.064 269.235C320.918 269.381 320.772 269.235 320.699 269.162C319.239 268.213 317.268 268.87 316.757 270.476C316.392 271.571 316.83 272.52 317.56 273.323C318.144 273.98 318.947 274.345 319.823 274.126C320.772 273.907 321.356 273.25 321.575 272.374C321.648 272.082 321.794 272.009 322.086 272.082C324.057 272.374 325.444 270.695 324.714 268.797C324.568 268.432 324.641 268.359 325.006 268.213C326.32 267.848 326.758 266.315 325.882 265.293C325.663 265.074 325.444 264.928 325.152 265.147C324.422 265.512 323.619 265.512 322.889 265.22C321.721 264.709 320.553 264.636 319.312 265.22C319.312 265.147 319.239 265.147 319.093 265.147ZM313.108 255.366C313.984 255.001 314.86 255.147 315.444 255.731C315.808 256.169 315.809 256.388 315.371 256.68C313.984 257.629 312.743 258.724 311.721 260.038C310.334 261.935 309.969 263.906 310.772 266.096C311.21 267.337 311.794 268.578 312.451 269.746C312.743 270.257 312.597 270.403 312.086 270.476C311.356 270.549 310.699 270.476 310.042 270.257C308.144 269.746 307.706 269.016 308.144 267.118C308.363 266.096 308.29 265.22 307.852 264.271C307.414 263.395 307.195 262.446 307.195 261.497C307.195 260.038 308.144 258.943 309.385 259.089C309.677 259.089 309.896 259.016 309.896 258.651C309.896 258.213 310.188 257.848 310.48 257.483C311.21 256.68 311.94 255.804 313.108 255.366ZM313.4 268.724C313.181 268.724 312.962 268.505 312.816 268.359C311.429 267.045 310.772 263.906 311.502 262.154C312.305 260.257 313.838 259.162 315.736 258.578C315.736 258.578 315.809 258.651 315.881 258.651C315.736 258.87 315.517 259.089 315.371 259.381C314.057 261.278 314.057 262.884 315.517 264.49C315.736 264.709 316.1 264.855 316.246 265.22C316.1 265.22 316.027 265.366 316.1 265.512C315.736 266.023 315.371 266.461 315.006 266.972C314.86 266.972 314.86 267.045 314.86 267.118C314.495 267.702 314.057 268.213 313.619 268.724C313.473 268.724 313.4 268.724 313.4 268.724ZM321.064 256.607C322.013 257.191 322.013 257.483 321.429 258.359C321.137 258.797 320.918 258.797 320.626 258.432C319.677 257.483 318.582 257.264 317.268 257.556C316.83 257.629 316.392 257.702 315.881 257.848C316.976 256.023 319.239 255.512 321.064 256.607ZM316.319 259.162C317.56 257.994 319.02 258.067 320.261 259.162C320.553 259.454 320.553 259.673 320.334 259.892C320.042 260.257 319.969 259.746 319.896 259.673C319.02 258.797 317.779 258.797 317.049 259.746C316.538 260.403 316.319 261.205 316.173 262.008C316.173 262.227 316.1 262.446 316.1 262.592C316.027 262.811 315.954 263.103 315.736 263.103C315.517 263.103 315.444 262.884 315.371 262.665C314.933 261.57 315.225 260.549 315.954 259.6C315.954 259.527 316.1 259.308 316.319 259.162ZM316.684 264.417C316.538 264.344 316.538 264.125 316.538 263.979C316.611 262.957 316.757 261.935 317.122 260.913C317.268 260.549 317.487 260.257 317.706 259.965C318.071 259.6 318.582 259.527 319.02 259.746C319.531 259.965 319.312 260.403 319.239 260.767C319.166 261.059 319.093 261.351 318.874 261.643C318.728 261.643 318.728 261.716 318.728 261.862C318.655 261.935 318.655 262.008 318.582 262.008C318.436 261.935 318.363 261.935 318.217 262.081C318.363 261.716 318.582 261.278 318.728 260.913C318.801 260.768 318.801 260.549 318.655 260.476C318.436 260.33 318.29 260.549 318.217 260.694C317.779 261.205 317.779 261.935 318.217 262.3C318.217 262.373 318.217 262.519 318.217 262.592C317.852 263.103 317.487 263.541 317.122 264.052C316.83 264.052 316.757 264.271 316.684 264.417ZM318.217 262.081C318.29 261.935 318.436 261.935 318.582 262.008C318.436 262.154 318.29 262.373 318.144 262.519C318.144 262.446 318.144 262.3 318.144 262.227C318.217 262.227 318.217 262.154 318.217 262.081ZM316.684 264.417C316.83 264.271 316.903 264.052 317.122 264.052C316.976 264.198 316.976 264.49 316.684 264.417ZM318.728 261.862C318.655 261.716 318.728 261.643 318.874 261.643C318.801 261.716 318.801 261.789 318.728 261.862Z" fill="#FFD277"/>
<path d="M370.702 274.564C370.702 274.564 366.103 298.507 355.08 296.463C344.058 294.419 332.086 279.966 332.086 279.966C332.086 279.966 331.721 275.513 328.947 274.637C326.101 273.688 324.057 272.301 322.67 272.593C321.283 272.812 322.013 275.148 323.838 276.754C325.663 278.36 328.655 282.083 332.159 287.557C335.59 293.105 349.678 318.143 368.147 305.515C386.615 292.886 386.469 275.148 384.863 274.418C383.257 273.688 370.702 274.564 370.702 274.564Z" fill="#F7B68B"/>
<path d="M388.878 278.433C388.878 278.433 388.002 289.966 385.447 290.623C382.892 291.28 366.103 283.908 366.322 281.645C366.541 279.309 371.87 256.899 377.564 255.585C383.257 254.271 391.287 256.972 388.805 277.265C386.323 297.558 388.878 278.433 388.878 278.433Z" fill="#FFAD69"/>
<path d="M292.336 162.376L297.372 159.745C297.421 159.691 297.524 159.686 297.579 159.735L298.571 159.944C298.831 159.982 298.896 160.237 298.803 160.449L291.947 173.145C291.903 173.302 291.648 173.367 291.54 173.269L290.96 173.04C290.748 172.947 290.635 172.746 290.782 172.583L297.081 161.155C297.179 161.047 297.071 160.949 296.919 161.009L293.692 162.618C293.643 162.672 293.54 162.677 293.437 162.682L292.336 162.376Z" fill="#FFC197"/>
<path d="M299.569 164.39L304.605 161.759C304.654 161.705 304.757 161.7 304.811 161.749L305.804 161.958C306.064 161.996 306.129 162.251 306.036 162.463L299.18 175.159C299.136 175.316 298.881 175.381 298.773 175.283L298.193 175.053C297.981 174.961 297.868 174.76 298.015 174.597L304.314 163.169C304.412 163.061 304.304 162.963 304.152 163.022L300.925 164.632C300.876 164.686 300.773 164.691 300.67 164.696L299.569 164.39Z" fill="#FFC197"/>
<path d="M308.281 170.102L315.351 171.97L314.55 173.509L307.399 171.077L307.804 169.868L308.281 170.102Z" fill="#FFC197"/>
<path d="M311.811 168.374L308.655 174.476L310.011 174.718L313.288 167.938L312.056 168.104L311.811 168.374Z" fill="#FFC197"/>
<path d="M190.536 240.744C190.536 240.744 191.85 225.706 194.551 226.509C197.252 227.312 201.705 230.378 201.705 230.378C201.705 230.378 215.647 225.633 231.268 230.378C231.268 230.378 237.4 224.611 239.517 225.56C241.634 226.509 242.218 236.072 242.218 241.546C242.218 241.546 248.934 288.337 238.86 299.433C228.786 310.456 205.354 309.799 195.646 299.433C185.937 289.067 185.937 269.139 190.536 240.744Z" fill="url(#paint13_linear)"/>
<path d="M204.551 264.322C210.437 264.322 215.209 259.289 215.209 253.08C215.209 246.872 210.437 241.839 204.551 241.839C198.665 241.839 193.894 246.872 193.894 253.08C193.894 259.289 198.665 264.322 204.551 264.322Z" fill="#FFD277"/>
<path d="M228.421 264.322C234.307 264.322 239.079 259.289 239.079 253.08C239.079 246.872 234.307 241.839 228.421 241.839C222.535 241.839 217.764 246.872 217.764 253.08C217.764 259.289 222.535 264.322 228.421 264.322Z" fill="#FFD277"/>
<path d="M228.421 254.978C229.429 254.978 230.246 254.128 230.246 253.08C230.246 252.032 229.429 251.182 228.421 251.182C227.413 251.182 226.596 252.032 226.596 253.08C226.596 254.128 227.413 254.978 228.421 254.978Z" fill="#3F0C0B"/>
<path d="M204.551 254.978C205.559 254.978 206.376 254.128 206.376 253.08C206.376 252.032 205.559 251.182 204.551 251.182C203.543 251.182 202.726 252.032 202.726 253.08C202.726 254.128 203.543 254.978 204.551 254.978Z" fill="#3F0C0B"/>
<path d="M187.543 263.008C187.543 263.008 191.63 271.037 196.667 273.884C201.704 276.731 212.945 281.768 210.099 288.411C207.252 294.98 199.003 285.71 199.003 285.71C199.003 285.71 200.39 291.038 195.572 289.579C190.754 288.192 190.681 283.082 190.681 283.082C190.681 283.082 188.856 285.783 188.491 283.958C188.272 282.06 186.813 268.263 187.543 263.008Z" fill="url(#paint14_linear)"/>
<path d="M244.188 263.008C244.188 263.008 240.1 271.037 235.063 273.884C230.026 276.731 218.785 281.768 221.632 288.411C224.479 294.98 232.727 285.71 232.727 285.71C232.727 285.71 231.34 291.038 236.158 289.579C240.976 288.192 241.049 283.082 241.049 283.082C241.049 283.082 243.604 285.637 243.896 283.812C244.115 281.914 244.918 268.263 244.188 263.008Z" fill="url(#paint15_linear)"/>
<path d="M216.449 262.934C216.449 262.934 219.442 262.642 220.172 264.321C220.902 266 217.982 271.913 217.106 271.548C216.23 271.183 213.237 266.438 213.967 264.321C214.259 263.372 216.449 262.934 216.449 262.934Z" fill="url(#paint16_linear)"/>
<path d="M214.333 228.334C214.333 228.334 217.909 228.115 221.048 228.48C221.048 228.48 221.048 233.152 220.391 233.809C219.734 234.466 214.698 234.393 214.333 233.517C213.968 232.641 214.333 228.334 214.333 228.334Z" fill="url(#paint17_linear)"/>
<path d="M213.384 183.076C226.768 183.076 237.619 172.226 237.619 158.841C237.619 145.457 226.768 134.606 213.384 134.606C199.999 134.606 189.149 145.457 189.149 158.841C189.149 172.226 199.999 183.076 213.384 183.076Z" fill="url(#paint18_linear)"/>
<path d="M213.384 178.04C223.987 178.04 232.582 169.444 232.582 158.841C232.582 148.239 223.987 139.643 213.384 139.643C202.781 139.643 194.186 148.239 194.186 158.841C194.186 169.444 202.781 178.04 213.384 178.04Z" fill="#E5B35A"/>
<path d="M209.734 157.6C209.734 156.505 209.15 155.921 208.566 155.337C207.69 154.461 207.69 154.461 208.639 153.804C209.077 153.512 209.442 153.147 209.807 152.709C209.88 152.563 209.953 152.417 209.807 152.344C209.661 152.198 209.588 152.344 209.442 152.417C209.296 152.563 209.15 152.709 209.004 152.928C207.033 155.045 203.894 153.804 203.091 151.833C202.799 151.176 202.58 150.593 202.726 149.863C202.945 148.257 204.332 147.308 206.011 147.746C206.595 147.892 206.814 147.892 207.106 147.308C207.69 146.213 208.785 145.702 209.953 145.994C211.121 146.286 211.924 147.308 211.924 148.549C211.924 154.753 211.924 160.958 211.924 167.163C211.924 169.353 211.121 170.521 209.588 170.959C207.982 171.397 206.449 170.886 205.646 169.572C205.208 168.842 205.281 168.623 206.011 168.185C208.931 166.579 209.296 162.783 206.595 160.958C205.938 160.52 205.208 160.374 204.478 160.301C204.259 160.301 203.967 160.301 203.967 160.52C203.967 160.812 204.259 160.739 204.478 160.739C206.96 160.885 208.639 163.294 207.763 165.63C207.179 167.163 205.938 167.893 204.478 168.185C203.237 168.404 202.069 168.112 201.193 167.09C200.317 165.995 200.171 164.827 200.682 163.513C200.828 163.075 200.755 162.929 200.39 162.71C197.836 161.396 197.763 158.184 200.244 156.724C200.755 156.432 200.755 156.286 200.39 155.848C199.222 154.315 200.098 152.198 201.923 151.76C202.361 151.687 202.653 151.76 202.945 152.198C203.456 153.22 204.332 153.95 205.427 154.242C207.179 154.68 208.639 155.629 209.442 157.308C209.442 157.308 209.588 157.381 209.734 157.6ZM224.99 151.541C224.26 150.374 223.165 149.79 222.07 150.009C221.268 150.155 221.049 150.447 221.341 151.249C222.143 153.512 222.581 155.775 222.581 158.184C222.581 161.542 221.195 164.097 218.494 165.995C216.888 167.09 215.209 167.893 213.457 168.696C212.727 168.988 212.654 169.28 213.238 169.864C213.968 170.594 214.844 171.032 215.793 171.397C218.421 172.419 219.516 172.054 220.611 169.426C221.195 168.039 222.07 167.09 223.384 166.433C224.625 165.776 225.647 164.9 226.523 163.805C227.837 162.126 227.691 160.155 226.085 159.133C225.72 158.914 225.574 158.622 225.866 158.184C226.231 157.673 226.231 157.016 226.231 156.359C226.012 154.753 225.866 153.074 224.99 151.541ZM213.165 166.579C213.457 166.725 213.822 166.725 214.114 166.725C216.815 166.433 220.319 163.44 220.903 160.739C221.56 157.892 220.757 155.337 219.151 153.001C219.151 153.001 219.078 153.001 218.932 153.001C218.932 153.439 218.932 153.804 218.932 154.242C218.786 157.6 217.399 159.352 214.406 159.936C213.968 160.009 213.457 159.936 213.019 160.155C213.165 160.301 213.165 160.52 212.946 160.593C212.946 161.469 212.946 162.345 212.946 163.221C213.092 163.294 213.092 163.44 212.946 163.513C212.873 164.462 212.873 165.484 212.946 166.433C213.019 166.433 213.092 166.506 213.165 166.579ZM214.844 146.14C213.238 145.994 212.946 146.286 212.873 147.819C212.8 148.549 213.092 148.695 213.749 148.622C215.647 148.33 217.107 149.133 218.348 150.447C218.786 150.885 219.151 151.395 219.662 151.906C220.027 148.987 217.91 146.432 214.844 146.14ZM218.056 153.074C217.618 150.739 215.866 149.425 213.53 149.717C212.946 149.79 212.8 150.082 212.8 150.52C212.873 151.176 213.311 150.666 213.53 150.666C215.282 150.447 216.669 151.541 216.742 153.147C216.742 154.388 216.377 155.483 215.72 156.505C215.574 156.724 215.428 157.016 215.282 157.308C215.136 157.6 214.99 157.965 215.282 158.184C215.574 158.403 215.866 158.184 216.085 158.038C217.545 157.162 218.056 155.775 218.056 154.023C218.129 153.804 218.129 153.439 218.056 153.074ZM213.165 158.768C213.457 158.768 213.53 158.549 213.676 158.403C214.479 157.162 215.209 155.848 215.647 154.461C215.793 153.95 215.866 153.366 215.793 152.855C215.72 152.125 215.209 151.614 214.552 151.468C213.822 151.322 213.603 151.979 213.384 152.49C213.238 152.928 213.019 153.366 213.092 153.804C213.238 153.95 213.238 154.023 213.092 154.096C213.092 154.169 213.092 154.315 213.092 154.388C213.311 154.388 213.457 154.534 213.457 154.753C213.603 154.169 213.749 153.585 213.895 153.001C213.968 152.782 214.114 152.49 214.406 152.563C214.771 152.636 214.771 152.928 214.771 153.22C214.844 154.169 214.187 155.045 213.384 155.118C213.311 155.264 213.165 155.337 213.092 155.483C213.092 156.359 213.092 157.235 213.092 158.038C213.238 158.184 213.092 158.549 213.165 158.768ZM213.311 154.826C213.311 154.607 213.165 154.461 212.946 154.461C212.946 154.753 212.946 155.118 212.946 155.41C213.019 155.264 213.165 155.191 213.238 155.045C213.311 154.972 213.311 154.899 213.311 154.826ZM213.165 158.768C213.165 158.476 213.311 158.184 213.019 157.965C213.019 158.257 212.727 158.622 213.165 158.768ZM212.946 154.096C213.092 154.023 213.165 153.877 212.946 153.804C212.946 153.877 212.946 154.023 212.946 154.096Z" fill="#664407"/>
<path d="M209.88 157.6C209.88 156.505 209.296 155.921 208.712 155.337C207.836 154.461 207.836 154.461 208.785 153.804C209.223 153.512 209.588 153.147 209.953 152.709C210.026 152.563 210.099 152.417 209.953 152.344C209.807 152.198 209.734 152.344 209.588 152.417C209.442 152.563 209.296 152.709 209.15 152.928C207.179 155.045 204.04 153.804 203.237 151.833C202.945 151.176 202.726 150.593 202.872 149.863C203.091 148.257 204.478 147.308 206.157 147.746C206.741 147.892 206.96 147.892 207.252 147.308C207.836 146.213 208.931 145.702 210.099 145.994C211.267 146.286 212.07 147.308 212.07 148.549C212.07 154.753 212.07 160.958 212.07 167.163C212.07 169.353 211.267 170.521 209.734 170.959C208.128 171.397 206.595 170.886 205.792 169.572C205.354 168.842 205.427 168.623 206.157 168.185C209.077 166.579 209.442 162.783 206.741 160.958C206.084 160.52 205.354 160.374 204.624 160.301C204.405 160.301 204.113 160.301 204.113 160.52C204.113 160.812 204.405 160.739 204.624 160.739C207.106 160.885 208.785 163.294 207.909 165.63C207.325 167.163 206.084 167.893 204.624 168.185C203.383 168.404 202.215 168.112 201.339 167.09C200.463 165.995 200.317 164.827 200.828 163.513C200.974 163.075 200.901 162.929 200.536 162.71C197.982 161.396 197.909 158.184 200.39 156.724C200.901 156.432 200.901 156.286 200.536 155.848C199.368 154.315 200.244 152.198 202.069 151.76C202.507 151.687 202.799 151.76 203.091 152.198C203.602 153.22 204.478 153.95 205.573 154.242C207.325 154.68 208.785 155.629 209.588 157.308C209.588 157.308 209.661 157.381 209.88 157.6ZM225.063 151.541C224.333 150.374 223.238 149.79 222.143 150.009C221.341 150.155 221.122 150.447 221.414 151.249C222.216 153.512 222.654 155.775 222.654 158.184C222.654 161.542 221.268 164.097 218.567 165.995C216.961 167.09 215.282 167.893 213.53 168.696C212.8 168.988 212.727 169.28 213.311 169.864C214.041 170.594 214.917 171.032 215.866 171.397C218.494 172.419 219.589 172.054 220.684 169.426C221.268 168.039 222.143 167.09 223.457 166.433C224.698 165.776 225.72 164.9 226.596 163.805C227.91 162.126 227.764 160.155 226.158 159.133C225.793 158.914 225.647 158.622 225.939 158.184C226.304 157.673 226.304 157.016 226.304 156.359C226.085 154.753 226.012 153.074 225.063 151.541ZM213.238 166.579C213.53 166.725 213.895 166.725 214.187 166.725C216.888 166.433 220.392 163.44 220.976 160.739C221.633 157.892 220.83 155.337 219.224 153.001C219.224 153.001 219.151 153.001 219.005 153.001C219.005 153.439 219.005 153.804 219.005 154.242C218.859 157.6 217.472 159.352 214.479 159.936C214.041 160.009 213.53 159.936 213.092 160.155C213.238 160.301 213.238 160.52 213.019 160.593C213.019 161.469 213.019 162.345 213.019 163.221C213.165 163.294 213.165 163.44 213.019 163.513C212.946 164.462 212.946 165.484 213.019 166.433C213.165 166.433 213.238 166.506 213.238 166.579ZM214.99 146.14C213.384 145.994 213.092 146.286 213.019 147.819C212.946 148.549 213.238 148.695 213.895 148.622C215.793 148.33 217.253 149.133 218.494 150.447C218.932 150.885 219.297 151.395 219.808 151.906C220.173 148.987 218.056 146.432 214.99 146.14ZM218.202 153.074C217.764 150.739 216.012 149.425 213.676 149.717C213.092 149.79 212.946 150.082 212.946 150.52C213.019 151.176 213.457 150.666 213.676 150.666C215.428 150.447 216.815 151.541 216.888 153.147C216.888 154.388 216.523 155.483 215.866 156.505C215.72 156.724 215.574 157.016 215.428 157.308C215.282 157.6 215.136 157.965 215.428 158.184C215.72 158.403 216.012 158.184 216.231 158.038C217.691 157.162 218.202 155.775 218.202 154.023C218.275 153.804 218.275 153.439 218.202 153.074ZM213.238 158.768C213.53 158.768 213.603 158.549 213.749 158.403C214.552 157.162 215.282 155.848 215.72 154.461C215.866 153.95 215.939 153.366 215.866 152.855C215.793 152.125 215.282 151.614 214.625 151.468C213.895 151.322 213.676 151.979 213.457 152.49C213.311 152.928 213.092 153.366 213.165 153.804C213.311 153.95 213.311 154.023 213.165 154.096C213.165 154.169 213.165 154.315 213.165 154.388C213.384 154.388 213.53 154.534 213.53 154.753C213.676 154.169 213.822 153.585 213.968 153.001C214.041 152.782 214.187 152.49 214.479 152.563C214.844 152.636 214.844 152.928 214.844 153.22C214.917 154.169 214.26 155.045 213.457 155.118C213.384 155.264 213.238 155.337 213.165 155.483C213.165 156.359 213.165 157.235 213.165 158.038C213.384 158.184 213.238 158.549 213.238 158.768ZM213.457 154.826C213.457 154.607 213.311 154.461 213.092 154.461C213.092 154.753 213.092 155.118 213.092 155.41C213.165 155.264 213.311 155.191 213.384 155.045C213.384 154.972 213.457 154.899 213.457 154.826ZM213.238 158.768C213.238 158.476 213.384 158.184 213.092 157.965C213.165 158.257 212.873 158.622 213.238 158.768ZM213.092 154.096C213.238 154.023 213.311 153.877 213.092 153.804C213.092 153.877 213.092 154.023 213.092 154.096Z" fill="#FFD277"/>
<path d="M249.736 214.757C255.3 214.757 259.81 210.247 259.81 204.683C259.81 199.12 255.3 194.61 249.736 194.61C244.173 194.61 239.663 199.12 239.663 204.683C239.663 210.247 244.173 214.757 249.736 214.757Z" fill="url(#paint19_linear)"/>
<path d="M249.736 212.64C254.131 212.64 257.693 209.077 257.693 204.683C257.693 200.289 254.131 196.726 249.736 196.726C245.342 196.726 241.78 200.289 241.78 204.683C241.78 209.077 245.342 212.64 249.736 212.64Z" fill="#E5B35A"/>
<path d="M248.204 204.172C248.204 203.734 247.985 203.442 247.693 203.223C247.328 202.858 247.328 202.858 247.766 202.566C247.985 202.42 248.131 202.274 248.277 202.128C248.277 202.055 248.35 202.055 248.277 201.982C248.204 201.909 248.204 201.982 248.131 201.982C248.058 202.055 247.985 202.128 247.985 202.201C247.182 203.077 245.868 202.566 245.503 201.763C245.43 201.471 245.284 201.252 245.357 200.96C245.43 200.303 246.014 199.938 246.671 200.084C246.89 200.157 247.036 200.157 247.109 199.865C247.328 199.427 247.839 199.208 248.277 199.354C248.788 199.5 249.08 199.865 249.08 200.376C249.08 202.931 249.08 205.486 249.08 208.041C249.08 208.917 248.715 209.428 248.131 209.647C247.474 209.866 246.817 209.647 246.525 209.063C246.306 208.771 246.379 208.698 246.671 208.479C247.912 207.822 248.058 206.216 246.89 205.486C246.598 205.34 246.306 205.267 246.014 205.194C245.941 205.194 245.795 205.194 245.795 205.267C245.795 205.413 245.941 205.34 246.014 205.34C247.036 205.413 247.766 206.435 247.401 207.384C247.182 208.041 246.671 208.333 246.014 208.406C245.503 208.479 244.992 208.406 244.627 207.968C244.262 207.53 244.189 207.019 244.408 206.508C244.481 206.362 244.481 206.289 244.262 206.143C243.24 205.559 243.167 204.245 244.189 203.661C244.408 203.515 244.408 203.442 244.262 203.296C243.824 202.639 244.116 201.763 244.919 201.617C245.138 201.544 245.211 201.617 245.357 201.763C245.576 202.201 245.941 202.493 246.379 202.566C247.109 202.785 247.693 203.15 248.058 203.807C248.131 204.026 248.131 204.099 248.204 204.172ZM254.555 201.69C254.263 201.179 253.825 200.96 253.314 201.033C252.949 201.106 252.876 201.179 253.022 201.544C253.387 202.493 253.533 203.442 253.533 204.391C253.533 205.778 252.949 206.8 251.854 207.603C251.197 208.041 250.467 208.406 249.737 208.698C249.445 208.844 249.445 208.99 249.664 209.209C249.956 209.501 250.321 209.72 250.686 209.866C251.781 210.304 252.219 210.158 252.657 209.063C252.876 208.479 253.241 208.114 253.825 207.822C254.336 207.53 254.773 207.165 255.138 206.727C255.649 205.997 255.576 205.194 254.919 204.829C254.774 204.756 254.701 204.61 254.846 204.464C254.992 204.245 254.992 203.953 254.992 203.734C254.92 202.931 254.919 202.274 254.555 201.69ZM249.664 207.895C249.81 207.968 249.956 207.968 250.029 207.968C251.124 207.895 252.584 206.581 252.876 205.486C253.168 204.318 252.803 203.223 252.146 202.274H252.073C252.073 202.42 252.073 202.639 252.073 202.785C252 204.172 251.416 204.902 250.175 205.121C249.956 205.194 249.81 205.121 249.591 205.194C249.664 205.267 249.664 205.34 249.591 205.413C249.591 205.778 249.591 206.143 249.591 206.508C249.664 206.581 249.664 206.581 249.591 206.654C249.518 207.019 249.518 207.384 249.664 207.895C249.591 207.822 249.591 207.822 249.664 207.895ZM250.321 199.427C249.664 199.354 249.518 199.5 249.518 200.157C249.518 200.449 249.591 200.522 249.883 200.449C250.686 200.303 251.27 200.668 251.781 201.179C251.927 201.398 252.146 201.544 252.292 201.763C252.511 200.595 251.635 199.5 250.321 199.427ZM251.708 202.274C251.562 201.325 250.832 200.814 249.81 200.887C249.591 200.887 249.518 201.033 249.518 201.252C249.518 201.544 249.737 201.325 249.81 201.325C250.54 201.252 251.124 201.69 251.124 202.347C251.124 202.858 250.978 203.296 250.686 203.734C250.613 203.807 250.54 203.953 250.54 204.026C250.467 204.172 250.394 204.318 250.54 204.391C250.686 204.464 250.759 204.391 250.905 204.318C251.489 203.953 251.708 203.369 251.708 202.639C251.708 202.566 251.708 202.42 251.708 202.274ZM249.664 204.683C249.737 204.683 249.81 204.61 249.883 204.537C250.248 204.026 250.54 203.515 250.686 202.931C250.759 202.712 250.759 202.493 250.759 202.274C250.686 201.982 250.54 201.763 250.248 201.69C249.956 201.617 249.883 201.909 249.737 202.128C249.664 202.274 249.591 202.493 249.591 202.639C249.664 202.712 249.664 202.712 249.591 202.785C249.591 202.858 249.591 202.858 249.591 202.931C249.664 202.931 249.737 203.004 249.737 203.077C249.81 202.858 249.883 202.566 249.956 202.347C249.956 202.274 250.029 202.128 250.175 202.128C250.321 202.128 250.321 202.274 250.321 202.42C250.321 202.785 250.102 203.15 249.737 203.223C249.664 203.296 249.664 203.296 249.591 203.369C249.591 203.734 249.591 204.099 249.591 204.464C249.664 204.391 249.591 204.537 249.664 204.683ZM249.737 203.004C249.737 202.931 249.664 202.858 249.591 202.858C249.591 203.004 249.591 203.15 249.591 203.296C249.664 203.223 249.664 203.223 249.737 203.15C249.664 203.077 249.737 203.004 249.737 203.004ZM249.664 204.683C249.664 204.537 249.737 204.464 249.591 204.318C249.591 204.464 249.445 204.537 249.664 204.683ZM249.591 202.712C249.664 202.639 249.664 202.639 249.591 202.566C249.591 202.639 249.591 202.639 249.591 202.712Z" fill="#664407"/>
<path d="M248.277 204.172C248.277 203.734 248.058 203.442 247.766 203.223C247.401 202.858 247.401 202.858 247.839 202.566C248.058 202.42 248.204 202.274 248.35 202.128C248.35 202.055 248.423 202.055 248.35 201.982C248.277 201.909 248.277 201.982 248.204 201.982C248.131 202.055 248.058 202.128 248.058 202.201C247.255 203.077 245.941 202.566 245.576 201.763C245.503 201.471 245.357 201.252 245.43 200.96C245.503 200.303 246.087 199.938 246.744 200.084C246.963 200.157 247.109 200.157 247.182 199.865C247.401 199.427 247.912 199.208 248.35 199.354C248.861 199.5 249.153 199.865 249.153 200.376C249.153 202.931 249.153 205.486 249.153 208.041C249.153 208.917 248.788 209.428 248.204 209.647C247.547 209.866 246.89 209.647 246.598 209.063C246.379 208.771 246.452 208.698 246.744 208.479C247.985 207.822 248.131 206.216 246.963 205.486C246.671 205.34 246.379 205.267 246.087 205.194C246.014 205.194 245.868 205.194 245.868 205.267C245.868 205.413 246.014 205.34 246.087 205.34C247.109 205.413 247.839 206.435 247.474 207.384C247.255 208.041 246.744 208.333 246.087 208.406C245.576 208.479 245.065 208.406 244.7 207.968C244.335 207.53 244.262 207.019 244.481 206.508C244.554 206.362 244.554 206.289 244.335 206.143C243.313 205.559 243.24 204.245 244.262 203.661C244.481 203.515 244.481 203.442 244.335 203.296C243.897 202.639 244.189 201.763 244.992 201.617C245.211 201.544 245.284 201.617 245.43 201.763C245.649 202.201 246.014 202.493 246.452 202.566C247.182 202.785 247.766 203.15 248.131 203.807C248.131 204.026 248.204 204.099 248.277 204.172ZM254.554 201.69C254.262 201.179 253.824 200.96 253.313 201.033C252.948 201.106 252.875 201.179 253.021 201.544C253.386 202.493 253.532 203.442 253.532 204.391C253.532 205.778 252.948 206.8 251.853 207.603C251.196 208.041 250.466 208.406 249.736 208.698C249.444 208.844 249.444 208.99 249.663 209.209C249.955 209.501 250.32 209.72 250.685 209.866C251.78 210.304 252.218 210.158 252.656 209.063C252.875 208.479 253.24 208.114 253.824 207.822C254.335 207.53 254.773 207.165 255.138 206.727C255.649 205.997 255.576 205.194 254.919 204.829C254.773 204.756 254.7 204.61 254.846 204.464C254.992 204.245 254.992 203.953 254.992 203.734C254.992 202.931 254.919 202.274 254.554 201.69ZM249.663 207.895C249.809 207.968 249.955 207.968 250.028 207.968C251.123 207.895 252.583 206.581 252.875 205.486C253.167 204.318 252.802 203.223 252.145 202.274H252.072C252.072 202.42 252.072 202.639 252.072 202.785C251.999 204.172 251.415 204.902 250.174 205.121C249.955 205.194 249.809 205.121 249.59 205.194C249.663 205.267 249.663 205.34 249.59 205.413C249.59 205.778 249.59 206.143 249.59 206.508C249.663 206.581 249.663 206.581 249.59 206.654C249.59 207.019 249.59 207.384 249.663 207.895C249.663 207.822 249.663 207.822 249.663 207.895ZM250.393 199.427C249.736 199.354 249.59 199.5 249.59 200.157C249.59 200.449 249.663 200.522 249.955 200.449C250.758 200.303 251.342 200.668 251.853 201.179C251.999 201.398 252.218 201.544 252.364 201.763C252.51 200.595 251.634 199.5 250.393 199.427ZM251.707 202.274C251.561 201.325 250.831 200.814 249.809 200.887C249.59 200.887 249.517 201.033 249.517 201.252C249.517 201.544 249.736 201.325 249.809 201.325C250.539 201.252 251.123 201.69 251.123 202.347C251.123 202.858 250.977 203.296 250.685 203.734C250.612 203.807 250.539 203.953 250.539 204.026C250.466 204.172 250.393 204.318 250.539 204.391C250.685 204.464 250.758 204.391 250.904 204.318C251.488 203.953 251.707 203.369 251.707 202.639C251.78 202.566 251.78 202.42 251.707 202.274ZM249.663 204.683C249.736 204.683 249.809 204.61 249.882 204.537C250.247 204.026 250.539 203.515 250.685 202.931C250.758 202.712 250.758 202.493 250.758 202.274C250.685 201.982 250.539 201.763 250.247 201.69C249.955 201.617 249.882 201.909 249.736 202.128C249.663 202.274 249.59 202.493 249.59 202.639C249.663 202.712 249.663 202.712 249.59 202.785C249.59 202.858 249.59 202.858 249.59 202.931C249.663 202.931 249.736 203.004 249.736 203.077C249.809 202.858 249.882 202.566 249.955 202.347C249.955 202.274 250.028 202.128 250.174 202.128C250.32 202.128 250.32 202.274 250.32 202.42C250.32 202.785 250.101 203.15 249.736 203.223C249.663 203.296 249.663 203.296 249.59 203.369C249.59 203.734 249.59 204.099 249.59 204.464C249.736 204.391 249.663 204.537 249.663 204.683ZM249.736 203.004C249.736 202.931 249.663 202.858 249.59 202.858C249.59 203.004 249.59 203.15 249.59 203.296C249.663 203.223 249.663 203.223 249.736 203.15C249.736 203.077 249.736 203.004 249.736 203.004ZM249.663 204.683C249.663 204.537 249.736 204.464 249.59 204.318C249.663 204.464 249.517 204.537 249.663 204.683ZM249.59 202.712C249.663 202.639 249.663 202.639 249.59 202.566C249.59 202.639 249.59 202.639 249.59 202.712Z" fill="#FFD277"/>
<path d="M282.95 144.753C303.026 144.753 319.302 128.477 319.302 108.4C319.302 88.3235 303.026 72.0479 282.95 72.0479C262.873 72.0479 246.597 88.3235 246.597 108.4C246.597 128.477 262.873 144.753 282.95 144.753Z" fill="url(#paint20_linear)"/>
<path d="M282.949 137.161C298.833 137.161 311.71 124.285 311.71 108.4C311.71 92.5163 298.833 79.6396 282.949 79.6396C267.065 79.6396 254.188 92.5163 254.188 108.4C254.188 124.285 267.065 137.161 282.949 137.161Z" fill="#E5B35A"/>
<path d="M278.132 105.188C278.57 103.582 277.913 102.488 277.256 101.393C276.234 99.7866 276.234 99.7866 277.986 99.2027C278.716 98.9107 279.446 98.5457 280.103 97.9617C280.249 97.8157 280.395 97.5967 280.249 97.4508C280.103 97.2318 279.884 97.3778 279.738 97.4508C279.446 97.5967 279.227 97.8157 278.935 97.9617C275.285 100.371 271.197 97.3778 270.759 94.1659C270.613 93.1439 270.54 92.195 270.905 91.173C271.781 88.9831 274.19 88.0342 276.38 89.2751C277.183 89.7131 277.548 89.7861 278.205 89.0561C279.446 87.5962 281.271 87.3772 282.803 88.1802C284.409 89.0561 285.212 90.808 284.774 92.633C282.511 101.685 280.322 110.663 277.986 119.642C277.183 122.781 275.577 124.168 273.168 124.314C270.686 124.46 268.642 123.073 267.912 120.883C267.547 119.642 267.693 119.35 268.934 119.058C273.825 117.744 275.65 112.342 272.438 108.838C271.635 107.962 270.686 107.451 269.518 107.159C269.226 107.086 268.788 106.94 268.715 107.305C268.569 107.743 269.08 107.67 269.372 107.816C272.949 108.911 274.482 113.072 272.438 116.138C271.051 118.182 269.007 118.693 266.671 118.62C264.773 118.547 263.167 117.671 262.291 115.846C261.415 113.948 261.634 112.123 262.875 110.517C263.313 109.933 263.24 109.714 262.729 109.276C259.517 106.429 260.539 101.758 264.627 100.517C265.43 100.298 265.503 100.006 265.211 99.2757C264.116 96.6478 266.087 93.8739 268.861 93.8739C269.591 93.8739 269.956 94.0929 270.175 94.8229C270.613 96.5018 271.562 97.8157 273.095 98.6917C275.504 100.006 277.256 101.831 277.84 104.604C277.84 104.75 277.913 104.896 278.132 105.188ZM302.44 101.977C301.856 100.006 300.396 98.7647 298.717 98.6187C297.476 98.5457 297.111 98.8377 297.257 100.079C297.622 103.655 297.403 107.159 296.527 110.663C295.286 115.554 292.366 118.766 287.694 120.518C284.993 121.54 282.219 122.124 279.373 122.635C278.205 122.854 277.986 123.219 278.643 124.241C279.446 125.555 280.541 126.503 281.781 127.379C285.285 129.861 286.964 129.642 289.519 126.285C290.906 124.533 292.512 123.438 294.629 122.927C296.673 122.416 298.498 121.54 300.177 120.299C302.659 118.328 303.17 115.335 301.199 113.364C300.761 112.926 300.688 112.415 301.199 111.904C301.929 111.247 302.148 110.298 302.367 109.422C302.805 106.94 303.243 104.458 302.44 101.977ZM279.811 119.496C280.176 119.861 280.687 119.934 281.124 120.007C285.139 120.591 291.344 117.452 293.169 113.802C295.14 109.86 294.994 105.845 293.461 101.904C293.461 101.831 293.315 101.831 293.169 101.831C293.023 102.415 292.877 103.072 292.731 103.655C291.344 108.473 288.57 110.517 284.117 110.298C283.387 110.225 282.73 109.933 282 110.079C282.146 110.371 282.146 110.59 281.781 110.736C281.489 111.977 281.125 113.218 280.833 114.532C281.052 114.751 280.978 114.897 280.687 114.97C280.249 116.357 279.884 117.744 279.592 119.204C279.665 119.35 279.738 119.423 279.811 119.496ZM289.738 90.4431C287.475 89.6401 286.964 90.0051 286.234 92.195C285.869 93.2899 286.234 93.5819 287.183 93.6549C290.03 93.9469 291.855 95.5528 293.169 98.0347C293.607 98.8377 294.045 99.6407 294.556 100.663C296.235 96.4288 294.045 91.976 289.738 90.4431ZM291.855 101.685C292.147 98.1807 290.03 95.6258 286.526 95.1149C285.65 94.9689 285.285 95.3338 285.212 96.0638C285.066 97.0858 285.869 96.5018 286.234 96.5748C288.789 96.8668 290.541 98.9837 289.957 101.32C289.519 103.072 288.57 104.531 287.256 105.845C286.964 106.137 286.599 106.502 286.38 106.794C286.088 107.159 285.723 107.597 286.088 108.108C286.38 108.546 286.891 108.254 287.329 108.181C289.811 107.451 290.979 105.553 291.709 103.145C291.709 102.707 291.855 102.196 291.855 101.685ZM282.657 108.181C283.022 108.254 283.241 108.035 283.533 107.816C285.139 106.283 286.672 104.677 287.84 102.78C288.278 102.05 288.497 101.32 288.643 100.517C288.789 99.4217 288.205 98.4727 287.329 98.0347C286.307 97.5238 285.796 98.3997 285.285 99.0567C284.847 99.5677 284.482 100.152 284.336 100.882C284.555 101.101 284.482 101.247 284.19 101.32C284.19 101.466 284.117 101.612 284.044 101.758C284.409 101.831 284.482 102.123 284.409 102.415C284.847 101.612 285.285 100.809 285.723 100.006C285.942 99.7137 286.234 99.3487 286.599 99.4947C287.11 99.7137 286.964 100.152 286.891 100.517C286.599 101.904 285.358 102.926 284.19 102.707C283.971 102.853 283.825 102.999 283.606 103.072C283.314 104.312 282.949 105.553 282.657 106.867C283.022 107.378 282.657 107.816 282.657 108.181ZM284.336 102.488C284.409 102.196 284.336 101.904 283.971 101.831C283.825 102.269 283.752 102.78 283.606 103.217C283.825 103.072 283.971 102.926 284.19 102.853C284.19 102.707 284.263 102.561 284.336 102.488ZM282.657 108.181C282.73 107.743 283.022 107.378 282.73 106.94C282.657 107.378 282.073 107.816 282.657 108.181ZM284.044 101.32C284.336 101.247 284.409 101.101 284.19 100.882C284.19 101.028 284.117 101.174 284.044 101.32Z" fill="#664407"/>
<path d="M278.35 105.262C278.788 103.656 278.131 102.561 277.474 101.466C276.452 99.8598 276.452 99.8598 278.204 99.2758C278.934 98.9838 279.664 98.6188 280.321 98.0349C280.467 97.8889 280.613 97.6699 280.467 97.5239C280.321 97.3049 280.102 97.4509 279.956 97.5239C279.664 97.6699 279.445 97.8889 279.153 98.0349C275.504 100.444 271.416 97.4509 270.978 94.239C270.832 93.2171 270.759 92.2681 271.124 91.2461C272 89.0562 274.409 88.1073 276.598 89.3482C277.401 89.7862 277.766 89.8592 278.423 89.1292C279.664 87.6693 281.489 87.4503 283.022 88.2533C284.628 89.1292 285.431 90.8812 284.993 92.7061C282.73 101.758 280.54 110.736 278.204 119.715C277.401 122.854 275.795 124.241 273.387 124.387C270.905 124.533 268.861 123.146 268.131 120.956C267.766 119.715 267.912 119.423 269.153 119.131C274.044 117.817 275.868 112.415 272.657 108.911C271.854 108.035 270.905 107.524 269.737 107.232C269.445 107.159 269.007 107.013 268.934 107.378C268.788 107.816 269.299 107.743 269.591 107.889C273.168 108.984 274.701 113.145 272.657 116.211C271.27 118.255 269.226 118.766 266.89 118.693C264.992 118.62 263.386 117.744 262.51 115.919C261.634 114.021 261.853 112.196 263.094 110.59C263.532 110.006 263.459 109.787 262.948 109.349C259.736 106.502 260.758 101.831 264.846 100.59C265.649 100.371 265.722 100.079 265.43 99.3488C264.335 96.7209 266.306 93.947 269.08 93.947C269.81 93.947 270.175 94.166 270.394 94.896C270.832 96.5749 271.781 97.8889 273.314 98.7648C275.723 100.079 277.474 101.904 278.058 104.678C277.985 104.824 278.131 104.897 278.35 105.262ZM302.658 102.05C302.074 100.079 300.614 98.8378 298.935 98.6918C297.695 98.6188 297.33 98.9108 297.476 100.152C297.841 103.729 297.622 107.232 296.746 110.736C295.505 115.627 292.585 118.839 287.913 120.591C285.212 121.613 282.438 122.197 279.591 122.708C278.423 122.927 278.204 123.292 278.861 124.314C279.664 125.628 280.759 126.577 282 127.453C285.504 129.934 287.183 129.715 289.738 126.358C291.125 124.606 292.731 123.511 294.848 123C296.892 122.489 298.716 121.613 300.395 120.372C302.877 118.401 303.388 115.408 301.417 113.437C300.979 112.999 300.906 112.488 301.417 111.977C302.147 111.32 302.366 110.371 302.585 109.495C302.95 107.013 303.388 104.532 302.658 102.05ZM279.956 119.569C280.321 119.934 280.832 120.007 281.27 120.08C285.285 120.664 291.49 117.525 293.315 113.875C295.286 109.933 295.14 105.919 293.607 101.977C293.607 101.904 293.461 101.904 293.315 101.904C293.169 102.488 293.023 103.145 292.877 103.729C291.49 108.546 288.716 110.59 284.263 110.371C283.533 110.298 282.876 110.006 282.146 110.152C282.292 110.444 282.292 110.663 281.927 110.809C281.635 112.05 281.27 113.291 280.978 114.605C281.197 114.824 281.124 114.97 280.832 115.043C280.394 116.43 280.029 117.817 279.737 119.277C279.883 119.35 279.956 119.496 279.956 119.569ZM289.884 90.4432C287.621 89.6402 287.11 90.0052 286.38 92.1951C286.015 93.2901 286.38 93.582 287.329 93.655C290.176 93.947 292.001 95.553 293.315 98.0349C293.753 98.8378 294.191 99.6408 294.702 100.663C296.381 96.5019 294.191 91.9761 289.884 90.4432ZM292.074 101.758C292.366 98.2538 290.249 95.6989 286.745 95.188C285.869 95.042 285.504 95.407 285.431 96.1369C285.285 97.1589 286.088 96.5749 286.453 96.6479C289.008 96.9399 290.76 99.0568 290.176 101.393C289.738 103.145 288.789 104.605 287.475 105.919C287.183 106.211 286.818 106.575 286.599 106.867C286.307 107.232 285.942 107.67 286.307 108.181C286.599 108.619 287.11 108.327 287.548 108.254C290.03 107.524 291.198 105.627 291.928 103.218C291.928 102.78 292.001 102.269 292.074 101.758ZM282.803 108.254C283.168 108.327 283.387 108.108 283.679 107.889C285.285 106.356 286.818 104.751 287.986 102.853C288.424 102.123 288.643 101.393 288.789 100.59C288.935 99.4948 288.351 98.5458 287.475 98.1078C286.453 97.5969 285.942 98.4728 285.431 99.1298C284.993 99.6408 284.628 100.225 284.482 100.955C284.701 101.174 284.628 101.32 284.336 101.393C284.336 101.539 284.263 101.685 284.19 101.831C284.555 101.904 284.628 102.196 284.555 102.488C284.993 101.685 285.431 100.882 285.869 100.079C286.088 99.7868 286.38 99.4218 286.745 99.5678C287.256 99.7868 287.11 100.225 287.037 100.59C286.745 101.977 285.504 102.999 284.336 102.78C284.117 102.926 283.971 103.072 283.752 103.145C283.46 104.386 283.095 105.627 282.803 106.94C283.168 107.451 282.876 107.816 282.803 108.254ZM284.555 102.488C284.628 102.196 284.555 101.904 284.19 101.831C284.044 102.269 283.971 102.78 283.825 103.218C284.044 103.072 284.19 102.926 284.409 102.853C284.409 102.78 284.482 102.634 284.555 102.488ZM282.803 108.254C282.876 107.816 283.168 107.451 282.876 107.013C282.803 107.451 282.292 107.816 282.803 108.254ZM284.263 101.393C284.555 101.32 284.628 101.174 284.409 100.955C284.336 101.101 284.336 101.247 284.263 101.393Z" fill="#FFD277"/>
<path d="M141.409 72.7049C161.485 72.7049 177.761 56.4293 177.761 36.3524C177.761 16.2755 161.485 0 141.409 0C121.332 0 105.056 16.2755 105.056 36.3524C105.056 56.4293 121.332 72.7049 141.409 72.7049Z" fill="url(#paint21_linear)"/>
<path d="M141.409 65.1132C157.293 65.1132 170.169 52.2366 170.169 36.3524C170.169 20.4683 157.293 7.59167 141.409 7.59167C125.525 7.59167 112.648 20.4683 112.648 36.3524C112.648 52.2366 125.525 65.1132 141.409 65.1132Z" fill="#E5B35A"/>
<path d="M136.591 33.2136C137.029 31.6076 136.372 30.5127 135.715 29.4177C134.693 27.8118 134.693 27.8118 136.445 27.2278C137.175 26.9358 137.905 26.5709 138.562 25.9869C138.708 25.8409 138.854 25.6219 138.708 25.4759C138.562 25.2569 138.343 25.4029 138.197 25.4759C137.905 25.6219 137.686 25.8409 137.394 25.9869C133.744 28.3958 129.656 25.4029 129.218 22.191C129.072 21.1691 128.999 20.2201 129.364 19.1982C130.24 17.0083 132.649 16.0593 134.839 17.3003C135.642 17.7382 136.007 17.8112 136.664 17.0813C137.905 15.6213 139.729 15.4023 141.262 16.2053C142.868 17.0813 143.671 18.8332 143.233 20.6581C140.97 29.7097 138.781 38.6883 136.445 47.6669C135.642 50.8058 134.036 52.1927 131.627 52.3387C129.145 52.4847 127.101 51.0978 126.371 48.9079C126.006 47.6669 126.152 47.375 127.393 47.083C132.284 45.769 134.109 40.3673 130.897 36.8634C130.094 35.9874 129.145 35.4765 127.977 35.1845C127.685 35.1115 127.247 34.9655 127.174 35.3305C127.028 35.7685 127.539 35.6955 127.831 35.8415C131.408 36.9364 132.941 41.0972 130.897 44.1631C129.51 46.207 127.466 46.718 125.13 46.645C123.232 46.572 121.626 45.696 120.75 43.8711C119.874 41.9732 120.093 40.1483 121.334 38.5423C121.772 37.9584 121.699 37.7394 121.188 37.3014C117.976 34.4545 118.998 29.7827 123.086 28.5418C123.889 28.3228 123.962 28.0308 123.67 27.3008C122.575 24.6729 124.546 21.8991 127.32 21.8991C128.05 21.8991 128.415 22.118 128.634 22.848C129.072 24.5269 130.021 25.8409 131.554 26.7168C133.963 28.0308 135.715 29.8557 136.299 32.6296C136.226 32.7026 136.372 32.8486 136.591 33.2136ZM160.899 30.0017C160.315 28.0308 158.855 26.7898 157.176 26.6439C155.935 26.5709 155.57 26.8628 155.716 28.1038C156.081 31.6806 155.862 35.1845 154.986 38.6883C153.745 43.5791 150.825 46.791 146.153 48.5429C143.452 49.5649 140.678 50.1488 137.832 50.6598C136.664 50.8788 136.445 51.2438 137.102 52.2657C137.905 53.5797 139 54.5286 140.24 55.4046C143.744 57.8865 145.423 57.6675 147.978 54.3097C149.365 52.5577 150.971 51.4628 153.088 50.9518C155.132 50.4408 156.957 49.5649 158.636 48.3239C161.118 46.353 161.629 43.3601 159.658 41.3892C159.22 40.9512 159.147 40.4403 159.658 39.9293C160.388 39.2723 160.607 38.3233 160.826 37.4474C161.191 34.8925 161.629 32.4836 160.899 30.0017ZM138.27 47.5209C138.635 47.8859 139.146 47.9589 139.583 48.0319C143.598 48.6159 149.803 45.477 151.628 41.8272C153.599 37.8854 153.453 33.8705 151.92 29.9287C151.92 29.8557 151.774 29.8557 151.628 29.8557C151.482 30.4397 151.336 31.0967 151.19 31.6806C149.803 36.4984 147.029 38.5423 142.576 38.3233C141.846 38.2503 141.189 37.9584 140.459 38.1044C140.605 38.3963 140.605 38.6153 140.24 38.7613C139.948 40.0023 139.583 41.2432 139.292 42.5572C139.51 42.7762 139.437 42.9221 139.146 42.9951C138.708 44.3821 138.343 45.769 138.051 47.229C138.124 47.302 138.197 47.375 138.27 47.5209ZM148.124 18.3952C145.861 17.5922 145.35 17.9572 144.62 20.1471C144.255 21.2421 144.62 21.5341 145.569 21.6071C148.416 21.8991 150.241 23.505 151.555 25.9869C151.993 26.7898 152.431 27.5928 152.942 28.6148C154.694 24.3809 152.431 19.9281 148.124 18.3952ZM150.314 29.7097C150.606 26.2059 148.489 23.651 144.985 23.14C144.109 22.994 143.744 23.359 143.671 24.089C143.525 25.1109 144.328 24.5269 144.693 24.5999C147.248 24.8919 149 27.0088 148.416 29.3447C147.978 31.0967 147.029 32.5566 145.715 33.8705C145.423 34.1625 145.058 34.5275 144.839 34.8195C144.547 35.1845 144.182 35.6225 144.547 36.1334C144.839 36.5714 145.35 36.2794 145.788 36.2064C148.27 35.4765 149.438 33.5786 150.168 31.1697C150.168 30.7317 150.241 30.2207 150.314 29.7097ZM141.043 36.2064C141.408 36.2794 141.627 36.0604 141.919 35.8415C143.525 34.3085 145.058 32.7026 146.226 30.8047C146.664 30.0747 146.883 29.3447 147.029 28.5418C147.175 27.4468 146.591 26.4979 145.715 26.0599C144.693 25.5489 144.182 26.4249 143.671 27.0818C143.233 27.5928 142.868 28.1768 142.722 28.9068C142.941 29.1257 142.868 29.2717 142.576 29.3447C142.576 29.4907 142.503 29.6367 142.43 29.7827C142.795 29.8557 142.868 30.1477 142.795 30.4397C143.233 29.6367 143.671 28.8338 144.109 28.0308C144.328 27.7388 144.62 27.3738 144.985 27.5198C145.496 27.7388 145.35 28.1768 145.277 28.5418C144.985 29.9287 143.744 30.9507 142.576 30.7317C142.357 30.8777 142.211 31.0237 141.992 31.0967C141.7 32.3376 141.335 33.5786 141.043 34.8925C141.408 35.4035 141.116 35.7685 141.043 36.2064ZM142.795 30.4397C142.868 30.1477 142.795 29.8557 142.43 29.7827C142.284 30.2207 142.211 30.7317 142.065 31.1697C142.284 31.0237 142.43 30.8777 142.649 30.8047C142.649 30.6587 142.722 30.5857 142.795 30.4397ZM141.043 36.2064C141.116 35.7685 141.408 35.4035 141.116 34.9655C141.043 35.4035 140.532 35.7685 141.043 36.2064ZM142.503 29.3447C142.795 29.2717 142.868 29.1257 142.649 28.9068C142.576 28.9797 142.576 29.1987 142.503 29.3447Z" fill="#664407"/>
<path d="M136.737 33.2136C137.175 31.6076 136.518 30.5127 135.861 29.4177C134.839 27.8118 134.839 27.8118 136.591 27.2278C137.321 26.9358 138.051 26.5709 138.708 25.9869C138.854 25.8409 139 25.6219 138.854 25.4759C138.708 25.2569 138.489 25.4029 138.343 25.4759C138.051 25.6219 137.832 25.8409 137.54 25.9869C133.89 28.3958 129.802 25.4029 129.364 22.191C129.218 21.1691 129.145 20.2201 129.51 19.1982C130.386 17.0083 132.795 16.0593 134.985 17.3003C135.788 17.7382 136.153 17.8112 136.81 17.0813C138.051 15.6213 139.876 15.4023 141.409 16.2053C143.015 17.0813 143.818 18.8332 143.38 20.6581C141.117 29.7097 138.927 38.6883 136.591 47.6669C135.788 50.8058 134.182 52.1927 131.773 52.3387C129.291 52.4847 127.248 51.0978 126.518 48.9079C126.153 47.6669 126.299 47.375 127.539 47.083C132.43 45.769 134.255 40.3673 131.043 36.8634C130.24 35.9874 129.291 35.4765 128.123 35.1845C127.831 35.1115 127.393 34.9655 127.321 35.3305C127.175 35.7685 127.685 35.6955 127.977 35.8415C131.554 36.9364 133.087 41.0972 131.043 44.1631C129.656 46.207 127.612 46.718 125.277 46.645C123.379 46.572 121.773 45.696 120.897 43.8711C120.021 41.9732 120.24 40.1483 121.481 38.5423C121.919 37.9584 121.846 37.7394 121.335 37.3014C118.123 34.4545 119.145 29.7827 123.233 28.5418C124.036 28.3228 124.109 28.0308 123.817 27.3008C122.722 24.6729 124.693 21.8991 127.466 21.8991C128.196 21.8991 128.561 22.118 128.78 22.848C129.218 24.5269 130.167 25.8409 131.7 26.7168C134.109 28.0308 135.861 29.8557 136.445 32.6296C136.445 32.7756 136.518 32.9216 136.737 33.2136ZM161.045 30.0017C160.461 28.0308 159.001 26.7898 157.322 26.6439C156.081 26.5709 155.716 26.8628 155.862 28.1038C156.227 31.6806 156.008 35.1845 155.132 38.6883C153.891 43.5791 150.971 46.791 146.3 48.5429C143.599 49.5649 140.825 50.1488 137.978 50.6598C136.81 50.8788 136.591 51.2438 137.248 52.2657C138.051 53.5797 139.146 54.5286 140.387 55.4046C143.891 57.8865 145.57 57.6675 148.125 54.3097C149.512 52.5577 151.117 51.4628 153.234 50.9518C155.278 50.4408 157.103 49.5649 158.782 48.3239C161.264 46.353 161.775 43.3601 159.804 41.3892C159.366 40.9512 159.293 40.4403 159.804 39.9293C160.534 39.2723 160.753 38.3233 160.972 37.4474C161.41 34.9655 161.848 32.4836 161.045 30.0017ZM138.416 47.5209C138.781 47.8859 139.292 47.9589 139.73 48.0319C143.745 48.6159 149.95 45.477 151.774 41.8272C153.745 37.8854 153.599 33.8705 152.066 29.9287C152.066 29.8557 151.92 29.8557 151.774 29.8557C151.628 30.4397 151.482 31.0967 151.336 31.6806C149.95 36.4984 147.176 38.5423 142.723 38.3233C141.993 38.2503 141.336 37.9584 140.606 38.1044C140.752 38.3963 140.752 38.6153 140.387 38.7613C140.095 40.0023 139.73 41.2432 139.438 42.5572C139.657 42.7762 139.584 42.9221 139.292 42.9951C138.854 44.3821 138.489 45.769 138.197 47.229C138.27 47.375 138.343 47.448 138.416 47.5209ZM148.344 18.4682C146.081 17.6652 145.57 18.0302 144.84 20.2201C144.475 21.3151 144.84 21.6071 145.789 21.6801C148.636 21.9721 150.461 23.578 151.774 26.0599C152.212 26.8628 152.65 27.6658 153.161 28.6878C154.84 24.4539 152.65 20.0011 148.344 18.4682ZM150.46 29.7097C150.752 26.2059 148.636 23.651 145.132 23.14C144.256 22.994 143.891 23.359 143.818 24.089C143.672 25.1109 144.475 24.5269 144.84 24.5999C147.395 24.8919 149.147 27.0088 148.563 29.3447C148.125 31.0967 147.176 32.5566 145.862 33.8705C145.57 34.1625 145.205 34.5275 144.986 34.8195C144.694 35.1845 144.329 35.6225 144.694 36.1334C144.986 36.5714 145.497 36.2794 145.935 36.2064C148.417 35.4765 149.585 33.5786 150.315 31.1697C150.315 30.7317 150.46 30.2207 150.46 29.7097ZM141.263 36.2794C141.628 36.3524 141.847 36.1334 142.139 35.9144C143.745 34.3815 145.278 32.7756 146.446 30.8777C146.884 30.1477 147.103 29.4177 147.249 28.6148C147.395 27.5198 146.811 26.5709 145.935 26.1329C144.913 25.6219 144.402 26.4979 143.891 27.1548C143.453 27.6658 143.088 28.2498 142.942 28.9797C143.161 29.1987 143.088 29.3447 142.796 29.4177C142.796 29.5637 142.723 29.7097 142.65 29.8557C143.015 29.9287 143.088 30.2207 143.015 30.5127C143.453 29.7097 143.891 28.9068 144.329 28.1038C144.548 27.8118 144.84 27.4468 145.205 27.5928C145.716 27.8118 145.57 28.2498 145.497 28.6148C145.205 30.0017 143.964 31.0237 142.796 30.8047C142.577 30.9507 142.431 31.0967 142.212 31.1697C141.92 32.4106 141.555 33.6515 141.263 34.9655C141.628 35.4035 141.263 35.8415 141.263 36.2794ZM142.942 30.5127C143.015 30.2207 142.942 29.9287 142.577 29.8557C142.431 30.2937 142.358 30.8047 142.212 31.2427C142.431 31.0967 142.577 30.9507 142.796 30.8777C142.869 30.7317 142.869 30.5857 142.942 30.5127ZM141.263 36.2064C141.336 35.7685 141.628 35.4035 141.336 34.9655C141.263 35.4035 140.752 35.8415 141.263 36.2064ZM142.723 29.3447C143.015 29.2717 143.088 29.1257 142.869 28.9068C142.796 29.0527 142.723 29.1987 142.723 29.3447Z" fill="#FFD277"/>
<path d="M233.75 78.9826C243.466 78.9826 251.342 71.1063 251.342 61.3904C251.342 51.6745 243.466 43.7982 233.75 43.7982C224.034 43.7982 216.158 51.6745 216.158 61.3904C216.158 71.1063 224.034 78.9826 233.75 78.9826Z" fill="url(#paint22_linear)"/>
<path d="M233.75 75.3329C241.45 75.3329 247.692 69.0906 247.692 61.3905C247.692 53.6903 241.45 47.4481 233.75 47.4481C226.05 47.4481 219.808 53.6903 219.808 61.3905C219.808 69.0906 226.05 75.3329 233.75 75.3329Z" fill="#E5B35A"/>
<path d="M231.122 62.2663C230.611 61.6094 230.027 61.5364 229.443 61.4634C228.567 61.3174 228.567 61.3904 228.859 60.5144C229.005 60.1494 229.078 59.7844 229.005 59.3465C229.005 59.2735 228.932 59.1275 228.859 59.1275C228.713 59.1275 228.713 59.2005 228.713 59.3465C228.713 59.4924 228.713 59.6384 228.64 59.7844C228.421 61.9013 226.085 62.4853 224.698 61.7553C224.26 61.5364 223.895 61.2444 223.603 60.8064C223.019 59.7844 223.457 58.6165 224.552 58.1785C224.917 58.0325 225.063 57.8865 224.99 57.4485C224.844 56.5726 225.282 55.7696 226.085 55.4776C226.888 55.1126 227.837 55.3316 228.348 56.0616C231.049 59.6384 233.75 63.2153 236.451 66.7921C237.4 68.0331 237.473 69.055 236.743 70.004C236.013 70.953 234.918 71.3179 233.823 70.9529C233.239 70.734 233.166 70.588 233.458 70.004C234.48 67.7411 232.947 65.4052 230.684 65.5512C230.1 65.5512 229.589 65.7702 229.151 66.1352C229.005 66.2082 228.859 66.3541 228.932 66.5001C229.078 66.6461 229.224 66.5001 229.297 66.4271C230.83 65.4052 232.801 66.1352 233.312 67.8141C233.677 68.909 233.239 69.931 232.509 70.734C231.852 71.3909 231.049 71.7559 230.1 71.5369C229.151 71.3179 228.494 70.661 228.275 69.712C228.202 69.42 228.056 69.347 227.764 69.347C225.72 69.712 224.26 67.8871 225.063 65.9892C225.209 65.6242 225.136 65.4782 224.771 65.4052C223.457 65.0402 223.019 63.4343 223.895 62.4123C224.114 62.1203 224.333 62.0473 224.625 62.1933C225.355 62.5583 226.158 62.5583 226.961 62.2663C228.202 61.7553 229.443 61.6824 230.611 62.2663C230.83 62.1933 230.903 62.1933 231.122 62.2663ZM237.254 52.1198C236.305 51.7548 235.429 51.9008 234.845 52.4847C234.407 52.9227 234.48 53.1417 234.918 53.5067C236.378 54.4557 237.619 55.6236 238.641 57.0106C240.101 58.9815 240.393 61.0254 239.663 63.2883C239.225 64.6022 238.568 65.8432 237.911 67.0841C237.619 67.5951 237.692 67.8141 238.276 67.8871C239.006 67.9601 239.736 67.8871 240.393 67.6681C242.363 67.0841 242.801 66.4271 242.363 64.4562C242.144 63.4343 242.217 62.4853 242.655 61.5364C243.093 60.6604 243.312 59.6384 243.312 58.6165C243.312 57.0836 242.363 55.9886 241.05 56.1346C240.758 56.1346 240.539 56.0616 240.539 55.6966C240.539 55.2586 240.247 54.8936 239.955 54.5287C239.225 53.5067 238.422 52.5577 237.254 52.1198ZM236.962 65.9892C237.181 65.9892 237.4 65.7702 237.546 65.6242C239.006 64.3102 239.663 61.0254 238.86 59.2005C237.984 57.2295 236.451 56.1346 234.48 55.4776C234.48 55.4776 234.407 55.5506 234.334 55.5506C234.48 55.7696 234.699 56.0616 234.918 56.2806C236.305 58.2515 236.232 59.9304 234.772 61.5364C234.553 61.8283 234.188 61.9743 234.042 62.2663C234.188 62.2663 234.261 62.4123 234.261 62.5583C234.626 63.0693 234.991 63.5803 235.429 64.0912C235.575 64.0912 235.648 64.1642 235.575 64.3102C235.94 64.8942 236.378 65.4782 236.816 65.9892C236.889 65.9162 236.962 65.9162 236.962 65.9892ZM229.078 53.3607C228.129 53.9447 228.056 54.2367 228.64 55.1856C228.932 55.6236 229.151 55.6236 229.443 55.2586C230.392 54.2367 231.56 54.0907 232.874 54.3097C233.312 54.3827 233.75 54.4557 234.261 54.6017C233.312 52.7767 230.976 52.1928 229.078 53.3607ZM233.969 55.9886C232.728 54.8206 231.122 54.8206 229.881 55.9886C229.589 56.2806 229.589 56.4996 229.808 56.7916C230.173 57.1565 230.173 56.6456 230.319 56.5726C231.195 55.6966 232.509 55.6966 233.239 56.6456C233.75 57.3025 234.042 58.1785 234.115 59.0545C234.115 59.2735 234.188 59.4924 234.188 59.7114C234.261 59.9304 234.334 60.2224 234.553 60.2224C234.845 60.2224 234.845 59.9304 234.918 59.7844C235.429 58.6165 235.064 57.5945 234.334 56.6456C234.334 56.3536 234.115 56.1346 233.969 55.9886ZM233.604 61.4634C233.75 61.3174 233.75 61.1714 233.75 61.0254C233.677 59.9304 233.531 58.9085 233.166 57.8865C233.02 57.5215 232.801 57.1565 232.509 56.9376C232.144 56.5726 231.633 56.4996 231.122 56.6456C230.611 56.8646 230.757 57.3025 230.903 57.7405C230.976 58.0325 231.049 58.3975 231.268 58.6165C231.414 58.6165 231.414 58.6895 231.414 58.8355C231.487 58.9085 231.487 58.9815 231.56 59.0545C231.706 58.9815 231.852 58.9815 231.925 59.1275C231.779 58.6895 231.56 58.3245 231.414 57.8865C231.341 57.7405 231.341 57.5215 231.487 57.3755C231.706 57.2295 231.852 57.4485 231.998 57.5945C232.436 58.1055 232.436 58.9085 231.998 59.2735C231.998 59.4194 231.998 59.4924 231.998 59.6384C232.363 60.1494 232.728 60.6604 233.166 61.0984C233.385 61.0984 233.458 61.3174 233.604 61.4634ZM231.925 59.0545C231.779 58.9085 231.706 58.9085 231.56 58.9815C231.706 59.2005 231.852 59.3464 231.998 59.5654C231.998 59.4194 231.998 59.3464 231.998 59.2005C231.998 59.2005 231.998 59.1275 231.925 59.0545ZM233.604 61.4634C233.458 61.3174 233.385 61.0984 233.166 61.0984C233.312 61.1714 233.312 61.5364 233.604 61.4634ZM231.414 58.8355C231.487 58.6895 231.414 58.6165 231.268 58.6165C231.341 58.6895 231.414 58.7625 231.414 58.8355Z" fill="#664407"/>
<path d="M231.195 62.1934C230.684 61.5364 230.1 61.4634 229.516 61.3904C228.64 61.2444 228.64 61.3174 228.932 60.4415C229.078 60.0765 229.151 59.7115 229.078 59.2735C229.078 59.2005 229.005 59.0545 228.932 59.0545C228.786 59.0545 228.786 59.1275 228.786 59.2735C228.786 59.4195 228.786 59.5655 228.713 59.7115C228.494 61.8284 226.158 62.4124 224.771 61.6824C224.333 61.4634 223.968 61.1714 223.677 60.7334C223.093 59.7115 223.531 58.5435 224.625 58.1056C224.99 57.9596 225.136 57.8136 225.063 57.3756C224.917 56.4996 225.355 55.6967 226.158 55.4047C226.961 55.0397 227.91 55.2587 228.421 55.9887C231.122 59.5655 233.823 63.1423 236.524 66.7192C237.473 67.9601 237.546 68.9821 236.816 69.9311C236.086 70.88 234.991 71.245 233.896 70.88C233.312 70.661 233.239 70.515 233.531 69.9311C234.553 67.6682 233.02 65.3322 230.757 65.4782C230.173 65.4782 229.662 65.6972 229.224 66.0622C229.078 66.1352 228.932 66.2812 229.005 66.4272C229.151 66.5732 229.297 66.4272 229.37 66.3542C230.903 65.3323 232.874 66.0622 233.385 67.7411C233.75 68.8361 233.312 69.8581 232.582 70.661C231.925 71.318 231.122 71.683 230.173 71.464C229.224 71.245 228.567 70.588 228.348 69.6391C228.275 69.3471 228.129 69.2741 227.837 69.2741C225.793 69.6391 224.333 67.8141 225.136 65.9162C225.282 65.5512 225.209 65.4052 224.844 65.3323C223.53 64.9673 223.093 63.3613 223.968 62.3394C224.187 62.0474 224.406 61.9744 224.698 62.1204C225.428 62.4854 226.231 62.4854 227.034 62.1934C228.275 61.6824 229.516 61.6094 230.684 62.1934C230.903 62.1934 230.976 62.1204 231.195 62.1934ZM237.327 52.0468C236.378 51.6818 235.502 51.8278 234.918 52.4118C234.48 52.8498 234.553 53.0688 234.991 53.4338C236.451 54.3827 237.692 55.5507 238.714 56.9376C240.174 58.9085 240.466 60.9524 239.736 63.2153C239.298 64.5293 238.641 65.7702 237.984 67.0112C237.692 67.5222 237.765 67.7411 238.349 67.8141C239.079 67.8871 239.809 67.8141 240.466 67.5952C242.437 67.0112 242.875 66.3542 242.437 64.3833C242.218 63.3613 242.291 62.4124 242.729 61.4634C243.167 60.5875 243.386 59.5655 243.386 58.5435C243.386 57.0106 242.437 55.9157 241.123 56.0617C240.831 56.0617 240.612 55.9887 240.612 55.6237C240.612 55.1857 240.32 54.8207 240.028 54.4557C239.298 53.4338 238.495 52.4848 237.327 52.0468ZM237.035 65.9162C237.254 65.9162 237.473 65.6972 237.619 65.5512C239.079 64.2373 239.736 60.9524 238.933 59.1275C238.057 57.1566 236.524 56.0617 234.553 55.4047C234.553 55.4047 234.48 55.4777 234.407 55.4777C234.553 55.6967 234.772 55.9887 234.991 56.2076C236.378 58.1786 236.305 59.8575 234.845 61.4634C234.626 61.7554 234.261 61.9014 234.115 62.1934C234.261 62.1934 234.334 62.3394 234.334 62.4854C234.699 62.9964 235.064 63.5073 235.502 64.0183C235.648 64.0183 235.721 64.0913 235.648 64.2373C236.013 64.8213 236.451 65.4053 236.889 65.9162C236.962 65.9162 237.035 65.9162 237.035 65.9162ZM229.151 53.3608C228.202 53.9447 228.129 54.2367 228.713 55.1857C229.005 55.6237 229.224 55.6237 229.516 55.2587C230.465 54.2367 231.633 54.0907 232.947 54.3097C233.385 54.3827 233.823 54.4557 234.334 54.6017C233.385 52.7038 231.049 52.1928 229.151 53.3608ZM234.042 55.9157C232.801 54.7477 231.195 54.7477 229.954 55.9157C229.662 56.2076 229.662 56.4266 229.881 56.7186C230.246 57.0836 230.246 56.5726 230.392 56.4996C231.268 55.6237 232.582 55.6237 233.312 56.5726C233.823 57.2296 234.115 58.1056 234.188 58.9815C234.188 59.2005 234.261 59.4195 234.261 59.6385C234.334 59.8575 234.407 60.1495 234.626 60.1495C234.918 60.1495 234.918 59.8575 234.991 59.7115C235.502 58.5435 235.137 57.5216 234.407 56.5726C234.407 56.2806 234.188 56.1346 234.042 55.9157ZM233.677 61.3904C233.823 61.2444 233.823 61.0984 233.823 60.9524C233.75 59.8575 233.604 58.8355 233.239 57.8136C233.093 57.4486 232.874 57.0836 232.582 56.8646C232.217 56.4996 231.706 56.4266 231.195 56.5726C230.684 56.7916 230.83 57.2296 230.976 57.6676C231.049 57.9596 231.122 58.3246 231.341 58.5435C231.487 58.5435 231.487 58.6165 231.487 58.7625C231.56 58.8355 231.56 58.9085 231.633 58.9815C231.779 58.9085 231.925 58.9085 231.998 59.0545C231.852 58.6165 231.633 58.2516 231.487 57.8136C231.414 57.6676 231.414 57.4486 231.56 57.3026C231.779 57.1566 231.925 57.3756 232.071 57.5216C232.509 58.0326 232.509 58.8355 232.071 59.2005C232.071 59.3465 232.071 59.4195 232.071 59.5655C232.436 60.0765 232.801 60.5875 233.239 61.0254C233.458 61.0254 233.531 61.2444 233.677 61.3904ZM231.998 58.9815C231.852 58.8355 231.779 58.8355 231.633 58.9085C231.779 59.1275 231.925 59.2735 232.071 59.4925C232.071 59.3465 232.071 59.2735 232.071 59.1275C232.071 59.1275 232.071 59.0545 231.998 58.9815ZM233.677 61.3904C233.531 61.2444 233.458 61.0254 233.239 61.0254C233.385 61.1714 233.385 61.4634 233.677 61.3904ZM231.487 58.7625C231.56 58.6165 231.487 58.5435 231.341 58.5435C231.414 58.6165 231.487 58.6895 231.487 58.7625Z" fill="#FFD277"/>
<path d="M217.764 231.254C220.021 231.254 221.851 227.79 221.851 223.516C221.851 219.243 220.021 215.779 217.764 215.779C215.506 215.779 213.676 219.243 213.676 223.516C213.676 227.79 215.506 231.254 217.764 231.254Z" fill="url(#paint23_linear)"/>
<path d="M218.202 229.648C219.734 229.648 220.976 226.903 220.976 223.516C220.976 220.13 219.734 217.385 218.202 217.385C216.67 217.385 215.428 220.13 215.428 223.516C215.428 226.903 216.67 229.648 218.202 229.648Z" fill="#E5B35A"/>
<defs>
<linearGradient id="paint0_linear" x1="203.775" y1="259.667" x2="146.338" y2="159.44" gradientUnits="userSpaceOnUse">
<stop offset="0.2288" stop-color="#4888AA"/>
<stop offset="1" stop-color="#A5BAC2"/>
</linearGradient>
<linearGradient id="paint1_linear" x1="109.422" y1="218.907" x2="229.256" y2="262.523" gradientUnits="userSpaceOnUse">
<stop offset="0.177" stop-color="#2CCD90"/>
<stop offset="1" stop-color="#005E63"/>
</linearGradient>
<linearGradient id="paint2_linear" x1="126.709" y1="240.957" x2="214.581" y2="240.957" gradientUnits="userSpaceOnUse">
<stop stop-color="#D85F4A"/>
<stop offset="1" stop-color="#4F1D25"/>
</linearGradient>
<linearGradient id="paint3_linear" x1="106.309" y1="457.888" x2="59.3679" y2="287.084" gradientUnits="userSpaceOnUse">
<stop stop-color="#ED588D"/>
<stop offset="1" stop-color="#F58279"/>
</linearGradient>
<linearGradient id="paint4_linear" x1="97.1986" y1="397.045" x2="94.3205" y2="295.337" gradientUnits="userSpaceOnUse">
<stop offset="0.2288" stop-color="#4888AA"/>
<stop offset="1" stop-color="#A5BAC2"/>
</linearGradient>
<linearGradient id="paint5_linear" x1="69.6652" y1="330.241" x2="133.636" y2="362.308" gradientUnits="userSpaceOnUse">
<stop stop-color="#D85F4A"/>
<stop offset="1" stop-color="#4F1D25"/>
</linearGradient>
<linearGradient id="paint6_linear" x1="227.944" y1="261.899" x2="319.008" y2="261.899" gradientUnits="userSpaceOnUse">
<stop stop-color="#ED588D"/>
<stop offset="1" stop-color="#F58279"/>
</linearGradient>
<linearGradient id="paint7_linear" x1="220.344" y1="267.158" x2="314.296" y2="267.158" gradientUnits="userSpaceOnUse">
<stop stop-color="#D85F4A"/>
<stop offset="1" stop-color="#4F1D25"/>
</linearGradient>
<linearGradient id="paint8_linear" x1="81.3583" y1="453.812" x2="352.988" y2="453.812" gradientUnits="userSpaceOnUse">
<stop stop-color="#76343E"/>
<stop offset="0.7628" stop-color="#A44839"/>
</linearGradient>
<linearGradient id="paint9_linear" x1="385.377" y1="68.7785" x2="388.513" y2="68.7785" gradientUnits="userSpaceOnUse">
<stop stop-color="#ED588D"/>
<stop offset="1" stop-color="#F58279"/>
</linearGradient>
<linearGradient id="paint10_linear" x1="410.755" y1="379.369" x2="343.826" y2="418.01" gradientUnits="userSpaceOnUse">
<stop offset="0.0761177" stop-color="#3E80A6"/>
<stop offset="0.9373" stop-color="#34586F"/>
</linearGradient>
<linearGradient id="paint11_linear" x1="344.866" y1="371.694" x2="344.866" y2="469.285" gradientUnits="userSpaceOnUse">
<stop offset="0.0761177" stop-color="#3E80A6"/>
<stop offset="1" stop-color="#34586F"/>
</linearGradient>
<linearGradient id="paint12_linear" x1="333.527" y1="263.507" x2="299.592" y2="265.256" gradientUnits="userSpaceOnUse">
<stop stop-color="#FFFFE3"/>
<stop offset="0.1817" stop-color="#FDCF74"/>
<stop offset="1" stop-color="#F6C266"/>
</linearGradient>
<linearGradient id="paint13_linear" x1="185.675" y1="275.395" x2="250.654" y2="251.908" gradientUnits="userSpaceOnUse">
<stop stop-color="#76343E"/>
<stop offset="0.7628" stop-color="#A44839"/>
</linearGradient>
<linearGradient id="paint14_linear" x1="200.74" y1="265.307" x2="196.441" y2="289.689" gradientUnits="userSpaceOnUse">
<stop stop-color="#76343E"/>
<stop offset="0.7628" stop-color="#A44839"/>
<stop offset="1" stop-color="#A44839"/>
</linearGradient>
<linearGradient id="paint15_linear" x1="236.557" y1="261.637" x2="231.22" y2="291.906" gradientUnits="userSpaceOnUse">
<stop stop-color="#76343E"/>
<stop offset="0.7628" stop-color="#A44839"/>
<stop offset="1" stop-color="#A44839"/>
</linearGradient>
<linearGradient id="paint16_linear" x1="213.808" y1="267.226" x2="220.236" y2="267.226" gradientUnits="userSpaceOnUse">
<stop offset="0.3944" stop-color="#DE5F33"/>
<stop offset="1" stop-color="#EF864B"/>
</linearGradient>
<linearGradient id="paint17_linear" x1="214.146" y1="231.249" x2="220.981" y2="231.249" gradientUnits="userSpaceOnUse">
<stop offset="0.3944" stop-color="#EC7933"/>
<stop offset="1" stop-color="#EFA24B"/>
</linearGradient>
<linearGradient id="paint18_linear" x1="194.814" y1="143.256" x2="231.979" y2="174.442" gradientUnits="userSpaceOnUse">
<stop stop-color="#FFFFE3"/>
<stop offset="0.1817" stop-color="#FDCF74"/>
<stop offset="1" stop-color="#F6C266"/>
</linearGradient>
<linearGradient id="paint19_linear" x1="242.049" y1="198.221" x2="257.429" y2="211.127" gradientUnits="userSpaceOnUse">
<stop stop-color="#FFFFE3"/>
<stop offset="0.1817" stop-color="#FDCF74"/>
<stop offset="1" stop-color="#F6C266"/>
</linearGradient>
<linearGradient id="paint20_linear" x1="261.621" y1="78.9859" x2="304.356" y2="137.826" gradientUnits="userSpaceOnUse">
<stop stop-color="#FFFFE3"/>
<stop offset="0.1817" stop-color="#FDCF74"/>
<stop offset="1" stop-color="#F6C266"/>
</linearGradient>
<linearGradient id="paint21_linear" x1="120.052" y1="6.95771" x2="162.786" y2="65.7983" gradientUnits="userSpaceOnUse">
<stop stop-color="#FFFFE3"/>
<stop offset="0.1817" stop-color="#FDCF74"/>
<stop offset="1" stop-color="#F6C266"/>
</linearGradient>
<linearGradient id="paint22_linear" x1="216.2" y1="60.4766" x2="251.336" y2="62.2874" gradientUnits="userSpaceOnUse">
<stop stop-color="#FFFFE3"/>
<stop offset="0.1817" stop-color="#FDCF74"/>
<stop offset="1" stop-color="#F6C266"/>
</linearGradient>
<linearGradient id="paint23_linear" x1="214.277" y1="217.391" x2="221.31" y2="229.571" gradientUnits="userSpaceOnUse">
<stop stop-color="#FFD277"/>
<stop offset="1" stop-color="#F6C266"/>
</linearGradient>
</defs>
</svg>
